<?xml version="1.0" encoding="UTF-8"?>
<svg width="151px" height="151px" viewBox="0 0 151 151" version="1.1" xmlns="http://www.w3.org/2000/svg" xmlns:xlink="http://www.w3.org/1999/xlink">
    <!-- Generator: Sketch 42 (36781) - http://www.bohemiancoding.com/sketch -->
    <title>ecovillage-4c</title>
    <desc>Created with Sketch.</desc>
    <defs>
        <polygon id="path-1" points="0 150.933431 150.944876 150.933431 150.944876 0.0551240876 0 0.0551240876"></polygon>
    </defs>
    <g id="LLP" stroke="none" stroke-width="1" fill="none" fill-rule="evenodd">
        <g id="ecovillage-4c">
            <g id="Group-4">
                <mask id="mask-2" fill="white">
                    <use xlink:href="#path-1"></use>
                </mask>
                <g id="Clip-2"></g>
                <path d="M38.1675328,140.14254 L112.778453,140.14254 L150.082803,75.5270073 L112.778453,10.9125839 L38.1675328,10.9125839 L0.862072993,75.5270073 L38.1675328,140.14254 Z M113.210044,140.890336 L37.7359416,140.890336 L37.6283212,140.702832 L0,75.5270073 L37.7359416,10.1658978 L113.210044,10.1658978 L150.944876,75.5270073 L150.838365,75.7145109 L113.210044,140.890336 L113.210044,140.890336 Z" id="Fill-1" fill="#FBCE20" mask="url(#mask-2)"></path>
                <path d="M10.7343066,112.618336 L75.2255766,150.136818 L139.963153,113.047708 L140.211679,38.4367883 L75.7204088,0.91719708 L10.9817226,38.0085255 L10.7343066,112.618336 Z M75.2222482,151 L9.98540146,113.047708 L9.98651095,112.831358 L10.2372555,37.5747153 L10.4236496,37.4670949 L75.7237372,0.0551240876 L140.958365,38.0085255 L140.958365,38.2237664 L140.70873,113.480409 L75.2222482,151 L75.2222482,151 Z" id="Fill-3" fill="#FBCE20" mask="url(#mask-2)"></path>
            </g>
            <path d="M75.0005537,14 C41.364931,14 14,41.3881848 14,75.0537523 C14,107.540094 39.48472,134.174638 71.4948129,136 L65.4300807,130.804313 C38.8048322,126.238138 18.473529,102.985002 18.473529,75.0537523 C18.473529,43.857466 43.8309084,18.4764033 75.0005537,18.4764033 C106.170199,18.4764033 131.527578,43.857466 131.527578,75.0537523 C131.527578,102.056251 112.525046,124.686525 87.2053151,130.287848 L81.9566697,135.698544 C112.326838,132.230689 136,106.363085 136,75.0537523 C136,41.3881848 108.635069,14 75.0005537,14" id="Fill-5" fill="#9EC83E"></path>
            <polyline id="Fill-6" fill="#9EC83E" points="41 52.8007561 38.1138863 58 31 54.1311909 33.8460128 49 34.6995875 49.4638941 32.3806141 53.642344 34.5598075 54.8287335 36.6989001 50.973535 37.5513291 51.4362949 35.4122365 55.2926276 37.7907883 56.5856333 40.147571 52.3379962 41 52.8007561"></polyline>
            <path d="M40.2624154,44.2628717 C39.0158856,43.603562 38.0892911,44.3296937 37.6066206,44.9121581 C36.6977387,46.0080378 36.7696965,47.5716709 38.3560883,48.9003136 C39.7742097,50.0886303 41.2842155,50.4951303 42.5285312,48.9938643 C42.9691341,48.4604026 43.4794807,47.3288846 42.3093368,45.8766213 L42.965813,45.0825541 C44.9607035,47.3255435 43.5226554,49.2678342 43.1462609,49.7244507 C42.0071143,51.0998688 39.9989393,51.705721 37.6818994,49.7656576 C35.8276034,48.2120477 35.4246399,46.0715186 36.8848289,44.306306 C38.1778545,42.7460139 39.8140632,42.7415591 40.9188915,43.4688045 L40.2624154,44.2628717" id="Fill-7" fill="#9EC83E"></path>
            <path d="M45.03614,37.5736834 C43.7147554,38.6026596 43.7454343,40.2455808 44.8816497,41.6498053 C46.0189609,43.0551051 47.6416562,43.4561585 48.9630409,42.4271823 C50.2855211,41.3971309 50.2548422,39.7542097 49.1175311,38.3499852 C47.9813156,36.9446854 46.3575246,36.543632 45.03614,37.5736834 Z M49.5415575,43.1411219 C47.2724136,44.9109179 45.0777757,43.5991614 44.0346926,42.3089092 C42.9927052,41.0218826 42.1873838,38.6263142 44.4576233,36.8586686 C46.7278629,35.0888726 48.9214052,36.4017043 49.9644882,37.6898061 C51.0075713,38.9789832 51.8128928,41.3724011 49.5415575,43.1411219 L49.5415575,43.1411219 Z" id="Fill-8" fill="#9EC83E"></path>
            <polyline id="Fill-9" fill="#9EC83E" points="53.8721897 31.5696489 54.8972898 31 56 39.4620612 55.0320296 40 49 34.2729332 50.0164767 33.7078143 54.9846012 38.6862967 55.0040037 38.6761042 53.8721897 31.5696489"></polyline>
            <polyline id="Fill-10" fill="#9EC83E" points="62 36.6389603 60.8873846 37 58 29.3621822 59.1113846 29 62 36.6389603"></polyline>
            <polyline id="Fill-11" fill="#9EC83E" points="65.1721992 34.8667413 68.8360996 34.1243001 69 35.0571109 64.3589212 36 63 28.1970885 63.9761411 28 65.1721992 34.8667413"></polyline>
            <polyline id="Fill-12" fill="#9EC83E" points="73.0933768 34.0358049 76.9934853 34.0031012 77 34.96053 72.0597177 35 72 27.0090217 73.0401737 27 73.0933768 34.0358049"></polyline>
            <path d="M84.3169275,31.5932115 L83.8379861,28.186423 L83.8153945,28.1822454 L81.8770373,31.1503916 L84.3169275,31.5932115 Z M81.3630789,31.9587467 L80.0934323,33.924282 L79,33.7248042 L83.4991125,27 L84.7021139,27.2193211 L86,35 L84.8399225,34.7890339 L84.5146038,32.5342037 L81.3630789,31.9587467 L81.3630789,31.9587467 Z" id="Fill-13" fill="#9EC83E"></path>
            <path d="M92.180358,33.8429097 L95.5097316,35.1549842 L93.8206835,39 L93.1536487,38.7362664 L93.3206974,37.7099032 C92.5040149,38.1868215 91.3601952,38.251656 90.3231011,37.8439678 C89.0238334,37.3307862 88.5876506,36.6318922 88.3544785,36.1165129 C87.6491617,34.617627 88.1584282,33.3725848 88.4925257,32.612153 C89.2628058,30.8605224 91.2488294,29.3297688 93.7220784,30.3033853 C95.1385122,30.8627202 96.3786169,32.2440248 95.8925516,33.9440075 L94.8983797,33.5528027 C95.1211113,32.1714981 94.1257794,31.4726041 93.2905359,31.1451349 C91.9274648,30.6066789 90.3532627,31.1967828 89.5272996,33.0791812 C88.8857862,34.5407047 88.7338182,36.2428852 90.7511634,37.0373826 C91.1316633,37.1879305 91.7627362,37.3901263 92.5086551,37.1901283 C93.3937813,36.9516692 93.8438847,36.3780487 94.1826224,35.606628 L91.8149389,34.6736704 L92.180358,33.8429097" id="Fill-14" fill="#9EC83E"></path>
            <polyline id="Fill-15" fill="#9EC83E" points="99.7192727 43 95 39.6598477 99.3429091 33 104 36.2958291 103.478545 37.093647 99.6865455 34.4081146 98.3567273 36.4492556 101.855273 38.9256734 101.333818 39.7234913 97.8352727 37.245937 96.3832727 39.4723264 100.239636 42.2021821 99.7192727 43"></polyline>
            <path d="M48,63 C53.2230946,64.2005429 58.1226153,66.1895019 62.5378683,69.3297278 C67.3258872,72.737612 70.9278329,77.0559826 72.3423755,83.0038213 C73.0113863,85.8215133 73.1961295,88.6728025 72.7752648,91.5520895 C72.5752175,92.9206188 72.2997424,93.1166029 70.7693254,92.9497364 C63.3216604,92.1355623 57.6744217,88.4421012 53.8035599,81.8659933 C50.9252828,76.9753491 49.2090294,71.6658587 48.2404941,66.0741512 C48.1869295,65.7639363 48.0808935,65.4626807 48,65.1569455 L48,63" id="Fill-16" fill="#9EC83E"></path>
            <path d="M102,62.6599077 C101.539565,64.742101 101.380644,66.8798492 100.837482,68.9498205 C99.4235206,74.3397457 97.0353516,79.0852355 92.3928993,82.3396348 C89.2199218,84.5651595 85.7236599,85.8618082 81.8486,85.9973619 C81.2205356,86.0184727 80.6621351,85.928474 80.5402231,85.1495959 C79.8174591,80.5196601 79.5061481,75.921946 81.6689975,71.54534 C82.5245585,69.815364 83.7088465,68.3676063 85.3318,67.3276207 C90.8254593,63.8098917 96.2451007,60.179942 101.48514,56.2777739 C101.639707,56.16222 101.826929,56.0922209 102,56 L102,62.6599077" id="Fill-17" fill="#9EC83E"></path>
            <path d="M62.7490615,40 C66.6273784,42.3156863 70.1348648,45.0675806 72.9052542,48.6062074 C77.6279237,54.6374519 78.3079699,61.077085 74.7240353,67.8739191 C74.028015,69.1914455 73.8112217,69.2615504 72.4636806,68.5549378 C66.7243649,65.5448795 63.7600026,60.7298989 62.7057029,54.5640087 C61.8761835,49.7145321 61.8476581,44.8706193 62.2607062,40 L62.7490615,40" id="Fill-18" fill="#9EC83E"></path>
            <path d="M78.1948881,137 C75.2118631,134.110178 74.5970663,130.302776 74.1861058,126.423515 C73.5165142,120.097745 74.7833683,113.95549 75.9274823,107.797758 C76.7855677,103.183329 77.2414599,98.5224675 77.2326927,93.8207021 C77.2261173,89.4539084 76.1510448,85.2363596 75.5099464,80.9569018 C75.1022737,78.2318015 74.5718607,75.5232839 74.3833668,72.7683346 C74.3669284,72.5129601 74.2167909,72.2255255 74.496244,72 C74.8524097,72.0420097 74.8677522,72.3637152 74.953232,72.6002959 C77.5614611,79.728672 79.4661258,86.9930267 79.9165385,94.6421015 C80.2836632,100.887169 79.3806461,106.974148 78.3603682,113.069971 C77.4540634,118.491428 77.0595414,123.898514 77.6370778,129.412834 C77.9033802,131.961052 78.529136,134.445149 78.663931,137 L78.1948881,137" id="Fill-19" fill="#9EC83E"></path>
            <path d="M65.8421681,121 C44.494019,116.350278 29,97.0147139 29,75.0253356 C29,69.8819068 29.8200638,64.8261249 31.4381171,60 L32.1444978,60.2385326 C30.5518301,64.9881052 29.7450109,69.9640064 29.7450109,75.0253356 C29.7450109,96.6652359 44.9917967,115.692372 66,120.26776 L65.8421681,121" id="Fill-20" fill="#9EC83E"></path>
            <polyline id="Fill-21" fill="#9EC83E" points="64.9486748 118 69 121.942857 64 124 64.9486748 118"></polyline>
            <path d="M82.0951122,122 L82,121.253375 C104.948587,118.305879 122.252374,98.477977 122.252374,75.1309094 C122.252374,63.8490749 118.193515,52.9695264 110.822319,44.4970069 L111.384144,44 C118.873678,52.6107008 123,63.666319 123,75.1309094 C123,98.8557468 105.414194,119.004586 82.0951122,122" id="Fill-22" fill="#9EC83E"></path>
            <polyline id="Fill-23" fill="#9EC83E" points="109.200124 46 108 41 113 42.476394 109.200124 46"></polyline>
        </g>
    </g>
</svg>