<?xml version="1.0" encoding="UTF-8"?>
<svg width="142px" height="142px" viewBox="0 0 142 142" version="1.1" xmlns="http://www.w3.org/2000/svg" xmlns:xlink="http://www.w3.org/1999/xlink">
    <!-- Generator: Sketch 42 (36781) - http://www.bohemiancoding.com/sketch -->
    <title>emerging-4c</title>
    <desc>Created with Sketch.</desc>
    <defs>
        <polygon id="path-1" points="0.06 142 141.168 142 141.168 0.832 0.06 0.832"></polygon>
    </defs>
    <g id="LLP" stroke="none" stroke-width="1" fill="none" fill-rule="evenodd">
        <g id="emerging-4c">
            <g id="Group-3">
                <mask id="mask-2" fill="white">
                    <use xlink:href="#path-1"></use>
                </mask>
                <g id="Clip-2"></g>
                <path d="M70.584,138.735 C33.465,138.735 3.266,108.536 3.266,71.416 C3.266,34.297 33.465,4.097 70.584,4.097 C107.704,4.097 137.903,34.297 137.903,71.416 C137.903,108.536 107.704,138.735 70.584,138.735 Z M70.584,0.832 C31.664,0.832 0,32.496 0,71.416 C0,110.336 31.664,142 70.584,142 C109.505,142 141.168,110.336 141.168,71.416 C141.168,32.496 109.505,0.832 70.584,0.832 L70.584,0.832 Z" id="Fill-1" fill="#1E427B" mask="url(#mask-2)"></path>
            </g>
            <polyline id="Fill-4" fill="#1E427B" points="48.364 21.541 43.826 23.808 40.753 17.66 45.231 15.422 45.6 16.159 41.952 17.981 42.894 19.865 46.259 18.184 46.627 18.92 43.262 20.602 44.29 22.657 47.996 20.804 48.364 21.541"></polyline>
            <path d="M55.834,18.945 L54.61,15.076 C54.549,14.884 54.305,14.048 54.111,13.437 L54.093,13.442 L53.991,19.528 L53.115,19.804 L49.534,14.894 L49.516,14.9 C49.706,15.503 49.987,16.327 50.047,16.519 L51.271,20.388 L50.413,20.659 L48.341,14.108 L49.61,13.706 L53.233,18.653 L53.251,18.648 L53.359,12.52 L54.619,12.122 L56.691,18.673 L55.834,18.945" id="Fill-5" fill="#1E427B"></path>
            <polyline id="Fill-6" fill="#1E427B" points="64.254 17.43 59.235 18.171 58.232 11.373 63.183 10.642 63.304 11.456 59.27 12.052 59.577 14.134 63.297 13.585 63.419 14.399 59.697 14.949 60.034 17.222 64.134 16.616 64.254 17.43"></polyline>
            <path d="M67.632,13.528 L69.787,13.537 C70.466,13.539 71.185,13.37 71.188,12.355 C71.193,11.293 70.417,11.203 69.958,11.202 L67.641,11.193 L67.632,13.528 Z M67.618,17.271 L66.691,17.268 L66.715,10.395 L69.893,10.406 C71.024,10.411 72.152,10.808 72.146,12.263 C72.143,13.278 71.625,13.649 71.184,13.906 C71.575,14.07 71.966,14.244 72.001,15.201 L72.054,16.446 C72.062,16.829 72.109,16.973 72.396,17.136 L72.396,17.289 L71.256,17.285 C71.124,16.864 71.1,15.82 71.1,15.562 C71.102,14.997 70.99,14.336 69.879,14.332 L67.629,14.323 L67.618,17.271 L67.618,17.271 Z" id="Fill-7" fill="#1E427B"></path>
            <path d="M78.094,14.314 L81.07,14.792 L80.488,18.419 L79.892,18.323 L79.817,17.41 C79.252,17.979 78.334,18.258 77.408,18.109 C76.246,17.923 75.747,17.406 75.452,17.01 C74.571,15.861 74.729,14.695 74.843,13.977 C75.109,12.323 76.41,10.623 78.62,10.978 C79.886,11.181 81.179,12.125 81.133,13.677 L80.245,13.535 C80.141,12.307 79.189,11.902 78.441,11.782 C77.224,11.587 76.065,12.399 75.781,14.176 C75.56,15.555 75.786,17.045 77.591,17.334 C77.931,17.389 78.485,17.439 79.049,17.123 C79.721,16.745 79.969,16.165 80.085,15.438 L77.968,15.098 L78.094,14.314" id="Fill-8" fill="#1E427B"></path>
            <polyline id="Fill-9" fill="#1E427B" points="84.113 19.44 83.22 19.183 85.12 12.573 86.012 12.83 84.113 19.44"></polyline>
            <polyline id="Fill-10" fill="#1E427B" points="93.739 15.698 94.569 16.045 91.913 22.381 90.951 21.978 89.876 15.51 89.859 15.502 87.713 20.62 86.884 20.273 89.539 13.937 90.555 14.362 91.576 20.808 91.594 20.816 93.739 15.698"></polyline>
            <path d="M98.633,21.974 L101.192,23.565 L99.254,26.685 L98.741,26.367 L99.023,25.495 C98.283,25.8 97.33,25.703 96.532,25.209 C95.533,24.588 95.274,23.919 95.154,23.44 C94.785,22.039 95.382,21.024 95.766,20.406 C96.65,18.985 98.505,17.919 100.407,19.1 C101.495,19.778 102.323,21.147 101.681,22.561 L100.918,22.087 C101.297,20.915 100.574,20.173 99.933,19.774 C98.884,19.123 97.503,19.424 96.553,20.952 C95.815,22.139 95.448,23.6 97,24.564 C97.293,24.746 97.786,25.007 98.427,24.933 C99.193,24.845 99.646,24.406 100.033,23.779 L98.213,22.649 L98.633,21.974" id="Fill-11" fill="#1E427B"></path>
            <path d="M128.788,71.416 C128.788,87.092 122.548,101.33 112.435,111.805 L113.542,112.493 C123.765,101.806 130.066,87.337 130.066,71.416 C130.066,52.861 121.637,35.702 106.941,24.336 L106.159,25.346 C120.541,36.468 128.788,53.26 128.788,71.416" id="Fill-12" fill="#F8E11B"></path>
            <path d="M31.041,115.799 L31.823,114.788 C19.901,104.123 12.38,88.634 12.38,71.416 C12.38,52.916 21.307,35.341 36.259,24.405 L35.506,23.375 C20.226,34.551 11.104,52.51 11.104,71.416 C11.104,89.044 18.819,104.897 31.041,115.799" id="Fill-13" fill="#F8E11B"></path>
            <polyline id="Fill-14" fill="#1E427B" points="38.689 121.017 42.674 123.407 42.109 124.349 37.062 121.322 41.778 113.46 42.839 114.097 38.689 121.017"></polyline>
            <polyline id="Fill-15" fill="#1E427B" points="51.97 128.589 45.682 126.102 49.053 117.583 55.255 120.039 54.852 121.059 49.799 119.059 48.766 121.669 53.429 123.515 53.025 124.533 48.362 122.689 47.236 125.537 52.373 127.569 51.97 128.589"></polyline>
            <path d="M61.48,127.023 L60.949,122.8 L60.924,122.795 L58.689,126.462 L61.48,127.023 Z M58.097,127.463 L56.631,129.89 L55.38,129.639 L60.567,121.33 L61.945,121.607 L63.391,131.25 L62.065,130.983 L61.702,128.187 L58.097,127.463 L58.097,127.463 Z" id="Fill-16" fill="#1E427B"></path>
            <path d="M68.659,130.569 L71.058,130.593 C72.665,130.609 73.723,129.357 73.747,127.048 C73.77,124.739 72.723,123.568 71.039,123.551 L68.731,123.527 L68.659,130.569 Z M67.504,122.456 L71.216,122.494 C73.6,122.517 75.05,124.343 75.023,126.984 C75.003,129.039 74.083,131.683 71.072,131.652 L67.41,131.616 L67.504,122.456 L67.504,122.456 Z" id="Fill-17" fill="#1E427B"></path>
            <polyline id="Fill-18" fill="#1E427B" points="86.158 130.044 79.497 131.235 77.885 122.212 84.458 121.036 84.652 122.118 79.297 123.074 79.791 125.839 84.73 124.956 84.924 126.037 79.984 126.919 80.523 129.935 85.966 128.963 86.158 130.044"></polyline>
            <path d="M89.964,123.716 L92.647,122.7 C93.494,122.38 94.309,121.826 93.83,120.561 C93.328,119.237 92.322,119.496 91.749,119.712 L88.862,120.805 L89.964,123.716 Z M91.727,128.38 L90.571,128.818 L87.33,120.252 L91.291,118.754 C92.699,118.221 94.292,118.178 94.977,119.991 C95.455,121.256 94.988,121.965 94.561,122.495 C95.127,122.512 95.697,122.542 96.195,123.717 L96.855,125.241 C97.047,125.713 97.175,125.87 97.609,125.938 L97.681,126.129 L96.262,126.666 C95.896,126.203 95.369,124.917 95.247,124.594 C94.98,123.892 94.526,123.122 93.142,123.645 L90.338,124.706 L91.727,128.38 L91.727,128.38 Z" id="Fill-19" fill="#1E427B"></path>
            <path d="M102.822,115.786 C102.031,114.609 100.797,114.837 99.913,115.374 C99.25,115.779 98.239,116.647 98.962,117.836 C99.367,118.5 99.969,118.433 100.492,118.263 L103.038,117.416 C104.197,117.039 105.332,117.186 106.088,118.428 C107.214,120.279 105.805,121.84 104.464,122.656 C103.015,123.537 102.183,123.446 101.643,123.343 C100.614,123.149 100.084,122.574 99.639,121.844 L100.631,121.24 C101.494,122.657 102.9,122.368 103.904,121.758 C104.666,121.293 105.833,120.315 105.15,119.192 C104.652,118.375 104.111,118.346 102.641,118.823 L100.812,119.427 C100.227,119.619 98.854,119.962 98.024,118.6 C97.281,117.38 97.346,115.697 99.243,114.544 C101.978,112.879 103.247,114.347 103.813,115.181 L102.822,115.786" id="Fill-20" fill="#1E427B"></path>
            <path d="M109.461,71.228 C109.461,75.176 106.26,78.376 102.313,78.376 C98.365,78.376 95.165,75.176 95.165,71.228 C95.165,67.281 98.365,64.081 102.313,64.081 C106.26,64.081 109.461,67.281 109.461,71.228" id="Fill-21" fill="#1E427B"></path>
            <path d="M77.047,37.518 C77.047,41.466 73.847,44.666 69.899,44.666 C65.952,44.666 62.751,41.466 62.751,37.518 C62.751,33.571 65.952,30.37 69.899,30.37 C73.847,30.37 77.047,33.571 77.047,37.518" id="Fill-22" fill="#F8E11B"></path>
            <path d="M46.453,72.354 C46.453,76.301 43.253,79.501 39.305,79.501 C35.358,79.501 32.158,76.301 32.158,72.354 C32.158,68.406 35.358,65.206 39.305,65.206 C43.253,65.206 46.453,68.406 46.453,72.354" id="Fill-23" fill="#1E427B"></path>
            <path d="M49.774,81.709 C47.005,79.908 24.91,86.181 24.91,86.181 C51.063,87.039 68.811,116.579 68.811,116.579 C69.039,106.109 65.528,83.696 65.528,83.696 C55.923,42.166 30.975,33.244 30.975,33.244 C30.975,33.244 54.024,61.887 50.198,81.741" id="Fill-24" fill="#1E427B"></path>
            <path d="M90.737,81.471 C93.513,79.681 115.583,86.042 115.583,86.042 C89.426,86.796 71.561,116.265 71.561,116.265 C71.375,105.794 74.975,83.395 74.975,83.395 C84.746,41.904 109.728,33.081 109.728,33.081 C109.728,33.081 86.566,61.632 90.313,81.502" id="Fill-25" fill="#1E427B"></path>
            <path d="M47.734,38.206 C47.734,38.206 66.703,45.023 69.903,97.701 C69.903,97.701 72.304,52.171 91.625,37.805 C91.625,37.805 74.174,44.988 69.811,52.594 C69.811,52.594 61.446,41.164 47.734,38.206" id="Fill-26" fill="#F8E11B"></path>
        </g>
    </g>
</svg>