<?xml version="1.0" encoding="UTF-8"?>
<svg width="128px" height="128px" viewBox="0 0 128 128" version="1.1" xmlns="http://www.w3.org/2000/svg" xmlns:xlink="http://www.w3.org/1999/xlink">
    <!-- Generator: Sketch 42 (36781) - http://www.bohemiancoding.com/sketch -->
    <title>engage_4c</title>
    <desc>Created with Sketch.</desc>
    <defs>
        <polygon id="path-1" points="0.06 127.791 0.06 0.569 127.22175 0.569 127.22175 127.791 0.06 127.791"></polygon>
    </defs>
    <g id="LLP" stroke="none" stroke-width="1" fill="none" fill-rule="evenodd">
        <g id="engage_4c">
            <path d="M77.681,40.503 C76.994,40.503 76.308,40.241 75.784,39.716 L63.806,27.739 L51.829,39.717 C50.781,40.764 49.081,40.764 48.033,39.717 C46.986,38.669 46.986,36.969 48.033,35.921 L61.909,22.046 C62.915,21.039 64.697,21.039 65.704,22.046 L79.579,35.922 C80.627,36.969 80.627,38.669 79.579,39.717 C79.055,40.24 78.368,40.503 77.681,40.503" id="Fill-1" fill="#84BF41"></path>
            <path d="M63.806,50.077 C62.324,50.077 61.122,48.875 61.122,47.393 L61.122,29.074 C61.122,27.592 62.324,26.391 63.806,26.391 C65.288,26.391 66.49,27.592 66.49,29.074 L66.49,47.393 C66.49,48.875 65.288,50.077 63.806,50.077" id="Fill-2" fill="#84BF41"></path>
            <path d="M87.198,78.33 C87.198,77.643 87.46,76.956 87.984,76.433 L99.962,64.455 L87.984,52.477 C86.937,51.429 86.937,49.73 87.984,48.682 C89.032,47.634 90.731,47.634 91.779,48.682 L105.655,62.557 C106.662,63.564 106.661,65.345 105.654,66.353 L91.779,80.227 C90.731,81.276 89.032,81.276 87.984,80.227 C87.46,79.704 87.198,79.017 87.198,78.33" id="Fill-3" fill="#84BF41"></path>
            <path d="M77.624,64.455 C77.624,62.973 78.825,61.771 80.307,61.771 L98.627,61.771 C100.109,61.771 101.31,62.973 101.31,64.455 C101.31,65.937 100.109,67.139 98.627,67.139 L80.307,67.139 C78.825,67.139 77.624,65.937 77.624,64.455" id="Fill-4" fill="#84BF41"></path>
            <path d="M49.37,87.847 C50.057,87.847 50.744,88.109 51.268,88.633 L63.245,100.611 L75.223,88.633 C76.271,87.585 77.97,87.585 79.019,88.633 C80.066,89.681 80.066,91.38 79.019,92.428 L65.143,106.304 C64.136,107.311 62.355,107.31 61.348,106.303 L47.473,92.428 C46.425,91.38 46.425,89.681 47.473,88.633 C47.997,88.109 48.683,87.847 49.37,87.847" id="Fill-5" fill="#84BF41"></path>
            <path d="M63.246,78.273 C64.728,78.273 65.929,79.474 65.929,80.956 L65.929,99.275 C65.929,100.758 64.728,101.959 63.246,101.959 C61.763,101.959 60.562,100.758 60.562,99.275 L60.562,80.956 C60.562,79.474 61.763,78.273 63.246,78.273" id="Fill-6" fill="#84BF41"></path>
            <path d="M39.854,50.019 C39.854,50.706 39.592,51.393 39.068,51.916 L27.09,63.894 L39.068,75.872 C40.115,76.92 40.115,78.619 39.068,79.667 C38.02,80.715 36.32,80.715 35.272,79.667 L21.397,65.792 C20.39,64.785 20.39,63.004 21.397,61.996 L35.273,48.122 C36.32,47.074 38.02,47.074 39.068,48.122 C39.591,48.645 39.854,49.332 39.854,50.019" id="Fill-7" fill="#84BF41"></path>
            <path d="M49.428,63.894 C49.428,65.377 48.227,66.578 46.744,66.578 L28.425,66.578 C26.943,66.578 25.742,65.377 25.742,63.894 C25.742,62.412 26.943,61.211 28.425,61.211 L46.744,61.211 C48.227,61.211 49.428,62.412 49.428,63.894" id="Fill-8" fill="#84BF41"></path>
            <path d="M58.02,59.131 C57.883,59.131 57.745,59.078 57.64,58.973 L33.808,35.141 C33.598,34.932 33.598,34.591 33.808,34.382 C34.018,34.172 34.357,34.172 34.567,34.382 L58.399,58.214 C58.609,58.424 58.609,58.764 58.399,58.973 C58.295,59.078 58.157,59.131 58.02,59.131" id="Fill-9" fill="#636462"></path>
            <path d="M68.737,58.835 C68.737,58.698 68.789,58.561 68.894,58.456 L88.476,38.936 C88.686,38.726 89.026,38.726 89.235,38.936 C89.445,39.146 89.445,39.485 89.235,39.695 L69.653,59.215 C69.443,59.425 69.103,59.425 68.894,59.215 C68.789,59.11 68.737,58.973 68.737,58.835" id="Fill-10" fill="#636462"></path>
            <path d="M69.032,69.552 C69.169,69.552 69.306,69.605 69.411,69.709 L93.243,93.542 C93.453,93.751 93.453,94.091 93.243,94.301 C93.034,94.51 92.694,94.51 92.484,94.301 L68.652,70.468 C68.442,70.259 68.442,69.919 68.652,69.709 C68.757,69.605 68.894,69.552 69.032,69.552" id="Fill-11" fill="#636462"></path>
            <g id="Group-15">
                <mask id="mask-2" fill="white">
                    <use xlink:href="#path-1"></use>
                </mask>
                <g id="Clip-13"></g>
                <path d="M58.315,69.847 C58.315,69.984 58.263,70.122 58.158,70.227 L34.326,94.059 C34.116,94.269 33.776,94.269 33.567,94.059 C33.357,93.849 33.357,93.51 33.567,93.3 L57.399,69.468 C57.608,69.258 57.948,69.258 58.158,69.468 C58.263,69.573 58.315,69.71 58.315,69.847" id="Fill-12" fill="#636462" mask="url(#mask-2)"></path>
                <path d="M63.611,127.791 C63.113,127.791 62.635,127.593 62.283,127.241 L0.55,65.508 C-0.183,64.775 -0.183,63.586 0.55,62.852 L62.283,1.12 C63.016,0.385 64.206,0.385 64.939,1.12 L71.806,7.987 C72.54,8.72 72.54,9.91 71.806,10.643 C71.073,11.377 69.883,11.377 69.15,10.643 L63.611,5.105 L4.535,64.18 L63.611,123.257 L122.687,64.18 L117.11,58.603 C116.377,57.87 116.377,56.68 117.11,55.947 C117.844,55.213 119.033,55.213 119.766,55.947 L126.672,62.852 C127.405,63.586 127.405,64.775 126.672,65.508 L64.939,127.241 C64.587,127.593 64.109,127.791 63.611,127.791" id="Fill-14" fill="#636462" mask="url(#mask-2)"></path>
            </g>
            <polyline id="Fill-16" fill="#84BF41" points="77.226 20.721 72.328 15.823 78.964 9.187 83.798 14.021 83.003 14.816 79.066 10.879 77.033 12.912 80.664 16.544 79.87 17.339 76.238 13.707 74.02 15.925 78.022 19.927 77.226 20.721"></polyline>
            <polyline id="Fill-17" fill="#84BF41" points="89.894 20.117 90.762 20.986 84.127 27.621 83.119 26.614 85.106 17.88 85.088 17.863 79.728 23.222 78.859 22.354 85.494 15.718 86.558 16.781 84.515 25.459 84.534 25.477 89.894 20.117"></polyline>
            <path d="M92.431,28.828 L95.342,31.739 L91.793,35.288 L91.211,34.705 L91.859,33.634 C90.777,33.81 89.538,33.384 88.632,32.478 C87.496,31.342 87.357,30.371 87.349,29.697 C87.293,27.719 88.401,26.555 89.104,25.852 C90.721,24.235 93.521,23.394 95.684,25.556 C96.922,26.795 97.597,28.874 96.304,30.556 L95.434,29.688 C96.304,28.246 95.574,27.035 94.843,26.305 C93.651,25.113 91.72,25.086 89.982,26.823 C88.633,28.172 87.69,30.001 89.455,31.767 C89.788,32.1 90.361,32.599 91.238,32.7 C92.283,32.82 93.022,32.377 93.734,31.665 L91.664,29.595 L92.431,28.828" id="Fill-18" fill="#84BF41"></path>
            <path d="M99.746,37.788 L101.686,33.888 L101.668,33.869 L97.686,35.727 L99.746,37.788 Z M96.613,36.245 L93.989,37.483 L93.064,36.559 L102.194,32.418 L103.211,33.435 L98.979,42.473 L97.999,41.494 L99.275,38.906 L96.613,36.245 L96.613,36.245 Z" id="Fill-19" fill="#84BF41"></path>
            <path d="M106.424,42.821 L109.335,45.732 L105.786,49.281 L105.205,48.699 L105.851,47.627 C104.77,47.803 103.532,47.378 102.626,46.472 C101.489,45.335 101.351,44.365 101.341,43.69 C101.287,41.713 102.395,40.548 103.097,39.845 C104.715,38.228 107.515,37.387 109.677,39.549 C110.916,40.788 111.591,42.867 110.297,44.55 L109.428,43.681 C110.296,42.239 109.567,41.029 108.837,40.298 C107.645,39.106 105.713,39.078 103.975,40.816 C102.626,42.165 101.683,43.994 103.449,45.76 C103.781,46.092 104.354,46.592 105.232,46.693 C106.276,46.813 107.015,46.37 107.727,45.658 L105.657,43.588 L106.424,42.821" id="Fill-20" fill="#84BF41"></path>
            <polyline id="Fill-21" fill="#84BF41" points="112.621 56.116 107.723 51.217 114.358 44.582 119.192 49.415 118.397 50.21 114.46 46.273 112.427 48.307 116.059 51.939 115.265 52.733 111.633 49.101 109.414 51.32 113.416 55.321 112.621 56.116"></polyline>
        </g>
    </g>
</svg>