<?xml version="1.0" encoding="UTF-8"?>
<svg width="137px" height="137px" viewBox="0 0 137 137" version="1.1" xmlns="http://www.w3.org/2000/svg" xmlns:xlink="http://www.w3.org/1999/xlink">
    <!-- Generator: Sketch 42 (36781) - http://www.bohemiancoding.com/sketch -->
    <title>lead_ex-4c</title>
    <desc>Created with Sketch.</desc>
    <defs>
        <polygon id="path-1" points="0 136.94 136.362 136.94 136.362 0.638 0 0.638"></polygon>
    </defs>
    <g id="LLP" stroke="none" stroke-width="1" fill="none" fill-rule="evenodd">
        <g id="lead_ex-4c">
            <polyline id="Fill-1" fill="#DB3341" points="50.539 21.04 55.631 19.288 56.044 20.49 49.596 22.709 46.139 12.666 47.495 12.199 50.539 21.04"></polyline>
            <polyline id="Fill-2" fill="#DB3341" points="66.318 18.897 58.549 19.916 57.167 9.391 64.834 8.385 64.999 9.645 58.754 10.465 59.178 13.691 64.939 12.934 65.104 14.195 59.344 14.951 59.805 18.47 66.153 17.636 66.318 18.897"></polyline>
            <path d="M74.881,14.974 L73.709,10.186 L73.68,10.182 L71.594,14.698 L74.881,14.974 Z M71.045,15.928 L69.682,18.916 L68.207,18.793 L73.074,8.543 L74.696,8.679 L77.64,19.584 L76.078,19.453 L75.29,16.284 L71.045,15.928 L71.045,15.928 Z" id="Fill-3" fill="#DB3341"></path>
            <g id="Group-7">
                <mask id="mask-2" fill="white">
                    <use xlink:href="#path-1"></use>
                </mask>
                <g id="Clip-5"></g>
                <path d="M81.626,19.343 L84.28,20.173 C86.061,20.729 87.655,19.693 88.453,17.137 C89.252,14.582 88.481,12.931 86.618,12.348 L84.063,11.549 L81.626,19.343 Z M83.059,9.95 L87.168,11.234 C89.808,12.059 90.805,14.571 89.892,17.494 C89.182,19.767 87.275,22.396 83.943,21.354 L79.89,20.087 L83.059,9.95 L83.059,9.95 Z" id="Fill-4" fill="#DB3341" mask="url(#mask-2)"></path>
                <path d="M68.181,133.845 C32.325,133.845 3.155,104.674 3.155,68.819 C3.155,32.963 32.325,3.792 68.181,3.792 C104.037,3.792 133.207,32.963 133.207,68.819 C133.207,104.674 104.037,133.845 68.181,133.845 Z M68.181,0.638 C30.586,0.638 0,31.224 0,68.819 C0,106.414 30.586,137 68.181,137 C105.776,137 136.362,106.414 136.362,68.819 C136.362,31.224 105.776,0.638 68.181,0.638 L68.181,0.638 Z" id="Fill-6" fill="#DB3341" mask="url(#mask-2)"></path>
            </g>
            <path d="M125.706,68.819 C125.706,47.868 114.444,29.504 97.66,19.445 L96.802,20.535 C113.27,30.334 124.333,48.305 124.333,68.819 C124.333,83.948 118.308,97.688 108.545,107.795 L109.737,108.534 C119.617,98.2 125.706,84.211 125.706,68.819" id="Fill-8" fill="#C6C4BE"></path>
            <path d="M28.724,110.603 L28.752,110.567 L29.567,109.514 C18.781,99.276 12.028,84.828 12.028,68.819 C12.028,48.472 22.907,30.619 39.153,20.768 L38.285,19.691 C21.73,29.802 10.655,48.041 10.655,68.819 C10.655,85.27 17.616,100.109 28.724,110.603" id="Fill-9" fill="#C6C4BE"></path>
            <polyline id="Fill-10" fill="#DB3341" points="34.758 117.279 30.073 113.725 34.889 107.377 39.512 110.885 38.935 111.646 35.17 108.789 33.694 110.733 37.168 113.37 36.591 114.129 33.117 111.493 31.507 113.614 35.336 116.518 34.758 117.279"></polyline>
            <polyline id="Fill-11" fill="#DB3341" points="43.315 122.155 42.142 121.528 41.801 117.633 38.311 119.475 37.167 118.862 41.607 116.61 41.083 111.927 42.277 112.566 42.615 116.207 45.834 114.472 46.968 115.079 42.78 117.24 43.315 122.155"></polyline>
            <path d="M48.774,119.737 L50.797,120.448 C51.708,120.767 52.444,120.649 52.801,119.632 C53.135,118.679 52.592,118.148 51.753,117.853 L49.69,117.128 L48.774,119.737 Z M47.356,123.783 L46.34,123.425 L48.978,115.903 L52.363,117.09 C53.757,117.579 54.278,118.774 53.852,119.989 C53.485,121.038 52.472,122.012 50.838,121.439 L48.469,120.607 L47.356,123.783 L47.356,123.783 Z" id="Fill-12" fill="#DB3341"></path>
            <polyline id="Fill-13" fill="#DB3341" points="56.426 125.472 60.389 126.246 60.206 127.182 55.187 126.202 56.714 118.386 57.77 118.592 56.426 125.472"></polyline>
            <path d="M67.075,120.497 C65.345,120.437 64.256,121.764 64.191,123.638 C64.125,125.51 65.12,126.91 66.849,126.97 C68.578,127.03 69.668,125.703 69.732,123.829 C69.797,121.956 68.803,120.557 67.075,120.497 Z M66.817,127.922 C63.846,127.82 63.023,125.317 63.083,123.598 C63.143,121.881 64.136,119.441 67.107,119.543 C70.078,119.647 70.901,122.15 70.841,123.867 C70.782,125.586 69.786,128.026 66.817,127.922 L66.817,127.922 Z" id="Fill-14" fill="#DB3341"></path>
            <path d="M74.867,123.129 L77.338,122.779 C78.117,122.668 78.914,122.353 78.748,121.189 C78.574,119.969 77.671,119.997 77.144,120.072 L74.486,120.45 L74.867,123.129 Z M75.479,127.425 L74.413,127.577 L73.291,119.691 L76.937,119.171 C78.234,118.986 79.593,119.252 79.831,120.922 C79.996,122.087 79.463,122.599 79.001,122.967 C79.479,123.091 79.957,123.224 80.157,124.316 L80.427,125.734 C80.499,126.172 80.578,126.328 80.933,126.469 L80.96,126.645 L79.652,126.83 C79.43,126.369 79.226,125.176 79.183,124.88 C79.092,124.232 78.852,123.493 77.579,123.674 L74.997,124.041 L75.479,127.425 L75.479,127.425 Z" id="Fill-15" fill="#DB3341"></path>
            <polyline id="Fill-16" fill="#DB3341" points="90.021 124.038 84.408 125.797 82.025 118.193 87.563 116.457 87.85 117.368 83.338 118.782 84.068 121.112 88.231 119.807 88.516 120.718 84.354 122.022 85.151 124.565 89.737 123.127 90.021 124.038"></polyline>
            <path d="M92.462,118.281 L94.693,117.158 C95.396,116.803 96.049,116.251 95.521,115.2 C94.968,114.1 94.12,114.414 93.644,114.654 L91.244,115.86 L92.462,118.281 Z M94.412,122.156 L93.452,122.64 L89.868,115.521 L93.16,113.865 C94.33,113.277 95.703,113.095 96.462,114.601 C96.992,115.652 96.651,116.309 96.329,116.806 C96.821,116.77 97.318,116.744 97.856,117.715 L98.563,118.974 C98.773,119.365 98.897,119.488 99.28,119.508 L99.359,119.667 L98.179,120.261 C97.821,119.894 97.248,118.829 97.113,118.562 C96.819,117.976 96.356,117.352 95.206,117.931 L92.876,119.103 L94.412,122.156 L94.412,122.156 Z" id="Fill-17" fill="#DB3341"></path>
            <path d="M102.818,110.479 C102.051,109.515 100.996,109.799 100.269,110.326 C99.722,110.723 98.908,111.547 99.617,112.525 C100.014,113.072 100.531,112.973 100.973,112.788 L103.118,111.876 C104.097,111.469 105.09,111.516 105.831,112.539 C106.938,114.067 105.825,115.516 104.721,116.317 C103.527,117.182 102.8,117.162 102.322,117.11 C101.418,117.013 100.919,116.552 100.484,115.951 L101.301,115.358 C102.147,116.526 103.346,116.177 104.172,115.578 C104.801,115.122 105.742,114.193 105.073,113.269 C104.584,112.595 104.114,112.607 102.872,113.124 L101.331,113.775 C100.838,113.983 99.671,114.376 98.857,113.254 C98.129,112.247 98.068,110.785 99.631,109.654 C101.885,108.02 103.085,109.203 103.635,109.887 L102.818,110.479" id="Fill-18" fill="#DB3341"></path>
            <polyline id="Fill-19" fill="#C6C4BE" points="52.301 61.404 52.29 61.385 52.288 61.386 52.236 61.295 51.57 60.194 51.596 60.189 40.983 41.848 58.478 59.691 59.028 60.34 59.449 60.194 59.616 59.229 42.135 41.406 60.917 52.694 61.166 51.522 38.961 38.17 38.786 37.99 38.74 38.036 36.791 36.86 51.129 61.642 52.301 61.404"></polyline>
            <polyline id="Fill-20" fill="#C6C4BE" points="74.881 53.279 75.712 52.83 75.712 52.828 74.99 53.214 76.903 52.11 76.908 52.136 95.25 41.524 77.407 59.019 76.278 59.923 76.654 60.198 77.618 60.364 95.691 42.676 84.486 61.249 85.658 61.498 98.928 39.502 99.107 39.326 99.062 39.28 100.237 37.331 74.643 52.107 74.881 53.279"></polyline>
            <polyline id="Fill-21" fill="#C6C4BE" points="83.799 75.402 84.267 76.253 84.269 76.252 84.321 76.342 84.987 77.444 84.961 77.448 95.574 95.79 78.079 77.947 77.32 76.965 76.695 77.236 76.341 77.736 94.422 96.231 74.445 84.194 74.528 85.527 97.595 99.468 97.771 99.647 97.817 99.602 99.766 100.778 84.966 75.215 83.799 75.402"></polyline>
            <polyline id="Fill-22" fill="#C6C4BE" points="61.987 84.152 60.845 84.807 60.845 84.809 60.755 84.862 59.653 85.527 59.649 85.501 41.307 96.114 59.15 78.619 60.153 78.194 59.737 77.194 59.299 76.923 40.866 94.962 52.57 75.59 51.341 75.423 37.629 98.136 37.45 98.311 37.495 98.358 36.319 100.307 61.799 85.548 61.987 84.152"></polyline>
            <polyline id="Fill-23" fill="#DB3341" points="60.977 51.451 59.258 60.006 51.129 61.642 21.383 68.069 67.588 68.185 67.588 21.52 60.977 51.451"></polyline>
            <polyline id="Fill-24" fill="#DB3341" points="75.163 85.937 76.883 77.381 85.698 75.683 115.236 69.14 68.552 69.203 68.552 115.868 75.163 85.937"></polyline>
            <polyline id="Fill-25" fill="#DB3341" points="85.375 61.574 76.82 59.855 75.184 51.727 68.508 21.506 68.641 68.185 115.306 68.185 85.375 61.574"></polyline>
            <polyline id="Fill-26" fill="#DB3341" points="51.015 75.813 59.57 77.533 61.206 85.661 67.695 115.944 67.749 69.203 21.084 69.203 51.015 75.813"></polyline>
        </g>
    </g>
</svg>