<?xml version="1.0" encoding="UTF-8"?>
<svg width="126px" height="126px" viewBox="0 0 126 126" version="1.1" xmlns="http://www.w3.org/2000/svg" xmlns:xlink="http://www.w3.org/1999/xlink">
    <!-- Generator: Sketch 42 (36781) - http://www.bohemiancoding.com/sketch -->
    <title>women-4c</title>
    <desc>Created with Sketch.</desc>
    <defs>
        <polygon id="path-1" points="0 125.94 0 0.461 125.539 0.461 125.539 125.94"></polygon>
    </defs>
    <g id="LLP" stroke="none" stroke-width="1" fill="none" fill-rule="evenodd">
        <g id="women-4c">
            <g id="Group-4">
                <mask id="mask-2" fill="white">
                    <use xlink:href="#path-1"></use>
                </mask>
                <g id="Clip-2"></g>
                <path d="M70.445,31.588 C70.445,35.325 67.416,38.354 63.679,38.354 C59.943,38.354 56.914,35.325 56.914,31.588 C56.914,27.852 59.943,24.822 63.679,24.822 C67.416,24.822 70.445,27.852 70.445,31.588" id="Fill-1" fill="#67468A" mask="url(#mask-2)"></path>
                <path d="M62.77,123.096 C29.76,123.096 2.904,96.24 2.904,63.231 C2.904,30.221 29.76,3.365 62.77,3.365 C95.78,3.365 122.635,30.221 122.635,63.231 C122.635,96.24 95.78,123.096 62.77,123.096 Z M62.77,0.461 C28.158,0.461 0,28.619 0,63.231 C0,97.842 28.158,126 62.77,126 C97.381,126 125.539,97.842 125.539,63.231 C125.539,28.619 97.381,0.461 62.77,0.461 L62.77,0.461 Z" id="Fill-3" fill="#67468A" mask="url(#mask-2)"></path>
            </g>
            <polyline id="Fill-5" fill="#E15940" points="39.294 23.163 38.174 23.756 31.946 16.955 33.099 16.344 37.966 21.981 37.988 21.969 36.361 14.617 37.527 14.001 42.691 19.481 42.712 19.469 40.789 12.275 41.965 11.653 44.063 20.639 42.942 21.233 37.681 15.649 37.659 15.661 39.294 23.163"></polyline>
            <path d="M50.479,10.148 C48.588,10.584 47.793,12.337 48.265,14.384 C48.736,16.432 50.219,17.66 52.109,17.224 C53.999,16.788 54.794,15.035 54.322,12.988 C53.851,10.941 52.368,9.713 50.479,10.148 Z M52.349,18.266 C49.102,19.014 47.487,16.541 47.053,14.663 C46.62,12.785 46.991,9.855 50.238,9.107 C53.486,8.358 55.102,10.831 55.534,12.709 C55.967,14.587 55.596,17.517 52.349,18.266 L52.349,18.266 Z" id="Fill-6" fill="#E15940"></path>
            <path d="M66.9,16.92 L67.009,11.648 C67.015,11.386 67.064,10.255 67.08,9.422 L67.056,9.422 L64.387,16.868 L63.194,16.843 L60.838,9.304 L60.813,9.303 C60.796,10.124 60.797,11.257 60.791,11.518 L60.682,16.791 L59.513,16.766 L59.698,7.837 L61.427,7.873 L63.82,15.475 L63.844,15.476 L66.538,7.98 L68.255,8.016 L68.068,16.945 L66.9,16.92" id="Fill-7" fill="#E15940"></path>
            <polyline id="Fill-8" fill="#E15940" points="77.981 19.258 71.609 17.584 73.876 8.951 80.165 10.603 79.893 11.636 74.771 10.291 74.076 12.936 78.802 14.177 78.53 15.212 73.805 13.97 73.046 16.856 78.253 18.224 77.981 19.258"></polyline>
            <polyline id="Fill-9" fill="#E15940" points="90.407 15.261 91.443 15.802 87.313 23.713 86.112 23.086 85.427 14.596 85.405 14.585 82.068 20.974 81.032 20.433 85.163 12.523 86.43 13.185 87.049 21.64 87.071 21.652 90.407 15.261"></polyline>
            <path d="M20.902,93.729 C14.646,85.165 10.942,74.625 10.942,63.231 C10.942,46.888 18.553,32.298 30.407,22.792 L29.843,21.965 C17.725,31.653 9.942,46.546 9.942,63.231 C9.942,74.859 13.727,85.616 20.118,94.351 L20.902,93.729" id="Fill-10" fill="#E15940"></path>
            <path d="M114.598,63.231 C114.598,73.754 111.437,83.55 106.026,91.733 L106.849,92.301 C112.371,83.956 115.598,73.965 115.598,63.231 C115.598,47.293 108.494,32.993 97.298,23.299 L96.739,24.137 C107.668,33.646 114.598,47.64 114.598,63.231" id="Fill-11" fill="#E15940"></path>
            <polyline id="Fill-12" fill="#E15940" points="21.212 100.468 20.533 99.693 26.269 94.665 26.949 95.44 21.212 100.468"></polyline>
            <polyline id="Fill-13" fill="#E15940" points="32.283 100.587 33.03 101.251 27.956 106.948 27.09 106.178 28.293 98.995 28.278 98.981 24.178 103.585 23.433 102.92 28.508 97.222 29.42 98.035 28.169 105.175 28.186 105.188 32.283 100.587"></polyline>
            <polyline id="Fill-14" fill="#E15940" points="35.466 110.856 38.863 112.709 38.425 113.512 34.123 111.167 37.776 104.466 38.681 104.96 35.466 110.856"></polyline>
            <polyline id="Fill-15" fill="#E15940" points="46.332 116.623 41.042 114.685 43.667 107.518 48.889 109.429 48.573 110.288 44.321 108.731 43.518 110.928 47.44 112.364 47.125 113.222 43.202 111.786 42.325 114.181 46.648 115.764 46.332 116.623"></polyline>
            <path d="M53.829,115.139 L53.373,111.627 L53.352,111.622 L51.504,114.681 L53.829,115.139 Z M51.015,115.516 L49.803,117.542 L48.76,117.338 L53.05,110.403 L54.197,110.63 L55.435,118.651 L54.328,118.433 L54.018,116.108 L51.015,115.516 L51.015,115.516 Z" id="Fill-16" fill="#E15940"></path>
            <path d="M59.409,118.08 L61.404,118.133 C62.742,118.169 63.642,117.14 63.693,115.218 C63.744,113.295 62.89,112.305 61.486,112.267 L59.565,112.217 L59.409,118.08 Z M58.558,111.307 L61.649,111.389 C63.635,111.442 64.816,112.983 64.758,115.182 C64.712,116.892 63.909,119.082 61.403,119.015 L58.355,118.934 L58.558,111.307 L58.558,111.307 Z" id="Fill-17" fill="#E15940"></path>
            <polyline id="Fill-18" fill="#E15940" points="73.587 118.056 68.014 118.848 66.941 111.3 72.44 110.517 72.568 111.422 68.088 112.058 68.418 114.372 72.55 113.784 72.678 114.688 68.547 115.276 68.905 117.8 73.458 117.152 73.587 118.056"></polyline>
            <path d="M76.646,113.007 L78.925,112.28 C79.644,112.052 80.345,111.628 80.002,110.554 C79.646,109.43 78.795,109.6 78.309,109.755 L75.86,110.536 L76.646,113.007 Z M77.909,116.966 L76.926,117.278 L74.609,110.009 L77.971,108.937 C79.166,108.556 80.492,108.591 80.983,110.13 C81.324,111.203 80.904,111.772 80.526,112.194 C80.996,112.234 81.469,112.284 81.832,113.283 L82.313,114.58 C82.451,114.982 82.551,115.118 82.908,115.193 L82.96,115.355 L81.755,115.739 C81.473,115.339 81.091,114.245 81.003,113.971 C80.813,113.374 80.468,112.714 79.294,113.089 L76.914,113.846 L77.909,116.966 L77.909,116.966 Z" id="Fill-19" fill="#E15940"></path>
            <path d="M87.446,107.207 C86.859,106.182 85.821,106.298 85.056,106.691 C84.48,106.987 83.588,107.647 84.117,108.678 C84.412,109.254 84.916,109.234 85.362,109.125 L87.527,108.575 C88.512,108.331 89.445,108.52 89.998,109.598 C90.823,111.205 89.559,112.415 88.396,113.012 C87.139,113.657 86.453,113.531 86.01,113.412 C85.167,113.188 84.763,112.679 84.438,112.047 L85.298,111.605 C85.929,112.834 87.114,112.679 87.984,112.232 C88.645,111.892 89.674,111.15 89.174,110.177 C88.809,109.468 88.363,109.411 87.11,109.72 L85.558,110.111 C85.06,110.235 83.899,110.438 83.292,109.256 C82.748,108.198 82.905,106.804 84.549,105.96 C86.921,104.743 87.884,106.039 88.306,106.766 L87.446,107.207" id="Fill-20" fill="#E15940"></path>
            <polyline id="Fill-21" fill="#E15940" points="93.187 100.635 94.013 100.02 98.568 106.133 97.741 106.748 95.617 103.896 92.424 106.274 94.549 109.128 93.723 109.743 89.168 103.63 89.993 103.013 91.878 105.543 95.071 103.164 93.187 100.635"></polyline>
            <polyline id="Fill-22" fill="#E15940" points="101.729 103.179 100.984 103.89 95.71 98.369 96.456 97.656 101.729 103.179"></polyline>
            <path d="M101.591,97.413 L102.898,95.834 C103.487,95.122 103.624,94.423 102.832,93.766 C102.087,93.149 101.43,93.461 100.888,94.114 L99.554,95.726 L101.591,97.413 Z M104.748,100.026 L104.092,100.819 L98.219,95.958 L100.405,93.315 C101.308,92.227 102.552,92.155 103.5,92.941 C104.319,93.619 104.858,94.85 103.8,96.126 L102.27,97.974 L104.748,100.026 L104.748,100.026 Z" id="Fill-23" fill="#E15940"></path>
            <path d="M71.119,61.044 C70.93,60.777 70.749,60.51 70.551,60.243 C68.44,56.068 70.414,50.916 73.431,46.064 C75.938,47.453 77.633,50.091 77.633,53.123 C77.633,57.016 74.841,60.266 71.119,61.044 Z M82.454,52.253 C82.454,44.783 76.849,38.729 69.934,38.729 C67.267,38.729 64.8,39.636 62.77,41.171 C60.739,39.636 58.272,38.729 55.605,38.729 C53.762,38.729 52.025,39.185 50.45,39.959 C45.904,38.508 42.694,35.524 41.472,30.751 C41.069,29.175 40.373,27.84 38.8,28.243 C37.225,28.646 37.388,30.348 37.791,31.923 C39.901,40.164 44.689,45.344 53.289,46.584 C56.122,51.282 57.888,56.216 55.852,60.243 C44.326,75.797 48.684,91.596 63.014,107.551 L63.201,107.761 L63.389,107.551 C76.209,93.277 81.037,79.128 73.662,65.167 C78.756,63.454 82.454,58.32 82.454,52.253 L82.454,52.253 Z" id="Fill-24" fill="#67468A"></path>
        </g>
    </g>
</svg>