<?xml version="1.0" encoding="utf-8"?>
<!-- Generator: Adobe Illustrator 21.0.2, SVG Export Plug-In . SVG Version: 6.00 Build 0)  -->
<svg version="1.1" id="Layer_1" xmlns="http://www.w3.org/2000/svg" xmlns:xlink="http://www.w3.org/1999/xlink" x="0px" y="0px"
	 viewBox="0 0 368 204" style="enable-background:new 0 0 368 204;" xml:space="preserve">
<style type="text/css">
	.st0{fill:#575856;}
	.st1{fill:none;stroke:#6F8F9D;stroke-width:1.987;}
	.st2{fill:#F5B827;}
	.st3{fill:#0B0A08;}
	.st4{fill:#FFFFFF;}
</style>
<title>bm_ResLife_st_4c</title>
<desc>Created with Sketch.</desc>
<g id="HOME">
	<g id="bm_ResLife_st_4c" transform="translate(-1.000000, 0.000000)">
		<path id="Fill-1" d="M28,176.1c-0.1,2.1-0.1,7,6.3,6.9c3.6,0,6.7-1.5,6.7-6c0-6.9-9.7-6.2-9.7-11c0-2.3,1.7-3.2,3.3-3.2
			c2.6,0,3.4,1.6,3.3,3.9h2.9c0.2-4.4-2-6.3-6-6.3c-3.6,0-6.4,2-6.4,5.9c0,6.5,9.7,6,9.7,10.8c0,2.6-1.7,3.5-3.9,3.5
			c-1.8,0-3.6-0.9-3.6-3.9v-0.6H28z M42.3,167.3v1.9h2.5V180c0,1.7,1.1,2.7,3.4,2.7c0.8,0,1.6-0.2,2.4-0.2v-1.9
			c-0.5,0.1-0.9,0.1-1.1,0.1c-2.3,0-2.3-1.2-2.3-2.2v-9.3h3.3v-1.9h-3.3v-4l-2.5,1.1v2.9H42.3z M60.1,177.4c0,2.5-1.7,3.5-3,3.5
			c-1.7,0-2.6-1.2-2.6-3.1v-10.5h-2.5v11.6c0,2.6,1.4,3.9,4.1,3.9c1.6,0,3-0.8,3.8-2.1h0.1v1.8h2.6c-0.1-1.1-0.2-2.1-0.2-3.2v-12
			h-2.5V177.4z M73.6,174.3c0,3.1,0,6.5-2.8,6.5c-3.1,0-3.1-3.3-3.1-5.6c0-4.1,0.4-6.2,3-6.2C73.5,169.1,73.6,172.3,73.6,174.3z
			 M73.6,168.9L73.6,168.9c-0.9-1.2-2-1.8-3.4-1.8c-4.9,0-5,4.4-5,8.1c0,6.7,2.5,7.6,4.9,7.6c1.6,0,2.6-0.7,3.5-2.1h0.1v1.8h2.5
			v-21.7h-2.5V168.9z M81.4,173.9c0-4.2,1.3-5,2.9-5c1.8,0,3,0.5,3,5H81.4z M89.9,175.7v-1.3c0-5-1.1-7.4-5.4-7.4
			c-5.3,0-5.8,3.7-5.8,8.1c0,6.7,2.6,7.7,5.8,7.7c3.2,0,5.3-1.5,5.3-4.9h-2.7c-0.1,1.5-1,2.9-2.6,2.9c-1.9,0-3.1-0.8-3.1-5.1H89.9z
			 M103.1,182.5V172c0-3-0.8-5-4.1-5c-2,0-3.1,0.5-4.1,2.3h-0.1v-2h-2.6c0.1,1.1,0.2,2.1,0.2,3.2v12h2.5v-9c0-2.1,0.4-4.5,3.1-4.5
			c2.1,0,2.7,1.3,2.7,2.9v10.5H103.1z M104.4,167.3v1.9h2.5V180c0,1.7,1.1,2.7,3.4,2.7c0.8,0,1.6-0.2,2.4-0.2v-1.9
			c-0.5,0.1-0.9,0.1-1.1,0.1c-2.3,0-2.3-1.2-2.3-2.2v-9.3h3.3v-1.9h-3.3v-4l-2.5,1.1v2.9H104.4z M117.5,182.5h2.8l1.6-5.2h8.4
			l1.6,5.2h3.1l-7.1-21.7h-3.5L117.5,182.5z M129.6,174.9h-6.9l3.4-11.6h0.1L129.6,174.9z M134.8,167.3v1.9h2.3v13.3h2.5v-13.3h3.1
			v-1.9h-3.1v-2.6c0-1.2,0.4-2.3,3.1-2.2v-1.8c-0.4-0.1-0.7-0.1-1.2-0.1c-2.2,0-4.4,0.6-4.4,3.7v2.9H134.8z M143.3,167.3v1.9h2.3
			v13.3h2.5v-13.3h3.1v-1.9h-3.1v-2.6c0-1.2,0.5-2.3,3.1-2.2v-1.8c-0.4-0.1-0.7-0.1-1.2-0.1c-2.2,0-4.4,0.6-4.4,3.7v2.9H143.3z
			 M160.2,175c0.2,4.9-1.6,5.8-3.1,5.8c-1.7,0-2.4-1.3-2.4-2.8C154.7,174.8,157.8,175,160.2,175z M160.2,182.5h2.7
			c-0.2-1.2-0.3-2.4-0.3-3.6v-7.3c0-2.6-1-4.6-4.9-4.6c-3.2,0-5,1.2-5.1,4.6h2.7c-0.2-1.6,0.7-2.7,2.4-2.7c2.6,0,2.6,2.2,2.6,4.2
			c-3.5-0.1-8,0.1-8,4.7c0,2.9,0.9,5,4.1,5c1.9,0,3.1-0.8,3.8-2.5h0.1V182.5z M165.7,182.5h2.5v-15.2h-2.5V182.5z M165.5,163.5h2.8
			v-2.6h-2.8V163.5z M173.4,167.3H171v15.2h2.5v-8.9c0-2,0.7-4.1,3.4-4.1c0.2,0,0.5,0,0.7,0.1c0.2,0,0.5,0.1,0.7,0.1V167
			c-2.4,0-3.7,0.3-4.7,2.6h-0.1V167.3z M189.7,178.2c0-4.6-7.6-4.6-7.6-7.2c0-1.3,1-2,2.3-2c1.6,0,2.4,0.8,2.4,2.4h2.7
			c0.2-3-2.1-4.3-4.8-4.3c-4.3,0-5.2,2.6-5.2,4.1c0,4.5,7.6,4.6,7.6,7.3c0,1.6-1.1,2.3-2.6,2.3c-2.5,0-2.5-2-2.5-2.9h-2.8
			c-0.1,3.5,2,4.9,5.2,4.9C187.5,182.8,189.7,181.5,189.7,178.2L189.7,178.2z"/>
		<path id="Fill-2" class="st0" d="M216.6,188.2c0,1.2,0.3,3.7-1.5,3.7c-1,0-1.2-1-1.2-1.8C213.9,188.1,215,188.3,216.6,188.2z
			 M219.6,186c0-2-0.5-3.7-4.5-3.7c-1.2,0-2.2,0.2-2.9,0.7c-0.7,0.5-1.2,1.4-1.2,2.7h3.1c0-0.9,0.1-1.7,1.2-1.7
			c1.1,0,1.3,0.7,1.3,1.6v0.9c-2.9,0-5.8,0.1-5.8,3.8c0,1.9,0.8,3.6,3,3.6c1.4,0,2.3-0.6,2.9-1.7h0l0.1,1.5h2.9
			c-0.1-0.7-0.2-1.4-0.2-2.1V186z M224.9,182.4h-3.1v11.2h3.1v-7.7c0-1,0.2-1.8,1.2-1.8s1.2,0.8,1.2,1.8v7.7h3.1v-9
			c0-1.5-1.3-2.4-2.8-2.4c-0.6,0-1.1,0.1-1.5,0.3c-0.4,0.2-0.8,0.5-1.1,1h0V182.4z M236.6,191.9c-1.1,0-1.3-1.2-1.3-4
			c0-2.2,0-3.8,1.3-3.8c1.3,0,1.3,1.6,1.3,3.8C237.8,190.7,237.6,191.9,236.6,191.9z M241,193.6v-16h-3.1v5.9h0
			c-0.6-1-1.4-1.3-2.5-1.3c-3.1,0-3.1,3.5-3.1,5.7c0,2.3-0.1,5.9,3.1,5.9c1.2,0,2.1-0.4,2.6-1.5h0v1.2H241z M251.3,184v-6.4H248v16
			h3.3v-7.1h3.8v7.1h3.3v-16h-3.3v6.4H251.3z M265.1,191.8c-1.2,0-1.4-0.7-1.4-4.1c0-2.3,0.1-3.5,1.4-3.5c1.3,0,1.4,1.2,1.4,3.5
			C266.6,191.1,266.3,191.8,265.1,191.8z M265.1,193.8c4,0,4.6-2.5,4.6-6c0-3.1-0.4-5.7-4.6-5.7c-4.1,0-4.6,2.6-4.6,5.7
			C260.6,191.4,261.1,193.8,265.1,193.8z M277,193.6h3.2c-0.1-0.7-0.1-1.5-0.1-2.2v-9H277v7.7c0,1-0.2,1.7-1.2,1.7
			c-1,0-1.2-0.7-1.2-1.7v-7.7h-3.1v9c0,1.6,1.3,2.4,2.8,2.4c0.6,0,1.1-0.1,1.5-0.3c0.4-0.2,0.8-0.6,1.1-1h0V193.6z M281.7,190
			c-0.2,3.1,1.6,3.8,4.4,3.8c2.6,0,4.2-1.5,4.2-3.4c0-3.6-5.5-3.5-5.5-5.3c0-0.8,0.4-1.2,1.1-1.2c0.3,0,0.6,0,0.8,0.2
			c0.2,0.2,0.3,0.7,0.3,1.4h3.1c0.2-2.4-1.7-3.4-3.9-3.4c-2,0-4.4,0.7-4.4,3.1c0,3.6,5.5,3,5.5,5.4c0,0.8-0.5,1.2-1.2,1.2
			s-1-0.2-1.1-0.5c-0.2-0.4-0.2-0.8-0.2-1.4H281.7z M291.9,193.6h3.1v-11.2h-3.1V193.6z M291.9,180.1h3.1v-2.5h-3.1V180.1z
			 M300.4,182.4h-3.1v11.2h3.1v-7.7c0-1,0.2-1.8,1.2-1.8s1.2,0.8,1.2,1.8v7.7h3.1v-9c0-1.5-1.3-2.4-2.8-2.4c-0.6,0-1.1,0.1-1.5,0.3
			c-0.4,0.2-0.8,0.5-1.1,1h0V182.4z M310.7,188.4c0-3.4,0.2-4.2,1.4-4.2c1.2,0,1.3,1.4,1.3,3.9c0,2.4-0.2,3.5-1.3,3.5
			C310.6,191.5,310.7,189.4,310.7,188.4z M313.5,182.4v1.3h0c-0.4-1-1.4-1.5-2.5-1.5c-3.3,0-3.3,3.1-3.3,5.6c0,2.5-0.2,5.7,3.3,5.7
			c1,0,1.9-0.4,2.4-1.3h0v2.1c0,1.1-0.4,1.9-1.2,1.9c-0.5,0-0.8-0.2-1-0.4c-0.2-0.3-0.3-0.7-0.3-1.1h-3.1c0.1,2.7,2.1,3.3,4.4,3.3
			c4.3,0,4.2-3.1,4.2-3.8v-11.6H313.5L313.5,182.4z"/>
		<path id="Fill-3" class="st0" d="M214.6,155.2h1.5c1.1,0,1.7,0.6,1.7,2.1c0,1-0.4,2.3-1.7,2.3h-1.5V155.2z M214.6,162.2h0.9
			c2.6,0,2.4,1.6,2.4,3.5c0,1-0.1,2.1,0.4,3.1h3.3c-0.3-0.7-0.4-3.7-0.4-4.7c0-2.9-2.2-3.1-2.9-3.1v0c2.2-0.4,3-1.9,3-3.9
			c0-2.7-1.5-4.2-3.7-4.2h-6.2v16h3.3V162.2z M226,161.9c0-1,0-2.6,1.4-2.6c1.5,0,1.4,1.6,1.4,2.6H226z M232,163.7
			c0.1-3.6-0.4-6.3-4.6-6.3c-4.1,0-4.6,2.6-4.6,5.7c0,3.5,0.5,6,4.6,6c1.5,0,2.6-0.4,3.3-1.1c0.8-0.7,1.2-1.7,1.2-2.9h-3.2
			c0,0.9-0.2,2-1.3,2c-1.4,0-1.4-2-1.4-3.3H232z M233.3,165.2c-0.2,3.1,1.6,3.8,4.4,3.8c2.6,0,4.2-1.5,4.2-3.4
			c0-3.6-5.5-3.5-5.5-5.3c0-0.8,0.4-1.2,1.1-1.2c0.3,0,0.6,0,0.8,0.2c0.2,0.2,0.3,0.7,0.3,1.4h3.1c0.2-2.4-1.7-3.4-3.9-3.4
			c-2,0-4.4,0.7-4.4,3.1c0,3.6,5.5,3,5.5,5.4c0,0.8-0.5,1.2-1.2,1.2c-0.6,0-1-0.2-1.1-0.5c-0.2-0.4-0.2-0.8-0.2-1.4H233.3z
			 M243.6,168.8h3.1v-11.2h-3.1V168.8z M243.6,155.2h3.1v-2.5h-3.1V155.2z M253.1,167.1c-1.1,0-1.3-1.2-1.3-4c0-2.2,0-3.8,1.3-3.8
			c1.3,0,1.3,1.6,1.3,3.8C254.3,165.9,254.1,167.1,253.1,167.1z M257.4,168.8v-16h-3.1v5.9h0c-0.6-1-1.4-1.3-2.5-1.3
			c-3.1,0-3.1,3.5-3.1,5.7c0,2.3-0.1,5.9,3.1,5.9c1.2,0,2.1-0.4,2.6-1.5h0v1.2H257.4z M262.4,161.9c0-1,0-2.6,1.4-2.6
			c1.5,0,1.4,1.6,1.4,2.6H262.4z M268.4,163.7c0.1-3.6-0.4-6.3-4.6-6.3c-4.1,0-4.6,2.6-4.6,5.7c0,3.5,0.5,6,4.6,6
			c1.5,0,2.6-0.4,3.3-1.1c0.8-0.7,1.2-1.7,1.2-2.9h-3.2c0,0.9-0.2,2-1.3,2c-1.4,0-1.4-2-1.4-3.3H268.4z M273.3,157.6h-3.1v11.2h3.1
			v-7.7c0-1,0.2-1.8,1.2-1.8c1,0,1.2,0.8,1.2,1.8v7.7h3.1v-9c0-1.5-1.3-2.4-2.8-2.4c-0.6,0-1.1,0.1-1.5,0.3c-0.4,0.2-0.8,0.5-1.1,1
			h0V157.6z M279.9,159.5h1.3v6.9c0,0.7,0.4,2.5,3.1,2.5c0.8,0,1.2-0.1,1.6-0.1v-1.9c-0.2,0-0.4,0-0.6,0c-1,0-1-0.6-1-1.4v-6h1.6
			v-1.9h-1.6v-3.2l-3.1,1.4v1.8h-1.3V159.5z M287.3,168.8h3.1v-11.2h-3.1V168.8z M287.3,155.2h3.1v-2.5h-3.1V155.2z M298.1,163.4
			c0,1.2,0.3,3.7-1.5,3.7c-1,0-1.2-1-1.2-1.8C295.4,163.3,296.5,163.4,298.1,163.4z M301.1,161.1c0-2-0.5-3.7-4.5-3.7
			c-1.2,0-2.2,0.2-2.9,0.7c-0.7,0.5-1.2,1.4-1.2,2.7h3.1c0-0.9,0.1-1.7,1.2-1.7c1.1,0,1.3,0.7,1.3,1.6v0.9c-2.9,0-5.8,0.1-5.8,3.8
			c0,1.9,0.8,3.6,3,3.6c1.4,0,2.3-0.6,2.9-1.7h0l0.1,1.5h2.9c-0.1-0.7-0.2-1.4-0.2-2.1V161.1z M303.4,168.8h3.1v-16h-3.1V168.8z
			 M322,168.8v-2.7h-5v-13.3h-3.3v16H322z M323.5,168.8h3.1v-11.2h-3.1V168.8z M323.5,155.2h3.1v-2.5h-3.1V155.2z M334,152.7
			c-0.4,0-0.7,0-1.1,0c-3.8,0-3.5,1.7-3.5,4.9H328v1.9h1.4v9.3h3.1v-9.3h1.5v-1.9h-1.5v-1.3c0-1.1,0.3-1.6,1.5-1.5V152.7z
			 M338,161.9c0-1,0-2.6,1.4-2.6c1.5,0,1.4,1.6,1.4,2.6H338z M344,163.7c0.1-3.6-0.4-6.3-4.6-6.3c-4.1,0-4.6,2.6-4.6,5.7
			c0,3.5,0.5,6,4.6,6c1.5,0,2.6-0.4,3.3-1.1c0.8-0.7,1.2-1.7,1.2-2.9h-3.2c0,0.9-0.2,2-1.3,2c-1.4,0-1.4-2-1.4-3.3H344L344,163.7z"
			/>
		<path id="Stroke-4" class="st1" d="M200.5,143.3v59.8"/>
		<polyline id="Fill-5" points="108.4,10.5 133,10.5 151.2,68.6 170.4,10.5 192.6,10.5 163.3,90.8 136.8,90.8 		"/>
		<path id="Fill-6" d="M241.7,35.7c-1-8.1-6.7-11.1-13-11.1c-13.5,0-17.6,12.3-17.6,27c0,4.9,0.1,25.1,17.3,25.1
			c11.8,0,13-8.6,13.5-11.7h23.1c-0.1,25.1-25.7,27.2-36.1,27.2c-7.8,0-21.6-1.3-30.5-10.7c-8.8-9.3-10.3-22.1-10.3-30.5
			c0-11,2.6-22,10.1-30.6c8.2-9.3,18.8-11.8,30.5-11.8c13,0,22.9,3.1,29.2,9.8c6.4,6.9,6.6,14.1,6.7,17.1"/>
		<path id="Fill-7" d="M293.3,10.5v47.7c0,4.3,0.3,8.8,2.6,12.1c3,4.4,8.2,6.6,13.7,6.6c14.1,0,16-11.5,16-19.5V10.5h21.7V57
			c0,8.9-1.2,18.6-6.2,24.5c-7.8,9.6-22.1,11.4-32.2,11.4c-37.9,0-38-23.6-38-36.7l0.1-45.7"/>
		<path id="Fill-8" class="st2" d="M106.6,50.7c0,27.7-22.4,50.1-50.1,50.1c-27.7,0-50.1-22.4-50.1-50.1C6.4,23,28.8,0.6,56.5,0.6
			C84.2,0.6,106.6,23,106.6,50.7"/>
		<path id="Fill-9" class="st3" d="M56.5,87c-20,0-36.3-16.2-36.3-36.3c0-20,16.2-36.3,36.3-36.3c20,0,36.3,16.2,36.3,36.3
			C92.8,70.7,76.5,87,56.5,87 M56.5,2.5C29.9,2.5,8.3,24.1,8.3,50.7s21.6,48.2,48.2,48.2c26.6,0,48.2-21.6,48.2-48.2
			S83.1,2.5,56.5,2.5"/>
		<path id="Fill-10" class="st4" d="M31.3,86.7c-0.2,0.2-0.4,0.3-0.5,0.4c-0.1,0.2-0.1,0.3-0.1,0.4c0.1,0.2,0.3,0.4,0.4,0.6
			c0.1,0.1,0.1,0.2,0.1,0.3c-0.1,0.1-0.2,0.1-0.3,0c-0.3-0.2-0.5-0.4-0.8-0.6c-0.3-0.2-0.6-0.3-0.9-0.5c-0.1,0-0.2-0.1-0.1-0.3
			c0.1-0.1,0.3,0,0.5-0.1c0.3-0.1,0.5-0.2,1.1-0.6l4.4-2.9c0.5-0.3,0.6-0.3,0.7-0.2c0.1,0.1,0.1,0.2,0.1,0.5L35,89.8
			c-0.1,0.5,0.1,0.7,0.2,0.9c0.1,0.1,0.2,0.2,0.1,0.3c-0.1,0.1-0.2,0.1-0.3,0c-0.4-0.2-0.7-0.5-1.1-0.8c-0.4-0.2-0.8-0.4-1.1-0.6
			c-0.1,0-0.2-0.1-0.1-0.3c0.1-0.1,0.2-0.1,0.4,0c0.3,0.1,0.4-0.1,0.5-0.2c0.1-0.1,0.1-0.4,0.1-0.6l0.5-3.3c0.1-0.4,0.1-0.5,0-0.5
			c0,0-0.1,0-0.3,0.1"/>
		<path id="Fill-11" class="st4" d="M30.1,80.9c0.4-0.5,0.1-0.9-0.1-1.1c-0.1-0.1-0.1-0.2,0-0.3c0.1-0.1,0.3,0.1,0.5,0.2
			c0.2,0.2,0.5,0.5,0.8,0.7c0.3,0.3,0.6,0.4,0.9,0.7c0.1,0.1,0.3,0.2,0.2,0.3c-0.1,0.1-0.3,0-0.3,0c-0.4-0.2-0.7,0.1-0.9,0.3
			l-2.8,3.3c-0.4,0.5-0.2,0.8,0,1.1c0.1,0.1,0.1,0.2,0,0.3c-0.1,0.1-0.3-0.1-0.5-0.2c-0.3-0.2-0.5-0.6-0.8-0.8
			c-0.3-0.2-0.6-0.4-0.9-0.7c-0.1-0.1-0.2-0.2-0.1-0.3c0.1-0.1,0.3,0,0.4,0.1c0.4,0.2,0.6-0.1,0.8-0.4"/>
		<path id="Fill-12" class="st4" d="M25.2,79.9c0.1-0.1,0.2-0.2-0.2-0.7c-0.6-0.6-1.1-0.6-1.8,0c-0.5,0.5-0.7,1.2-0.2,1.8
			c0.3,0.4,0.5,0.3,0.8,0.1L25.2,79.9z M25,82.1c-0.4,0.4-0.3,0.7-0.1,1.1c0.1,0.1,0.1,0.2,0,0.3c-0.1,0.1-0.1,0.1-0.3-0.1
			c-0.2-0.2-0.3-0.4-0.7-0.9c-0.3-0.4-0.9-0.9-1.2-1.2c-0.9-1-1.6-2.1-0.4-3.2c0.5-0.4,1-0.4,1.4-0.3c0.2,0.1,0.4,0.2,0.5,0.2
			c0.1-0.1,0.8-2.2,0.9-2.9c0-0.1,0-0.2-0.1-0.3c-0.1-0.1-0.2-0.1-0.2-0.2c-0.1-0.1-0.1-0.2,0-0.2c0.3-0.3,1.1,0.5,1.3,0.8
			c0.2,0.2,0.3,0.6,0.1,1l-0.8,2.2c-0.1,0.3-0.2,0.6,0,0.9c0.2,0.2,0.3,0.2,0.3,0.1l1.2-1.1c0.6-0.5,0.5-0.9,0.3-1.2
			c-0.1-0.1-0.1-0.2,0-0.3c0.1-0.1,0.2,0,0.5,0.3c0.3,0.3,0.5,0.6,0.7,0.9c0.3,0.3,0.6,0.5,0.8,0.8c0.1,0.1,0.2,0.2,0.1,0.3
			c-0.1,0.1-0.3,0-0.3,0c-0.3-0.2-0.7,0-0.9,0.2L25,82.1z"/>
		<path id="Fill-13" class="st4" d="M20.7,70.8c-0.5,0.3-0.5,0.7-0.3,1.1c0,0.1,0,0.2-0.1,0.3c-0.1,0.1-0.2,0-0.4-0.4
			c-0.2-0.3-0.4-0.7-0.6-1c-0.2-0.3-0.5-0.6-0.7-1c-0.1-0.2-0.1-0.3,0-0.3c0.1-0.1,0.3,0,0.3,0.1c0.3,0.3,0.7,0.1,0.9,0l1.2-0.7
			c0.1-0.1,1.6,1,2.2,2.1c1,1.7,0.7,3.6-1,4.6c-1.8,1.1-3.9,0.6-4.9-1c-0.6-1-0.6-2-0.7-2.1c-0.1-0.2-0.3,0-0.5-0.2
			c0-0.1,0-0.1,0-0.1l1.1-0.8c0.1-0.1,0.3-0.2,0.4-0.3c0.1-0.1,0.2-0.1,0.3,0c0.1,0.1-0.1,0.3-0.1,0.4c-0.8,1.5-0.6,2.2-0.2,2.8
			c0.8,1.4,2.2,1.2,3.5,0.4c1.2-0.7,2.6-2,1.7-3.4c-0.4-0.7-0.9-0.9-1.7-0.5"/>
		<path id="Fill-14" class="st4" d="M19.4,65.8c0.6-0.2,0.5-0.8,0.4-1c0-0.1,0-0.2,0.1-0.3c0.1-0.1,0.3,0.2,0.4,0.5
			c0.1,0.3,0.2,0.7,0.4,1c0.2,0.4,0.4,0.7,0.5,1c0.1,0.2,0.1,0.3,0,0.4c-0.1,0.1-0.3-0.1-0.3-0.1c-0.3-0.3-0.6-0.2-0.9-0.1l-4,1.7
			c-0.5,0.2-0.6,0.6-0.4,1c0,0.1,0,0.2-0.1,0.3c-0.1,0.1-0.3-0.2-0.4-0.5c-0.2-0.4-0.2-0.7-0.4-1.1c-0.2-0.4-0.4-0.7-0.5-1
			c-0.1-0.1-0.1-0.3,0-0.3c0.1-0.1,0.3,0.2,0.4,0.2c0.3,0.3,0.6,0.2,0.9,0"/>
		<path id="Fill-15" class="st4" d="M14.7,63.2c-0.1,0.2-0.3,0.5-0.3,0.5c0,0,0,0.1,0.3,0l3.3-0.8c0.5-0.1,0.8-0.4,0.8-0.8
			c0-0.3-0.1-0.6,0.1-0.6c0.2,0,0.2,0.2,0.3,0.3c0.1,0.3,0.1,0.7,0.2,1c0.1,0.3,0.2,0.6,0.3,1c0,0.1,0,0.2-0.1,0.2
			c-0.2,0-0.2-0.1-0.3-0.2c-0.4-0.4-0.7-0.5-1.2-0.4l-3.5,0.9c-0.4,0.1-0.8,0.4-0.9,0.8c-0.1,0.3-0.1,0.5-0.2,0.5
			c-0.2,0-0.2,0-0.2-0.1c-0.1-0.3-0.1-0.6-0.2-0.9c-0.1-0.3-0.2-0.6-0.2-0.8c-0.1-0.2,0-0.3,0-0.4l2.8-4.6c0.1-0.2,0.2-0.3,0.2-0.4
			c0-0.1-0.2-0.1-0.3,0L13.4,59c-0.6,0.2-1.2,0.3-1.2,1c0,0.3,0,0.5-0.1,0.6c-0.2,0-0.2-0.1-0.2-0.3c-0.1-0.3-0.1-0.7-0.2-1
			c-0.1-0.3-0.2-0.6-0.3-1c0-0.1-0.1-0.2,0.1-0.2c0.1,0,0.2,0.1,0.3,0.2c0.4,0.4,0.7,0.5,1.2,0.4l4.5-1.1c0.4-0.1,0.5-0.1,0.6,0
			c0,0.1-0.1,0.4-0.3,0.7"/>
		<path id="Fill-16" class="st4" d="M16.6,53.9c0.6-0.1,0.7-0.6,0.7-0.8c0-0.1,0.1-0.2,0.2-0.2c0.2,0,0.2,0.3,0.2,0.5
			c0,0.3,0,0.7,0,1.1c0,0.4,0.2,0.8,0.2,1.1c0,0.2,0,0.3-0.1,0.3c-0.2,0-0.2-0.1-0.3-0.2c-0.2-0.4-0.5-0.4-0.8-0.4l-4.3,0.4
			c-0.6,0.1-0.7,0.4-0.7,0.8c0,0.1-0.1,0.2-0.2,0.2c-0.2,0-0.2-0.3-0.2-0.5c0-0.4,0-0.8,0-1.2c0-0.4-0.2-0.8-0.2-1.1
			c0-0.1,0-0.3,0.1-0.3c0.2,0,0.2,0.2,0.3,0.3c0.2,0.4,0.5,0.3,0.8,0.3"/>
		<path id="Fill-17" class="st4" d="M14.5,50.2c0.1,0.1,0.2,0.1,0.3,0.1c0.1,0,0.1-0.2,0.1-0.4l0-1c0-0.3,0-0.4,0-0.4
			c-0.1,0-0.2,0.1-0.4,0.1l-1.4,0.6c-0.1,0.1-0.2,0.1-0.2,0.2c0,0.1,0.2,0.1,0.2,0.2L14.5,50.2z M11.2,48.9
			c-0.2-0.1-0.3-0.2-0.3-0.3c0,0,0.1-0.1,0.2-0.1l5.4-2.2c0.4-0.2,0.8-0.3,1-0.6c0.1-0.3,0.1-0.4,0.3-0.4c0.2,0,0.1,0.1,0.1,0.3
			c0,0.5-0.1,0.9-0.1,1.3c0,0.4,0,0.9,0,1.4c0,0.1-0.1,0.2-0.1,0.2c-0.1,0-0.2-0.1-0.2-0.3c0-0.3-0.3-0.4-0.5-0.4
			c-0.2,0-1.1,0.2-1.2,0.4c-0.1,0.1-0.2,0.3-0.2,0.8l-0.1,1.5c0,0.5,0.9,0.8,1.4,0.8c0.1,0,0.3-0.2,0.4-0.4c0.1-0.3,0.2-0.6,0.3-0.6
			c0.2,0,0.2,0.1,0.1,0.3c0,0.3-0.1,0.7-0.1,1c0,0.3,0,0.7,0,1c0,0.1,0,0.3-0.2,0.2c-0.2,0-0.2-0.3-0.3-0.4
			c-0.1-0.2-0.2-0.3-0.4-0.3L11.2,48.9z"/>
		<path id="Fill-18" class="st4" d="M15.4,34.6c0.2,0,0.4,0,0.5,0.1c0.1,0,0.2,0.1,0.2,0.2c0,0.1-0.3,0.1-0.4,0.2
			c-1.2,0.3-2,0.9-2.2,1.7c-0.4,1.2,0,2.2,2,2.9c1.4,0.4,3,0,3.4-1.3c0.2-0.8,0.1-1.6-0.3-2.3c-0.1-0.1-0.2-0.3-0.2-0.5
			c0-0.1,0.1-0.1,0.2-0.1c0.3,0.1,1.5,1.6,0.9,3.5c-0.5,1.6-2.1,2.8-4.1,2.2c-2.6-0.8-3-2.8-2.5-4.4c0.3-1,1.1-1.6,1.1-1.9
			c0.1-0.2-0.2-0.2-0.2-0.5c0-0.1,0.1-0.1,0.1-0.1"/>
		<path id="Fill-19" class="st4" d="M22.1,31.8c0.5-1-0.1-2.3-1.4-2.9c-1.2-0.6-3.4-0.9-4.1,0.4c-0.5,1,0.1,2.3,1.4,3
			C19.2,32.9,21.4,33.2,22.1,31.8 M16.4,28.7c0.9-1.7,2.8-2.5,4.6-1.5c1.9,1,2.2,3.4,1.2,5.2c-0.9,1.7-2.8,2.4-4.5,1.5
			C16,32.9,15.5,30.5,16.4,28.7"/>
		<path id="Fill-20" class="st4" d="M20.9,24.6c-0.3-0.2-0.8-0.5-1.1-0.3c-0.3,0.1-0.4,0.2-0.6,0.1c-0.1-0.1-0.1-0.1,0-0.2
			c0.2-0.2,0.4-0.4,0.6-0.6c0.2-0.2,0.4-0.5,0.5-0.7c0.1-0.1,0.2-0.2,0.3-0.1l4.2,1.1c0.4,0.1,0.6,0.2,0.6,0.1c0,0-0.1-0.2-0.1-0.4
			l-1.7-4.3c-0.1-0.2-0.1-0.3,0-0.3c0.2-0.2,0.4-0.4,0.6-0.6c0.2-0.2,0.3-0.5,0.5-0.7c0,0,0.1,0,0.2,0c0.1,0.1,0,0.3-0.1,0.6
			c-0.1,0.3-0.2,0.5,0.3,0.9l2.6,2.2c0.6,0.5,1,0.8,1.7,0.4c0.2-0.1,0.3-0.1,0.4,0c0.1,0.1,0,0.3-0.1,0.4c-0.3,0.3-0.5,0.6-0.8,0.8
			c-0.2,0.3-0.5,0.6-0.7,0.9c-0.1,0.1-0.3,0.3-0.4,0.2c-0.1-0.1-0.1-0.2,0-0.4c0.1-0.3,0-0.4-0.4-0.7l-2.3-2
			c-0.1-0.1-0.2-0.2-0.2-0.1c0,0.1,0,0.2,0.1,0.4l1.7,4c0.1,0.1,0.1,0.3,0,0.4c-0.1,0.1-0.2,0.1-0.3,0L22,24.6c-0.1,0-0.3-0.1-0.3,0
			c0,0,0,0.1,0.1,0.2l1.9,1.7c0.5,0.4,0.9,0.6,1.6,0.3c0.1-0.1,0.3-0.1,0.4,0c0.1,0.1,0,0.2-0.1,0.3c-0.2,0.3-0.5,0.5-0.7,0.7
			c-0.2,0.3-0.4,0.6-0.6,0.8c-0.1,0.1-0.1,0.2-0.2,0.1c-0.1-0.1-0.1-0.2,0-0.4c0.1-0.6,0-0.8-0.4-1.2"/>
		<path id="Fill-21" class="st4" d="M28,16.9c-0.2-0.3-0.6-0.7-1-0.6c-0.3,0.1-0.5,0.1-0.6,0c-0.1-0.1-0.1-0.1,0-0.2
			c0.2-0.2,0.5-0.3,0.7-0.5c0.2-0.2,0.4-0.4,0.7-0.5c0.2-0.1,0.2-0.1,0.4-0.1l3.8,2.1c0.4,0.2,0.5,0.3,0.6,0.3c0,0,0-0.2,0-0.4
			L32,12.5c0-0.2,0-0.3,0.1-0.3c0.2-0.2,0.5-0.3,0.7-0.5c0.2-0.2,0.4-0.4,0.7-0.5c0,0,0.1,0,0.2,0.1c0.1,0.1,0,0.3-0.2,0.5
			c-0.2,0.3-0.3,0.5,0,0.9l2,2.8c0.5,0.7,0.8,1,1.6,0.8c0.2-0.1,0.3-0.1,0.4,0.1c0.1,0.1-0.1,0.2-0.2,0.4c-0.3,0.2-0.7,0.4-1,0.6
			c-0.3,0.3-0.6,0.5-0.9,0.7c-0.2,0.1-0.3,0.2-0.4,0.1c-0.1-0.1,0-0.2,0.1-0.4c0.1-0.2,0-0.4-0.3-0.8l-1.8-2.5
			c-0.1-0.1-0.2-0.2-0.2-0.2c-0.1,0,0,0.2,0,0.5l0.7,4.3c0,0.1,0,0.3-0.1,0.4c-0.1,0.1-0.2,0-0.3,0l-3.9-2.2
			c-0.1-0.1-0.3-0.1-0.3-0.1c-0.1,0,0,0.1,0.1,0.2l1.5,2.1c0.4,0.5,0.8,0.8,1.5,0.6c0.2,0,0.3,0,0.4,0.1c0.1,0.1,0,0.2-0.1,0.3
			c-0.3,0.2-0.6,0.3-0.9,0.5c-0.3,0.2-0.5,0.5-0.8,0.7c-0.1,0.1-0.2,0.1-0.3,0c-0.1-0.1,0-0.2,0-0.4c0.3-0.5,0.2-0.8-0.1-1.2"/>
		<path id="Fill-22" class="st4" d="M41.4,14.5c1.1-0.4,1.3-1.9,0.8-3.2c-0.5-1.2-2.1-2.9-3.5-2.2c-1.1,0.4-1.3,1.9-0.8,3.2
			C38.4,13.5,40,15.1,41.4,14.5 M38.9,8.6c1.8-0.8,3.8-0.2,4.6,1.7c0.8,2-0.4,4.1-2.3,4.8c-1.8,0.8-3.7,0.1-4.5-1.7
			C35.9,11.5,37,9.3,38.9,8.6"/>
		<path id="Fill-23" class="st4" d="M45.9,8.4c-0.2-0.2-0.5-0.3-0.5-0.3c0,0-0.1,0,0,0.3l0.7,3.4c0.1,0.5,0.3,0.8,0.8,0.8
			c0.3,0,0.6-0.1,0.6,0.1c0,0.2-0.2,0.2-0.4,0.3c-0.3,0.1-0.7,0.1-1,0.1c-0.3,0.1-0.6,0.2-1,0.3c-0.1,0-0.2,0-0.2-0.1
			c0-0.2,0.1-0.2,0.2-0.3c0.4-0.4,0.5-0.7,0.4-1.2l-0.7-3.6c-0.1-0.4-0.3-0.9-0.7-0.9c-0.3-0.1-0.5-0.1-0.5-0.2c0-0.2,0-0.2,0.1-0.2
			c0.3-0.1,0.6-0.1,0.9-0.1c0.3-0.1,0.6-0.2,0.8-0.2c0.2,0,0.3,0,0.4,0.1l4.4,3.1c0.2,0.1,0.3,0.2,0.4,0.2c0.1,0,0.1-0.2,0-0.3
			l-0.4-2.2c-0.1-0.6-0.3-1.2-0.9-1.2c-0.3,0-0.5,0-0.6-0.2c0-0.2,0.2-0.2,0.3-0.2c0.3-0.1,0.7-0.1,1-0.1c0.3-0.1,0.6-0.2,1-0.3
			c0.1,0,0.2,0,0.2,0.1c0,0.2-0.1,0.2-0.2,0.3c-0.4,0.4-0.5,0.7-0.4,1.2l0.9,4.6c0.1,0.4,0.1,0.5,0,0.6c-0.1,0-0.4-0.2-0.7-0.4"/>
		<path id="Fill-24" class="st4" d="M52.8,5.9c-0.1-0.3-0.3-0.4-0.4-0.5c-0.1-0.1-0.2-0.1-0.2-0.2C52.2,5,52.3,5,52.4,5
			c0.4,0,0.8,0.1,1.1,0.1c0.4,0,0.8-0.1,1.1-0.1c0.2,0,0.3,0,0.2,0.2c0,0.2-0.2,0.2-0.3,0.2c-0.3,0.1-0.3,0.3-0.3,0.4
			c0,0.1,0.1,0.3,0.2,0.6l1,3.2c0,0.1,0.1,0.2,0.1,0.2c0,0,0.1-0.1,0.1-0.2l1-2.1L56.3,6c-0.1-0.3-0.3-0.4-0.4-0.5
			c-0.1-0.1-0.2-0.1-0.2-0.2c0-0.2,0.1-0.2,0.3-0.2c0.4,0,0.8,0.1,1.1,0.1c0.4,0,0.8-0.1,1.1-0.1c0.2,0,0.3,0,0.2,0.2
			c0,0.2-0.2,0.2-0.3,0.2c-0.3,0.1-0.3,0.3-0.3,0.4c0,0.2,0.1,0.5,0.2,0.7l1,2.9c0,0.1,0.1,0.2,0.1,0.2c0.1,0,0.1-0.2,0.2-0.3
			l0.9-2.5c0.1-0.3,0.2-0.5,0.2-0.7c0-0.4-0.5-0.4-0.7-0.5c-0.2-0.1-0.3-0.2-0.3-0.3c0-0.2,0.1-0.2,0.2-0.2c0.3,0,0.7,0.1,1,0.1
			c0.3,0,0.7-0.1,1-0.1c0.1,0,0.2,0,0.2,0.2c0,0.2-0.2,0.2-0.4,0.3c-0.3,0.2-0.3,0.4-0.6,1.1l-1.9,4.7c-0.2,0.5-0.3,0.6-0.4,0.6
			c-0.1,0-0.2-0.1-0.3-0.4l-1.1-3.1c-0.1-0.2-0.1-0.3-0.1-0.3c0,0-0.1,0.1-0.2,0.3l-1.4,2.9c-0.2,0.5-0.3,0.5-0.4,0.5
			c-0.1,0-0.2-0.1-0.3-0.5"/>
		<path id="Fill-25" class="st4" d="M63.6,7.3c0.1-0.5,0.2-1.2-0.2-1.3c-0.3-0.1-0.5-0.2-0.4-0.4c0-0.2,0.2-0.1,0.4-0.1
			c0.7,0.2,1.4,0.4,2.2,0.5c0.7,0.2,1.5,0.2,2.2,0.4c0.2,0,0.4,0.1,0.4,0.3c0,0.2-0.1,0.4-0.2,0.6c0,0.2,0,0.4-0.1,0.6
			c0,0.1-0.1,0.2-0.2,0.1c-0.2,0-0.1-0.2-0.1-0.3c0.1-0.6-0.2-0.9-1.3-1.1l-0.6-0.1c-0.3-0.1-0.3,0-0.4,0.4l-0.3,1.7
			c0,0.2,0.1,0.2,0.5,0.3c0.5,0.1,1,0,1.2-0.3c0.2-0.2,0.2-0.3,0.3-0.2c0.1,0,0.1,0.2,0.1,0.3c-0.1,0.3-0.2,0.6-0.2,0.8
			c-0.1,0.3-0.1,0.6-0.1,0.9c0,0.1-0.1,0.3-0.2,0.2c-0.1,0-0.1-0.3-0.2-0.5c-0.2-0.4-0.4-0.6-1-0.7c-0.5-0.1-0.6,0-0.6,0.2l-0.3,1.6
			c-0.1,0.7,0,0.8,0.5,0.9c1,0.2,1.6,0,2-0.2c0.4-0.2,0.5-0.5,0.7-0.5c0.1,0,0.1,0.1,0.1,0.2c0,0.2-0.2,0.5-0.3,0.7
			c-0.2,0.4-0.7,0.7-1.2,0.6c-0.6-0.1-1.3-0.3-1.9-0.5c-0.6-0.1-1.3-0.2-1.9-0.3c-0.3-0.1-0.4-0.1-0.4-0.2c0-0.2,0.2-0.2,0.4-0.2
			c0.3-0.1,0.4-0.3,0.6-0.8"/>
		<path id="Fill-26" class="st4" d="M70.8,11.2c-0.1,0.1-0.2,0.2-0.2,0.2c0,0.1,0.1,0.2,0.3,0.3l1,0.4c0.3,0.1,0.4,0.1,0.4,0.1
			c0-0.1,0-0.2,0-0.4l-0.1-1.5c0-0.1,0-0.2-0.1-0.2c-0.1,0-0.2,0.1-0.2,0.2L70.8,11.2z M73.1,8.5c0.2-0.2,0.3-0.3,0.4-0.2
			c0,0,0.1,0.1,0.1,0.2l0.3,5.8c0,0.4,0,0.9,0.3,1.1c0.2,0.2,0.3,0.3,0.3,0.4c-0.1,0.1-0.1,0.1-0.3,0.1c-0.4-0.2-0.8-0.4-1.2-0.6
			c-0.4-0.2-0.9-0.3-1.3-0.4c-0.1-0.1-0.2-0.1-0.1-0.2c0-0.1,0.2-0.1,0.3-0.1c0.3,0,0.5-0.1,0.6-0.3c0.1-0.2,0.1-1.1,0-1.3
			c-0.1-0.2-0.2-0.3-0.7-0.4L70.3,12c-0.5-0.2-1.1,0.6-1.2,1c-0.1,0.1,0.1,0.4,0.3,0.5c0.2,0.2,0.5,0.4,0.5,0.5
			c-0.1,0.1-0.2,0.1-0.3,0c-0.3-0.1-0.6-0.3-0.9-0.4c-0.3-0.1-0.6-0.2-0.9-0.3c-0.1-0.1-0.2-0.1-0.2-0.2c0.1-0.1,0.3-0.1,0.5-0.1
			c0.2,0,0.3-0.1,0.4-0.2L73.1,8.5z"/>
		<path id="Fill-27" class="st4" d="M78.2,11.9c0.3-0.5,0.1-0.9-0.2-1.1c-0.1-0.1-0.1-0.2-0.1-0.3c0.1-0.1,0.2-0.1,0.2-0.1
			c0.4,0.2,0.8,0.6,1.2,0.8c0.4,0.2,0.8,0.4,1.2,0.6c0.1,0.1,0.2,0.1,0.2,0.3c-0.1,0.1-0.2,0.1-0.3,0.1c-0.4-0.1-0.7,0.2-0.8,0.4
			l-2.2,3.6c-0.4,0.6-0.3,0.8,0.1,1c0.9,0.5,1.5,0.6,2,0.5c0.4-0.1,0.7-0.3,0.9-0.2c0.1,0.1,0.1,0.3,0,0.4c-0.4,0.7-1.4,0.8-2,0.4
			c-0.6-0.3-1.6-1.1-2.2-1.4c-0.3-0.2-0.7-0.3-1-0.5c-0.2-0.1-0.3-0.2-0.3-0.3c0.1-0.1,0.2-0.1,0.5-0.1c0.4,0,0.6-0.3,0.8-0.6"/>
		<path id="Fill-28" class="st4" d="M84.3,15.8c0.2-0.3,0.1-0.5-0.3-0.8c-0.7-0.6-1.1-0.8-1.9-0.2c0,0-0.1,0-0.2,0
			c-0.1-0.1-0.1-0.2-0.1-0.2c0.1-0.1,0.2-0.2,0.2-0.2l0.7-0.7c0.1-0.1,0.2-0.1,0.4,0c0.8,0.6,1.5,1.3,2.2,1.9
			c0.8,0.6,1.6,1.2,2.3,1.8c0.2,0.2,0.2,0.2,0,0.5l-0.6,0.8c0,0.1-0.1,0.1-0.1,0.2c0,0-0.1,0-0.2,0c-0.1-0.1-0.1-0.1-0.1-0.2
			c0.4-0.9,0.2-1.2-0.6-1.8c-0.4-0.3-0.6-0.4-0.8-0.1l-2.9,3.5c-0.5,0.6,0,1,0.2,1.3c0.1,0.1,0.2,0.2,0.1,0.4c-0.1,0.1-0.2,0-0.3,0
			c-0.4-0.4-0.8-0.8-1.3-1.2c-0.5-0.4-1-0.7-1.4-1.1c-0.1-0.1-0.2-0.1-0.1-0.3c0.1-0.2,0.2,0,0.4,0c0.3,0.1,0.8,0.5,1.3-0.1"/>
		<path id="Fill-29" class="st4" d="M90,24.1c0.2,0.3,0.4,0.3,0.5,0.2l1-0.9c0.5-0.4,0.4-0.8,0.1-1.1c-0.1-0.1-0.1-0.2,0-0.3
			c0.1-0.1,0.3,0.1,0.5,0.3c0.2,0.3,0.4,0.6,0.7,0.9c0.2,0.3,0.6,0.5,0.8,0.8c0.1,0.1,0.2,0.2,0.1,0.3c-0.1,0.1-0.3,0-0.3-0.1
			c-0.3-0.2-0.6-0.1-0.9,0.1l-3.3,2.8c-0.5,0.4-0.4,0.7-0.1,1.1c0.1,0.1,0.1,0.2,0,0.3c-0.1,0.1-0.3-0.1-0.5-0.3
			c-0.2-0.3-0.4-0.6-0.7-0.9c-0.2-0.3-0.6-0.5-0.8-0.8c-0.1-0.1-0.2-0.2-0.1-0.3c0.1-0.1,0.3,0,0.3,0.1c0.3,0.2,0.7,0.1,0.9-0.1
			l1.4-1.2c0.2-0.2,0.2-0.3,0-0.5l-1.5-1.8c-0.1-0.1-0.3,0-0.4,0L86.4,24c-0.5,0.4-0.4,0.7-0.1,1.1c0.1,0.1,0.1,0.2-0.1,0.3
			c-0.1,0.1-0.3-0.1-0.5-0.3c-0.2-0.3-0.4-0.6-0.7-0.9c-0.2-0.3-0.6-0.5-0.8-0.8c-0.1-0.1-0.2-0.2-0.1-0.3c0.1-0.1,0.3,0,0.3,0.1
			c0.3,0.2,0.7,0.1,0.9-0.1l3.3-2.8c0.5-0.4,0.4-0.7,0.1-1.1c-0.1-0.1-0.1-0.2,0-0.3c0.1-0.1,0.3,0.1,0.5,0.3
			c0.2,0.3,0.4,0.6,0.7,0.9c0.2,0.3,0.6,0.5,0.8,0.8c0.1,0.1,0.2,0.2,0.1,0.3c-0.1,0.1-0.3,0-0.3-0.1c-0.3-0.2-0.7-0.1-0.9,0.1
			l-1,0.9c-0.1,0.1-0.2,0.3,0,0.5"/>
		<path id="Fill-30" class="st4" d="M95.9,30.1c0.6-0.2,0.6-0.6,0.4-1c-0.1-0.1,0-0.2,0.1-0.3c0.1-0.1,0.2,0,0.4,0.4
			c0.2,0.4,0.2,0.7,0.4,1.1c0.2,0.4,0.4,0.7,0.5,1c0.1,0.2,0.1,0.3,0,0.3c-0.1,0-0.2-0.1-0.3-0.2c-0.3-0.2-0.6-0.2-0.9-0.1l-2.8,1.2
			c-1,0.5-1.5,1.5-1,2.6c0.7,1.6,2.1,1.4,3.1,1l2.3-1c0.4-0.2,0.6-0.6,0.4-1.1c-0.1-0.2-0.1-0.3,0.1-0.4c0.1-0.1,0.2,0,0.3,0.3
			c0.1,0.3,0.2,0.5,0.3,0.8c0.1,0.3,0.3,0.5,0.4,0.8c0.1,0.2,0.1,0.2-0.1,0.3c-0.1,0.1-0.2-0.1-0.3-0.2c-0.2-0.2-0.4-0.2-1.2,0.1
			l-1.9,0.8c-2,0.9-3.4,0.3-4.3-1.7c-0.7-1.6-0.4-2.9,1.2-3.6"/>
		<path id="Fill-31" class="st4" d="M98.7,39.5C98.8,39.3,99,39,99,39c0,0,0-0.1-0.3,0l-3.4,0.7c-0.5,0.1-0.8,0.3-0.8,0.8
			c0,0.3,0.1,0.6-0.1,0.6c-0.2,0-0.2-0.2-0.3-0.4c-0.1-0.3-0.1-0.7-0.1-1c-0.1-0.3-0.2-0.6-0.3-1c0-0.1,0-0.2,0.1-0.2
			c0.1,0,0.2,0.1,0.3,0.2c0.4,0.4,0.7,0.5,1.2,0.4l3.6-0.8c0.4-0.1,0.8-0.3,0.9-0.7c0.1-0.3,0.1-0.5,0.2-0.5c0.2,0,0.2,0,0.2,0.1
			c0.1,0.3,0.1,0.6,0.1,0.9c0.1,0.3,0.2,0.6,0.2,0.8c0,0.2,0,0.3,0,0.4l-3,4.5c-0.1,0.2-0.2,0.3-0.2,0.4c0,0.1,0.1,0.1,0.3,0
			l2.1-0.5c0.6-0.1,1.2-0.3,1.2-0.9c0-0.3,0-0.5,0.2-0.6c0.2,0,0.2,0.1,0.2,0.3c0.1,0.3,0.1,0.7,0.1,1c0.1,0.3,0.2,0.6,0.3,1
			c0,0.1,0,0.2-0.1,0.2c-0.2,0-0.2-0.1-0.3-0.2c-0.4-0.4-0.7-0.5-1.2-0.4l-4.6,1c-0.4,0.1-0.5,0.1-0.6,0c0-0.1,0.2-0.4,0.3-0.7"/>
		<path id="Fill-32" class="st4" d="M96.5,48.7c-0.6,0-0.7,0.6-0.8,0.8c0,0.1-0.1,0.2-0.2,0.2c-0.2,0-0.2-0.3-0.2-0.5
			c0-0.3,0-0.7,0-1.1c0-0.4-0.1-0.8-0.2-1.2c0-0.2,0-0.3,0.1-0.3c0.2,0,0.2,0.2,0.2,0.2c0.1,0.4,0.5,0.4,0.8,0.4l4.3-0.3
			c0.6,0,0.7-0.4,0.8-0.8c0-0.1,0.1-0.2,0.2-0.2c0.2,0,0.2,0.3,0.2,0.5c0,0.4,0,0.8,0,1.2c0,0.4,0.1,0.8,0.2,1.1
			c0,0.1,0,0.3-0.1,0.3c-0.2,0-0.2-0.2-0.3-0.3c-0.1-0.4-0.5-0.4-0.8-0.3"/>
		<path id="Fill-33" class="st4" d="M100.2,55.9c0.3,0.1,0.4,0.2,0.6,0.2c0.2,0,0.3,0,0.4-0.1c0.1-0.1,0.2-0.4,0.3-0.7
			c0.1-0.1,0.1-0.2,0.2-0.2c0.2,0,0.1,0.1,0.1,0.2c0,0.3-0.1,0.7-0.1,1c0,0.3,0,0.7,0,1c0,0.1,0,0.2-0.2,0.2c-0.2,0-0.1-0.2-0.3-0.4
			c-0.2-0.2-0.5-0.4-1-0.7L95.7,54c-0.5-0.3-0.5-0.4-0.5-0.5c0-0.1,0.1-0.2,0.4-0.3l5.5-2.1c0.5-0.2,0.6-0.4,0.7-0.6
			c0.1-0.1,0.1-0.2,0.2-0.2c0.2,0,0.1,0.1,0.1,0.2c0,0.4-0.1,0.9-0.2,1.3c0,0.4,0,0.9,0,1.3c0,0.1,0,0.2-0.2,0.2
			c-0.2,0-0.2-0.2-0.2-0.3c0-0.3-0.2-0.3-0.5-0.3c-0.2,0-0.4,0.1-0.6,0.1L97.5,54c-0.3,0.1-0.4,0.2-0.4,0.2c0,0.1,0.1,0.1,0.2,0.2"
			/>
		<path id="Fill-34" class="st4" d="M99.6,59.2c0.5,0.1,1.2,0.2,1.3-0.1c0.1-0.3,0.2-0.5,0.4-0.4c0.2,0,0.1,0.2,0.1,0.4
			c-0.3,0.7-0.4,1.4-0.6,2.2c-0.2,0.7-0.3,1.5-0.5,2.2c-0.1,0.2-0.1,0.4-0.3,0.4c-0.2-0.1-0.4-0.1-0.6-0.2c-0.2,0-0.4-0.1-0.6-0.1
			c-0.1,0-0.2-0.1-0.1-0.2c0-0.2,0.2-0.1,0.3-0.1c0.6,0.1,0.9-0.1,1.2-1.2l0.1-0.6c0.1-0.3,0-0.4-0.4-0.4l-1.6-0.4
			c-0.1,0-0.2,0.1-0.3,0.5c-0.1,0.5-0.1,1,0.3,1.2c0.2,0.2,0.3,0.2,0.2,0.3c0,0.1-0.2,0.1-0.3,0.1c-0.3-0.1-0.6-0.2-0.8-0.2
			c-0.3-0.1-0.6-0.1-0.9-0.2c-0.1,0-0.3-0.1-0.2-0.2c0-0.1,0.3-0.1,0.5-0.1c0.4-0.1,0.6-0.4,0.7-0.9c0.1-0.5,0-0.6-0.2-0.6l-1.6-0.4
			c-0.7-0.2-0.8-0.1-0.9,0.4c-0.2,1-0.1,1.6,0.2,2c0.2,0.4,0.5,0.6,0.5,0.7c0,0.1-0.1,0.1-0.2,0.1c-0.2,0-0.5-0.2-0.7-0.3
			c-0.3-0.2-0.7-0.7-0.6-1.2c0.2-0.6,0.4-1.2,0.5-1.9c0.2-0.6,0.2-1.3,0.4-1.9c0.1-0.3,0.1-0.4,0.3-0.4c0.1,0,0.2,0.2,0.2,0.4
			c0.1,0.3,0.3,0.5,0.8,0.6"/>
		<path id="Fill-35" class="st4" d="M96.1,66.9c-0.1,0-0.3-0.1-0.6,0.4c-0.3,0.8-0.1,1.3,0.8,1.7c0.6,0.3,1.4,0.2,1.8-0.6
			c0.2-0.5,0.1-0.6-0.2-0.8L96.1,66.9z M98.2,66.2c0.5,0.2,0.8,0,1-0.4c0.1-0.1,0.2-0.2,0.3-0.1c0.1,0,0.1,0.1,0,0.3
			c-0.1,0.2-0.3,0.4-0.5,1.1c-0.2,0.5-0.4,1.2-0.6,1.6c-0.5,1.2-1.3,2.3-2.7,1.7c-0.6-0.3-0.8-0.7-0.8-1.2c0-0.2,0-0.5-0.1-0.5
			c-0.1-0.1-2.3,0.2-3,0.4c-0.1,0-0.2,0.1-0.3,0.2c0,0.1-0.1,0.2-0.1,0.3c0,0.1-0.1,0.1-0.2,0.1c-0.4-0.2,0-1.2,0.1-1.5
			c0.1-0.3,0.4-0.5,0.9-0.5l2.3-0.2c0.3,0,0.6-0.1,0.8-0.4c0.1-0.2,0.1-0.3,0-0.4l-1.5-0.7c-0.7-0.3-1-0.1-1.2,0.3
			c-0.1,0.1-0.2,0.2-0.3,0.1c-0.1,0-0.1-0.2,0.1-0.6c0.2-0.4,0.4-0.7,0.5-1c0.2-0.4,0.2-0.7,0.4-1.1c0.1-0.1,0.1-0.3,0.3-0.2
			c0.1,0.1,0.1,0.2,0.1,0.3c0,0.4,0.2,0.6,0.5,0.8L98.2,66.2z"/>
		<path id="Fill-36" class="st4" d="M91.9,70.7c0.1,0,0.2,0.1,0.3,0.1c0.1,0,0.1,0.1,0,0.2c-0.1,0.2-0.4,0.1-0.5,0
			c-0.8-0.1-1.8,0.1-2.3,0.9c-0.4,0.6-0.3,1.3,0.3,1.6c1.3,0.9,2.6-2.6,4.8-1.2c0.8,0.5,1.2,1.7,0.5,2.7c-0.4,0.7-1,0.9-1.2,1.2
			c-0.1,0.1-0.1,0.3-0.1,0.4c-0.1,0.1-0.1,0.1-0.2,0c-0.5-0.3-1.3-0.7-1.4-0.7c-0.1-0.1-0.1-0.2-0.1-0.3c0.1-0.1,0.2-0.1,0.5,0
			c0.7,0.2,1.7-0.2,2.1-0.8c0.3-0.5,0.3-1.1-0.2-1.4c-1.4-0.9-2.6,2.6-4.8,1.2c-0.8-0.5-1.4-1.8-0.6-3c0.3-0.5,0.8-0.9,1.2-1.3
			c0.1-0.1,0.2-0.2,0.3-0.2"/>
		<path id="Fill-37" class="st4" d="M87,76.6c-0.5-0.4-0.9-0.1-1.1,0.1c-0.1,0.1-0.2,0.1-0.3,0c-0.1-0.1,0.1-0.3,0.2-0.5
			c0.2-0.2,0.5-0.5,0.7-0.8c0.2-0.3,0.4-0.6,0.7-0.9c0.1-0.1,0.2-0.3,0.3-0.2c0.1,0.1,0.1,0.3,0,0.3c-0.2,0.4,0.1,0.7,0.3,0.9
			l3.4,2.8c0.5,0.4,0.8,0.2,1.1-0.1c0.1-0.1,0.2-0.1,0.3,0c0.1,0.1-0.1,0.3-0.2,0.5c-0.2,0.3-0.5,0.6-0.8,0.9
			c-0.2,0.3-0.4,0.6-0.7,0.9c-0.1,0.1-0.2,0.2-0.3,0.1c-0.1-0.1,0-0.3,0-0.4c0.1-0.4-0.1-0.6-0.4-0.8"/>
		<path id="Fill-38" class="st4" d="M87.4,82.9c0.2,0.3,0.5,0.2,0.8-0.2c0.7-0.6,0.9-1,0.5-1.8c0,0,0-0.1,0.1-0.2
			c0.1-0.1,0.2-0.1,0.2,0c0.1,0.1,0.1,0.2,0.2,0.3l0.6,0.8c0.1,0.1,0.1,0.2-0.1,0.4c-0.7,0.7-1.5,1.3-2.2,1.9
			c-0.7,0.7-1.4,1.4-2.1,2.1c-0.2,0.2-0.2,0.2-0.5-0.1l-0.7-0.7c-0.1,0-0.1-0.1-0.2-0.1c0,0,0-0.1,0.1-0.2c0.1-0.1,0.1-0.1,0.2-0.1
			c0.8,0.5,1.2,0.3,1.9-0.3c0.4-0.4,0.4-0.6,0.2-0.8l-3.1-3.3c-0.5-0.6-1-0.1-1.3,0c-0.1,0-0.2,0.2-0.4,0c-0.1-0.1,0-0.2,0.1-0.3
			c0.4-0.4,0.9-0.7,1.3-1.1c0.4-0.4,0.8-0.9,1.2-1.3c0.1-0.1,0.2-0.2,0.3,0c0.1,0.2,0,0.2,0,0.4c-0.1,0.3-0.6,0.8-0.1,1.3"/>
		<path id="Fill-39" class="st4" d="M79.1,88.8c0,0.2,0.1,0.4,0.1,0.5c0.1,0.2,0.5,0.2,0.9,0c0.1,0,0.2,0,0.3,0.1
			c0.1,0.1,0,0.2-0.1,0.2c-0.3,0.2-0.6,0.3-0.9,0.5c-0.3,0.2-0.5,0.4-0.8,0.6c-0.1,0.1-0.2,0.1-0.3,0c-0.1-0.1,0-0.2,0.1-0.3
			c0.2-0.3,0.2-0.5,0.2-1.2l-0.1-2.4c0-0.2,0-0.4-0.1-0.6l-0.8-1.3c-0.3-0.4-0.6-0.6-1-0.4c-0.2,0.1-0.4,0.2-0.5,0
			c-0.1-0.2,0.1-0.3,0.3-0.5c0.4-0.2,0.8-0.4,1.2-0.7c0.3-0.2,0.6-0.5,1-0.7c0.2-0.1,0.5-0.3,0.6-0.1c0.1,0.2-0.1,0.3-0.2,0.4
			c-0.4,0.3-0.3,0.7-0.1,1.1l0.7,1c0.1,0.1,0.1,0.1,0.2,0.2l2.7,1.5c0.6,0.3,0.9,0.4,1.1,0.2c0.2-0.1,0.4-0.2,0.5,0
			c0.1,0.1-0.1,0.2-0.2,0.3c-0.4,0.2-0.8,0.4-1.1,0.6c-0.4,0.2-0.7,0.5-1.1,0.8c-0.1,0.1-0.3,0.2-0.4,0.1c-0.1-0.1,0.1-0.3,0.2-0.4
			c0.1-0.1,0.1-0.2,0.1-0.3c-0.1-0.1-0.2-0.2-0.4-0.3l-1.6-0.9c-0.3-0.1-0.4-0.2-0.4-0.1c0,0,0,0.2,0,0.4"/>
		<path id="Fill-40" class="st4" d="M42.6,90.9c-0.2,0-0.4,0-0.6,0c-0.1,0-0.3,0-0.4,0.1c-0.1,0-0.2,0.1-0.3,0.2
			c-0.1,0.1-0.3,0.2-0.4,0.4l-0.1,0c0-0.2,0-0.4,0-0.6c0-0.1-0.1-0.3-0.1-0.4c0-0.1-0.1-0.2-0.2-0.3c-0.1-0.1-0.2-0.3-0.4-0.4l0-0.1
			c0.2,0,0.4,0,0.6,0c0.1,0,0.3-0.1,0.4-0.1c0.1,0,0.2-0.1,0.3-0.2c0.1-0.1,0.3-0.2,0.4-0.4l0.1,0c0,0.2,0,0.4,0,0.6
			c0,0.1,0.1,0.3,0.1,0.4c0,0.1,0.1,0.2,0.2,0.3C42.3,90.5,42.4,90.6,42.6,90.9"/>
		<path id="Fill-41" class="st4" d="M48.3,89.8c0-0.2-0.1-0.3-0.3-0.3c-0.3-0.1-0.4,0-0.5,0c-0.1,0-0.2-0.1-0.2-0.2
			c0-0.2,0.3-0.2,0.4-0.2c0.5,0,1.1,0,1.6-0.3c0.1,0,0.2-0.1,0.2-0.1c0.1,0,0.2,0.1,0.1,0.2l-1,5.3c-0.1,0.5,0.1,0.6,0.4,0.8
			c0.2,0.1,0.4,0.2,0.4,0.3c0,0.1-0.1,0.1-0.4,0.1c-0.4-0.1-0.8-0.2-1.2-0.3c-0.4-0.1-0.8-0.1-1.2-0.2c-0.3,0-0.3-0.1-0.3-0.2
			c0-0.2,0.2-0.2,0.5-0.1c0.3,0,0.6-0.2,0.6-0.5"/>
		<path id="Fill-42" class="st4" d="M52.3,90.4c-0.1,1,1.3,1.4,1.6,1.4c0.5,0,0.8-0.4,0.8-0.9c0.1-0.8-0.5-1.3-1.3-1.3
			C53,89.5,52.4,89.8,52.3,90.4L52.3,90.4z M52.7,92.9c-0.1,0-0.2-0.1-0.2-0.1c-0.1,0-0.5,0.4-0.5,1c-0.1,1,0.4,1.7,1.4,1.8
			c0.5,0,1.3-0.2,1.4-0.9c0-0.5-0.1-0.8-0.6-1L52.7,92.9z M55.6,90.8c0,0.7-0.4,1-1,1.1c-0.1,0-0.2,0.1-0.2,0.1c0,0,0.1,0.1,0.2,0.1
			c0.7,0.4,1.2,1.1,1.1,2c-0.1,1.5-1.4,1.9-2.7,1.8c-1.1-0.1-2.1-0.7-2-2c0-0.7,0.4-1.1,1-1.3c0.1,0,0.2,0,0.2-0.1
			c0,0-0.1-0.1-0.2-0.1c-0.4-0.4-0.7-0.9-0.6-1.5c0.1-1.2,1.2-1.8,2.3-1.7C54.6,89.3,55.7,89.7,55.6,90.8L55.6,90.8z"/>
		<path id="Fill-43" class="st4" d="M58.4,89.9c-0.6,0-0.8,0.6-1,0.6c-0.1,0-0.2,0-0.2-0.1c0-0.3,0.9-1.1,1.8-1.2
			c0.7,0,1.4,0.3,1.5,1.1c0,0.6-0.4,1.1-0.9,1.4c0,0-0.1,0.1-0.1,0.1c0,0,0,0,0.1,0.1c0.9,0,1.4,0.5,1.5,1.5
			c0.1,1.4-0.9,2.6-2.4,2.7c-0.8,0.1-1.8-0.4-1.8-0.7c0-0.1,0-0.2,0.2-0.2c0.3,0,0.5,0.5,1.3,0.4c0.9-0.1,1.4-0.9,1.3-1.7
			c0-0.6-0.4-1.2-1-1.1c-0.1,0-0.3,0.1-0.4,0.1c-0.1,0-0.2-0.1-0.2-0.2c0-0.2,0.2-0.3,0.3-0.3c0.5-0.3,0.8-0.8,0.8-1.4
			C59.2,90.3,58.9,89.9,58.4,89.9"/>
		<path id="Fill-44" class="st4" d="M64,92.4c-0.1,0-0.2,0-0.2,0c-0.1,0-0.4,0.5-0.3,1.1c0.2,1,0.9,1.5,1.8,1.3
			c0.5-0.1,1.2-0.5,1.1-1.3c-0.1-0.5-0.3-0.8-0.8-0.9L64,92.4z M63,90.1c0.2,0.9,1.7,1,1.9,0.9c0.5-0.1,0.6-0.6,0.6-1.1
			c-0.2-0.8-0.8-1.1-1.6-1C63.4,89.1,62.9,89.4,63,90.1L63,90.1z M66.3,89.6c0.1,0.7-0.2,1-0.7,1.4c-0.1,0.1-0.2,0.1-0.2,0.2
			c0,0,0.1,0.1,0.2,0.1c0.8,0.2,1.5,0.7,1.6,1.6c0.3,1.5-0.8,2.2-2.1,2.5c-1.1,0.2-2.3-0.1-2.5-1.4c-0.1-0.7,0.1-1.2,0.6-1.5
			c0.1-0.1,0.2-0.1,0.2-0.1c0,0-0.1-0.1-0.2-0.1c-0.5-0.3-0.9-0.7-1-1.3c-0.2-1.2,0.7-2,1.8-2.2C64.9,88.4,66.1,88.6,66.3,89.6
			L66.3,89.6z"/>
		<path id="Fill-45" class="st4" d="M73.7,89.6c-0.2,0.2-0.3,0.3-0.4,0.4c-0.1,0.1-0.2,0.2-0.2,0.3c0,0.1-0.1,0.2-0.1,0.4
			c0,0.1,0,0.3,0,0.6l-0.1,0c-0.2-0.2-0.3-0.3-0.4-0.4c-0.1-0.1-0.2-0.2-0.3-0.2c-0.1,0-0.2-0.1-0.4-0.1c-0.2,0-0.3,0-0.6,0l0-0.1
			c0.2-0.2,0.3-0.3,0.4-0.4c0.1-0.1,0.2-0.2,0.2-0.3c0-0.1,0.1-0.2,0.1-0.4c0-0.1,0-0.3,0-0.6l0.1,0c0.2,0.2,0.3,0.3,0.4,0.4
			c0.1,0.1,0.2,0.2,0.3,0.2c0.1,0,0.2,0.1,0.4,0.1C73.3,89.5,73.5,89.5,73.7,89.6"/>
		<path id="Fill-46" class="st2" d="M92.8,50.7c0,20-16.2,36.3-36.3,36.3c-20,0-36.3-16.2-36.3-36.3c0-20,16.2-36.3,36.3-36.3
			C76.5,14.4,92.8,30.7,92.8,50.7"/>
		<g id="Group-55" transform="translate(24.000000, 28.000000)">
			<path id="Fill-47" class="st3" d="M24.9,20l-0.2,22.5c0,0,0,0.2,0.1,0.3c0.1,0.1,0.6,0.3,2.4,0.3c1.7,0,2.2-0.2,2.4-0.3
				c0.1-0.1,0.1-0.3,0.1-0.3L29.5,20c-0.3-0.2-0.9-0.5-2.3-0.5C25.8,19.5,25.2,19.8,24.9,20"/>
			<path id="Fill-49" class="st3" d="M27.2,12.9c-2.8,0-3.4,0.9-3.4,0.9l0,0.2c0,0,0.5,0.1,0.8,0.6c0.3,0.7,0.4,3.6,0.4,3.6l0,0.2
				c0.4-0.2,1-0.4,2.3-0.4c1.2,0,1.9,0.2,2.2,0.4l0-0.3c0,0-0.1-2.4,0.4-3.5c0.3-0.6,0.7-0.7,0.7-0.7l0-0.3
				C30.6,13.6,30,12.9,27.2,12.9"/>
			<path id="Fill-50" class="st3" d="M35.4,20l-0.2,22.5c0,0,0,0.2,0.1,0.3c0.1,0.1,0.7,0.3,2.4,0.3s2.2-0.2,2.4-0.3
				c0.1-0.1,0.1-0.3,0.1-0.3L40,20c-0.2-0.2-0.8-0.5-2.3-0.5C36.3,19.5,35.7,19.8,35.4,20"/>
			<path id="Fill-51" class="st3" d="M41.1,13.8c0,0-0.7-0.9-3.4-0.9c-2.8,0-3.4,0.8-3.4,0.8l0,0.3c0,0,0.4,0.1,0.7,0.7
				c0.5,1.1,0.4,3.5,0.4,3.5l0,0.3c0.4-0.2,1-0.4,2.2-0.4c1.2,0,1.9,0.2,2.3,0.4l0-0.2c0,0,0.1-2.8,0.4-3.6c0.2-0.5,0.8-0.6,0.8-0.6
				"/>
			<path id="Fill-52" class="st3" d="M56.6,42.2h-5.3c-0.2,0-0.2-0.2-0.2-0.2l-0.8-26.1c0,0,0-0.1,0.2-0.1h3.6
				c0.1,0,0.1,0.1,0.1,0.1L56.8,42C56.8,42,56.9,42.2,56.6,42.2 M55.1,15c0,0,0-0.1-0.2-0.1h-5.1c-0.1,0-0.2,0.1-0.2,0.1l0.8,28.2
				c0,0,0,0.2,0.2,0.2h7.2c0.2,0,0.2-0.2,0.2-0.2"/>
			<path id="Fill-53" class="st3" d="M13.8,42c0,0,0,0.2-0.2,0.2H8.4c-0.2,0-0.2-0.2-0.2-0.2l2.6-26.1c0,0,0-0.1,0.1-0.1h3.6
				c0.1,0,0.2,0.1,0.2,0.1L13.8,42z M14.6,43.2L15.3,15c0,0,0-0.2-0.2-0.2h-5.1c-0.1,0-0.2,0.2-0.2,0.2L7,43.2c0,0,0,0.2,0.2,0.2
				h7.2C14.6,43.4,14.6,43.2,14.6,43.2L14.6,43.2z"/>
			<path id="Fill-54" class="st3" d="M58,10.7c0,0-0.7,0.4-0.9,0.8c-0.3,0.4-0.3,1-0.3,1h-9.2c0,0,0-0.5-0.2-1
				c-0.2-0.5-0.8-0.8-0.8-0.8v-0.3c0,0,0-0.2,0.2-0.2h2.1c0.6,0.9,1.8,1.5,3.5,1.5c1.7,0,2.9-0.6,3.5-1.5h2c0.1,0,0.2,0.1,0.2,0.1
				V10.7z M21.5,8.9h22.1V7.7H21.5V8.9z M26.3,3.6c0.1,0,1.1,0.4,2.3,0.4c1.4,0,1.8-0.4,2.2-0.1c0.3,0.2,0,0.6,0,0.9
				c0,0.3,0.3,0.6,0.6,0.6c0.2,0,0.4-0.1,0.4-0.2c-0.2-0.1-0.3-0.4-0.3-0.6c0-0.4,0.4-0.8,0.8-0.8c0.4,0,0.8,0.4,0.8,0.8
				c0,0.2-0.1,0.5-0.3,0.6c0.1,0.1,0.2,0.2,0.4,0.2c0.4,0,0.6-0.3,0.6-0.6c0-0.3-0.2-0.7,0-0.9C34.4,3.6,34.8,4,36.2,4
				c1.2,0,2.3-0.4,2.3-0.4c0.1,0-0.4,1.6-2.7,2.2c-1.8,0.4-3.4,0.4-3.4,0.4h0c0,0-1.6,0-3.4-0.4C26.7,5.2,26.3,3.7,26.3,3.6
				L26.3,3.6z M18.4,10.7c0,0-0.6,0.4-0.8,0.8c-0.2,0.5-0.2,1-0.2,1H8.2c0,0,0-0.6-0.3-1C7.6,11.1,7,10.7,7,10.7v-0.3
				c0,0,0-0.1,0.2-0.1h2c0.6,0.9,1.7,1.5,3.5,1.5c1.7,0,2.9-0.6,3.5-1.5h2.1c0.2,0,0.2,0.2,0.2,0.2V10.7z M59.7,7.6l-16.1,0l0.2-1.1
				l15.5,0c0,0,0-0.7,0-0.9c0-0.9,0.5-1.6,0.5-1.6l2-2.5V0.8c0-0.1,0-0.1-0.1-0.1H42.9c-0.1,0-0.1,0.1-0.1,0.1v1.5H22.2V0.8
				c0-0.1,0-0.1-0.1-0.1H3.4c-0.1,0-0.1,0-0.1,0.1v0.7l2,2.5c0,0,0.5,0.7,0.5,1.6c0,0.2,0,0.9,0,0.9l15.5,0l0.2,1.1l-16.1,0L0.2,46
				h4.4l3.6-32.6h9.1L16.8,46h3.6l1-1.6l0-33h22.1l0,33l1,1.5h3.6l-0.4-32.6h9.1L60.5,46h4.4L59.7,7.6z"/>
		</g>
		<path id="Fill-56" class="st3" d="M47.6,24.8c-0.1,1.5,0.9,1,0.9,1.4c0,0,0,0.1-0.2,0.1c-0.3,0-0.5,0-0.9,0c-0.4,0-0.7,0-0.9,0
			c-0.1,0-0.2-0.1-0.2-0.1c0-0.3,0.7-0.1,0.8-1l0.1-3.6c0.1-1.5-0.9-1-0.9-1.4c0-0.1,0-0.1,0.1-0.1c0.1,0,0.2,0,0.5,0
			c0.2,0,0.5,0,0.8,0c0.1,0,0.2,0,0.3,0.3l1.9,4.2c0,0.1,0.1,0.1,0.1,0.1c0.1,0,0.1-0.2,0.1-0.2l2.1-4.3c0-0.1,0-0.2,0.2-0.2
			c0.2,0,0.4,0,0.5,0c0.2,0,0.3,0,0.6,0c0.2,0,0.3,0,0.3,0.1c0,0.3-0.9,0-0.8,1l0.1,3.9c0,1.2,0.9,0.8,0.9,1.1
			c0,0.1-0.1,0.1-0.4,0.1c-0.3,0-0.5,0-0.8,0c-0.6,0-0.8,0-1,0c-0.2,0-0.4,0-0.4-0.1c0-0.3,0.7,0,0.6-1L52,22.5c0-0.3,0-0.4-0.1-0.4
			c0,0-0.1,0.2-0.3,0.5L50,26.1c-0.1,0.1-0.1,0.2-0.2,0.2c-0.1,0-0.2-0.2-0.2-0.2l-1.7-3.8c0-0.1-0.1-0.2-0.1-0.2
			c-0.1,0-0.1,0.2-0.1,0.2"/>
		<path id="Fill-57" class="st3" d="M59.7,22c0,0.1,0,0.3-0.1,0.3c-0.1,0-0.2-0.2-0.3-0.3c-0.4-0.8-1.2-1.6-2.2-1.6
			c-1.3,0-2,1.2-2,2.4c0,1.2,0.7,3,2.4,3c1.4,0,2-1.2,2.2-1.2c0,0,0.1,0,0.1,0.1c0,0.4-0.9,1.7-2.8,1.7c-2.6,0-3-2.3-3-3
			c0-1.5,0.9-3.4,3.1-3.4c1.1,0,1.8,0.5,2,0.5c0.2,0,0.2-0.3,0.3-0.3c0,0,0.1,0,0.1,0.1"/>
		<path id="Fill-58" class="st3" d="M63.7,26.2c-0.1,0.2-0.1,0.3-0.2,0.3c-0.1,0-0.2-0.1-0.3-0.5l-2.2-5.2c-0.1-0.3-0.3-0.4-0.6-0.5
			c0,0-0.1-0.1-0.1-0.1c0-0.2,0.3-0.1,0.4-0.1c0.3,0,0.6,0,0.9,0c0.6,0,0.8,0,1,0c0.3,0,0.3,0,0.3,0.1c0,0.2-0.5,0.1-0.5,0.5
			c0,0.3,0.1,0.7,0.3,1.2l1.1,2.9c0,0.1,0.1,0.2,0.1,0.2c0.1,0,0.1-0.1,0.1-0.2l1.2-2.7c0.3-0.6,0.3-0.9,0.3-1
			c0-0.8-0.9-0.5-0.9-0.8c0-0.2,0.3-0.1,0.4-0.1c0.3,0,0.5,0,0.8,0c0.2,0,0.5,0,0.7,0c0.2,0,0.3,0,0.3,0.1c0,0.2-0.4,0.2-0.6,0.7"/>
		<path id="Fill-59" class="st3" d="M51.3,78.4c0,0.2,0.3,0.2,0.6,0.2c1.4,0,1.4-0.5,1.4-1.1c0-0.9-0.5-1.6-1.4-1.6
			c-0.3,0-0.6,0-0.6,0.6V78.4z M50.1,76.8c0-1-1-0.7-1-1c0-0.1,0.1-0.1,0.2-0.1c0.4,0,0.5,0,1.1,0c0.6,0,1.2,0,1.8,0
			c2,0,2.2,1.3,2.2,1.7c0,0.6-0.3,0.9-0.5,1.1c-0.3,0.2-0.5,0.3-0.5,0.4c0,0.1,0.8,1.4,1.4,2.5c0.1,0.1,0.3,0.1,0.3,0.1
			c0.1,0,0.2-0.1,0.3-0.1c0.1,0,0.1,0.1,0.1,0.1c0,0.3-0.6,0.5-1,0.5c-0.7,0-1-0.6-1.3-1.1l-0.8-1.4c-0.2-0.4-0.4-0.5-0.8-0.5
			c-0.5,0-0.4,0.1-0.4,0.4v1.6c0,1,0.9,0.6,0.9,0.9c0,0.1-0.1,0.1-0.3,0.1c-0.2,0-0.4,0-0.8,0c-0.5,0-1,0-1.4,0
			c-0.1,0-0.3,0-0.3-0.2c0-0.3,0.7,0,0.7-1.1V76.8z"/>
		<path id="Fill-60" class="st3" d="M57.6,80.9c0,1.1,0.9,0.8,0.9,1.1c0,0.2-0.1,0.1-0.2,0.1c-0.6,0-1,0-1.2,0c-0.4,0-1.1,0-1.1,0
			c0,0-0.2,0-0.2-0.1c0-0.3,0.7-0.1,0.7-1.2v-4c0-1-1-0.6-1-0.9c0-0.1,0-0.2,0.3-0.2c0.1,0,0.6,0,1.3,0c0.1,0,0.8,0,1.4,0
			c1.2,0,2.3,0.4,2.3,1.8c0,1.1-0.9,1.8-1.9,1.8c-0.9,0-0.9-0.2-0.9-0.3c0-0.1,0-0.2,0.1-0.2c0.1,0,0.2,0.1,0.4,0.1
			c1.1,0,1.2-1,1.2-1.3c0-0.2-0.1-1.6-1.5-1.6c-0.4,0-0.6,0.2-0.6,0.6"/>
		<path id="Fill-61" class="st3" d="M63.6,81c0,1.1,1,0.7,1,1c0,0.1-0.1,0.1-0.3,0.1c-0.3,0-0.7,0-1.4,0c-0.4,0-0.8,0-1,0
			c-0.1,0-0.1-0.1-0.1-0.1c0-0.3,0.7-0.1,0.7-0.9v-4.4c0-0.8-1-0.6-1-0.9c0-0.2,0.2-0.1,0.3-0.1c0.4,0,0.7,0,1,0c0.3,0,0.7,0,1.2,0
			c0.3,0,0.3,0,0.3,0.1c0,0.3-0.7,0-0.7,0.9"/>
		<path id="Fill-62" class="st3" d="M68.1,22.8l8.6,0.5l-8.6,0.5c0,0-1.4,0-1.4-0.5C66.7,22.8,68.1,22.8,68.1,22.8"/>
		<path id="Fill-63" class="st3" d="M44.4,23.7l-8.6-0.5l8.6-0.5c0,0,1.4,0,1.4,0.5C45.8,23.7,44.4,23.7,44.4,23.7"/>
		<path id="Fill-64" class="st3" d="M66.6,78.4l8.6,0.5l-8.6,0.5c0,0-1.4,0-1.4-0.5C65.1,78.4,66.6,78.4,66.6,78.4"/>
		<path id="Fill-65" class="st3" d="M46.8,79.4l-8.6-0.5l8.6-0.5c0,0,1.4,0,1.4,0.5C48.2,79.4,46.8,79.4,46.8,79.4"/>
		<path id="Fill-66" d="M3.7,122.5h2.5l2.8-7.6H6.9l-1.8,5.5l-1.7-5.5H1L3.7,122.5z M14.1,122.5h2.2v-7.6h-2.2V122.5z M22.1,122.5
			h2.1v-3h0.9c1,0,1,0.3,1.1,1.3c0.1,0.7,0.1,1.3,0.3,1.7h2.3c-0.2-0.5-0.3-1.4-0.4-1.9c-0.2-1.2-0.3-1.8-1.7-1.9v0
			c0.2,0,0.7-0.1,1.2-0.4c0.4-0.2,0.7-0.6,0.7-1.4c0-0.8-0.3-1.2-0.5-1.5c-0.5-0.5-1-0.6-2.3-0.6h-3.5V122.5z M24.2,116.2H25
			c0.6,0,1.4,0,1.4,0.9c0,0.2-0.1,0.7-0.6,0.9c-0.2,0.1-0.4,0.1-0.9,0.1h-0.8V116.2z M41.5,117.1c0-0.4,0-1-0.6-1.6
			c-0.6-0.6-1.6-0.9-2.8-0.9c-0.9,0-2.3,0.2-3.2,1c-0.9,0.8-1.1,2.1-1.1,3c0,1.2,0.4,2.4,1.4,3.2c0.9,0.7,2,0.8,2.9,0.8
			c1.1,0,2.3-0.2,3.4-0.4v-4.1h-3.6v1.4h1.6v1.5c-0.4,0.1-0.8,0.1-1.2,0.1c-1.3,0-2.3-0.8-2.3-2.5c0-1.3,0.5-2.5,2-2.5
			c0.6,0,1.2,0.2,1.3,1H41.5z M47.2,122.5h2.2v-7.6h-2.2V122.5z M55.1,122.5H57l0-5.9l2.6,5.9h2.9v-7.6h-1.8l0,5.7l-2.6-5.7h-2.9
			V122.5z M68.2,122.5h2.2v-7.6h-2.2V122.5z M75.6,122.5h2.1l0.5-1.5h3.1l0.5,1.5h2.4l-3-7.6h-2.6L75.6,122.5z M78.7,119.5l1.1-3.2
			h0l1,3.2H78.7z M104.3,117.2c0-0.3,0-1-0.6-1.6c-0.6-0.6-1.5-0.9-2.8-0.9c-1.1,0-2.1,0.2-2.9,1.1c-0.7,0.8-1,1.9-1,2.9
			c0,0.8,0.1,2,1,2.9c0.8,0.9,2.2,1,2.9,1c1,0,3.4-0.2,3.4-2.6h-2.2c0,0.3-0.2,1.1-1.3,1.1c-1.6,0-1.6-1.9-1.6-2.4
			c0-1.4,0.4-2.6,1.7-2.6c0.6,0,1.1,0.3,1.2,1.1H104.3z M109.4,118.7c0,2.8,1.9,4,3.9,4c1.8,0,4-0.9,4-4c0-1.9-0.8-4-3.9-4
			c-0.6,0-2,0.1-3,1.1C109.4,116.7,109.4,118.2,109.4,118.7z M111.5,118.7c0-1.3,0.4-2.5,1.8-2.5c0.5,0,1,0.1,1.3,0.5
			c0.2,0.3,0.5,0.9,0.5,1.9c0,1.1-0.3,2.5-1.8,2.5C111.9,121.1,111.5,119.9,111.5,118.7z M122.8,122.5h1.8l-0.1-6.5l1.7,6.5h1.9
			l1.8-6.4l-0.1,6.4h2l0-7.6l-3.3,0l-1.2,5.2l-1.3-5.2h-3.3V122.5z M137.7,122.5h1.8l-0.1-6.5l1.7,6.5h1.9l1.8-6.4l-0.1,6.4h2l0-7.6
			l-3.3,0l-1.2,5.2l-1.3-5.2h-3.3V122.5z M152.4,118.7c0,2.8,1.9,4,3.9,4c1.8,0,4-0.9,4-4c0-1.9-0.8-4-3.9-4c-0.6,0-2,0.1-3,1.1
			C152.5,116.7,152.4,118.2,152.4,118.7z M154.6,118.7c0-1.3,0.4-2.5,1.8-2.5c0.5,0,1,0.1,1.3,0.5c0.2,0.3,0.5,0.9,0.5,1.9
			c0,1.1-0.3,2.5-1.8,2.5C154.9,121.1,154.6,119.9,154.6,118.7z M165.9,122.5h1.9l0-5.9l2.6,5.9h2.9v-7.6h-1.8l0,5.7l-2.6-5.7h-2.9
			V122.5z M179.7,122.5h2.5l1.4-5.7l1.3,5.7h2.5l1.3-7.6h-1.9l-0.7,5.5l-1.1-5.5h-2.6l-1.2,5.6l-0.7-5.6h-2.1L179.7,122.5z
			 M194,122.5h5.8V121h-3.7v-1.6h3.4v-1.5h-3.4v-1.6h3.6v-1.5H194V122.5z M204.8,122.5h2.1l0.5-1.5h3.1l0.5,1.5h2.4l-3-7.6h-2.6
			L204.8,122.5z M207.9,119.5l1.1-3.2h0l1,3.2H207.9z M218.6,122.5h5.6V121h-3.4v-6.1h-2.1V122.5z M229.9,122.5h2.1v-6.1h2.4v-1.5
			h-6.8v1.5h2.3V122.5z M239.6,122.5h2.1v-3.1h2.6v3.1h2.1v-7.6h-2.1v3h-2.5v-3h-2.1V122.5z M260.1,114.8l0,4.3c0,1.2,0,3.5,3.6,3.5
			c1,0,2.3-0.2,3.1-1.1c0.5-0.6,0.6-1.5,0.6-2.3v-4.4h-2.1v4.5c0,0.8-0.2,1.9-1.5,1.9c-0.5,0-1-0.2-1.3-0.6
			c-0.2-0.3-0.2-0.7-0.2-1.2v-4.5H260.1z M273.3,122.5h1.9l0-5.9l2.6,5.9h2.9v-7.6h-1.8l0,5.7l-2.6-5.7h-2.9V122.5z M286.4,122.5
			h2.2v-7.6h-2.2V122.5z M296.4,122.5h2.5l2.8-7.6h-2.1l-1.8,5.5l-1.7-5.5h-2.3L296.4,122.5z M306.9,122.5h5.8V121H309v-1.6h3.4
			v-1.5H309v-1.6h3.6v-1.5h-5.7V122.5z M318.3,122.5h2.1v-3h0.9c1,0,1,0.3,1.1,1.3c0.1,0.7,0.1,1.3,0.3,1.7h2.3
			c-0.2-0.5-0.3-1.4-0.4-1.9c-0.2-1.2-0.3-1.8-1.7-1.9v0c0.2,0,0.7-0.1,1.2-0.4c0.4-0.2,0.7-0.6,0.7-1.4c0-0.8-0.3-1.2-0.5-1.5
			c-0.5-0.5-1-0.6-2.3-0.6h-3.5V122.5z M320.4,116.2h0.8c0.6,0,1.4,0,1.4,0.9c0,0.2-0.1,0.7-0.6,0.9c-0.2,0.1-0.4,0.1-0.9,0.1h-0.8
			V116.2z M330.1,120c0,0.3,0,1.1,0.6,1.7c0.7,0.8,2,0.9,2.8,0.9c1.9,0,3.4-0.8,3.4-2.5c0-1.6-1.2-1.9-2.2-2.2l-1.4-0.4
			c-0.3-0.1-0.8-0.2-0.8-0.8c0-0.5,0.4-0.8,1-0.8c1,0,1,0.8,1,1.1h2.1c0-0.8-0.1-2.4-3.1-2.4c-2.3,0-3.2,1.2-3.2,2.4
			c0,1.6,1.4,2,1.9,2.1l1.9,0.5c0.5,0.1,0.7,0.4,0.7,0.7c0,0.9-1,0.9-1.1,0.9c-1.3,0-1.3-0.9-1.3-1.2H330.1z M342.2,122.5h2.2v-7.6
			h-2.2V122.5z M351.9,122.5h2.1v-6.1h2.4v-1.5h-6.8v1.5h2.3V122.5z M361,114.8l2.9,4.8v2.8h2.1v-2.7l3-4.9h-2.2l-1.7,3.2l-1.7-3.2
			H361L361,114.8z"/>
	</g>
</g>
</svg>
