<?xml version="1.0" encoding="utf-8"?>
<!-- Generator: Adobe Illustrator 21.0.2, SVG Export Plug-In . SVG Version: 6.00 Build 0)  -->
<svg version="1.1" id="Layer_1" xmlns="http://www.w3.org/2000/svg" xmlns:xlink="http://www.w3.org/1999/xlink" x="0px" y="0px"
	 viewBox="0 0 342 175" style="enable-background:new 0 0 342 175;" xml:space="preserve">
<style type="text/css">
	.st0{filter:url(#Adobe_OpacityMaskFilter);}
	.st1{fill:#FFFFFF;}
	.st2{mask:url(#mask-2_1_);fill:#F5B827;}
	.st3{fill:#F5B827;}
	.st4{fill:#575856;}
	.st5{fill:none;stroke:#4D4D4C;stroke-width:1.987;}
	.st6{fill:#0B0A08;}
	.st7{fill:#1A1918;}
</style>
<title>bm_ResLife_rd_st_4c</title>
<desc>Created with Sketch.</desc>
<g id="Group-7_1_">
	<g id="Clip-6_1_">
	</g>
	<defs>
		<filter id="Adobe_OpacityMaskFilter" filterUnits="userSpaceOnUse" x="0.5" y="0.6" width="99.1" height="99.1">
			<feColorMatrix  type="matrix" values="1 0 0 0 0  0 1 0 0 0  0 0 1 0 0  0 0 0 1 0"/>
		</filter>
	</defs>
	<mask maskUnits="userSpaceOnUse" x="0.5" y="0.6" width="99.1" height="99.1" id="mask-2_1_">
		<g class="st0">
			<polygon id="path-1_1_" class="st1" points="50.1,0.6 0.5,0.6 0.5,99.5 99.6,99.5 99.6,0.6 			"/>
		</g>
	</mask>
	<path id="Fill-5_1_" class="st2" d="M99.6,50.2c0,27.4-22.2,49.5-49.5,49.5S0.5,77.5,0.5,50.2S22.7,0.6,50.1,0.6
		S99.6,22.8,99.6,50.2"/>
</g>
<g>
	<path class="st3" d="M79.7,20.4c-7.9-8-18.4-12.3-29.6-12.3c-11.2,0-21.7,4.4-29.6,12.3c-7.9,8-12.3,18.5-12.3,29.8
		S12.6,72,20.5,80c7.9,8,18.4,12.3,29.6,12.3c11.2,0,21.7-4.4,29.6-12.3C87.6,72,92,61.5,92,50.2S87.6,28.4,79.7,20.4z"/>
	<path class="st1" d="M50.1,0.6C22.7,0.6,0.5,22.8,0.5,50.2c0,27.4,22.2,49.5,49.5,49.5s49.5-22.2,49.5-49.5
		C99.6,22.8,77.4,0.6,50.1,0.6z M50.1,97.8c-26.2,0-47.4-21.3-47.4-47.6S23.9,2.6,50.1,2.6s47.4,21.3,47.4,47.6S76.3,97.8,50.1,97.8
		z"/>
</g>
<g id="HOME">
	<g id="bm_ResLife_rd_st_4c">
		<path id="Fill-1" d="M19,147.1c-0.1,2.1-0.1,7,6.3,6.9c3.6,0,6.7-1.5,6.7-6c0-6.9-9.7-6.2-9.7-11c0-2.3,1.7-3.2,3.3-3.2
			c2.6,0,3.4,1.6,3.3,3.9h2.9c0.2-4.4-2-6.3-6-6.3c-3.6,0-6.4,2-6.4,5.9c0,6.5,9.7,6,9.7,10.8c0,2.6-1.7,3.5-3.9,3.5
			c-1.8,0-3.6-0.9-3.6-3.9v-0.6H19z M33.3,138.3v1.9h2.5V151c0,1.7,1.1,2.7,3.4,2.7c0.8,0,1.6-0.2,2.4-0.2v-1.9
			c-0.5,0.1-0.9,0.1-1.1,0.1c-2.3,0-2.3-1.2-2.3-2.2v-9.3h3.3v-1.9h-3.3v-4l-2.5,1.1v2.9H33.3z M51.1,148.4c0,2.5-1.7,3.5-3,3.5
			c-1.7,0-2.6-1.2-2.6-3.1v-10.5h-2.5v11.6c0,2.6,1.4,3.9,4.1,3.9c1.6,0,3-0.8,3.8-2.1h0.1v1.8h2.6c-0.1-1.1-0.2-2.1-0.2-3.2v-12
			h-2.5V148.4z M64.6,145.3c0,3.1,0,6.5-2.8,6.5c-3.1,0-3.1-3.3-3.1-5.6c0-4.1,0.4-6.2,3-6.2C64.5,140.1,64.6,143.3,64.6,145.3z
			 M64.6,139.9L64.6,139.9c-0.9-1.2-2-1.8-3.4-1.8c-4.9,0-5,4.4-5,8.1c0,6.7,2.5,7.6,4.9,7.6c1.6,0,2.6-0.7,3.5-2.1h0.1v1.8h2.5
			v-21.7h-2.5V139.9z M72.4,144.9c0-4.2,1.3-5,2.9-5c1.8,0,3,0.5,3,5H72.4z M80.9,146.7v-1.3c0-5-1.1-7.4-5.4-7.4
			c-5.3,0-5.8,3.7-5.8,8.1c0,6.7,2.6,7.7,5.8,7.7c3.2,0,5.3-1.5,5.3-4.9h-2.7c-0.1,1.5-1,2.9-2.6,2.9c-1.9,0-3.1-0.8-3.1-5.1H80.9z
			 M94.1,153.5V143c0-3-0.8-5-4.1-5c-2,0-3.1,0.5-4.1,2.3h-0.1v-2h-2.6c0.1,1.1,0.2,2.1,0.2,3.2v12h2.5v-9c0-2.1,0.4-4.5,3.1-4.5
			c2.1,0,2.7,1.3,2.7,2.9v10.5H94.1z M95.4,138.3v1.9h2.5V151c0,1.7,1.1,2.7,3.4,2.7c0.8,0,1.6-0.2,2.4-0.2v-1.9
			c-0.5,0.1-0.9,0.1-1.1,0.1c-2.3,0-2.3-1.2-2.3-2.2v-9.3h3.3v-1.9h-3.3v-4l-2.5,1.1v2.9H95.4z M108.5,153.5h2.8l1.6-5.2h8.4
			l1.6,5.2h3.1l-7.1-21.7h-3.5L108.5,153.5z M120.6,145.9h-6.9l3.4-11.6h0.1L120.6,145.9z M125.8,138.3v1.9h2.3v13.3h2.5v-13.3h3.1
			v-1.9h-3.1v-2.6c0-1.2,0.4-2.3,3.1-2.2v-1.8c-0.4-0.1-0.7-0.1-1.2-0.1c-2.2,0-4.4,0.6-4.4,3.7v2.9H125.8z M134.3,138.3v1.9h2.3
			v13.3h2.5v-13.3h3.1v-1.9h-3.1v-2.6c0-1.2,0.5-2.3,3.1-2.2v-1.8c-0.4-0.1-0.7-0.1-1.2-0.1c-2.2,0-4.4,0.6-4.4,3.7v2.9H134.3z
			 M151.2,146c0.2,4.9-1.6,5.8-3.1,5.8c-1.7,0-2.4-1.3-2.4-2.8C145.7,145.8,148.8,146,151.2,146z M151.2,153.5h2.7
			c-0.2-1.2-0.3-2.4-0.3-3.6v-7.3c0-2.6-1-4.6-4.9-4.6c-3.2,0-5,1.2-5.1,4.6h2.7c-0.2-1.6,0.7-2.7,2.4-2.7c2.6,0,2.6,2.2,2.6,4.2
			c-3.5-0.1-8,0.1-8,4.7c0,2.9,0.9,5,4.1,5c1.9,0,3.1-0.8,3.8-2.5h0.1V153.5z M156.7,153.5h2.5v-15.2h-2.5V153.5z M156.5,134.5h2.8
			v-2.6h-2.8V134.5z M164.4,138.3H162v15.2h2.5v-8.9c0-2,0.7-4.1,3.4-4.1c0.2,0,0.5,0,0.7,0.1c0.2,0,0.5,0.1,0.7,0.1V138
			c-2.4,0-3.7,0.3-4.7,2.6h-0.1V138.3z M180.7,149.2c0-4.6-7.6-4.6-7.6-7.2c0-1.3,1-2,2.3-2c1.6,0,2.4,0.8,2.4,2.4h2.7
			c0.2-3-2.1-4.3-4.8-4.3c-4.3,0-5.2,2.6-5.2,4.1c0,4.5,7.6,4.6,7.6,7.3c0,1.6-1.1,2.3-2.6,2.3c-2.5,0-2.5-2-2.5-2.9h-2.8
			c-0.1,3.5,2,4.9,5.2,4.9C178.5,153.8,180.7,152.5,180.7,149.2L180.7,149.2z"/>
		<path id="Fill-2" class="st4" d="M207.6,159.2c0,1.2,0.3,3.7-1.5,3.7c-1,0-1.2-1-1.2-1.8C204.9,159.1,206,159.3,207.6,159.2z
			 M210.6,157c0-2-0.5-3.7-4.5-3.7c-1.2,0-2.2,0.2-2.9,0.7c-0.7,0.5-1.2,1.4-1.2,2.7h3.1c0-0.9,0.1-1.7,1.2-1.7
			c1.1,0,1.3,0.7,1.3,1.6v0.9c-2.9,0-5.8,0.1-5.8,3.8c0,1.9,0.8,3.6,3,3.6c1.4,0,2.3-0.6,2.9-1.7h0l0.1,1.5h2.9
			c-0.1-0.7-0.2-1.4-0.2-2.1V157z M215.9,153.4h-3.1v11.2h3.1v-7.7c0-1,0.2-1.8,1.2-1.8s1.2,0.8,1.2,1.8v7.7h3.1v-9
			c0-1.5-1.3-2.4-2.8-2.4c-0.6,0-1.1,0.1-1.5,0.3c-0.4,0.2-0.8,0.5-1.1,1h0V153.4z M227.6,162.9c-1.1,0-1.3-1.2-1.3-4
			c0-2.2,0-3.8,1.3-3.8c1.3,0,1.3,1.6,1.3,3.8C228.8,161.7,228.6,162.9,227.6,162.9z M232,164.6v-16h-3.1v5.9h0
			c-0.6-1-1.4-1.3-2.5-1.3c-3.1,0-3.1,3.5-3.1,5.7c0,2.3-0.1,5.9,3.1,5.9c1.2,0,2.1-0.4,2.6-1.5h0v1.2H232z M242.3,155v-6.4H239v16
			h3.3v-7.1h3.8v7.1h3.3v-16h-3.3v6.4H242.3z M256.1,162.8c-1.2,0-1.4-0.7-1.4-4.1c0-2.3,0.1-3.5,1.4-3.5c1.3,0,1.4,1.2,1.4,3.5
			C257.6,162.1,257.3,162.8,256.1,162.8z M256.1,164.8c4,0,4.6-2.5,4.6-6c0-3.1-0.4-5.7-4.6-5.7c-4.1,0-4.6,2.6-4.6,5.7
			C251.6,162.4,252.1,164.8,256.1,164.8z M268,164.6h3.2c-0.1-0.7-0.1-1.5-0.1-2.2v-9H268v7.7c0,1-0.2,1.7-1.2,1.7
			c-1,0-1.2-0.7-1.2-1.7v-7.7h-3.1v9c0,1.6,1.3,2.4,2.8,2.4c0.6,0,1.1-0.1,1.5-0.3c0.4-0.2,0.8-0.6,1.1-1h0V164.6z M272.7,161
			c-0.2,3.1,1.6,3.8,4.4,3.8c2.6,0,4.2-1.5,4.2-3.4c0-3.6-5.5-3.5-5.5-5.3c0-0.8,0.4-1.2,1.1-1.2c0.3,0,0.6,0,0.8,0.2
			c0.2,0.2,0.3,0.7,0.3,1.4h3.1c0.2-2.4-1.7-3.4-3.9-3.4c-2,0-4.4,0.7-4.4,3.1c0,3.6,5.5,3,5.5,5.4c0,0.8-0.5,1.2-1.2,1.2
			s-1-0.2-1.1-0.5c-0.2-0.4-0.2-0.8-0.2-1.4H272.7z M282.9,164.6h3.1v-11.2h-3.1V164.6z M282.9,151.1h3.1v-2.5h-3.1V151.1z
			 M291.4,153.4h-3.1v11.2h3.1v-7.7c0-1,0.2-1.8,1.2-1.8s1.2,0.8,1.2,1.8v7.7h3.1v-9c0-1.5-1.3-2.4-2.8-2.4c-0.6,0-1.1,0.1-1.5,0.3
			c-0.4,0.2-0.8,0.5-1.1,1h0V153.4z M301.7,159.4c0-3.4,0.2-4.2,1.4-4.2c1.2,0,1.3,1.4,1.3,3.9c0,2.4-0.2,3.5-1.3,3.5
			C301.6,162.5,301.7,160.4,301.7,159.4z M304.5,153.4v1.3h0c-0.4-1-1.4-1.5-2.5-1.5c-3.3,0-3.3,3.1-3.3,5.6c0,2.5-0.2,5.7,3.3,5.7
			c1,0,1.9-0.4,2.4-1.3h0v2.1c0,1.1-0.4,1.9-1.2,1.9c-0.5,0-0.8-0.2-1-0.4c-0.2-0.3-0.3-0.7-0.3-1.1h-3.1c0.1,2.7,2.1,3.3,4.4,3.3
			c4.3,0,4.2-3.1,4.2-3.8v-11.6H304.5L304.5,153.4z"/>
		<path id="Fill-3" class="st4" d="M205.6,126.2h1.5c1.1,0,1.7,0.6,1.7,2.1c0,1-0.4,2.3-1.7,2.3h-1.5V126.2z M205.6,133.2h0.9
			c2.6,0,2.4,1.6,2.4,3.5c0,1-0.1,2.1,0.4,3.1h3.3c-0.3-0.7-0.4-3.7-0.4-4.7c0-2.9-2.2-3.1-2.9-3.1v0c2.2-0.4,3-1.9,3-3.9
			c0-2.7-1.5-4.2-3.7-4.2h-6.2v16h3.3V133.2z M217,132.9c0-1,0-2.6,1.4-2.6c1.5,0,1.4,1.6,1.4,2.6H217z M223,134.7
			c0.1-3.6-0.4-6.3-4.6-6.3c-4.1,0-4.6,2.6-4.6,5.7c0,3.5,0.5,6,4.6,6c1.5,0,2.6-0.4,3.3-1.1c0.8-0.7,1.2-1.7,1.2-2.9h-3.2
			c0,0.9-0.2,2-1.3,2c-1.4,0-1.4-2-1.4-3.3H223z M224.3,136.2c-0.2,3.1,1.6,3.8,4.4,3.8c2.6,0,4.2-1.5,4.2-3.4
			c0-3.6-5.5-3.5-5.5-5.3c0-0.8,0.4-1.2,1.1-1.2c0.3,0,0.6,0,0.8,0.2c0.2,0.2,0.3,0.7,0.3,1.4h3.1c0.2-2.4-1.7-3.4-3.9-3.4
			c-2,0-4.4,0.7-4.4,3.1c0,3.6,5.5,3,5.5,5.4c0,0.8-0.5,1.2-1.2,1.2c-0.6,0-1-0.2-1.1-0.5c-0.2-0.4-0.2-0.8-0.2-1.4H224.3z
			 M234.6,139.8h3.1v-11.2h-3.1V139.8z M234.6,126.2h3.1v-2.5h-3.1V126.2z M244.1,138.1c-1.1,0-1.3-1.2-1.3-4c0-2.2,0-3.8,1.3-3.8
			c1.3,0,1.3,1.6,1.3,3.8C245.3,136.9,245.1,138.1,244.1,138.1z M248.4,139.8v-16h-3.1v5.9h0c-0.6-1-1.4-1.3-2.5-1.3
			c-3.1,0-3.1,3.5-3.1,5.7c0,2.3-0.1,5.9,3.1,5.9c1.2,0,2.1-0.4,2.6-1.5h0v1.2H248.4z M253.4,132.9c0-1,0-2.6,1.4-2.6
			c1.5,0,1.4,1.6,1.4,2.6H253.4z M259.4,134.7c0.1-3.6-0.4-6.3-4.6-6.3c-4.1,0-4.6,2.6-4.6,5.7c0,3.5,0.5,6,4.6,6
			c1.5,0,2.6-0.4,3.3-1.1c0.8-0.7,1.2-1.7,1.2-2.9h-3.2c0,0.9-0.2,2-1.3,2c-1.4,0-1.4-2-1.4-3.3H259.4z M264.3,128.6h-3.1v11.2h3.1
			v-7.7c0-1,0.2-1.8,1.2-1.8c1,0,1.2,0.8,1.2,1.8v7.7h3.1v-9c0-1.5-1.3-2.4-2.8-2.4c-0.6,0-1.1,0.1-1.5,0.3c-0.4,0.2-0.8,0.5-1.1,1
			h0V128.6z M270.9,130.5h1.3v6.9c0,0.7,0.4,2.5,3.1,2.5c0.8,0,1.2-0.1,1.6-0.1v-1.9c-0.2,0-0.4,0-0.6,0c-1,0-1-0.6-1-1.4v-6h1.6
			v-1.9h-1.6v-3.2l-3.1,1.4v1.8h-1.3V130.5z M278.3,139.8h3.1v-11.2h-3.1V139.8z M278.3,126.2h3.1v-2.5h-3.1V126.2z M289.1,134.4
			c0,1.2,0.3,3.7-1.5,3.7c-1,0-1.2-1-1.2-1.8C286.4,134.3,287.5,134.4,289.1,134.4z M292.1,132.1c0-2-0.5-3.7-4.5-3.7
			c-1.2,0-2.2,0.2-2.9,0.7c-0.7,0.5-1.2,1.4-1.2,2.7h3.1c0-0.9,0.1-1.7,1.2-1.7c1.1,0,1.3,0.7,1.3,1.6v0.9c-2.9,0-5.8,0.1-5.8,3.8
			c0,1.9,0.8,3.6,3,3.6c1.4,0,2.3-0.6,2.9-1.7h0l0.1,1.5h2.9c-0.1-0.7-0.2-1.4-0.2-2.1V132.1z M294.4,139.8h3.1v-16h-3.1V139.8z
			 M313,139.8v-2.7h-5v-13.3h-3.3v16H313z M314.5,139.8h3.1v-11.2h-3.1V139.8z M314.5,126.2h3.1v-2.5h-3.1V126.2z M325,123.7
			c-0.4,0-0.7,0-1.1,0c-3.8,0-3.5,1.7-3.5,4.9H319v1.9h1.4v9.3h3.1v-9.3h1.5v-1.9h-1.5v-1.3c0-1.1,0.3-1.6,1.5-1.5V123.7z
			 M329,132.9c0-1,0-2.6,1.4-2.6c1.5,0,1.4,1.6,1.4,2.6H329z M335,134.7c0.1-3.6-0.4-6.3-4.6-6.3c-4.1,0-4.6,2.6-4.6,5.7
			c0,3.5,0.5,6,4.6,6c1.5,0,2.6-0.4,3.3-1.1c0.8-0.7,1.2-1.7,1.2-2.9h-3.2c0,0.9-0.2,2-1.3,2c-1.4,0-1.4-2-1.4-3.3H335L335,134.7z"
			/>
		<path id="Stroke-4" class="st5" d="M191.5,114.3v59.8"/>
		<g id="Clip-6">
		</g>
		<path id="Fill-8" class="st6" d="M40.3,46.1l-0.3,27c0,0,0,0.2,0.1,0.3c0.2,0.1,0.8,0.4,3,0.4c2.2,0,2.8-0.3,3-0.4
			c0.2-0.1,0.2-0.3,0.2-0.3L46,46.1c-0.3-0.2-1.1-0.6-2.9-0.6C41.3,45.5,40.6,45.9,40.3,46.1"/>
		<path id="Fill-9" class="st6" d="M43.1,37.1c-3.5,0-4.3,1.2-4.3,1.2l0,0.3c0,0,0.7,0.1,1,0.8c0.4,0.9,0.5,4.5,0.5,4.5l0,2.9
			c0.5-0.3,1.6,3.7,3.1,3.7c1.5,0,2.2-2.4,2.6-2.1l0-4.5c0,0-0.1-3.1,0.5-4.4c0.3-0.7,0.9-0.9,0.9-0.9l0-0.4
			C47.5,38.1,46.6,37.1,43.1,37.1"/>
		<path id="Fill-10" class="st6" d="M54.1,46.1l-0.2,27.1c0,0,0,0.2,0.1,0.3c0.2,0.1,0.8,0.4,3,0.4c2.2,0,2.8-0.2,3-0.4
			c0.2-0.1,0.1-0.3,0.1-0.3l-0.3-27c-0.3-0.2-1.1-0.6-2.9-0.6C55.1,45.5,54.4,45.9,54.1,46.1"/>
		<path id="Fill-11" class="st6" d="M61.3,38.3c0,0-0.8-1.2-4.3-1.2c-3.5,0-4.4,1-4.4,1l0,0.4c0,0,0.6,0.1,0.9,0.9
			c0.6,1.3,0.5,4.4,0.5,4.4l0,3.1c0.5-0.2,2.2,1.2,3.7,1.2c1.6,0,1.6-0.9,2-0.7l-0.1-3.5c0,0,0.1-3.6,0.5-4.5c0.3-0.7,1-0.8,1-0.8"
			/>
		<path id="Fill-12" class="st6" d="M81.2,31.6c0,0-0.7-3.1,0.7-4.9c0.6-0.8,1.6-2.1,1.6-2.1v-1.1c0-0.1,0-0.1-0.1-0.1H65.1
			c-0.1,0-0.2,0.1-0.2,0.1v2H35.3v-2c0-0.1,0-0.1-0.2-0.1H16.8c-0.1,0-0.1,0.1-0.1,0.1v1.1c0,0,1.2,1.4,1.8,2.3
			c1.1,1.6,0.5,4.7,0.5,4.7l-5.9,43.9c0,0,16.3,0,17.4,0c1.2,0,1.2-1.8,1.2-1.8l2.8-40h31.4l2.8,40c0,0-0.2,1.8,1.2,1.8
			c1.4,0,17.4,0,17.4,0"/>
		<path id="Fill-13" class="st7" d="M50.1,2.6C23.9,2.6,2.7,23.9,2.7,50.2s21.2,47.6,47.4,47.6s47.4-21.3,47.4-47.6
			S76.3,2.6,50.1,2.6 M50.1,8.1c11.2,0,21.7,4.4,29.6,12.3c7.9,8,12.3,18.5,12.3,29.8S87.6,72,79.7,80c-7.9,8-18.4,12.3-29.6,12.3
			C38.9,92.3,28.4,88,20.5,80C12.6,72,8.2,61.5,8.2,50.2s4.4-21.8,12.3-29.8C28.4,12.4,38.9,8.1,50.1,8.1"/>
		<polyline id="Fill-14" class="st3" points="25.5,67 20.7,67 24.9,35.8 27.7,35.8 		"/>
		<polyline id="Fill-15" class="st3" points="74.7,66.9 79.5,66.9 75.2,35.8 72.5,35.8 		"/>
		<polyline id="Fill-16" points="104.5,10.2 128.9,10.2 147,67.9 166.1,10.2 188,10.2 159,89.9 132.6,89.9 		"/>
		<path id="Fill-17" d="M236.8,35.2c-1-8.1-6.6-11-12.9-11c-13.4,0-17.4,12.3-17.4,26.8c0,4.9,0.1,24.9,17.2,24.9
			c11.7,0,12.9-8.5,13.4-11.6h22.9c-0.1,24.9-25.5,27-35.9,27c-7.7,0-21.4-1.3-30.2-10.6c-8.7-9.3-10.3-22-10.3-30.2
			c0-10.9,2.5-21.8,10-30.3c8.2-9.3,18.6-11.7,30.2-11.7c12.9,0,22.7,3.1,29,9.7c6.4,6.8,6.5,14,6.6,17"/>
		<path id="Fill-18" d="M288,10.2v47.3c0,4.3,0.3,8.7,2.5,12c3,4.4,8.2,6.5,13.6,6.5c14,0,15.9-11.4,15.9-19.3V10.2h21.5v46.1
			c0,8.8-1.2,18.4-6.2,24.3c-7.7,9.5-22,11.4-32,11.4c-37.6,0-37.7-23.4-37.7-36.4l0.1-45.3"/>
		<path id="Fill-19" class="st6" d="M50.6,79.9l21.8,2.6l-21.8,2.6c0,0-5.4,0.1-5.4-2.6C45.2,79.9,50.6,79.9,50.6,79.9"/>
		<path id="Fill-20" class="st6" d="M49.5,85.2l-21.7-2.6l21.7-2.6c0,0,5.4-0.1,5.4,2.6C54.9,85.2,49.5,85.2,49.5,85.2"/>
		<path id="Fill-21" class="st6" d="M50.1,86.7c-2.3,0-4.2-1.9-4.2-4.2c0-2.3,1.9-4.2,4.2-4.2s4.2,1.9,4.2,4.2
			C54.3,84.8,52.4,86.7,50.1,86.7"/>
		<path id="Fill-22" class="st3" d="M50.1,77.4c-2.8,0-5.1,2.3-5.1,5.1c0,2.8,2.3,5.1,5.1,5.1c2.8,0,5.1-2.3,5.1-5.1
			C55.1,79.7,52.9,77.4,50.1,77.4 M50.1,79.1c1.9,0,3.4,1.5,3.4,3.4c0,1.9-1.5,3.4-3.4,3.4c-1.9,0-3.4-1.5-3.4-3.4
			C46.7,80.6,48.2,79.1,50.1,79.1"/>
		<path id="Fill-23" class="st6" d="M50.2,14.5L66,16.7l-15.8,2.2c0,0-4.5,0.1-4.5-2.2C45.7,14.5,50.2,14.5,50.2,14.5"/>
		<path id="Fill-24" class="st6" d="M49.3,18.9l-15.8-2.2l15.8-2.2c0,0,4.5-0.1,4.5,2.2C53.8,18.9,49.3,18.9,49.3,18.9"/>
		<path id="Fill-25" class="st6" d="M49.8,20.3c-2,0-3.7-1.6-3.7-3.7s1.6-3.7,3.7-3.7c2,0,3.7,1.6,3.7,3.7S51.8,20.3,49.8,20.3"/>
		<path id="Fill-26" class="st3" d="M49.8,12.2c-2.5,0-4.5,2-4.5,4.5s2,4.5,4.5,4.5c2.5,0,4.5-2,4.5-4.5S52.3,12.2,49.8,12.2
			 M49.8,13.8c1.6,0,2.8,1.3,2.8,2.8s-1.3,2.8-2.8,2.8c-1.6,0-2.8-1.3-2.8-2.8S48.2,13.8,49.8,13.8"/>
	</g>
</g>
</svg>
