<?xml version="1.0" encoding="UTF-8"?>
<svg width="342px" height="100px" viewBox="0 0 342 100" version="1.1" xmlns="http://www.w3.org/2000/svg" xmlns:xlink="http://www.w3.org/1999/xlink">
    <!-- Generator: Sketch 42 (36781) - http://www.bohemiancoding.com/sketch -->
    <title>bm_ResLife_rd_st_og</title>
    <desc>Created with Sketch.</desc>
    <defs>
        <polygon id="path-1" points="50.0535 0.613 0.51 0.613 0.51 99.509 99.597 99.509 99.597 0.613"></polygon>
    </defs>
    <g id="Style" stroke="none" stroke-width="1" fill="none" fill-rule="evenodd">
        <g id="bm_ResLife_rd_st_og">
            <g id="Group-7">
                <mask id="mask-2" fill="white">
                    <use xlink:href="#path-1"></use>
                </mask>
                <g id="Clip-6"></g>
                <path d="M99.597,50.155 C99.597,77.516 77.416,99.697 50.054,99.697 C22.692,99.697 0.51,77.516 0.51,50.155 C0.51,22.794 22.692,0.613 50.054,0.613 C77.416,0.613 99.597,22.794 99.597,50.155" id="Fill-5" fill="#FFFFFF" mask="url(#mask-2)"></path>
            </g>
            <path d="M95.966,49.929 C95.966,75.284 75.411,95.84 50.054,95.84 C24.697,95.84 4.141,75.284 4.141,49.929 C4.141,24.573 24.697,4.018 50.054,4.018 C75.411,4.018 95.966,24.573 95.966,49.929" id="Fill-8" fill="#F5B827"></path>
            <path d="M40.252,46.141 L39.945,73.189 C39.945,73.189 39.919,73.409 40.083,73.517 C40.248,73.627 40.9,73.877 43.084,73.877 C45.265,73.877 45.922,73.605 46.089,73.506 C46.239,73.415 46.239,73.189 46.239,73.189 L45.996,46.117 C45.676,45.884 44.91,45.547 43.14,45.547 C41.307,45.547 40.551,45.908 40.252,46.141" id="Fill-9" fill="#0B0A08"></path>
            <path d="M43.112,37.142 C39.614,37.142 38.789,38.3 38.789,38.3 L38.761,38.573 C38.761,38.573 39.447,38.656 39.751,39.345 C40.165,40.28 40.275,43.862 40.275,43.862 L40.251,46.731 C40.707,46.478 41.829,50.393 43.397,50.393 C44.932,50.393 45.549,47.999 46.01,48.247 L45.976,43.777 C45.976,43.777 45.893,40.693 46.526,39.345 C46.871,38.608 47.436,38.49 47.436,38.49 L47.464,38.133 C47.464,38.133 46.609,37.142 43.112,37.142" id="Fill-10" fill="#0B0A08"></path>
            <path d="M54.054,46.118 L53.811,73.189 C53.811,73.189 53.811,73.415 53.958,73.506 C54.125,73.606 54.782,73.877 56.964,73.877 C59.147,73.877 59.8,73.627 59.966,73.517 C60.131,73.408 60.104,73.189 60.104,73.189 L59.798,46.141 C59.499,45.91 58.743,45.547 56.909,45.547 C55.138,45.547 54.372,45.885 54.054,46.118" id="Fill-11" fill="#0B0A08"></path>
            <path d="M61.26,38.299 C61.26,38.299 60.434,37.142 56.937,37.142 C53.439,37.142 52.585,38.133 52.585,38.133 L52.614,38.49 C52.614,38.49 53.175,38.609 53.523,39.346 C54.155,40.693 54.072,43.777 54.072,43.777 L54.048,46.892 C54.509,46.644 56.239,48.054 57.776,48.054 C59.341,48.054 59.368,47.107 59.824,47.36 L59.773,43.862 C59.773,43.862 59.884,40.28 60.297,39.346 C60.599,38.656 61.287,38.573 61.287,38.573" id="Fill-12" fill="#0B0A08"></path>
            <path d="M81.194,31.6 C81.194,31.6 80.536,28.527 81.872,26.745 C82.486,25.926 83.491,24.633 83.491,24.633 L83.491,23.507 C83.491,23.415 83.444,23.36 83.351,23.36 L65.05,23.36 C64.929,23.36 64.896,23.423 64.896,23.486 L64.896,25.437 L35.295,25.437 L35.295,23.486 C35.295,23.423 35.263,23.36 35.141,23.36 L16.838,23.36 C16.747,23.36 16.699,23.415 16.699,23.507 L16.699,24.633 C16.699,24.633 17.901,26.075 18.467,26.923 C19.536,28.527 18.997,31.6 18.997,31.6 L13.066,75.503 C13.066,75.503 29.32,75.504 30.493,75.503 C31.667,75.502 31.657,73.729 31.657,73.729 L34.414,33.729 L65.784,33.729 L68.535,73.731 C68.535,73.731 68.309,75.504 69.699,75.503 C71.088,75.502 87.126,75.503 87.126,75.503" id="Fill-13" fill="#0B0A08"></path>
            <path d="M50.099,2.551 C23.935,2.551 2.725,23.883 2.725,50.198 C2.725,76.513 23.935,97.845 50.099,97.845 C76.263,97.845 97.473,76.513 97.473,50.198 C97.473,23.883 76.263,2.551 50.099,2.551 M50.099,8.061 C61.276,8.061 71.785,12.44 79.691,20.391 C87.605,28.351 91.963,38.937 91.963,50.198 C91.963,61.459 87.605,72.045 79.691,80.005 C71.785,87.957 61.276,92.336 50.099,92.336 C38.923,92.336 28.414,87.957 20.508,80.005 C12.593,72.045 8.235,61.459 8.235,50.198 C8.235,38.937 12.593,28.351 20.508,20.391 C28.414,12.44 38.923,8.061 50.099,8.061" id="Fill-14" fill="#1A1918"></path>
            <polyline id="Fill-15" fill="#F5B827" points="25.486 66.96 20.72 66.96 24.935 35.774 27.69 35.774"></polyline>
            <polyline id="Fill-16" fill="#F5B827" points="74.69 66.946 79.456 66.946 75.241 35.761 72.486 35.761"></polyline>
            <polyline id="Fill-17" fill="#1A1918" points="104.48 10.193 128.866 10.193 146.96 67.899 166.049 10.193 188.005 10.193 158.989 89.856 132.618 89.856"></polyline>
            <path d="M236.778,35.239 C235.784,27.186 230.157,24.204 223.868,24.204 C210.517,24.204 206.434,36.455 206.434,51.018 C206.434,55.872 206.543,75.953 223.646,75.953 C235.342,75.953 236.557,67.459 236.997,64.368 L259.947,64.368 C259.837,89.303 234.461,91.401 224.089,91.401 C216.365,91.401 202.685,90.077 193.858,80.808 C185.142,71.54 183.594,58.851 183.594,50.576 C183.594,39.653 186.133,28.729 193.636,20.234 C201.799,10.965 212.283,8.537 223.868,8.537 C236.778,8.537 246.598,11.626 252.887,18.246 C259.286,25.088 259.397,32.261 259.506,35.239" id="Fill-18" fill="#1A1918"></path>
            <path d="M287.975,10.193 L287.975,57.527 C287.975,61.831 288.306,66.244 290.514,69.554 C293.492,73.967 298.677,76.063 304.086,76.063 C318.096,76.063 319.975,64.698 319.975,56.756 L319.975,10.193 L341.49,10.193 L341.49,56.314 C341.49,65.141 340.276,74.739 335.31,80.589 C327.586,90.077 313.354,91.951 303.315,91.951 C265.688,91.951 265.579,68.561 265.579,55.542 L265.688,10.193" id="Fill-19" fill="#1A1918"></path>
            <path d="M50.608,79.93 L72.359,82.54 L50.608,85.163 C50.608,85.163 45.194,85.236 45.194,82.54 C45.194,79.857 50.608,79.93 50.608,79.93" id="Fill-20" fill="#0B0A08"></path>
            <path d="M49.517,85.163 L27.768,82.545 L49.517,79.93 C49.517,79.93 54.935,79.865 54.935,82.545 C54.935,85.236 49.517,85.163 49.517,85.163" id="Fill-21" fill="#0B0A08"></path>
            <path d="M50.091,86.738 C47.758,86.738 45.859,84.84 45.859,82.507 C45.859,80.174 47.758,78.276 50.091,78.276 C52.424,78.276 54.322,80.174 54.322,82.507 C54.322,84.84 52.424,86.738 50.091,86.738" id="Fill-22" fill="#0B0A08"></path>
            <path d="M50.091,77.449 C47.302,77.449 45.033,79.718 45.033,82.507 C45.033,85.296 47.302,87.565 50.091,87.565 C52.879,87.565 55.148,85.296 55.148,82.507 C55.148,79.718 52.879,77.449 50.091,77.449 M50.091,79.102 C51.971,79.102 53.495,80.627 53.495,82.507 C53.495,84.388 51.971,85.912 50.091,85.912 C48.21,85.912 46.686,84.388 46.686,82.507 C46.686,80.627 48.21,79.102 50.091,79.102" id="Fill-23" fill="#F5B827"></path>
            <path d="M50.233,14.512 L65.993,16.678 L50.233,18.854 C50.233,18.854 45.74,18.914 45.74,16.678 C45.74,14.451 50.233,14.512 50.233,14.512" id="Fill-24" fill="#0B0A08"></path>
            <path d="M49.327,18.854 L33.568,16.682 L49.327,14.512 C49.327,14.512 53.822,14.458 53.822,16.682 C53.822,18.914 49.327,18.854 49.327,18.854" id="Fill-25" fill="#0B0A08"></path>
            <path d="M49.803,20.301 C47.79,20.301 46.152,18.663 46.152,16.65 C46.152,14.637 47.79,12.999 49.803,12.999 C51.817,12.999 53.455,14.637 53.455,16.65 C53.455,18.663 51.817,20.301 49.803,20.301" id="Fill-26" fill="#0B0A08"></path>
            <path d="M49.803,12.172 C47.334,12.172 45.325,14.181 45.325,16.65 C45.325,19.119 47.334,21.128 49.803,21.128 C52.273,21.128 54.281,19.119 54.281,16.65 C54.281,14.181 52.273,12.172 49.803,12.172 M49.803,13.825 C51.363,13.825 52.628,15.09 52.628,16.65 C52.628,18.21 51.363,19.475 49.803,19.475 C48.243,19.475 46.978,18.21 46.978,16.65 C46.978,15.09 48.243,13.825 49.803,13.825" id="Fill-27" fill="#F5B827"></path>
        </g>
    </g>
</svg>