<?xml version="1.0" encoding="UTF-8"?>
<svg width="100px" height="100px" viewBox="0 0 100 100" version="1.1" xmlns="http://www.w3.org/2000/svg" xmlns:xlink="http://www.w3.org/1999/xlink">
    <!-- Generator: Sketch 42 (36781) - http://www.bohemiancoding.com/sketch -->
    <title>heat_ac</title>
    <desc>Created with Sketch.</desc>
    <defs></defs>
    <g id="help_center_icons" stroke="none" stroke-width="1" fill="none" fill-rule="evenodd">
        <g id="heat_ac">
            <rect id="Rectangle" x="0" y="0" width="100" height="100"></rect>
            <g id="noun_649612_cc" transform="translate(14.000000, 17.000000)" fill-rule="nonzero" fill="#FFFFFF">
                <g id="50--AC-Unit--(Solid)">
                    <g id="Group">
                        <g id="Shape">
                            <g>
                                <path d="M66.7339279,29.6094675 L6.07819016,29.6094675 C5.4073377,29.6094675 4.86507541,28.8741657 4.86507541,27.964497 C4.86507541,27.0548284 5.4073377,26.3195266 6.07819016,26.3195266 L66.7339279,26.3195266 C67.4047803,26.3195266 67.9470426,27.0548284 67.9470426,27.964497 C67.9470426,28.8741657 67.4047803,29.6094675 66.7339279,29.6094675 M66.7339279,36.1893491 L6.07819016,36.1893491 C5.4073377,36.1893491 4.86507541,35.4540473 4.86507541,34.5443787 C4.86507541,33.6347101 5.4073377,32.8994083 6.07819016,32.8994083 L66.7339279,32.8994083 C67.4047803,32.8994083 67.9470426,33.6347101 67.9470426,34.5443787 C67.9470426,35.4540473 67.4047803,36.1893491 66.7339279,36.1893491 M31.5536,11.5147929 L41.258518,11.5147929 C41.9293705,11.5147929 42.4716328,12.2500947 42.4716328,13.1597633 C42.4716328,14.069432 41.9293705,14.8047337 41.258518,14.8047337 L31.5536,14.8047337 C30.8827475,14.8047337 30.3404852,14.069432 30.3404852,13.1597633 C30.3404852,12.2500947 30.8827475,11.5147929 31.5536,11.5147929 M69.1601574,0 L3.65196066,0 C1.64546885,0 0.0126163934,2.21413018 0.0126163934,4.93491124 L0.0126163934,37.8343195 C0.0126163934,40.5551006 1.64546885,42.7692308 3.65196066,42.7692308 L69.1601574,42.7692308 C71.1666492,42.7692308 72.7995016,40.5551006 72.7995016,37.8343195 L72.7995016,4.93491124 C72.7995016,2.21413018 71.1666492,0 69.1601574,0"></path>
                                <path d="M13.1950637,54.7069601 C13.1950637,53.6306246 13.6437884,52.6188977 14.4592373,51.8563751 C14.9041657,51.4403246 14.9041657,50.7665499 14.4592373,50.3504994 C14.0150682,49.9344489 13.293768,49.9344489 12.8488396,50.3504994 C11.6036476,51.5148729 10.9180328,53.0612176 10.9180328,54.7069601 C10.9180328,56.3512826 11.6036476,57.8983373 12.8488396,59.0634207 C13.6635293,59.8252333 14.1130132,60.8376702 14.1130132,61.9140057 C14.1130132,62.9896312 13.6642885,64.0013581 12.8488396,64.7638807 C12.4039113,65.1799312 12.4039113,65.8537058 12.8488396,66.2697563 C13.0705445,66.4777816 13.362861,66.5814392 13.6544181,66.5814392 C13.9459752,66.5814392 14.2375324,66.4777816 14.4599966,66.2697563 C15.7051886,65.1053829 16.3908034,63.5590382 16.3908034,61.9140057 C16.3908034,60.2689732 15.7051886,58.7219185 14.4599966,57.557545 C13.6437884,56.7957324 13.1950637,55.7825855 13.1950637,54.7069601 Z"></path>
                                <path d="M20.4737523,54.7069601 C20.4737523,53.6306246 20.9224769,52.6188977 21.7379258,51.8563751 C22.1828542,51.4403246 22.1828542,50.7665499 21.7379258,50.3504994 C21.2937567,49.9344489 20.5724565,49.9344489 20.1275282,50.3504994 C18.8823362,51.5148729 18.1967213,53.0612176 18.1967213,54.7069601 C18.1967213,56.3512826 18.8823362,57.8983373 20.1275282,59.0634207 C20.9422178,59.8252333 21.3917017,60.8376702 21.3917017,61.9140057 C21.3917017,62.9896312 20.942977,64.0013581 20.1275282,64.7638807 C19.6825998,65.1799312 19.6825998,65.8537058 20.1275282,66.2697563 C20.3492331,66.4777816 20.6415495,66.5814392 20.9331066,66.5814392 C21.2246638,66.5814392 21.5162209,66.4777816 21.7386851,66.2697563 C22.9838771,65.1053829 23.6694919,63.5590382 23.6694919,61.9140057 C23.6694919,60.2689732 22.9838771,58.7219185 21.7386851,57.557545 C20.9224769,56.7957324 20.4737523,55.7825855 20.4737523,54.7069601 Z"></path>
                                <path d="M27.7524408,54.7069601 C27.7524408,53.6306246 28.2011655,52.6188977 29.0166144,51.8563751 C29.4615427,51.4403246 29.4615427,50.7665499 29.0166144,50.3504994 C28.5724453,49.9344489 27.851145,49.9344489 27.4062167,50.3504994 C26.1610247,51.5148729 25.4754098,53.0612176 25.4754098,54.7069601 C25.4754098,56.3512826 26.1610247,57.8983373 27.4062167,59.0634207 C29.0864666,60.6353248 29.0864666,63.1912666 27.4062167,64.7631707 C26.9612883,65.1792212 26.9612883,65.8529958 27.4062167,66.2690464 C27.6286809,66.4770716 27.920238,66.5807292 28.2117951,66.5807292 C28.5033523,66.5807292 28.7949094,66.4770716 29.0173736,66.2690464 C31.5859617,63.8671711 31.5859617,59.9587103 29.0173736,57.5568351 C28.2011655,56.7957324 27.7524408,55.7825855 27.7524408,54.7069601 Z"></path>
                                <path d="M35.0311293,54.7069601 C35.0311293,53.6306246 35.479854,52.6188977 36.2953029,51.8563751 C36.7402312,51.4403246 36.7402312,50.7665499 36.2953029,50.3504994 C35.8511338,49.9344489 35.1298336,49.9344489 34.6849052,50.3504994 C33.4397132,51.5148729 32.7540984,53.0612176 32.7540984,54.7069601 C32.7540984,56.3512826 33.4397132,57.8983373 34.6849052,59.0634207 C35.4995948,59.8252333 35.9490788,60.8376702 35.9490788,61.9140057 C35.9490788,62.9896312 35.5003541,64.0013581 34.6849052,64.7638807 C34.2399768,65.1799312 34.2399768,65.8537058 34.6849052,66.2697563 C34.9066101,66.4777816 35.1989265,66.5814392 35.4904837,66.5814392 C35.7820408,66.5814392 36.073598,66.4777816 36.2960621,66.2697563 C37.5412541,65.1053829 38.226869,63.5590382 38.226869,61.9140057 C38.226869,60.2689732 37.5412541,58.7219185 36.2960621,57.557545 C35.479854,56.7957324 35.0311293,55.7825855 35.0311293,54.7069601 Z"></path>
                                <path d="M62.2416277,54.5834229 C61.7966994,54.1673724 61.0761584,54.1673724 60.63123,54.5834229 L57.7847515,57.2451522 L56.4788185,57.2451522 L59.9843376,53.9671569 C60.429266,53.5511064 60.429266,52.8773318 59.9843376,52.4612813 C59.5394092,52.0452308 58.8188683,52.0452308 58.3739399,52.4612813 L54.8684208,55.7392765 L54.8684208,54.5188144 L57.7148993,51.8570851 C58.1598276,51.4410345 58.1598276,50.7672599 57.7148993,50.3512094 C57.2699709,49.9351589 56.54943,49.9351589 56.1045016,50.3512094 L54.8684208,51.507063 L54.8684208,51.1037922 C54.8684208,50.5159256 54.358955,50.0388165 53.7295257,50.0388165 C53.1000963,50.0388165 52.5906306,50.5159256 52.5906306,51.1037922 L52.5906306,51.5063531 L51.355309,50.3504994 C50.9103807,49.9344489 50.1898397,49.9344489 49.7449113,50.3504994 C49.299983,50.7665499 49.299983,51.4403246 49.7449113,51.8563751 L52.5913898,54.5181044 L52.5913898,55.7385665 L49.08663,52.4612813 C48.6417016,52.0452308 47.9211606,52.0452308 47.4762323,52.4612813 C47.0313039,52.8773318 47.0313039,53.5511064 47.4762323,53.9671569 L50.9817514,57.2451522 L49.6758184,57.2451522 L46.8293398,54.5834229 C46.3844115,54.1673724 45.6638705,54.1673724 45.2189422,54.5834229 C44.7740138,54.9994734 44.7740138,55.673248 45.2189422,56.0892985 L46.455023,57.2451522 L46.0245206,57.2451522 C45.3950913,57.2451522 44.8856255,57.7222613 44.8856255,58.3101279 C44.8856255,58.8979945 45.3950913,59.3751036 46.0245206,59.3751036 L46.455023,59.3751036 L45.2197014,60.5302472 C44.7747731,60.9462978 44.7747731,61.6200724 45.2197014,62.0361229 C45.4414063,62.2441482 45.7337228,62.3478058 46.0252799,62.3478058 C46.3168371,62.3478058 46.6083942,62.2441482 46.8308584,62.0361229 L49.6773369,59.3751036 L50.9825107,59.3751036 L47.4777508,62.6523888 C47.0328224,63.0684394 47.0328224,63.742214 47.4777508,64.1582645 C47.700215,64.3662898 47.9917721,64.4699474 48.2833293,64.4699474 C48.5748864,64.4699474 48.8664436,64.3662898 49.0889077,64.1582645 L52.5936676,60.8809792 L52.5936676,62.1014414 L49.7471891,64.7631707 C49.3022608,65.1792212 49.3022608,65.8529958 49.7471891,66.2690464 C49.9696533,66.4770716 50.2612104,66.5807292 50.5527676,66.5807292 C50.8443247,66.5807292 51.1358819,66.4770716 51.3583461,66.2690464 L52.5936676,65.1131927 L52.5936676,65.5157535 C52.5936676,66.1036201 53.1031334,66.5807292 53.7325627,66.5807292 C54.3619921,66.5807292 54.8714578,66.1036201 54.8714578,65.5157535 L54.8714578,65.1131927 L56.1075387,66.2690464 C56.3300028,66.4770716 56.62156,66.5807292 56.9131171,66.5807292 C57.2046743,66.5807292 57.4962314,66.4770716 57.7186956,66.2690464 C58.163624,65.8529958 58.163624,65.1792212 57.7186956,64.7631707 L54.8722171,62.1014414 L54.8722171,60.8809792 L58.3777362,64.1589745 C58.6002004,64.3669997 58.8917576,64.4706574 59.1833147,64.4706574 C59.4748719,64.4706574 59.766429,64.3669997 59.9888932,64.1589745 C60.4338215,63.742924 60.4338215,63.0691493 59.9888932,62.6530988 L56.4788185,59.3751036 L57.7839923,59.3751036 L60.6304708,62.0361229 C60.8529349,62.2441482 61.1444921,62.3478058 61.4360492,62.3478058 C61.7276064,62.3478058 62.0191635,62.2441482 62.2416277,62.0361229 C62.6865561,61.6200724 62.6865561,60.9462978 62.2416277,60.5302472 L61.0063061,59.3751036 L61.4368085,59.3751036 C62.0662379,59.3751036 62.5757036,58.8979945 62.5757036,58.3101279 C62.5757036,57.7222613 62.0662379,57.2451522 61.4368085,57.2451522 L61.0063061,57.2451522 L62.242387,56.0892985 C62.6865561,55.673958 62.6865561,54.9994734 62.2416277,54.5834229 Z"></path>
                            </g>
                        </g>
                    </g>
                </g>
            </g>
        </g>
    </g>
</svg>