<?xml version="1.0" encoding="UTF-8"?>
<svg width="100px" height="100px" viewBox="0 0 100 100" version="1.1" xmlns="http://www.w3.org/2000/svg" xmlns:xlink="http://www.w3.org/1999/xlink">
    <!-- Generator: Sketch 42 (36781) - http://www.bohemiancoding.com/sketch -->
    <title>laundry</title>
    <desc>Created with Sketch.</desc>
    <defs></defs>
    <g id="help_center_icons" stroke="none" stroke-width="1" fill="none" fill-rule="evenodd">
        <g id="laundry">
            <rect id="Rectangle" x="0" y="0" width="100" height="100"></rect>
            <g transform="translate(20.000000, 16.000000)" id="Group" fill-rule="nonzero" fill="#FFFFFF">
                <g>
                    <path d="M0.11588855,13.295491 L0.11588855,65.6172942 C0.11588855,66.8506419 1.29861798,67.8522114 2.75963669,67.8522114 L56.6299097,67.8522114 C58.0895085,67.8522114 59.2708181,66.8506419 59.2708181,65.6172942 L59.2708181,13.295491 L0.11588855,13.295491 Z M30.0588444,23.7531265 C22.1154417,23.7531265 15.653741,30.2561233 15.653741,38.2434606 C15.653741,46.2344007 22.1154417,52.7349956 30.0588444,52.7349956 C36.9957405,52.7349956 42.7995704,47.7763855 44.1618765,41.2013334 L46.7133647,41.2013334 C45.3164339,49.1826661 38.3878955,55.2701436 30.0612323,55.2701436 C20.7280625,55.2701436 13.1344896,47.6334757 13.1344896,38.2410588 C13.1344896,28.8558473 20.7268686,21.2155767 30.0612323,21.2155767 C38.3914774,21.2155767 45.3164339,27.3030542 46.7133647,35.283186 L44.1618765,35.283186 C42.7995704,28.7117366 36.9945465,23.7531265 30.0588444,23.7531265 Z M41.3130926,38.2434606 C41.3130926,44.4954645 36.2769777,49.5645595 30.0576504,49.5645595 C23.8395171,49.5645595 18.8022083,44.4954645 18.8022083,38.2434606 C18.8022083,31.9902557 23.8395171,26.9223617 30.0576504,26.9223617 C36.2781717,26.9235626 41.3130926,31.9902557 41.3130926,38.2434606 Z" id="Shape"></path>
                    <path d="M56.6285532,0.0649248871 L2.75957324,0.0649248871 C1.29858959,0.0649248871 0.11588855,1.06529355 0.11588855,2.30104308 L0.11588855,10.6870868 L59.2708181,10.6870868 L59.2708181,2.30104308 C59.2708181,1.06529355 58.0895369,0.0649248871 56.6285532,0.0649248871 Z M22.8330105,7.51905251 L9.90960898,7.51905251 L9.90960898,3.74455225 L22.8330105,3.74455225 L22.8330105,7.51905251 Z M34.8310946,7.51905251 C33.795933,7.51905251 32.9553865,6.67360288 32.9553865,5.63240284 C32.9553865,4.5912028 33.795933,3.74575317 34.8310946,3.74575317 C35.8662562,3.74575317 36.7056087,4.5912028 36.7056087,5.63240284 C36.7056087,6.67360288 35.8662562,7.51905251 34.8310946,7.51905251 Z M42.0569285,7.51905251 C41.0217669,7.51905251 40.1812204,6.67360288 40.1812204,5.63240284 C40.1812204,4.5912028 41.0217669,3.74575317 42.0569285,3.74575317 C43.0920901,3.74575317 43.9326365,4.5912028 43.9326365,5.63240284 C43.9326365,6.67360288 43.0920901,7.51905251 42.0569285,7.51905251 Z M49.2827624,7.51905251 C48.2476008,7.51905251 47.4082483,6.67360288 47.4082483,5.63240284 C47.4082483,4.5912028 48.2476008,3.74575317 49.2827624,3.74575317 C50.317924,3.74575317 51.1584704,4.5912028 51.1584704,5.63240284 C51.1584704,6.67360288 50.317924,7.51905251 49.2827624,7.51905251 Z" id="Shape"></path>
                </g>
            </g>
        </g>
    </g>
</svg>