<?xml version="1.0" encoding="UTF-8"?>
<svg width="100px" height="100px" viewBox="0 0 100 100" version="1.1" xmlns="http://www.w3.org/2000/svg" xmlns:xlink="http://www.w3.org/1999/xlink">
    <!-- Generator: Sketch 42 (36781) - http://www.bohemiancoding.com/sketch -->
    <title>pest</title>
    <desc>Created with Sketch.</desc>
    <defs></defs>
    <g id="help_center_icons" stroke="none" stroke-width="1" fill="none" fill-rule="evenodd">
        <g id="pest">
            <rect id="Rectangle" x="0" y="0" width="100" height="100"></rect>
            <g transform="translate(13.000000, 15.000000)" id="Group" fill-rule="nonzero" fill="#FFFFFF">
                <g>
                    <g>
                        <g>
                            <path d="M38.6928105,35 L38.6928105,69.8755556 C49.5384052,68.6233333 58.0392157,56.9761111 58.0392157,42.7777778 C58.0392157,40.075 57.7219346,37.4655556 57.1454118,35 L38.6928105,35 Z" id="Shape"></path>
                            <path d="M16.3709281,35 C15.7944052,37.4655556 15.4771242,40.075 15.4771242,42.7777778 C15.4771242,56.9722222 23.9779346,68.6233333 34.8235294,69.8755556 L34.8235294,35 L16.3709281,35 Z" id="Shape"></path>
                            <path d="M46.4313725,18.5538889 L46.4313725,11.3127778 C48.6794248,10.5116667 50.3006536,8.37277778 50.3006536,5.83722222 C50.3006536,2.61333333 47.7004967,0.00388888889 44.496732,0.00388888889 C41.2929673,0.00388888889 38.6928105,2.61333333 38.6928105,5.83722222 C38.6928105,8.37277778 40.3140392,10.5116667 42.5620915,11.3127778 L42.5620915,16.6094444 C40.7125752,15.9405556 38.7740654,15.5555556 36.7581699,15.5555556 C34.7422745,15.5555556 32.7998954,15.9405556 30.9542484,16.6094444 L30.9542484,11.3127778 C33.2023007,10.5116667 34.8235294,8.37277778 34.8235294,5.83722222 C34.8235294,2.61333333 32.2233725,0.00388888889 29.0196078,0.00388888889 C25.8158431,0.00388888889 23.2156863,2.61333333 23.2156863,5.83722222 C23.2156863,8.37277778 24.836915,10.5116667 27.0849673,11.3127778 L27.0849673,18.5538889 C22.9216209,21.28 19.5669542,25.7016667 17.5549281,31.1111111 L55.9614118,31.1111111 C53.9493856,25.6977778 50.594719,21.28 46.4313725,18.5538889 Z" id="Shape"></path>
                            <rect id="Rectangle-path" x="0" y="38.8888889" width="11.6078431" height="3.88888889"></rect>
                            <rect id="Rectangle-path" transform="translate(9.018534, 22.035422) rotate(-47.719374) translate(-9.018534, -22.035422) " x="7.08378509" y="16.2017629" width="3.86949743" height="11.6673191"></rect>
                            <rect id="Rectangle-path" transform="translate(64.723122, 21.570590) rotate(-42.308763) translate(-64.723122, -21.570590) " x="58.9194218" y="19.6262198" width="11.6074012" height="3.88874084"></rect>
                            <rect id="Rectangle-path" transform="translate(8.439412, 55.628027) rotate(-42.308763) translate(-8.439412, -55.628027) " x="2.63571171" y="53.683657" width="11.6074012" height="3.88874084"></rect>
                            <rect id="Rectangle-path" transform="translate(65.309089, 56.092200) rotate(-47.719374) translate(-65.309089, -56.092200) " x="63.3743403" y="50.2585406" width="3.86949743" height="11.6673191"></rect>
                            <rect id="Rectangle-path" x="61.9084967" y="38.8888889" width="11.6078431" height="3.88888889"></rect>
                        </g>
                    </g>
                </g>
            </g>
        </g>
    </g>
</svg>