<?xml version="1.0" encoding="UTF-8"?>
<svg width="100px" height="100px" viewBox="0 0 100 100" version="1.1" xmlns="http://www.w3.org/2000/svg" xmlns:xlink="http://www.w3.org/1999/xlink">
    <!-- Generator: Sketch 42 (36781) - http://www.bohemiancoding.com/sketch -->
    <title>resource</title>
    <desc>Created with Sketch.</desc>
    <defs></defs>
    <g id="help_center_icons" stroke="none" stroke-width="1" fill="none" fill-rule="evenodd">
        <g id="resource">
            <rect id="Rectangle" x="0" y="0" width="100" height="100"></rect>
            <g id="noun_793125_cc" transform="translate(15.000000, 10.000000)" fill-rule="nonzero" fill="#FFFFFF">
                <g id="Artboard-28">
                    <path d="M43.369697,19.3939394 C43.369697,18.1711029 44.3610018,17.179798 45.5838384,17.179798 L49.9878788,17.179798 C51.1566546,17.2505031 52.0683201,18.2189865 52.0683201,19.389899 C52.0683201,20.5608115 51.1566546,21.5292949 49.9878788,21.6 L45.5838384,21.6 C44.3641507,21.6000081 43.3741484,20.613619 43.369697,19.3939394 L43.369697,19.3939394 Z M49.9878788,25.8585859 L46.6505051,25.8585859 C45.4817292,25.929291 44.5700638,26.8977743 44.5700638,28.0686869 C44.5700638,29.2395994 45.4817292,30.2080827 46.6505051,30.2787879 L49.9878788,30.2787879 C51.1566546,30.2080827 52.0683201,29.2395994 52.0683201,28.0686869 C52.0683201,26.8977743 51.1566546,25.929291 49.9878788,25.8585859 L49.9878788,25.8585859 Z M39.7818182,36.6949495 C39.7817827,37.2864008 40.0183825,37.8532816 40.4388726,38.2692176 C40.8593626,38.6851536 41.4287862,38.9155667 42.020202,38.9090909 L50.0121212,38.9090909 C51.180897,38.8383858 52.0925625,37.8699024 52.0925625,36.6989899 C52.0925625,35.5280774 51.180897,34.559594 50.0121212,34.4888889 L42.020202,34.4888889 C41.4301843,34.4824247 40.8619923,34.7117331 40.4417385,35.1259183 C40.0214846,35.5401035 39.7839363,36.1049002 39.7818182,36.6949495 L39.7818182,36.6949495 Z M22.0767677,47.5393939 L49.9878788,47.5393939 C51.1566546,47.4686888 52.0683201,46.5002055 52.0683201,45.3292929 C52.0683201,44.1583804 51.1566546,43.1898971 49.9878788,43.1191919 L22.0767677,43.1191919 C20.9079918,43.1898971 19.9963264,44.1583804 19.9963264,45.3292929 C19.9963264,46.5002055 20.9079918,47.4686888 22.0767677,47.5393939 Z M22.0767677,56.169697 L36.6868687,56.169697 C37.5083544,56.2193928 38.2896232,55.8093554 38.7153872,55.1050589 C39.1411512,54.4007625 39.1411512,53.5184294 38.7153872,52.814133 C38.2896232,52.1098366 37.5083544,51.6997991 36.6868687,51.7494949 L22.0767677,51.7494949 C20.9079918,51.8202001 19.9963264,52.7886834 19.9963264,53.959596 C19.9963264,55.1305085 20.9079918,56.0989918 22.0767677,56.169697 L22.0767677,56.169697 Z M22.0767677,64.8 L36.6868687,64.8 C37.5083544,64.8496958 38.2896232,64.4396584 38.7153872,63.735362 C39.1411512,63.0310655 39.1411512,62.1487325 38.7153872,61.444436 C38.2896232,60.7401396 37.5083544,60.3301022 36.6868687,60.379798 L22.0767677,60.379798 C20.9079918,60.4505031 19.9963264,61.4189865 19.9963264,62.589899 C19.9963264,63.7608115 20.9079918,64.7292949 22.0767677,64.8 L22.0767677,64.8 Z M32.8484848,27.2 L40.6545455,27.2 C40.9388487,27.2000082 41.2113914,27.0865189 41.4116641,26.884729 C41.6119368,26.6829391 41.7233659,26.4095476 41.7212121,26.1252525 C41.6945376,21.2349998 37.7226487,17.2847757 32.8323232,17.2848485 C32.2432195,17.2848485 31.7656566,17.7624114 31.7656566,18.3515152 L31.7656566,26.1575758 C31.7789076,26.7435315 32.2624488,27.2090302 32.8484848,27.2 Z M28.420202,39.1353535 C33.3127664,39.3512489 37.4709985,35.5962393 37.7535354,30.7070707 C37.7602441,30.5600559 37.7059065,30.4168031 37.6033846,30.3112209 C37.5008627,30.2056386 37.3592697,30.1471121 37.2121212,30.1494949 L29.4626263,30.1494949 C29.1055937,30.1494949 28.8161616,29.8600629 28.8161616,29.5030303 L28.8161616,21.7535354 C28.8163123,21.6077843 28.7568065,21.4683216 28.6514806,21.3675751 C28.5461548,21.2668286 28.4041863,21.2135769 28.2585859,21.220202 C23.5308633,21.5497146 19.8787926,25.5062257 19.9280672,30.2451613 C19.9773419,34.984097 23.7108924,38.8638137 28.4444444,39.0949495 L28.420202,39.1353535 Z M70.440404,59.8545455 C71.3703203,62.9916738 69.5841144,66.2892847 66.4484848,67.2242424 L51.7171717,71.5959596 L48.7353535,74.5777778 C48.0905296,75.2186514 47.220217,75.5812817 46.3111111,75.5878788 L38.3353535,75.5878788 L24.3393939,79.7494949 C21.2046618,80.6800315 17.9081408,78.8980306 16.969697,75.7656566 L16.9131313,75.5878788 L13.9959596,75.5878788 C10.7270397,75.5701156 8.08520135,72.9174501 8.08080808,69.6484848 L8.08080808,45.7858586 L0.662626263,20.9535354 C-0.262085334,17.8189525 1.52303052,14.5269676 4.65454545,13.5919192 L8.08080808,12.5737374 L8.08080808,12.2828283 C8.0852594,9.00443715 10.7418109,6.34788566 14.020202,6.34343434 L28.9777778,6.34343434 L46.7555556,1.05050505 C48.2643534,0.598973256 49.8907845,0.766040852 51.2762803,1.51487555 C52.661776,2.26371024 53.6925716,3.5328242 54.1414141,5.04242424 L54.5292929,6.35151515 L58.0767677,6.35151515 C61.3551588,6.35596647 64.0117103,9.01251796 64.0161616,12.2909091 L64.0161616,38.2222222 L70.440404,59.8545455 Z M57.0989899,13.2525253 L14.9656566,13.2525253 L14.9656566,68.6868687 L42.8767677,68.6868687 L42.8767677,57.9151515 C42.8812107,56.0113336 44.4234548,54.4690895 46.3272727,54.4646465 L57.0989899,54.4646465 L57.0989899,13.2525253 Z" id="Shape"></path>
                </g>
            </g>
        </g>
    </g>
</svg>