<?xml version="1.0" encoding="UTF-8"?>
<svg width="100px" height="100px" viewBox="0 0 100 100" version="1.1" xmlns="http://www.w3.org/2000/svg" xmlns:xlink="http://www.w3.org/1999/xlink">
    <!-- Generator: Sketch 42 (36781) - http://www.bohemiancoding.com/sketch -->
    <title>room_change</title>
    <desc>Created with Sketch.</desc>
    <defs></defs>
    <g id="help_center_icons" stroke="none" stroke-width="1" fill="none" fill-rule="evenodd">
        <g id="room_change">
            <rect id="Rectangle" x="0" y="0" width="100" height="100"></rect>
            <g id="change" transform="translate(14.000000, 10.000000)" fill="#FFFFFF">
                <g id="Artboard-3" fill-rule="nonzero">
                    <path d="M0.848484848,39.5959596 C0.811393248,27.4648917 6.93425656,16.1442896 17.1070707,9.53535354 C17.4193921,9.33353551 17.8210119,9.33353551 18.1333333,9.53535354 L23.4020202,12.969697 C23.5815004,13.0842958 23.6852851,13.2867309 23.6735657,13.4993543 C23.6618463,13.7119776 23.5364422,13.9017803 23.3454545,13.9959596 C11.6978277,20.0880958 5.62736338,33.272013 8.57126691,46.0827416 C11.5151704,58.8934701 22.7320497,68.1047583 35.8707071,68.5010101 L35.8707071,65.9555556 C35.8664024,65.5492164 36.0883056,65.1741629 36.4465308,64.9823171 C36.804756,64.7904714 37.2399222,64.8136347 37.5757576,65.0424242 L46.8767677,71.1111111 C47.185006,71.3125974 47.37079,71.655993 47.37079,72.0242424 C47.37079,72.3924918 47.185006,72.7358875 46.8767677,72.9373737 L37.5757576,79.0141414 C37.2407564,79.2294947 36.8150229,79.245183 36.4650803,79.0550699 C36.1151376,78.8649568 35.8966009,78.4992564 35.8949495,78.1010101 L35.8949495,75.5151515 C16.4284016,74.9739411 0.910809388,59.0699297 0.848484848,39.5959596 L0.848484848,39.5959596 Z M26.1575758,7.15959596 C26.1558461,6.79118224 26.3415541,6.44716579 26.6505051,6.24646465 L35.959596,0.177777778 C36.2945972,-0.0375754971 36.7203306,-0.053263785 37.0702733,0.136849291 C37.4202159,0.326962368 37.6387526,0.692662791 37.640404,1.09090909 L37.640404,3.67676768 C53.3564546,4.06855372 66.9925281,14.6327794 71.298435,29.7525316 C75.6043419,44.8722838 69.5799108,61.035563 56.4282828,69.6484848 C56.1159614,69.8503029 55.7143416,69.8503029 55.4020202,69.6484848 L50.1333333,66.2141414 C49.9583381,66.0965301 49.8582142,65.8954525 49.869818,65.6849267 C49.8814218,65.474401 50.0030381,65.2855452 50.189899,65.1878788 C61.8289327,59.0917889 67.8923093,45.9128224 64.9492858,33.1078221 C62.0062624,20.3028219 50.7973249,11.0936191 37.6646465,10.6909091 L37.6646465,13.2363636 C37.6689511,13.6427028 37.4470479,14.0177563 37.0888227,14.209602 C36.7305975,14.4014478 36.2954314,14.3782845 35.959596,14.1494949 L26.6505051,8.08080808 C26.3391209,7.87855927 26.1530767,7.53086999 26.1575758,7.15959596 L26.1575758,7.15959596 Z" id="Shape"></path>
                </g>
                <path d="M36.5,62 C23.5213084,62 13,51.4786916 13,38.5 C13,25.5213084 23.5213084,15 36.5,15 C49.4786916,15 60,25.5213084 60,38.5 C60,51.4786916 49.4786916,62 36.5,62 Z M49.6939219,39.8404642 L49.6939219,45.3023393 C49.6939219,45.5966918 49.4633163,45.8256327 49.1668234,45.8256327 L23.5366613,45.8256327 C23.2401684,45.8256327 23.0095628,45.5966918 23.0095628,45.3023393 L23.0095628,35.5232934 C23.0095628,35.2289409 22.7789573,35 22.4824644,35 L21.5270985,35 C21.2306056,35 21,35.2289409 21,35.5232934 L21,44.4192816 L21,49.7176276 L21,53.0209173 C21,53.3152698 21.2306056,53.5442107 21.5270985,53.5442107 L22.4824644,53.5442107 C22.7789573,53.5442107 23.0095628,53.3152698 23.0095628,53.0209173 L23.0095628,50.7969202 C23.0095628,50.5025677 23.2401684,50.2736268 23.5366613,50.2736268 L49.1338798,50.2736268 C49.4303727,50.2736268 49.6609782,50.5025677 49.6609782,50.7969202 L49.6609782,53.0209173 C49.6609782,53.3152698 49.8915838,53.5442107 50.1880767,53.5442107 L51.1763863,53.5442107 C51.4728791,53.5442107 51.7034847,53.3152698 51.7034847,53.0209173 L51.7034847,49.7503334 L51.7034847,44.4519875 L51.7034847,39.8404642 C51.7034847,39.5461116 51.4728791,39.3171707 51.1763863,39.3171707 L50.2210203,39.3171707 C49.9245274,39.3171707 49.6939219,39.5461116 49.6939219,39.8404642 Z M48.2794724,45.3875262 C48.5100779,45.3875262 48.7077398,45.1912912 48.7077398,44.9296445 L48.7077398,43.4251759 C48.7077398,43.196235 48.5100779,43 48.2794724,43 L24.4282675,43 C24.1976619,43 24,43.196235 24,43.4251759 L24,44.9623503 C24,45.1912912 24.1976619,45.3875262 24.4282675,45.3875262 L48.2794724,45.3875262 Z M29.1062662,39 L24.5600421,39 C24.2306056,39 24,39.2616467 24,39.5559993 L24,41.1912912 C24,41.5183496 24.2635492,41.7472905 24.5600421,41.7472905 L29.1062662,41.7472905 C29.4357028,41.7472905 29.6663083,41.4856438 29.6663083,41.1912912 L29.6663083,39.5887051 C29.6663083,39.2616467 29.4027591,39 29.1062662,39 Z M52.1131964,31.6016357 C52.2449711,31.3726948 52.1461401,31.0783422 51.9155345,30.9475189 L36.102581,23 L20.2566839,30.9475189 C20.0260783,31.0783422 19.9272473,31.3399889 20.0590219,31.6016357 L20.4214021,32.3211641 C20.5531767,32.550105 20.816726,32.6482225 21.0473315,32.550105 L35.9049191,26.041643 C36.0366937,25.9762314 36.1684683,25.9762314 36.3002429,26.041643 L51.1578305,32.550105 C51.3884361,32.6482225 51.6519853,32.550105 51.7837599,32.3211641 L52.1131964,31.6016357 Z" id="Combined-Shape"></path>
            </g>
        </g>
    </g>
</svg>