<?xml version="1.0" encoding="UTF-8"?>
<svg width="100px" height="100px" viewBox="0 0 100 100" version="1.1" xmlns="http://www.w3.org/2000/svg" xmlns:xlink="http://www.w3.org/1999/xlink">
    <!-- Generator: Sketch 42 (36781) - http://www.bohemiancoding.com/sketch -->
    <title>sustainability</title>
    <desc>Created with Sketch.</desc>
    <defs></defs>
    <g id="help_center_icons" stroke="none" stroke-width="1" fill="none" fill-rule="evenodd">
        <g id="sustainability">
            <rect id="Rectangle" x="0" y="0" width="100" height="100"></rect>
            <g id="noun_858975_cc" transform="translate(14.000000, 14.000000)" fill-rule="nonzero" fill="#FFFFFF">
                <g id="Group">
                    <path d="M36.1844308,0 C16.4357109,0 0.368861538,16.0668494 0.368861538,35.8155692 C0.368861538,55.5642891 16.4357109,71.6311385 36.1844308,71.6311385 C55.9331506,71.6311385 72,55.5642891 72,35.8155692 C72,16.0668494 55.9331506,0 36.1844308,0 Z M8.66534313,54.351819 C9.8305741,54.7825284 10.9411559,55.0326177 11.4070631,55.4985249 C12.2175377,56.3089995 12.9122303,56.3089995 14.9963079,56.3089995 C17.0803856,56.3089995 19.4543816,54.7454782 21.0169767,56.3089995 C22.5795718,57.8725209 22.6962802,57.6409567 23.7957469,58.7404235 C24.8952137,59.8398902 25.6843844,60.7161291 24.7220037,61.6785098 C23.7596229,62.6408906 23.1010544,64.5295281 23.911529,65.3400027 C24.2588753,65.687349 24.7257087,66.4200181 25.3463007,67.1795486 C18.4975584,64.8055526 12.6556571,60.2567057 8.66534313,54.351819 Z M21.7116693,16.3641778 C22.2905797,18.5640375 22.5573417,21.2177631 23.5641827,22.2246041 C24.5710238,23.2314452 24.8377857,27.0161302 24.8377857,28.0581691 C24.8377857,29.1002079 23.5410263,31.5316318 21.6422,31.5316318 L18.2382065,31.5316318 C17.1961677,31.5316318 14.8221717,34.0214099 14.3016154,34.5419662 C13.7810591,35.0625225 13.0854403,35.410795 11.9859735,36.5102618 C10.8865068,37.6097285 9.55454959,37.6680827 9.55454959,38.9416857 C9.55454959,40.2152887 10.2492421,43.6887515 10.2492421,44.4992261 C10.2492421,45.3097008 10.3650242,46.5833038 11.5228452,47.7411247 C12.6806661,48.8989456 8.16516449,51.5619338 7.12312566,47.7411247 C6.08108683,43.9203157 5.38639428,41.9520201 4.22857336,41.9520201 C3.97755778,41.9520201 3.75896119,41.9353475 3.56722605,41.9279374 C3.19672336,39.945748 2.99387313,37.9042782 2.99387313,35.8155692 C2.99387313,20.7731598 13.0567263,8.0436135 26.80145,3.98383022 C25.8788983,5.14720868 25.6482604,6.40413908 25.6482604,6.98582831 C25.6482604,8.02786714 26.9802176,10.6334273 25.6482604,11.9644583 C24.3163032,13.2954892 21.1327588,14.164318 21.7116693,16.3641778 Z M36.5382608,50.9830233 C36.4280363,51.0423037 36.3057704,51.0728702 36.1844308,51.0728702 C36.0630911,51.0728702 35.9408252,51.04323 35.8306007,50.9830233 C35.4332366,50.7681317 26.1058312,45.6348169 26.1058312,38.9435382 C26.1058312,35.9600653 28.5326239,33.5341989 31.5160968,33.5341989 C33.5038438,33.5341989 35.2433539,34.6105092 36.1844308,36.2120071 C37.1255076,34.6105092 38.865944,33.5341989 40.8527647,33.5341989 C43.8362377,33.5341989 46.2630303,35.9600653 46.2630303,38.9435382 C46.2630303,45.6348169 36.935625,50.7681317 36.5382608,50.9830233 Z M47.6468579,12.6591508 C46.6048191,13.7011896 45.2728619,9.70624434 46.1416907,8.83834178 C47.0105195,7.97043922 49.8800629,7.56473877 49.8800629,6.63848203 C49.8800629,6.3393011 50.0597567,6.04475146 50.2440818,5.75946439 C52.3161181,6.73296022 54.2732986,7.90930627 56.085983,9.27182993 C55.981316,10.5787782 54.9791062,11.5791355 53.8990909,12.6591508 C51.9345003,14.6237414 48.6888967,11.617112 47.6468579,12.6591508 Z M50.4256281,27.5950407 C52.3939237,24.5847063 51.8150132,23.4268854 53.4359625,23.4268854 C55.0569118,23.4268854 56.3305148,22.1532824 56.3305148,20.0692047 C56.3305148,17.9851271 56.562079,16.3641778 57.3725536,15.5537031 C58.1830283,14.7432285 58.3432707,14.1105951 59.2158045,13.2380613 C59.4464425,13.0074234 59.7215407,12.8471809 59.9707038,12.7026849 C63.824858,16.66799 66.6971802,21.5882658 68.1967898,27.0726319 C68.0208011,27.1902665 67.840181,27.3162374 67.6771598,27.4792586 C66.9241131,28.2323053 68.3718524,31.9947602 67.6771598,31.9947602 C66.9824673,31.9947602 65.0141717,32.1105423 65.0141717,31.6474139 C65.0141717,31.1842855 64.087915,29.3317721 64.087915,27.7108228 C64.087915,26.0898735 61.3091447,24.7004884 60.9617985,25.0478347 C60.6144522,25.3951809 58.5303745,26.5530019 58.5303745,27.5950407 C58.5303745,28.6370795 58.5303745,32.2263244 57.0252073,32.2263244 C55.5200401,32.2263244 53.0886162,33.7314916 51.1203206,33.7314916 C49.1520251,33.7314916 48.5610733,30.4469852 50.4256281,27.5950407 Z M61.3943604,57.367711 C61.6509335,56.6646821 61.9084329,55.9579482 62.2354015,55.2669607 C63.2774403,53.0671009 62.4669657,49.5936382 60.7302343,49.5936382 C58.9935029,49.5936382 56.2147327,49.362074 53.7833088,47.9726889 C51.3518848,46.5833038 52.1623595,42.9940589 52.1623595,40.6784171 C52.1623595,38.3627753 53.7833088,36.6260439 56.9094252,35.8155692 C59.7354346,35.0829002 65.1003136,35.7738877 69.355537,36.5973299 C69.1702857,44.51312 66.2053379,51.7490376 61.3943604,57.367711 Z" id="Shape"></path>
                </g>
            </g>
        </g>
    </g>
</svg>