<?xml version="1.0" encoding="UTF-8"?>
<svg width="100px" height="100px" viewBox="0 0 100 100" version="1.1" xmlns="http://www.w3.org/2000/svg" xmlns:xlink="http://www.w3.org/1999/xlink">
    <!-- Generator: Sketch 42 (36781) - http://www.bohemiancoding.com/sketch -->
    <title>tv</title>
    <desc>Created with Sketch.</desc>
    <defs></defs>
    <g id="help_center_icons" stroke="none" stroke-width="1" fill="none" fill-rule="evenodd">
        <g id="tv">
            <rect id="Rectangle" x="0" y="0" width="100" height="100"></rect>
            <g transform="translate(10.000000, 7.000000)" id="Group" fill-rule="nonzero" fill="#FFFFFF">
                <g>
                    <path d="M76.023464,20.0061747 L29.6091386,20.0061747 L38.811979,10.8033344 C40.412473,9.20284038 40.412473,6.80209941 38.811979,5.20160543 C37.211485,3.60111145 34.8107441,3.60111145 33.2102501,5.20160543 L20.8064217,17.6054338 L11.6035814,2.00061747 C10.4032109,2.06813733e-14 8.0024699,-0.400123495 6.00185242,0.400123495 C4.00123495,1.60049398 3.60111145,4.00123495 4.40135844,6.00185242 L12.8039518,20.0061747 L4.00123495,20.0061747 C1.60049398,20.0061747 0,21.6066687 0,24.0074097 L0,72.0222291 C0,74.4229701 1.60049398,76.023464 4.00123495,76.023464 L8.0024699,76.023464 L8.0024699,79.224452 C8.0024699,79.6245755 8.40259339,80.024699 8.80271689,80.024699 L71.2219821,80.024699 C71.6221056,80.024699 72.0222291,79.6245755 72.0222291,79.224452 L72.0222291,76.023464 L76.023464,76.023464 C78.424205,76.023464 80.024699,74.4229701 80.024699,72.0222291 L80.024699,24.0074097 C80.024699,21.6066687 78.424205,20.0061747 76.023464,20.0061747 Z M56.0172893,66.4205002 C56.0172893,67.2207471 55.2170423,68.0209941 54.4167953,68.0209941 L9.60296388,68.0209941 C8.80271689,68.0209941 8.0024699,67.2207471 8.0024699,66.4205002 L8.0024699,29.6091386 C8.0024699,28.8088916 8.80271689,28.0086446 9.60296388,28.0086446 L54.4167953,28.0086446 C55.2170423,28.0086446 56.0172893,28.8088916 56.0172893,29.6091386 L56.0172893,66.4205002 Z M66.0203767,56.0172893 C62.8193887,56.0172893 60.0185242,53.2164248 60.0185242,50.0154369 C60.0185242,46.8144489 62.8193887,44.0135844 66.0203767,44.0135844 C69.2213646,44.0135844 72.0222291,46.8144489 72.0222291,50.0154369 C72.0222291,53.2164248 69.2213646,56.0172893 66.0203767,56.0172893 Z M66.0203767,40.0123495 C62.8193887,40.0123495 60.0185242,37.211485 60.0185242,34.0104971 C60.0185242,30.8095091 62.8193887,28.0086446 66.0203767,28.0086446 C69.2213646,28.0086446 72.0222291,30.8095091 72.0222291,34.0104971 C72.0222291,37.211485 69.2213646,40.0123495 66.0203767,40.0123495 Z" id="Shape"></path>
                </g>
            </g>
        </g>
    </g>
</svg>