<?xml version="1.0" encoding="UTF-8"?>
<svg width="130px" height="127px" viewBox="0 0 130 127" version="1.1" xmlns="http://www.w3.org/2000/svg" xmlns:xlink="http://www.w3.org/1999/xlink">
    <!-- Generator: Sketch 42 (36781) - http://www.bohemiancoding.com/sketch -->
    <title>art-colony-4c</title>
    <desc>Created with Sketch.</desc>
    <defs>
        <polygon id="path-1" points="0.06 0.816 0.06 103.94 129.782 103.94 129.782 0.816"></polygon>
    </defs>
    <g id="LLP" stroke="none" stroke-width="1" fill="none" fill-rule="evenodd">
        <g id="art-colony-4c">
            <polyline id="Fill-1" fill="#FFF101" points="12.437 42.407 31.766 63.126 39.604 60.407 47.604 61.24 56.437 64.407 62.271 69.74 66.104 77.24 67.604 86.407 66.271 92.574 64.437 94.074 60.192 93.596 84.271 119.407 84.604 42.74 12.437 42.407"></polyline>
            <polyline id="Fill-2" fill="#FFFFFF" points="40.104 56.574 42.771 60.074 53.437 62.907 58.771 66.407 66.104 76.574 67.604 86.407 68.189 91.08 72.604 94.74 72.437 56.24 40.771 56.407 40.104 56.574"></polyline>
            <path d="M47.104,68.907 C47.104,71.392 45.089,73.407 42.604,73.407 C40.119,73.407 38.104,71.392 38.104,68.907 C38.104,66.422 40.119,64.407 42.604,64.407 C45.089,64.407 47.104,66.422 47.104,68.907" id="Fill-3" fill="#FFF101"></path>
            <path d="M60.604,78.74 C60.604,81.226 58.589,83.24 56.104,83.24 C53.619,83.24 51.604,81.226 51.604,78.74 C51.604,76.255 53.619,74.24 56.104,74.24 C58.589,74.24 60.604,76.255 60.604,78.74" id="Fill-4" fill="#D8117D"></path>
            <path d="M46.437,101.24 C46.437,103.818 44.348,105.907 41.771,105.907 C39.193,105.907 37.104,103.818 37.104,101.24 C37.104,98.663 39.193,96.574 41.771,96.574 C44.348,96.574 46.437,98.663 46.437,101.24" id="Fill-5" fill="#D8117D"></path>
            <path d="M33.271,92.907 C33.271,95.668 31.032,97.907 28.271,97.907 C25.509,97.907 23.271,95.668 23.271,92.907 C23.271,90.146 25.509,87.907 28.271,87.907 C31.032,87.907 33.271,90.146 33.271,92.907" id="Fill-6" fill="#FFF101"></path>
            <path d="M34.604,77.74 C34.604,80.502 32.365,82.74 29.604,82.74 C26.843,82.74 24.604,80.502 24.604,77.74 C24.604,74.979 26.843,72.74 29.604,72.74 C32.365,72.74 34.604,74.979 34.604,77.74" id="Fill-7" fill="#D8117D"></path>
            <polyline id="Fill-8" fill="#FFF101" points="45.437 25.407 44.271 27.24 45.437 29.24 44.771 31.574 45.437 33.907 44.437 35.574 45.104 37.907 79.604 38.24 79.104 25.407 45.437 25.407"></polyline>
            <polyline id="Fill-9" fill="#FFF101" points="103.604 73.074 102.104 84.24 113.104 84.074 111.604 72.907 103.604 73.074"></polyline>
            <polyline id="Fill-10" fill="#FFF101" points="97.771 33.407 97.604 40.407 105.104 41.24 104.604 34.24 97.771 33.407"></polyline>
            <polyline id="Fill-11" fill="#FFF101" points="94.771 102.24 92.104 105.574 93.937 111.074 96.937 111.24 97.937 108.407 98.104 105.907 96.937 103.24 94.771 102.24"></polyline>
            <path d="M75.937,36.993 L78.211,36.993 L78.211,26.705 L75.937,26.705 L75.937,36.993 Z M71.545,26.705 L73.601,26.705 L73.601,36.992 L71.676,36.992 L71.545,26.705 Z M46.604,36.992 C46.482,36.992 46.371,37.027 46.26,37.062 C45.687,36.701 45.343,36.338 45.347,36.06 C45.351,35.654 45.984,35.1 46.517,34.788 L69.312,34.788 L69.34,36.992 L46.604,36.992 Z M69.235,28.798 L46.5,28.798 C45.821,28.404 45.424,27.996 45.428,27.691 C45.431,27.418 45.72,27.079 46.07,26.79 L69.209,26.71 L69.235,28.798 Z M46.5,33.036 C45.804,32.637 45.383,32.223 45.387,31.913 C45.392,31.465 46.166,30.835 46.724,30.55 L69.258,30.55 L69.289,33.036 L46.5,33.036 Z M36.766,30.126 C38.923,29.191 41.446,28.106 43.763,27.114 C43.715,27.29 43.679,27.471 43.676,27.664 C43.665,28.428 44.05,29.127 44.811,29.753 C44.231,30.254 43.649,30.977 43.636,31.886 C43.625,32.634 43.996,33.32 44.726,33.936 C44.162,34.436 43.608,35.146 43.595,36.032 C43.593,36.167 43.604,36.299 43.626,36.43 C41.373,35.455 38.894,34.373 36.766,33.432 L36.766,30.126 Z M79.176,24.369 L70.46,24.391 C70.421,24.387 70.388,24.369 70.347,24.369 C70.309,24.369 70.277,24.388 70.24,24.392 L46.002,24.454 C45.989,24.454 45.978,24.462 45.964,24.462 C45.791,24.423 45.608,24.421 45.432,24.495 C30.612,30.82 30.517,30.951 30.33,31.213 C30.175,31.428 30.126,31.708 30.197,31.964 C30.343,32.491 30.388,32.651 45.5,39.146 C45.613,39.194 45.73,39.217 45.845,39.217 C45.922,39.217 45.998,39.204 46.072,39.184 C46.234,39.269 46.409,39.328 46.604,39.328 L79.176,39.328 C79.932,39.328 80.548,38.732 80.548,37.999 L80.548,25.698 C80.548,24.965 79.932,24.369 79.176,24.369 L79.176,24.369 Z" id="Fill-12" fill="#00A3DB"></path>
            <path d="M10.404,41.904 L30.015,62.922 C30.713,62.518 31.43,62.145 32.168,61.806 L15.778,44.24 L27.9,44.24 L27.9,51.671 L30.236,51.671 L30.236,44.24 L37.834,44.24 L37.834,51.682 L40.17,51.682 L40.17,44.24 L48.122,44.24 L48.122,51.744 L50.458,51.744 L50.458,44.24 L58.622,44.24 L58.622,51.863 L60.958,51.863 L60.958,44.24 L68.781,44.24 L68.781,51.812 L71.117,51.812 L71.117,44.24 L83.453,44.24 L83.453,116.769 L60.555,92.206 L58.442,93.399 L85.789,122.697 L85.789,41.904 L10.404,41.904" id="Fill-13" fill="#00A3DB"></path>
            <path d="M42.649,64.797 C40.427,64.797 38.619,66.604 38.619,68.827 C38.619,71.049 40.427,72.857 42.649,72.857 C44.871,72.857 46.68,71.049 46.68,68.827 C46.68,66.604 44.871,64.797 42.649,64.797 Z M42.649,75.193 C39.139,75.193 36.283,72.338 36.283,68.827 C36.283,65.316 39.139,62.461 42.649,62.461 C46.16,62.461 49.015,65.316 49.015,68.827 C49.015,72.338 46.16,75.193 42.649,75.193 L42.649,75.193 Z" id="Fill-14" fill="#00A3DB"></path>
            <path d="M56.211,74.655 C53.989,74.655 52.181,76.463 52.181,78.685 C52.181,80.908 53.989,82.716 56.211,82.716 C58.433,82.716 60.242,80.908 60.242,78.685 C60.242,76.463 58.433,74.655 56.211,74.655 Z M56.211,85.051 C52.701,85.051 49.845,82.196 49.845,78.685 C49.845,75.174 52.701,72.319 56.211,72.319 C59.722,72.319 62.577,75.174 62.577,78.685 C62.577,82.196 59.722,85.051 56.211,85.051 L56.211,85.051 Z" id="Fill-15" fill="#00A3DB"></path>
            <path d="M41.856,97.006 C39.634,97.006 37.826,98.813 37.826,101.036 C37.826,103.258 39.634,105.066 41.856,105.066 C44.078,105.066 45.887,103.258 45.887,101.036 C45.887,98.813 44.078,97.006 41.856,97.006 Z M41.856,107.402 C38.346,107.402 35.49,104.547 35.49,101.036 C35.49,97.525 38.346,94.67 41.856,94.67 C45.367,94.67 48.222,97.525 48.222,101.036 C48.222,104.547 45.367,107.402 41.856,107.402 L41.856,107.402 Z" id="Fill-16" fill="#00A3DB"></path>
            <path d="M28.883,89.18 C26.661,89.18 24.853,90.988 24.853,93.211 C24.853,95.433 26.661,97.241 28.883,97.241 C31.105,97.241 32.913,95.433 32.913,93.211 C32.913,90.988 31.105,89.18 28.883,89.18 Z M28.883,99.577 C25.373,99.577 22.517,96.721 22.517,93.211 C22.517,89.7 25.373,86.844 28.883,86.844 C32.393,86.844 35.249,89.7 35.249,93.211 C35.249,96.721 32.393,99.577 28.883,99.577 L28.883,99.577 Z" id="Fill-17" fill="#00A3DB"></path>
            <path d="M29.336,74.143 C27.114,74.143 25.306,75.951 25.306,78.174 C25.306,80.396 27.114,82.204 29.336,82.204 C31.558,82.204 33.367,80.396 33.367,78.174 C33.367,75.951 31.558,74.143 29.336,74.143 Z M29.336,84.54 C25.826,84.54 22.97,81.684 22.97,78.174 C22.97,74.663 25.826,71.807 29.336,71.807 C32.847,71.807 35.702,74.663 35.702,78.174 C35.702,81.684 32.847,84.54 29.336,84.54 L29.336,84.54 Z" id="Fill-18" fill="#00A3DB"></path>
            <path d="M64.815,92.836 C63.697,93.512 61.868,92.801 60.529,92.086 L60.373,92.003 L60.2,91.969 C58.187,91.58 54.35,92.007 52.126,94.172 C50.739,95.52 50.19,97.345 50.537,99.45 L50.566,99.577 C51.834,104.073 51.207,106.09 50.721,106.891 C49.062,108.865 47.229,108.928 42.952,108.89 C29.964,108.89 19.397,98.323 19.397,85.335 C19.397,72.346 29.964,61.779 42.952,61.779 C55.941,61.779 66.508,72.346 66.508,85.335 C66.508,87.401 66.24,89.452 65.711,91.429 C65.711,91.429 65.298,92.544 64.815,92.836 Z M68.843,85.335 C68.843,71.058 57.229,59.443 42.952,59.443 C28.676,59.443 17.061,71.058 17.061,85.335 C17.061,99.611 28.676,111.226 42.952,111.226 C50.479,111.282 51.458,109.886 52.634,108.235 C53.923,106.252 53.99,103.147 52.832,99.008 C52.628,97.683 52.93,96.648 53.755,95.845 C55.33,94.312 58.274,94.046 59.599,94.236 C62.246,95.611 64.406,95.813 66.024,94.835 C68.404,93.395 68.461,90.007 68.462,89.706 C68.707,88.266 68.843,86.805 68.843,85.335 L68.843,85.335 Z" id="Fill-19" fill="#00A3DB"></path>
            <path d="M102.492,90.731 L103.134,85.117 L111.965,85.117 L112.512,90.821 L102.492,90.731 Z M104.415,73.913 L110.892,73.913 L111.797,83.365 L103.334,83.365 L104.415,73.913 Z M105.233,66.763 L110.21,66.79 L110.724,72.161 L104.616,72.161 L105.233,66.763 Z M107.41,63.011 L108.268,63.011 L108.268,64.444 L107.41,64.439 L107.41,63.011 Z M112.437,65.551 L112.325,64.465 L110.604,64.456 L110.604,62.957 L110.579,62.957 C110.644,62.896 110.689,62.79 110.689,62.662 L110.689,60.809 C110.689,60.616 110.591,60.46 110.469,60.46 L105.131,60.46 C105.009,60.46 104.911,60.616 104.911,60.809 L104.911,62.662 C104.911,62.823 104.981,62.952 105.074,62.993 L105.074,64.426 L104.213,64.422 L103.2,64.443 L103.037,65.419 L100.022,91.769 L99.985,92.295 L100.689,93.05 L113.777,93.169 L114.306,93.163 L115.008,92.384 L112.437,65.551 L112.437,65.551 Z" id="Fill-20" fill="#00A3DB"></path>
            <path d="M97.188,105.554 C97.714,107.18 97.385,108.668 97.098,109.504 C96.944,109.588 96.443,109.354 96.108,109.198 C95.462,108.897 94.656,108.521 93.839,108.868 C93.695,108.929 93.563,109.009 93.439,109.106 C92.824,107.582 92.733,106.154 93.023,105.429 C93.613,103.955 94.283,103.111 94.864,103.111 L94.878,103.111 C95.862,103.134 97.029,105.096 97.188,105.554 Z M98.854,105.015 C98.748,104.685 97.958,103.038 96.712,102.071 L95.762,64.402 C95.738,63.469 95.599,61.819 94.942,61.251 C94.713,61.052 94.425,60.963 94.14,60.997 C93.808,61.036 92.798,61.156 92.779,64.558 L92.58,102.636 C92.148,103.18 91.752,103.891 91.396,104.779 C90.771,106.343 91.214,108.952 92.467,111.113 C93.385,112.743 94.879,115.737 94.99,116.855 C94.991,116.864 94.992,116.871 94.992,116.874 L96.735,116.698 C96.735,116.695 96.734,116.692 96.734,116.689 C96.726,116.596 96.535,114.092 98.328,111.082 C98.392,110.966 99.895,108.23 98.854,105.015 L98.854,105.015 Z" id="Fill-21" fill="#D8117D"></path>
            <path d="M100.929,53.221 C100.063,54.134 99.036,54.584 97.756,54.595 C97.683,54.596 96.148,54.613 94.547,52.994 C93.075,51.505 91.417,48.456 91.048,42.269 L103.986,42.269 C103.819,46.17 103.129,50.9 100.929,53.221 Z M90.953,35.791 C90.953,34.986 91.607,34.331 92.412,34.331 L96.208,34.331 L96.208,39.933 L90.976,39.933 C90.972,39.276 90.976,38.6 91,37.883 L91.005,37.757 L90.981,37.632 C90.966,37.548 90.953,37.462 90.953,37.373 L90.953,35.791 Z M104.002,35.791 L103.999,37.363 L103.975,37.588 L103.978,37.664 C104.006,38.282 104.028,39.061 104.031,39.933 L98.544,39.933 L98.544,34.331 L102.542,34.331 C103.346,34.331 104.002,34.986 104.002,35.791 Z M106.316,37.657 C106.329,37.564 106.338,37.47 106.338,37.373 L106.338,35.791 C106.338,33.697 104.635,31.995 102.542,31.995 L92.412,31.995 C90.319,31.995 88.617,33.697 88.617,35.791 L88.617,37.373 C88.617,37.561 88.634,37.744 88.662,37.924 C88.412,46.013 89.865,51.668 92.98,54.73 C95.109,56.822 97.318,56.932 97.738,56.932 C97.779,56.932 97.803,56.931 97.807,56.93 C99.697,56.914 101.318,56.207 102.625,54.828 C106.307,50.942 106.523,42.446 106.316,37.657 L106.316,37.657 Z" id="Fill-22" fill="#D8117D"></path>
            <path d="M24.687,19.088 L23.324,20.256 L22.364,17.699 L24.687,19.088 Z M20.949,16.928 L23.562,24.121 L24.497,23.32 L23.737,21.321 L25.708,19.634 L27.536,20.718 L28.514,19.88 L21.887,16.125 L20.949,16.928 L20.949,16.928 Z" id="Fill-23" fill="#D8117D"></path>
            <path d="M31.061,13.097 C30.962,13.318 30.752,13.532 30.42,13.749 L28.709,14.864 L27.56,13.104 L29.409,11.899 C29.845,11.614 30.41,11.385 30.909,12.152 C31.139,12.504 31.188,12.813 31.061,13.097 Z M34.666,15.312 C34.398,15.326 34.317,15.277 34.106,14.97 L33.373,13.955 C32.874,13.252 32.442,13.191 32.078,13.229 C32.287,12.728 32.359,12.153 31.873,11.407 C31.173,10.335 30.074,10.212 28.779,11.056 L25.995,12.873 L29.912,18.876 L30.904,18.23 L29.282,15.743 L31.075,14.574 C31.93,14.016 32.315,14.448 32.608,14.896 C32.741,15.1 33.355,15.991 33.719,16.288 L33.79,16.346 L34.931,15.602 L34.739,15.307 L34.666,15.312 L34.666,15.312 Z" id="Fill-24" fill="#D8117D"></path>
            <polyline id="Fill-25" fill="#D8117D" points="38.391 7.075 37.915 6.107 32.65 8.694 33.126 9.661 35.227 8.629 37.91 14.093 38.973 13.571 36.29 8.107 38.391 7.075"></polyline>
            <polyline id="Fill-26" fill="#D8117D" points="40.267 5.2 42.829 11.891 43.935 11.466 41.372 4.776 40.267 5.2"></polyline>
            <path d="M48.838,5.735 L46.814,5.825 C46.292,5.84 46.025,5.685 45.915,5.291 C45.835,5.002 45.857,4.746 45.979,4.529 C46.207,4.129 46.733,3.934 47.028,3.853 C47.373,3.756 48.532,3.532 48.904,4.669 L48.941,4.782 L50.028,4.482 L49.987,4.357 C49.497,2.891 48.373,2.391 46.645,2.869 C44.863,3.362 44.556,4.714 44.834,5.721 C45.004,6.329 45.492,7.046 46.817,6.988 L48.269,6.925 C49.415,6.882 49.723,7.011 49.891,7.619 C50.142,8.524 49.033,8.938 48.544,9.073 C48.079,9.203 47.633,9.208 47.287,9.091 C46.856,8.946 46.567,8.615 46.427,8.109 L46.393,7.988 L45.307,8.291 L45.34,8.411 C45.504,9 45.764,9.599 46.551,9.991 C46.833,10.133 47.181,10.26 47.683,10.26 C47.998,10.26 48.374,10.21 48.833,10.083 C49.235,9.972 49.987,9.703 50.509,9.152 C51.018,8.615 51.179,7.936 50.972,7.19 C50.696,6.194 49.95,5.704 48.838,5.735" id="Fill-27" fill="#D8117D"></path>
            <polyline id="Fill-28" fill="#D8117D" points="57.616 0.898 51.816 1.772 51.977 2.838 54.291 2.489 55.199 8.507 56.369 8.332 55.462 2.313 57.776 1.964 57.616 0.898"></polyline>
            <path d="M67.354,1.523 C67.385,1.523 67.415,1.523 67.445,1.525 C68.015,1.546 69.003,1.757 69.208,2.929 L69.225,3.029 L70.371,3.072 L70.36,2.932 C70.273,1.832 69.469,0.521 67.486,0.447 C67.431,0.445 67.378,0.444 67.325,0.444 C66.383,0.444 65.576,0.772 64.985,1.398 C64.378,2.04 64.035,2.956 63.994,4.044 C63.887,6.848 65.52,7.911 67.084,7.971 C67.121,7.973 67.162,7.974 67.209,7.974 C67.963,7.974 69.879,7.723 70.339,5.259 L70.365,5.116 L69.213,5.073 L69.188,5.173 C68.807,6.778 67.724,6.914 67.269,6.899 C65.831,6.843 65.137,5.889 65.208,4.062 C65.266,2.509 66.105,1.523 67.354,1.523" id="Fill-29" fill="#D8117D"></path>
            <path d="M78.098,5.549 C77.809,7.157 76.739,8.04 75.374,7.792 C74.007,7.546 73.31,6.347 73.6,4.738 C73.739,3.965 74.066,3.343 74.547,2.939 C74.926,2.618 75.383,2.454 75.885,2.454 C76.028,2.454 76.176,2.468 76.326,2.495 C77.692,2.742 78.388,3.941 78.098,5.549 Z M76.517,1.434 C75.347,1.224 74.331,1.501 73.57,2.238 C72.99,2.8 72.565,3.633 72.405,4.525 C72.245,5.415 72.352,6.343 72.7,7.072 C73.156,8.027 74.014,8.644 75.181,8.854 C75.445,8.901 75.694,8.923 75.928,8.923 C78.114,8.923 79.07,7.007 79.294,5.762 C79.454,4.872 79.346,3.944 78.999,3.215 C78.543,2.259 77.684,1.643 76.517,1.434 L76.517,1.434 Z" id="Fill-30" fill="#D8117D"></path>
            <polyline id="Fill-31" fill="#D8117D" points="83.703 3.46 83.74 3.34 82.611 2.987 80.504 9.706 80.467 9.826 84.943 11.23 85.264 10.2 81.919 9.152 83.703 3.46"></polyline>
            <path d="M92.645,10.643 C91.974,12.133 90.718,12.727 89.456,12.157 C88.191,11.586 87.807,10.254 88.478,8.763 C88.98,7.649 89.807,7.036 90.722,7.036 C91.03,7.036 91.348,7.106 91.668,7.249 C92.933,7.821 93.317,9.153 92.645,10.643 Z M94.087,8.598 C93.877,7.56 93.193,6.754 92.112,6.266 C89.594,5.131 87.948,6.988 87.371,8.265 C86.796,9.541 86.494,12.005 89.011,13.14 C89.561,13.388 90.068,13.493 90.532,13.493 C92.197,13.493 93.303,12.14 93.754,11.142 C94.126,10.317 94.247,9.39 94.087,8.598 L94.087,8.598 Z" id="Fill-32" fill="#D8117D"></path>
            <polyline id="Fill-33" fill="#D8117D" points="102.585 12.327 101.605 11.71 98.778 16.198 98.826 10.029 98.827 9.959 97.724 9.265 93.904 15.332 94.881 15.948 97.713 11.453 97.71 17.73 98.762 18.393 102.517 12.432 102.585 12.327"></polyline>
            <polyline id="Fill-34" fill="#D8117D" points="108.627 17.06 105.108 18.317 105.661 14.695 105.671 14.624 104.602 13.74 103.961 18.782 102.132 21 103.046 21.755 104.875 19.536 109.702 17.951 108.627 17.06"></polyline>
            <polygon id="Fill-35" fill="#00A3DB" points="106.726 64.704 108.868 64.704 108.868 62.076 106.726 62.076"></polygon>
            <g id="Group-41" transform="translate(0.000000, 23.000000)">
                <mask id="mask-2" fill="white">
                    <use xlink:href="#path-1"></use>
                </mask>
                <g id="Clip-37"></g>
                <path d="M36.688,31.793 L40.808,36.539 C41.516,36.481 42.23,36.443 42.952,36.443 C43.249,36.443 43.543,36.456 43.838,36.466 L41.809,34.129 L71.708,34.129 L71.708,68.571 L68.685,65.089 C68.578,66.097 68.412,67.095 68.189,68.08 L74.044,74.825 L74.044,31.793 L36.688,31.793" id="Fill-36" fill="#00A3DB" mask="url(#mask-2)"></path>
                <path d="M2.729,46.495 C2.721,46.495 2.712,46.496 2.703,46.496 C2.497,46.496 2.3,46.454 2.119,46.38 C1.995,46.329 1.883,46.258 1.778,46.178 C1.754,46.16 1.732,46.141 1.709,46.122 C1.61,46.037 1.517,45.944 1.442,45.836 L1.442,45.835 C1.367,45.728 1.312,45.608 1.266,45.483 C1.255,45.452 1.245,45.422 1.236,45.39 C1.198,45.261 1.17,45.127 1.168,44.986 C1.166,44.84 1.19,44.701 1.226,44.567 C1.234,44.537 1.242,44.508 1.252,44.479 C1.295,44.348 1.351,44.222 1.427,44.109 C1.428,44.108 1.428,44.108 1.429,44.107 C1.507,43.991 1.603,43.89 1.709,43.799 C1.723,43.787 1.736,43.775 1.751,43.764 C2.006,43.56 2.325,43.431 2.677,43.425 C2.686,43.425 2.695,43.424 2.704,43.424 C3.052,43.424 3.371,43.546 3.629,43.743 C3.653,43.76 3.675,43.779 3.698,43.798 C3.797,43.883 3.89,43.977 3.965,44.085 C4.04,44.192 4.095,44.312 4.141,44.437 C4.152,44.468 4.162,44.498 4.171,44.53 C4.209,44.659 4.236,44.793 4.239,44.934 C4.241,45.08 4.217,45.218 4.181,45.353 C4.173,45.383 4.165,45.412 4.155,45.441 C4.112,45.573 4.056,45.698 3.98,45.811 C3.979,45.812 3.978,45.813 3.977,45.814 C3.9,45.93 3.804,46.03 3.698,46.121 C3.684,46.133 3.671,46.145 3.656,46.157 C3.544,46.246 3.422,46.322 3.287,46.377 C3.115,46.448 2.928,46.492 2.729,46.495 Z M3.287,79.275 L3.287,47.591 C4.531,47.307 5.429,46.209 5.407,44.914 C5.385,43.649 4.477,42.592 3.287,42.325 L3.287,10.211 C4.423,9.946 5.263,8.934 5.243,7.74 L5.243,7.739 C5.232,7.066 4.952,6.438 4.456,5.974 C3.97,5.518 3.345,5.289 2.661,5.285 C1.261,5.308 0.141,6.448 0.163,7.826 C0.184,8.99 1.017,9.951 2.119,10.208 L2.119,42.321 C0.891,42.592 -0.022,43.7 0,45.006 C0.022,46.271 0.93,47.328 2.119,47.595 L2.119,79.266 C0.984,79.532 0.144,80.544 0.163,81.738 C0.187,83.1 1.322,84.193 2.703,84.193 L2.747,84.193 C4.146,84.168 5.266,83.028 5.243,81.652 L5.243,81.651 C5.223,80.491 4.374,79.538 3.287,79.275 L3.287,79.275 Z" id="Fill-38" fill="#D8117D" mask="url(#mask-2)"></path>
                <path d="M127.104,46.495 C127.096,46.495 127.087,46.496 127.078,46.496 C126.872,46.496 126.675,46.454 126.494,46.38 C126.37,46.329 126.258,46.258 126.153,46.178 C126.129,46.16 126.107,46.141 126.084,46.122 C125.985,46.037 125.892,45.944 125.817,45.836 L125.817,45.835 C125.742,45.728 125.687,45.608 125.641,45.483 C125.63,45.452 125.62,45.422 125.611,45.39 C125.573,45.261 125.546,45.127 125.543,44.986 C125.541,44.84 125.565,44.701 125.601,44.567 C125.609,44.537 125.617,44.508 125.627,44.479 C125.67,44.348 125.726,44.222 125.802,44.109 C125.803,44.108 125.803,44.108 125.804,44.107 C125.882,43.991 125.978,43.89 126.084,43.799 C126.098,43.787 126.111,43.775 126.126,43.764 C126.381,43.56 126.7,43.431 127.052,43.425 C127.061,43.425 127.07,43.424 127.079,43.424 C127.427,43.424 127.746,43.546 128.004,43.743 C128.028,43.76 128.05,43.779 128.073,43.798 C128.172,43.883 128.265,43.977 128.34,44.085 C128.415,44.192 128.47,44.312 128.516,44.437 C128.527,44.468 128.537,44.498 128.546,44.53 C128.584,44.659 128.611,44.793 128.614,44.934 C128.616,45.08 128.592,45.218 128.556,45.353 C128.548,45.383 128.54,45.412 128.53,45.441 C128.487,45.573 128.431,45.698 128.355,45.811 C128.354,45.812 128.353,45.813 128.352,45.814 C128.275,45.93 128.179,46.03 128.073,46.121 C128.059,46.133 128.046,46.145 128.031,46.157 C127.919,46.246 127.797,46.322 127.662,46.377 C127.49,46.448 127.303,46.492 127.104,46.495 Z M127.662,79.275 L127.662,47.591 C128.906,47.307 129.803,46.209 129.782,44.914 C129.76,43.649 128.852,42.592 127.662,42.325 L127.662,10.211 C128.798,9.946 129.638,8.934 129.618,7.74 L129.618,7.739 C129.607,7.066 129.327,6.438 128.831,5.974 C128.345,5.518 127.72,5.289 127.036,5.285 C125.636,5.308 124.516,6.448 124.538,7.826 C124.559,8.99 125.392,9.951 126.494,10.208 L126.494,42.321 C125.266,42.592 124.353,43.7 124.375,45.006 C124.397,46.271 125.305,47.328 126.494,47.595 L126.494,79.266 C125.359,79.532 124.519,80.544 124.538,81.738 C124.562,83.1 125.697,84.193 127.078,84.193 L127.122,84.193 C128.521,84.168 129.641,83.028 129.618,81.652 L129.618,81.651 C129.598,80.491 128.749,79.538 127.662,79.275 L127.662,79.275 Z" id="Fill-39" fill="#D8117D" mask="url(#mask-2)"></path>
                <path d="M125.543,44.986 C125.531,44.255 126.033,43.636 126.716,43.47 C127.106,28.291 121.988,12.971 111.248,0.816 L108.185,3.523 C128.386,26.384 127.316,61.234 105.751,82.861 C94.808,93.835 80.248,99.89 64.752,99.913 L64.666,99.913 C49.202,99.912 34.656,93.9 23.703,82.978 C2.085,61.422 0.909,26.582 21.028,3.664 L17.956,0.967 C7.313,13.091 2.247,28.331 2.626,43.431 C2.643,43.43 2.66,43.425 2.677,43.425 C2.686,43.425 2.695,43.424 2.704,43.424 C3.54,43.424 4.225,44.095 4.239,44.934 C4.253,45.767 3.601,46.452 2.775,46.49 C3.842,60.895 9.884,74.971 20.817,85.873 C32.542,97.565 48.111,104.001 64.666,104 L64.758,104 C81.346,103.976 96.932,97.494 108.645,85.748 C119.526,74.836 125.527,60.779 126.573,46.404 C125.983,46.197 125.554,45.647 125.543,44.986" id="Fill-40" fill="#D8117D" mask="url(#mask-2)"></path>
            </g>
            <path d="M84.271,119.407 L84.604,42.74" id="Fill-42" fill="#00A3DB"></path>
        </g>
    </g>
</svg>