<?xml version="1.0" encoding="UTF-8"?>
<svg width="139px" height="139px" viewBox="0 0 139 139" version="1.1" xmlns="http://www.w3.org/2000/svg" xmlns:xlink="http://www.w3.org/1999/xlink">
    <!-- Generator: Sketch 42 (36781) - http://www.bohemiancoding.com/sketch -->
    <title>mosaic-4c-b</title>
    <desc>Created with Sketch.</desc>
    <defs>
        <polygon id="path-1" points="0 138.94 138.219 138.94 138.219 0.781 0 0.781"></polygon>
    </defs>
    <g id="LLP" stroke="none" stroke-width="1" fill="none" fill-rule="evenodd">
        <g id="mosaic-4c-b">
            <g id="Group-3">
                <mask id="mask-2" fill="white">
                    <use xlink:href="#path-1"></use>
                </mask>
                <g id="Clip-2"></g>
                <path d="M69.11,135.803 C32.766,135.803 3.198,106.235 3.198,69.891 C3.198,33.546 32.766,3.978 69.11,3.978 C105.454,3.978 135.022,33.546 135.022,69.891 C135.022,106.235 105.454,135.803 69.11,135.803 Z M69.11,0.781 C31.002,0.781 0,31.783 0,69.891 C0,107.998 31.002,139 69.11,139 C107.217,139 138.219,107.998 138.219,69.891 C138.219,31.783 107.217,0.781 69.11,0.781 L69.11,0.781 Z" id="Fill-1" fill="#8ECCBA" mask="url(#mask-2)"></path>
            </g>
            <path d="M107.207,25.873 L106.488,26.952 C118.479,37.404 126.08,52.771 126.08,69.89 C126.08,101.304 100.523,126.861 69.11,126.861 C37.697,126.861 12.14,101.304 12.14,69.89 C12.14,51.921 20.511,35.879 33.549,25.43 L32.822,24.365 C19.446,35.049 10.853,51.48 10.853,69.89 C10.853,102.014 36.987,128.148 69.11,128.148 C101.233,128.148 127.367,102.014 127.367,69.89 C127.367,52.325 119.542,36.563 107.207,25.873" id="Fill-4" fill="#DD3B41"></path>
            <path d="M47.723,23.396 L44.948,18.298 C44.81,18.046 44.239,16.938 43.8,16.133 L43.776,16.146 L45.295,24.719 L44.14,25.347 L37.771,19.431 L37.747,19.444 C38.179,20.238 38.799,21.319 38.936,21.571 L41.711,26.669 L40.581,27.285 L35.881,18.652 L37.553,17.742 L43.991,23.698 L44.015,23.685 L42.494,15.051 L44.154,14.148 L48.854,22.781 L47.723,23.396" id="Fill-5" fill="#DD3B41"></path>
            <path d="M54.304,11.771 C52.235,12.297 51.403,14.245 51.973,16.486 C52.543,18.727 54.204,20.041 56.273,19.515 C58.341,18.989 59.173,17.041 58.603,14.8 C58.033,12.559 56.372,11.245 54.304,11.771 Z M56.563,20.655 C53.009,21.559 51.17,18.879 50.647,16.824 C50.124,14.768 50.46,11.535 54.014,10.631 C57.567,9.727 59.407,12.408 59.929,14.463 C60.452,16.518 60.117,19.752 56.563,20.655 L56.563,20.655 Z" id="Fill-6" fill="#DD3B41"></path>
            <path d="M70.37,11.85 C70.273,10.332 69.004,9.877 67.896,9.898 C67.061,9.913 65.656,10.173 65.684,11.665 C65.7,12.5 66.293,12.762 66.871,12.888 L69.689,13.478 C70.968,13.755 71.94,14.504 71.969,16.064 C72.013,18.391 69.864,19.075 68.18,19.107 C66.36,19.141 65.637,18.608 65.192,18.219 C64.343,17.482 64.163,16.664 64.145,15.747 L65.391,15.723 C65.425,17.502 66.886,17.995 68.145,17.971 C69.103,17.953 70.713,17.676 70.686,16.266 C70.667,15.24 70.181,14.92 68.559,14.568 L66.538,14.14 C65.892,14.002 64.433,13.578 64.401,11.867 C64.371,10.334 65.342,8.809 67.723,8.764 C71.159,8.7 71.54,10.746 71.615,11.826 L70.37,11.85" id="Fill-7" fill="#DD3B41"></path>
            <path d="M81.292,16.133 L80.707,11.609 L80.68,11.603 L78.297,15.541 L81.292,16.133 Z M77.666,16.616 L76.104,19.223 L74.761,18.958 L80.293,10.034 L81.77,10.326 L83.354,20.657 L81.931,20.376 L81.533,17.381 L77.666,16.616 L77.666,16.616 Z" id="Fill-8" fill="#DD3B41"></path>
            <polyline id="Fill-9" fill="#DD3B41" points="87.912 22.404 86.672 21.931 90.166 12.751 91.406 13.223 87.912 22.404"></polyline>
            <path d="M101.417,21.717 C101.986,20.048 100.916,19.04 100.106,18.555 C98.581,17.64 96.674,18.028 95.344,20.245 C94.155,22.228 93.945,24.176 96.034,25.428 C96.773,25.871 98.262,26.286 99.825,24.558 L100.928,25.22 C98.553,28.118 95.887,26.712 95.253,26.332 C93.34,25.185 92.208,22.816 94.149,19.577 C95.704,16.984 98.259,16.075 100.712,17.545 C102.883,18.847 103.2,20.871 102.52,22.378 L101.417,21.717" id="Fill-10" fill="#DD3B41"></path>
            <path d="M91.307,72.346 C91.307,71.734 91.336,71.128 91.379,70.524 L71.569,70.524 L85.52,56.572 C85.067,56.114 84.634,55.636 84.217,55.144 L70.203,69.158 L70.203,49.638 C69.555,49.63 68.911,49.598 68.272,49.542 L68.272,69.158 L54.648,55.534 C54.187,55.984 53.71,56.418 53.215,56.832 L66.907,70.524 L47.826,70.524 C47.824,71.172 47.792,71.816 47.741,72.455 L66.906,72.455 L53.389,85.972 C53.848,86.425 54.286,86.897 54.709,87.384 L68.272,73.821 L68.272,93.132 C68.383,93.13 68.494,93.124 68.606,93.124 C69.142,93.124 69.674,93.146 70.203,93.179 L70.203,73.82 L84.053,87.67 C84.503,87.209 84.971,86.766 85.454,86.341 L71.569,72.455 L91.309,72.455 C91.309,72.419 91.307,72.383 91.307,72.346" id="Fill-11" fill="#8ECCBA"></path>
            <path d="M103.691,85.084 C104.945,86.338 106.343,87.358 107.828,88.164 C106.004,87.541 104.057,87.187 102.024,87.187 C100.952,87.187 99.907,87.298 98.886,87.479 C97.646,86.043 96.6,84.499 95.77,82.87 C97.522,82.38 99.357,82.091 101.25,82.029 C101.94,83.111 102.747,84.14 103.691,85.084 Z M85.04,99.252 C83.675,98.068 82.205,97.043 80.649,96.19 C83.119,90.336 87.926,85.711 93.9,83.476 C94.686,85.063 95.643,86.57 96.763,87.975 C91.288,89.65 86.93,93.874 85.04,99.252 Z M84.155,107.381 C83.523,106.481 82.822,105.62 82.027,104.826 C81.097,103.896 80.084,103.08 79.01,102.373 C79.192,100.882 79.512,99.436 79.963,98.046 C81.551,98.94 83.053,100.037 84.438,101.335 C84.164,102.582 84.01,103.873 84.01,105.2 C84.01,105.94 84.068,106.665 84.155,107.381 Z M70.203,93.179 C69.674,93.146 69.142,93.124 68.606,93.124 C68.494,93.124 68.383,93.13 68.272,93.132 C65.126,93.173 62.075,93.787 59.235,94.928 C58.174,92.142 56.631,89.595 54.709,87.384 C54.286,86.897 53.848,86.425 53.389,85.972 C51.164,83.776 48.534,81.99 45.619,80.74 C46.791,78.143 47.511,75.349 47.741,72.455 C47.792,71.816 47.824,71.172 47.826,70.524 C47.826,70.49 47.829,70.457 47.829,70.423 C47.829,67.16 47.206,63.992 46.025,61.052 C48.662,60.048 51.088,58.614 53.215,56.832 C53.71,56.418 54.187,55.984 54.648,55.534 C56.996,53.241 58.9,50.496 60.212,47.437 C62.743,48.577 65.458,49.293 68.272,49.542 C68.911,49.598 69.555,49.63 70.203,49.638 C70.312,49.639 70.42,49.646 70.529,49.646 C73.793,49.646 76.96,49.023 79.9,47.842 C80.922,50.526 82.391,52.99 84.217,55.144 C84.634,55.636 85.067,56.114 85.52,56.572 C87.792,58.872 90.503,60.737 93.516,62.029 C92.316,64.69 91.59,67.555 91.379,70.524 C91.336,71.128 91.307,71.734 91.307,72.346 C91.307,72.383 91.309,72.419 91.309,72.455 C91.323,75.681 91.943,78.81 93.111,81.717 C90.278,82.796 87.691,84.373 85.454,86.341 C84.971,86.766 84.503,87.209 84.053,87.67 C81.904,89.872 80.153,92.465 78.923,95.333 C76.195,94.103 73.252,93.37 70.203,93.179 Z M77.2,101.33 C74.569,99.989 71.645,99.267 68.606,99.267 C65.832,99.267 63.158,99.877 60.709,101 C60.545,99.547 60.255,98.133 59.853,96.766 C62.653,95.626 65.629,95.055 68.606,95.055 C71.896,95.055 75.176,95.777 78.226,97.168 C77.772,98.509 77.423,99.898 77.2,101.33 Z M55.185,104.826 C54.571,105.44 54.022,106.1 53.505,106.78 C53.663,105.821 53.766,104.844 53.766,103.841 C53.766,102.769 53.654,101.724 53.474,100.703 C54.91,99.462 56.453,98.417 58.083,97.587 C58.478,99.001 58.742,100.468 58.862,101.977 C57.543,102.77 56.302,103.71 55.185,104.826 Z M41.7,86.857 C42.884,85.493 43.909,84.022 44.762,82.466 C50.616,84.937 55.242,89.743 57.477,95.717 C55.889,96.503 54.382,97.46 52.978,98.58 C51.303,93.105 47.079,88.747 41.7,86.857 Z M39.617,86.255 C38.37,85.981 37.079,85.826 35.751,85.826 C33.979,85.826 32.27,86.094 30.651,86.573 C32.381,85.724 34.007,84.598 35.444,83.161 C36.207,82.398 36.871,81.576 37.469,80.72 C39.353,80.858 41.174,81.218 42.906,81.78 C42.012,83.368 40.915,84.87 39.617,86.255 Z M38.921,62.619 C40.736,62.489 42.498,62.167 44.187,61.67 C46.585,67.563 46.435,74.233 43.785,80.043 C42.128,79.483 40.396,79.089 38.606,78.885 C41.294,73.829 41.389,67.76 38.921,62.619 Z M37.886,60.741 C37.195,59.658 36.388,58.63 35.444,57.685 C34.217,56.459 32.841,55.439 31.361,54.625 C33.17,55.237 35.099,55.583 37.111,55.583 C38.183,55.583 39.228,55.471 40.249,55.291 C41.49,56.727 42.535,58.27 43.365,59.9 C41.613,60.39 39.779,60.678 37.886,60.741 Z M54.095,43.517 C55.459,44.701 56.93,45.726 58.486,46.579 C56.016,52.434 51.209,57.059 45.235,59.294 C44.45,57.706 43.492,56.199 42.372,54.795 C47.847,53.119 52.205,48.896 54.095,43.517 Z M57.791,37.26 C58.549,38.019 59.371,38.689 60.232,39.292 C60.094,41.174 59.733,42.993 59.173,44.723 C57.584,43.829 56.082,42.732 54.697,41.434 C54.971,40.187 55.125,38.897 55.125,37.569 C55.125,35.806 54.86,34.107 54.386,32.496 C55.247,34.235 56.379,35.848 57.791,37.26 Z M62.066,40.434 C64.64,41.808 67.528,42.537 70.529,42.537 C73.279,42.537 75.927,41.906 78.334,40.746 C78.464,42.558 78.786,44.317 79.282,46.004 C76.483,47.143 73.506,47.714 70.529,47.714 C67.239,47.714 63.959,46.993 60.909,45.602 C61.469,43.949 61.862,42.22 62.066,40.434 Z M83.266,37.26 L83.266,37.261 C84.493,36.035 85.513,34.659 86.326,33.18 C85.715,34.988 85.369,36.917 85.369,38.928 C85.369,40 85.48,41.045 85.661,42.067 C84.225,43.307 82.682,44.352 81.052,45.182 C80.563,43.431 80.274,41.597 80.212,39.704 C81.301,39.006 82.33,38.198 83.266,37.26 Z M97.435,55.912 C96.251,57.277 95.226,58.747 94.373,60.304 C88.519,57.833 83.894,53.026 81.659,47.053 C83.246,46.267 84.753,45.31 86.157,44.189 C87.833,49.664 92.056,54.022 97.435,55.912 Z M99.518,56.514 C100.765,56.788 102.056,56.943 103.384,56.943 C105.146,56.943 106.845,56.677 108.455,56.204 C106.716,57.064 105.103,58.196 103.691,59.608 C102.928,60.371 102.264,61.194 101.667,62.05 C99.783,61.912 97.961,61.551 96.229,60.99 C97.123,59.401 98.22,57.9 99.518,56.514 Z M100.214,80.15 C98.399,80.28 96.637,80.603 94.948,81.099 C92.55,75.206 92.701,68.537 95.351,62.726 C97.007,63.287 98.739,63.681 100.529,63.884 C97.842,68.941 97.747,75.01 100.214,80.15 Z M102.681,64.033 C102.915,64.04 103.148,64.051 103.384,64.051 C106.803,64.051 110.064,63.362 113.038,62.119 C112.902,61.48 112.757,60.844 112.593,60.215 C109.958,61.356 107.07,62.019 104.036,62.103 C104.357,61.716 104.694,61.337 105.056,60.974 C106.922,59.109 109.166,57.764 111.614,57 C111.411,56.409 111.197,55.824 110.97,55.245 C110.963,55.226 110.955,55.207 110.948,55.188 C110.719,54.606 110.48,54.03 110.228,53.46 C108.148,54.444 105.833,55.011 103.384,55.011 C102.656,55.011 101.945,54.946 101.243,54.852 C103.515,52.876 106.073,51.421 108.778,50.477 C108.464,49.89 108.135,49.313 107.796,48.743 C104.502,49.945 101.476,51.844 98.896,54.361 C93.421,52.767 89.157,48.337 87.784,42.772 C87.954,42.611 88.127,42.454 88.294,42.287 C90.706,39.875 92.521,37.09 93.745,34.116 C93.198,33.76 92.644,33.414 92.081,33.082 C91.027,35.739 89.45,38.23 87.377,40.425 C87.331,39.932 87.301,39.433 87.301,38.928 C87.301,36.243 87.97,33.716 89.138,31.489 C88.579,31.213 88.011,30.952 87.438,30.7 C87.422,30.692 87.405,30.684 87.388,30.677 C86.816,30.425 86.237,30.188 85.653,29.961 C84.862,32.164 83.605,34.191 81.901,35.895 C81.383,36.413 80.827,36.876 80.255,37.313 C80.462,34.3 81.239,31.444 82.488,28.857 C81.868,28.668 81.245,28.488 80.615,28.327 C79.149,31.462 78.313,34.947 78.269,38.62 C75.923,39.912 73.281,40.606 70.529,40.606 C67.549,40.606 64.701,39.784 62.216,38.276 C62.223,38.04 62.234,37.806 62.234,37.569 C62.234,34.149 61.545,30.888 60.302,27.914 C59.663,28.051 59.027,28.196 58.397,28.359 C59.54,30.995 60.202,33.884 60.286,36.92 C59.897,36.597 59.519,36.257 59.157,35.895 C57.292,34.03 55.947,31.786 55.182,29.338 C54.591,29.541 54.007,29.756 53.427,29.982 C53.408,29.99 53.389,29.997 53.371,30.005 C52.789,30.233 52.213,30.472 51.643,30.724 C52.627,32.804 53.194,35.119 53.194,37.569 C53.194,38.296 53.128,39.007 53.034,39.709 C51.059,37.438 49.603,34.879 48.66,32.174 C48.078,32.486 47.506,32.812 46.94,33.148 C48.12,36.39 49.988,39.435 52.544,42.056 C50.95,47.531 46.52,51.795 40.955,53.168 C40.794,52.997 40.637,52.825 40.47,52.659 C38.093,50.282 35.324,48.44 32.308,47.194 C31.949,47.745 31.6,48.304 31.265,48.872 C33.922,49.925 36.412,51.502 38.608,53.575 C38.114,53.621 37.616,53.651 37.111,53.651 C34.427,53.651 31.899,52.981 29.672,51.814 C29.396,52.373 29.135,52.941 28.883,53.514 C28.875,53.531 28.868,53.547 28.86,53.564 C28.609,54.136 28.371,54.715 28.144,55.299 C30.347,56.09 32.374,57.347 34.078,59.051 C34.598,59.572 35.06,60.128 35.494,60.698 C32.482,60.49 29.626,59.714 27.04,58.465 C26.852,59.084 26.672,59.707 26.51,60.338 C29.642,61.802 33.123,62.637 36.792,62.683 C39.535,67.683 39.418,73.83 36.454,78.736 C36.22,78.73 35.987,78.718 35.751,78.718 C32.332,78.718 29.071,79.408 26.097,80.65 C26.234,81.29 26.379,81.926 26.542,82.555 C29.177,81.413 32.065,80.75 35.099,80.666 C34.778,81.054 34.441,81.433 34.078,81.796 C32.18,83.694 29.918,85.008 27.517,85.756 C27.721,86.352 27.937,86.941 28.165,87.525 C28.171,87.539 28.176,87.554 28.182,87.568 C28.412,88.154 28.653,88.735 28.907,89.309 C30.987,88.325 33.301,87.758 35.751,87.758 C36.479,87.758 37.19,87.824 37.893,87.918 C35.621,89.893 33.062,91.349 30.358,92.293 C30.671,92.879 31,93.456 31.339,94.027 C34.633,92.824 37.659,90.925 40.239,88.408 C45.714,90.003 49.978,94.432 51.351,99.997 C51.181,100.158 51.008,100.316 50.842,100.482 C48.465,102.859 46.623,105.629 45.376,108.645 C45.928,109.004 46.486,109.352 47.054,109.687 C48.108,107.031 49.685,104.54 51.758,102.344 C51.804,102.838 51.834,103.336 51.834,103.841 C51.834,106.526 51.165,109.053 49.997,111.281 C50.267,111.414 50.541,111.542 50.815,111.67 C51.123,111.814 51.434,111.955 51.747,112.092 C52.026,112.215 52.306,112.338 52.588,112.455 C53.412,110.171 54.72,108.022 56.551,106.191 C57.295,105.447 58.097,104.799 58.933,104.222 C58.877,107.69 58.066,110.974 56.648,113.912 C57.267,114.101 57.89,114.281 58.52,114.443 C60.027,111.219 60.874,107.628 60.874,103.841 C60.874,103.581 60.863,103.325 60.855,103.067 C63.283,101.826 65.943,101.198 68.606,101.198 C71.498,101.198 74.382,101.945 76.972,103.407 C76.93,104 76.901,104.597 76.901,105.201 C76.901,108.62 77.59,111.881 78.833,114.855 C79.473,114.719 80.109,114.574 80.738,114.41 C79.514,111.587 78.833,108.474 78.833,105.201 C78.833,105.012 78.842,104.826 78.847,104.639 C79.476,105.113 80.089,105.619 80.661,106.191 C82.67,108.2 84.062,110.588 84.858,113.123 C85.145,113.017 85.424,112.898 85.708,112.787 C86.026,112.662 86.347,112.542 86.662,112.41 C86.942,112.293 87.216,112.168 87.492,112.045 C86.508,109.965 85.941,107.65 85.941,105.2 C85.941,104.473 86.007,103.762 86.101,103.06 C88.076,105.332 89.532,107.89 90.476,110.595 C91.062,110.281 91.639,109.952 92.21,109.613 C91.007,106.319 89.108,103.293 86.591,100.713 C88.186,95.238 92.615,90.974 98.18,89.602 C98.341,89.772 98.499,89.944 98.665,90.111 C101.042,92.488 103.812,94.33 106.828,95.576 C107.187,95.025 107.535,94.466 107.87,93.898 C105.214,92.845 102.723,91.268 100.528,89.194 C101.021,89.149 101.519,89.119 102.024,89.119 C104.709,89.119 107.236,89.788 109.464,90.956 C109.741,90.394 110.003,89.823 110.256,89.248 C110.263,89.234 110.269,89.22 110.275,89.206 C110.528,88.631 110.766,88.049 110.995,87.462 C108.828,86.687 106.789,85.451 105.056,83.719 C104.536,83.198 104.075,82.642 103.641,82.072 C106.653,82.279 109.509,83.056 112.095,84.305 C112.284,83.686 112.464,83.063 112.626,82.432 C109.493,80.968 106.012,80.132 102.343,80.086 C99.6,75.086 99.717,68.939 102.681,64.033 L102.681,64.033 Z" id="Fill-12" fill="#8ECCBA"></path>
            <path d="M112.095,84.305 C111.769,85.376 111.398,86.427 110.995,87.462 C110.766,88.049 110.528,88.631 110.275,89.206 C110.269,89.22 110.263,89.234 110.256,89.248 C110.003,89.823 109.741,90.394 109.464,90.956 C108.97,91.959 108.436,92.939 107.87,93.898 C107.535,94.466 107.187,95.025 106.828,95.576 C103.099,101.3 98.092,106.116 92.21,109.613 C91.639,109.952 91.062,110.281 90.476,110.595 C89.503,111.116 88.506,111.597 87.492,112.045 C87.216,112.168 86.942,112.293 86.662,112.41 C86.347,112.542 86.026,112.662 85.708,112.787 C85.424,112.898 85.145,113.017 84.858,113.123 C83.514,113.617 82.139,114.046 80.738,114.41 C80.109,114.574 79.473,114.719 78.833,114.855 C75.843,115.492 72.745,115.833 69.568,115.833 C65.755,115.833 62.054,115.35 58.52,114.443 C57.89,114.281 57.267,114.101 56.648,113.912 C55.265,113.491 53.91,113.004 52.588,112.455 C52.306,112.338 52.026,112.215 51.747,112.092 C51.434,111.955 51.123,111.814 50.815,111.67 C50.541,111.542 50.267,111.414 49.997,111.281 C48.993,110.786 48.013,110.253 47.054,109.687 C46.486,109.352 45.928,109.004 45.376,108.645 C39.652,104.915 34.837,99.909 31.339,94.027 C31,93.456 30.671,92.879 30.358,92.293 C29.837,91.32 29.356,90.323 28.907,89.309 C28.653,88.735 28.412,88.154 28.182,87.568 C28.176,87.554 28.171,87.539 28.165,87.525 C27.937,86.941 27.721,86.352 27.517,85.756 C27.156,84.705 26.824,83.64 26.542,82.555 C26.379,81.926 26.234,81.29 26.097,80.65 C25.461,77.66 25.119,74.562 25.119,71.385 C25.119,67.573 25.603,63.871 26.51,60.338 C26.672,59.707 26.852,59.084 27.04,58.465 C27.367,57.391 27.739,56.337 28.144,55.299 C28.371,54.715 28.609,54.136 28.86,53.564 C28.868,53.547 28.875,53.531 28.883,53.514 C29.135,52.941 29.396,52.373 29.672,51.814 C30.166,50.811 30.699,49.831 31.265,48.872 C31.6,48.304 31.949,47.745 32.308,47.194 C36.04,41.465 41.051,36.646 46.94,33.148 C47.506,32.812 48.078,32.486 48.66,32.174 C49.632,31.654 50.629,31.173 51.643,30.724 C52.213,30.472 52.789,30.233 53.371,30.005 C53.389,29.997 53.408,29.99 53.427,29.982 C54.007,29.756 54.591,29.541 55.182,29.338 C56.238,28.976 57.307,28.642 58.397,28.359 C59.027,28.196 59.663,28.051 60.302,27.914 C63.292,27.278 66.39,26.936 69.568,26.936 C73.38,26.936 77.081,27.419 80.615,28.327 C81.245,28.488 81.868,28.668 82.488,28.857 C83.562,29.184 84.615,29.556 85.653,29.961 C86.237,30.188 86.816,30.425 87.388,30.677 C87.405,30.684 87.422,30.692 87.438,30.7 C88.011,30.952 88.579,31.213 89.138,31.489 C90.142,31.983 91.122,32.516 92.081,33.082 C92.644,33.414 93.198,33.76 93.745,34.116 C99.475,37.846 104.296,42.855 107.796,48.743 C108.135,49.313 108.464,49.89 108.778,50.477 C109.299,51.45 109.779,52.446 110.228,53.46 C110.48,54.03 110.719,54.606 110.948,55.188 C110.955,55.207 110.963,55.226 110.97,55.245 C111.197,55.824 111.411,56.409 111.614,57 C111.976,58.056 112.31,59.125 112.593,60.215 C112.757,60.844 112.902,61.48 113.038,62.119 C113.675,65.109 114.016,68.208 114.016,71.385 C114.016,75.197 113.533,78.899 112.626,82.432 C112.464,83.063 112.284,83.686 112.095,84.305 Z M114.827,61.282 C114.683,60.637 114.529,59.996 114.358,59.361 C114.102,58.407 113.811,57.467 113.497,56.538 C113.286,55.917 113.064,55.302 112.828,54.693 C112.781,54.57 112.732,54.449 112.684,54.327 C112.443,53.722 112.191,53.123 111.927,52.53 C111.529,51.641 111.106,50.766 110.656,49.907 C110.343,49.311 110.016,48.724 109.679,48.143 C105.934,41.706 100.689,36.252 94.421,32.256 C93.865,31.902 93.301,31.559 92.729,31.228 C91.881,30.736 91.017,30.268 90.135,29.83 C89.553,29.54 88.962,29.266 88.366,29 C88.245,28.946 88.126,28.889 88.004,28.836 C87.409,28.577 86.807,28.334 86.199,28.1 C85.286,27.748 84.364,27.415 83.425,27.12 C82.797,26.923 82.16,26.745 81.521,26.574 C77.705,25.555 73.7,25.004 69.568,25.004 C66.098,25.004 62.72,25.4 59.465,26.126 C58.82,26.27 58.179,26.423 57.544,26.594 C56.59,26.85 55.65,27.141 54.721,27.456 C54.1,27.666 53.484,27.888 52.875,28.124 C52.753,28.171 52.632,28.22 52.51,28.269 C51.904,28.509 51.305,28.761 50.713,29.026 C49.824,29.423 48.949,29.846 48.09,30.297 C47.499,30.607 46.916,30.931 46.34,31.266 C39.902,35.008 34.445,40.251 30.448,46.517 C30.09,47.078 29.745,47.646 29.411,48.223 C28.919,49.072 28.451,49.935 28.013,50.817 C27.724,51.399 27.449,51.99 27.184,52.586 C27.13,52.707 27.072,52.826 27.019,52.948 C26.761,53.543 26.518,54.146 26.283,54.753 C25.931,55.666 25.598,56.588 25.303,57.528 C25.106,58.156 24.928,58.792 24.757,59.431 C23.738,63.247 23.187,67.252 23.187,71.385 C23.187,74.855 23.583,78.233 24.309,81.487 C24.452,82.132 24.606,82.773 24.777,83.408 C25.033,84.36 25.322,85.298 25.636,86.224 C25.846,86.843 26.067,87.456 26.301,88.063 C26.35,88.19 26.401,88.316 26.451,88.442 C26.691,89.048 26.944,89.647 27.208,90.239 C27.606,91.129 28.029,92.003 28.479,92.862 C28.792,93.458 29.119,94.046 29.456,94.626 C33.198,101.058 38.438,106.51 44.7,110.505 C45.261,110.862 45.829,111.208 46.406,111.542 C47.255,112.033 48.118,112.501 49,112.939 C49.409,113.143 49.822,113.337 50.237,113.528 C50.414,113.61 50.591,113.69 50.769,113.769 C51.188,113.956 51.609,114.139 52.035,114.313 C53.237,114.806 54.461,115.257 55.711,115.649 C56.339,115.846 56.975,116.025 57.614,116.195 C61.43,117.214 65.435,117.765 69.568,117.765 C73.038,117.765 76.415,117.37 79.67,116.644 C80.315,116.5 80.956,116.346 81.591,116.175 C82.864,115.833 84.117,115.444 85.344,114.998 C85.776,114.842 86.2,114.67 86.625,114.501 C86.805,114.43 86.986,114.361 87.165,114.288 C87.588,114.114 88.006,113.93 88.422,113.744 C89.312,113.346 90.186,112.923 91.045,112.473 C91.641,112.16 92.228,111.833 92.809,111.496 C99.241,107.754 104.693,102.514 108.688,96.252 C109.045,95.692 109.391,95.123 109.725,94.547 C110.216,93.698 110.684,92.834 111.122,91.953 C111.412,91.37 111.687,90.78 111.952,90.184 C112.007,90.059 112.066,89.937 112.121,89.812 C112.379,89.216 112.622,88.613 112.856,88.006 C113.207,87.096 113.539,86.178 113.832,85.242 C114.029,84.614 114.208,83.978 114.378,83.339 C115.397,79.523 115.948,75.518 115.948,71.385 C115.948,67.915 115.553,64.537 114.827,61.282 L114.827,61.282 Z" id="Fill-13" fill="#8ECCBA"></path>
        </g>
    </g>
</svg>