<?xml version="1.0" encoding="UTF-8"?>
<svg width="130px" height="130px" viewBox="0 0 130 130" version="1.1" xmlns="http://www.w3.org/2000/svg" xmlns:xlink="http://www.w3.org/1999/xlink">
    <!-- Generator: Sketch 42 (36781) - http://www.bohemiancoding.com/sketch -->
    <title>thrive-4c</title>
    <desc>Created with Sketch.</desc>
    <defs>
        <polygon id="path-1" points="0.06 130 0.06 0.691 129.309 0.691 129.309 130"></polygon>
    </defs>
    <g id="LLP" stroke="none" stroke-width="1" fill="none" fill-rule="evenodd">
        <g id="thrive-4c">
            <path d="M28.251,104.001 C17.96,94.304 11.516,80.567 11.516,65.345 C11.516,38.634 31.33,16.473 57.03,12.763 C58.33,12.298 59.869,11.799 61.39,11.414 C33.107,13.109 10.615,36.645 10.615,65.345 C10.615,81.162 17.446,95.414 28.313,105.305 L28.251,104.001" id="Fill-1" fill="#F2AF35"></path>
            <path d="M78.252,13.041 L76.367,13.524 C100.048,18.875 117.791,40.07 117.791,65.345 C117.791,94.646 93.954,118.483 64.654,118.483 C56.335,118.483 48.459,116.557 41.441,113.134 L40.999,113.921 C48.148,117.417 56.175,119.385 64.654,119.385 C94.451,119.385 118.693,95.143 118.693,65.345 C118.693,40.243 101.488,19.086 78.252,13.041" id="Fill-2" fill="#F2AF35"></path>
            <path d="M47.755,33.267 C47.755,36.566 50.43,39.24 53.729,39.24 C57.028,39.24 59.702,36.566 59.702,33.267 C59.702,29.968 57.028,27.294 53.729,27.294 C50.43,27.294 47.755,29.968 47.755,33.267" id="Fill-3" fill="#E36729"></path>
            <path d="M30.995,75.904 L32.15,126.336 L43.155,92.82 C39.574,91.021 33.221,83.907 30.995,75.904" id="Fill-4" fill="#E36729"></path>
            <path d="M44.761,75.368 C46.197,56.721 55.242,51.726 87.49,35.547 C51.733,45.506 33.145,49.709 48.621,26.885 C55.376,18.93 64.775,13.543 75.352,12.275 C73.769,12.085 72.163,11.978 70.532,11.978 C47.105,11.978 28.114,32.094 28.114,56.909 C28.114,80.592 45.411,99.995 67.354,101.716 C67.935,101.762 80.126,102.917 80.604,102.86 C60.498,94.902 50.375,84.984 44.761,75.368" id="Fill-5" fill="#E36729"></path>
            <polyline id="Fill-6" fill="#E36729" points="52.468 65.39 60.296 65.39 60.296 66.545 57.033 66.545 57.033 75.031 55.73 75.031 55.73 66.545 52.468 66.545 52.468 65.39"></polyline>
            <polyline id="Fill-7" fill="#E36729" points="69.467 65.39 70.77 65.39 70.77 75.031 69.467 75.031 69.467 70.533 64.432 70.533 64.432 75.031 63.129 75.031 63.129 65.39 64.432 65.39 64.432 69.378 69.467 69.378 69.467 65.39"></polyline>
            <path d="M75.886,69.781 L78.906,69.781 C79.86,69.781 80.867,69.539 80.867,68.116 C80.867,66.626 79.779,66.505 79.135,66.505 L75.886,66.505 L75.886,69.781 Z M75.886,75.031 L74.583,75.031 L74.583,65.39 L79.041,65.39 C80.625,65.39 82.21,65.94 82.21,67.981 C82.21,69.405 81.484,69.929 80.867,70.291 C81.418,70.52 81.969,70.762 82.021,72.104 L82.103,73.85 C82.116,74.387 82.184,74.588 82.586,74.817 L82.586,75.031 L80.988,75.031 C80.8,74.44 80.76,72.977 80.76,72.614 C80.76,71.822 80.599,70.896 79.041,70.896 L75.886,70.896 L75.886,75.031 L75.886,75.031 Z" id="Fill-8" fill="#E36729"></path>
            <polygon id="Fill-9" fill="#E36729" points="85.929 75.031 87.232 75.031 87.232 65.39 85.929 65.39"></polygon>
            <polyline id="Fill-10" fill="#E36729" points="97.275 65.39 98.739 65.39 95.222 75.031 93.838 75.031 90.32 65.39 91.771 65.39 94.523 73.607 94.55 73.607 97.275 65.39"></polyline>
            <polyline id="Fill-11" fill="#E36729" points="108.891 75.031 101.773 75.031 101.773 65.39 108.797 65.39 108.797 66.545 103.076 66.545 103.076 69.499 108.354 69.499 108.354 70.654 103.076 70.654 103.076 73.877 108.891 73.877 108.891 75.031"></polyline>
            <g id="Group-15">
                <mask id="mask-2" fill="white">
                    <use xlink:href="#path-1"></use>
                </mask>
                <g id="Clip-13"></g>
                <path d="M67.578,15.777 L64.702,16.514 C91.606,16.541 113.486,38.435 113.486,65.345 C113.486,92.272 91.58,114.178 64.654,114.178 C57.255,114.178 50.087,112.532 43.545,109.387 L43.138,110.111 C49.805,113.325 57.111,115.006 64.654,115.006 C92.037,115.006 114.314,92.729 114.314,65.345 C114.314,38.944 93.604,17.297 67.578,15.777" id="Fill-12" fill="#F2AF35" mask="url(#mask-2)"></path>
                <path d="M64.654,0.691 C29.004,0.691 0,29.695 0,65.345 C0,87.815 11.528,107.636 28.973,119.227 L28.796,115.493 C13.174,104.29 2.967,85.993 2.967,65.345 C2.967,31.331 30.64,3.658 64.654,3.658 C98.669,3.658 126.342,31.331 126.342,65.345 C126.342,99.36 98.669,127.033 64.654,127.033 C54.816,127.033 45.515,124.706 37.254,120.592 L35.801,123.18 C44.493,127.534 54.289,130 64.654,130 C100.305,130 129.309,100.996 129.309,65.345 C129.309,29.695 100.305,0.691 64.654,0.691" id="Fill-14" fill="#E36729" mask="url(#mask-2)"></path>
            </g>
        </g>
    </g>
</svg>