<?xml version="1.0" encoding="UTF-8"?>
<svg width="170px" height="185px" viewBox="0 0 170 185" version="1.1" xmlns="http://www.w3.org/2000/svg" xmlns:xlink="http://www.w3.org/1999/xlink">
    <!-- Generator: Sketch 42 (36781) - http://www.bohemiancoding.com/sketch -->
    <title>Page 1 Copy 2</title>
    <desc>Created with Sketch.</desc>
    <defs></defs>
    <g id="LLP" stroke="none" stroke-width="1" fill="none" fill-rule="evenodd">
        <g id="Desktop-HD-Copy" transform="translate(-635.000000, -975.000000)">
            <g id="Page-1-Copy-2" transform="translate(635.000000, 975.000000)">
                <polygon id="Fill-1" fill="#F6891E" points="81.1210138 55.648849 117.525134 34.5874475 109.615677 30.0097626 73.2115566 51.0731896"></polygon>
                <polygon id="Fill-2" fill="#EC008B" points="96.1459505 124.019813 81.5317477 115.565275 77.5194113 117.886526 73.6222905 120.140934 88.5882044 128.800051 96.1459505 124.428969"></polygon>
                <polygon id="Fill-3" fill="#F6891E" points="73.5642784 60.4292888 65.6548212 55.8536295 65.6548212 60.0201329 65.6548212 82.134807 73.5642784 77.5591477"></polygon>
                <polygon id="Fill-4" fill="#EC008B" points="104.055812 128.596283 104.055812 129.005439 100.100073 131.292256 96.4980659 133.37652 113.628822 143.287411 117.58254 145.574227 121.538279 143.287411 140.164819 132.509596 140.164819 123.358277 117.58254 136.422909"></polygon>
                <polygon id="Fill-5" fill="#EC008B" points="117.526549 25.4339007 121.536864 27.7551516 125.492604 30.043994 125.492604 34.6196533 125.492604 39.1304959 161.60161 60.0217533 161.60161 110.955587 148.074882 118.780187 148.074882 127.933531 165.55735 117.820089 169.511068 115.533272 169.511068 55.4440685 165.55735 53.155226 121.536864 27.6883093 117.583147 25.4014923"></polygon>
                <polygon id="Fill-6" fill="#F6891E" points="73.5642784 86.7116817 65.6548212 91.287341 65.6548212 106.444339 73.5642784 111.022024 73.6208756 110.98759 73.5642784 110.955182"></polygon>
                <polygon id="Fill-7" fill="#5BC09E" points="65.6542148 91.2877461 65.6542148 82.1344019 48.1717473 92.2498702 44.6445297 94.2895731 52.5539868 98.867258"></polygon>
                <polygon id="Fill-8" fill="#5BC09E" points="96.1459505 73.4937179 88.3678796 68.9950284 73.563672 77.5589451 73.563672 86.7122893 96.1459505 73.6476577"></polygon>
                <polygon id="Fill-9" fill="#5BC09E" points="104.055812 73.4937179 104.055812 78.2233171 117.15604 85.8028289 117.58254 85.5536894 117.58254 76.8965987 104.055812 69.0699728"></polygon>
                <polygon id="Fill-10" fill="#5BC09E" points="148.075084 94.5381049 144.119345 92.2492625 125.492806 81.4734733 125.492806 85.5549048 125.492806 90.1305641 125.064284 90.3776781 140.165627 99.1137643 140.165627 123.357264 148.075084 118.781605 148.075084 99.1137643"></polygon>
                <polygon id="Fill-11" fill="#5BC09E" points="44.2168166 103.195196 44.2168166 145.320024 52.1262738 149.895684 52.1262738 107.770855"></polygon>
                <polygon id="Fill-12" fill="#5BC09E" points="140.164616 132.509798 140.164616 150.048813 96.1461526 175.51573 59.9037383 154.547503 56.0814067 156.761401 52.1256674 159.048218 48.1719495 156.761401 44.2162102 154.470533 44.2162102 154.624472 48.1719495 156.913315 92.1904134 182.380232 96.1461526 184.669074 100.099871 182.380232 144.120356 156.913315 148.074074 154.624472 148.074074 150.048813 148.074074 127.934139"></polygon>
                <polygon id="Fill-13" fill="#F6891E" points="73.5642784 86.7116817 73.5642784 77.5583374 65.6548212 82.1360223 65.6548212 91.287341"></polygon>
                <polygon id="Fill-14" fill="#5BC09E" points="140.165021 123.357669 140.165021 132.511014 148.074478 127.933329 148.074478 118.78201"></polygon>
                <polygon id="Fill-15" fill="#C5D92C" points="65.6542148 55.8530218 65.6542148 55.4438659 69.6099541 53.157049 73.2119609 51.0727845 56.0812045 41.1618942 52.1274866 38.8730518 48.1717473 41.1618942 29.5452081 51.9397089 29.5452081 61.0910276 52.1274866 48.026396"></polygon>
                <polygon id="Fill-16" fill="#C5D92C" points="88.5890129 128.800253 52.1262738 149.896089 52.1262738 150.048003 59.9043447 154.548718 96.4984701 133.375913"></polygon>
                <polygon id="Fill-17" fill="#5BC09E" points="96.1459505 97.9571899 104.055408 93.3815306 104.055408 78.2225069 96.1459505 73.6468475"></polygon>
                <polygon id="Fill-18" fill="#C5D92C" points="73.5642784 60.4292888 88.368486 68.995231 92.1908176 66.7833585 96.1465569 64.494516 100.100275 66.7833585 104.056014 69.0701754 104.056014 68.9182611 100.100275 66.6294186 81.1220245 55.6490515 73.5642784 60.0201329"></polygon>
                <polygon id="Fill-19" fill="#C5D92C" points="4.15247492 66.6294186 0.196735662 68.9162356 0.196735662 73.4918949 0.196735662 124.427754 0.196735662 129.003413 4.15247492 131.292256 44.2172209 154.47033 44.2172209 150.048611 44.2172209 145.319011 8.10821418 124.427754 8.10821418 73.4918949 21.6349424 65.6672946 21.6349424 56.5159759"></polygon>
                <polygon id="Fill-20" fill="#5BC09E" points="96.1459505 124.019813 104.055408 128.595473 104.055408 124.428969 104.055408 102.533052 96.1459505 107.108711"></polygon>
                <polygon id="Fill-21" fill="#C5D92C" points="96.1459505 124.428362 88.5882044 128.799443 96.4996829 133.377128 100.10169 131.292863 104.055408 129.004021 104.055408 128.596891 96.1459505 124.019206"></polygon>
                <polygon id="Fill-22" fill="#F6891E" points="73.5642784 60.0207406 81.1220245 55.6496592 73.210546 51.0719743 69.6085391 53.1562388 65.6548212 55.4450812 65.6548212 55.8522116 73.5642784 60.4298965"></polygon>
                <polygon id="Fill-23" fill="#3D8B72" points="52.1266781 159.04842 56.0824173 156.759578 59.9047489 154.547705 52.1266781 150.049016 52.1266781 149.895076 44.2172209 145.319417 44.2172209 150.049016 44.2172209 154.472761 48.1709388 156.759578"></polygon>
                <polygon id="Fill-24" fill="#3D8B72" points="96.1459505 64.4943135 92.1902112 66.7831559 88.3678796 68.9950284 96.1459505 73.4937179 96.1459505 73.6476577 104.055408 78.2233171 104.055408 73.4937179 104.055408 69.0699728 100.10169 66.7831559"></polygon>
                <polygon id="Fill-25" fill="#EC008B" points="81.5315456 115.564667 96.1457483 107.110129 96.1457483 97.9567848 73.6220884 110.989008"></polygon>
                <polygon id="Fill-26" fill="#F6891E" points="21.6349424 90.1303615 25.5906817 92.419204 44.2172209 103.194993 44.2172209 99.1135617 44.2172209 94.5379024 44.6457425 94.2907884 29.5443996 85.5547022 29.5443996 61.0904199 21.6349424 65.6681048 21.6349424 85.5547022"></polygon>
                <polygon id="Fill-27" fill="#EC008B" points="104.055812 93.3807204 104.055812 102.534065 121.538279 92.4185963 125.065497 90.3788934 117.15604 85.8012085"></polygon>
                <polygon id="Fill-28" fill="#F6891E" points="73.5638741 -0.000202552428 69.6081349 2.28863988 25.589671 27.7535311 21.6359531 30.0443991 21.6359531 34.6200584 21.6359531 56.5159759 29.5454102 51.938291 29.5454102 34.6200584 73.5638741 9.15314167 109.616284 30.0099652 113.62862 27.6887144 117.525741 25.4343058 77.5196134 2.28863988"></polygon>
                <polygon id="Fill-29" fill="#EC008B" points="117.526145 34.5864347 117.582742 34.6188431 117.582742 76.8976114 125.494221 81.4732708 125.494221 39.1296857 117.582742 34.5540264"></polygon>
                <polygon id="Fill-30" fill="#F6891E" points="65.6542148 115.531246 65.6542148 110.955587 65.6542148 106.444744 52.5539868 98.867258 52.1274866 99.1143719 52.1274866 107.771463 69.6099541 117.884905 73.563672 120.173748 73.6222905 120.141339 69.6099541 117.820089"></polygon>
                <polygon id="Fill-31" fill="#9D248E" points="109.616082 30.0103703 117.525539 34.5860296 117.584157 34.5536212 125.493614 39.1292806 125.493614 34.6204635 125.493614 30.0427787 121.537875 27.7559618 117.525539 25.4347109 113.628418 27.6891195"></polygon>
                <polygon id="Fill-32" fill="#9D248E" points="81.5315456 115.564667 73.6220884 110.989008 73.5634699 111.021416 65.6540127 106.445757 65.6540127 110.954574 65.6540127 115.532259 69.6097519 117.819076 73.6220884 120.140327 77.5192091 117.885918"></polygon>
                <polygon id="Fill-33" fill="#5BC09E" points="117.155231 85.8020187 125.064689 90.3776781 125.49321 90.1305641 125.49321 85.5549048 125.49321 81.4734733 117.583753 76.897814 117.583753 85.5549048"></polygon>
                <polygon id="Fill-34" fill="#5BC09E" points="52.5547954 98.8664478 44.6453382 94.2907884 44.2168166 94.5379024 44.2168166 99.1135617 44.2168166 103.194993 52.1262738 107.770653 52.1262738 99.1135617"></polygon>
                <polygon id="Fill-35" fill="#C5D92C" points="29.545006 61.0914327 29.545006 51.9380885 21.6355488 56.5157734 21.6355488 65.6670921"></polygon>
                <polygon id="Fill-36" fill="#5BC09E" points="96.1459505 97.9571899 96.1459505 107.110534 104.055408 102.532849 104.055408 93.3815306"></polygon>
            </g>
        </g>
    </g>
</svg>