<?xml version="1.0" encoding="UTF-8"?>
<svg width="121px" height="139px" viewBox="0 0 121 139" version="1.1" xmlns="http://www.w3.org/2000/svg" xmlns:xlink="http://www.w3.org/1999/xlink">
    <!-- Generator: Sketch 42 (36781) - http://www.bohemiancoding.com/sketch -->
    <title>acceleration-4c</title>
    <desc>Created with Sketch.</desc>
    <defs>
        <polygon id="path-1" points="0.06 0.33 0.06 111.94 120.319 111.94 120.319 0.33 0.06 0.33"></polygon>
    </defs>
    <g id="LLP" stroke="none" stroke-width="1" fill="none" fill-rule="evenodd">
        <g id="acceleration-4c">
            <g id="Group-3" transform="translate(0.000000, 27.000000)">
                <mask id="mask-2" fill="white">
                    <use xlink:href="#path-1"></use>
                </mask>
                <g id="Clip-2"></g>
                <polyline id="Fill-1" fill="#00A8CF" mask="url(#mask-2)" points="60.159 112 0 77.266 0 7.8 12.94 0.33 14.533 3.087 3.185 9.639 3.185 75.428 60.159 108.322 117.134 75.428 117.134 9.639 106.621 3.569 108.213 0.811 120.319 7.8 120.319 77.266 60.159 112"></polyline>
            </g>
            <polyline id="Fill-4" fill="#00A8CF" points="81.673 16.295 60.263 3.762 38.612 16.074 37.037 13.306 60.286 0.085 83.282 13.546 81.673 16.295"></polyline>
            <path d="M22.928,25.021 L21.873,21.856 L21.853,21.856 L20.696,25.017 L22.928,25.021 Z M20.395,25.877 L19.64,27.968 L18.639,27.966 L21.355,20.784 L22.456,20.786 L25.045,27.978 L23.984,27.976 L23.278,25.882 L20.395,25.877 L20.395,25.877 Z" id="Fill-5" fill="#00A67D"></path>
            <path d="M20.779,24.959 L22.848,24.963 L21.861,22.004 L20.779,24.959 Z M23.009,25.079 L20.613,25.075 L20.641,24.997 L21.813,21.798 L21.915,21.798 L23.009,25.079 Z M24.026,27.918 L24.962,27.92 L22.415,20.844 L21.395,20.842 L18.723,27.908 L19.599,27.91 L20.354,25.818 L23.32,25.824 L23.333,25.864 L24.026,27.918 Z M25.128,28.037 L23.942,28.034 L23.929,27.994 L23.236,25.941 L20.436,25.935 L19.681,28.026 L18.555,28.024 L21.315,20.726 L22.497,20.728 L22.511,20.766 L25.128,28.037 L25.128,28.037 Z" id="Fill-6" fill="#00A67D"></path>
            <path d="M31.38,22.965 C31.112,21.703 30.061,21.471 29.371,21.47 C28.069,21.467 27.016,22.426 27.013,24.318 C27.01,26.009 27.608,27.312 29.389,27.316 C30.02,27.317 31.112,27.018 31.446,25.347 L32.386,25.349 C31.98,28.061 29.778,28.177 29.238,28.176 C27.606,28.172 26.007,27.109 26.012,24.346 C26.016,22.134 27.28,20.605 29.372,20.608 C31.224,20.612 32.183,21.765 32.321,22.967 L31.38,22.965" id="Fill-7" fill="#00A67D"></path>
            <path d="M29.365,20.667 C28.371,20.667 27.537,21.019 26.953,21.685 C26.377,22.34 26.072,23.26 26.07,24.346 C26.067,26.167 26.897,28.113 29.238,28.118 L29.244,28.118 C30.045,28.118 31.92,27.85 32.318,25.407 L31.493,25.405 C31.118,27.179 29.907,27.374 29.394,27.374 L29.389,27.374 C28.533,27.372 27.892,27.072 27.484,26.483 C27.131,25.973 26.953,25.244 26.955,24.318 C26.956,23.411 27.201,22.659 27.662,22.145 C28.092,21.665 28.68,21.412 29.366,21.412 L29.371,21.412 C30.013,21.413 31.126,21.61 31.426,22.907 L32.255,22.909 C32.107,21.862 31.272,20.67 29.372,20.667 L29.365,20.667 Z M29.244,28.234 L29.238,28.234 C27.647,28.231 25.949,27.208 25.954,24.346 C25.956,23.232 26.271,22.285 26.865,21.608 C27.473,20.916 28.337,20.55 29.365,20.55 L29.372,20.55 C31.388,20.554 32.251,21.851 32.378,22.96 L32.386,23.025 L31.332,23.023 L31.322,22.977 C31.055,21.719 29.985,21.529 29.371,21.528 L29.366,21.528 C28.715,21.528 28.155,21.768 27.748,22.222 C27.307,22.715 27.072,23.44 27.071,24.318 C27.069,25.22 27.24,25.926 27.579,26.417 C27.965,26.973 28.574,27.256 29.389,27.257 L29.394,27.257 C29.882,27.257 31.042,27.068 31.388,25.336 L31.398,25.289 L32.453,25.291 L32.444,25.358 C32.268,26.528 31.746,27.36 30.89,27.831 C30.254,28.181 29.588,28.234 29.244,28.234 L29.244,28.234 Z" id="Fill-8" fill="#00A67D"></path>
            <path d="M39.297,22.98 C39.029,21.718 37.978,21.486 37.288,21.485 C35.986,21.483 34.933,22.441 34.93,24.333 C34.926,26.025 35.525,27.327 37.306,27.331 C37.937,27.332 39.029,27.033 39.362,25.362 L40.303,25.364 C39.897,28.076 37.695,28.191 37.155,28.191 C35.523,28.188 33.924,27.124 33.929,24.361 C33.933,22.149 35.197,20.62 37.289,20.624 C39.141,20.627 40.1,21.78 40.237,22.982 L39.297,22.98" id="Fill-9" fill="#00A67D"></path>
            <path d="M37.282,20.682 C36.288,20.682 35.454,21.034 34.87,21.7 C34.294,22.355 33.989,23.275 33.987,24.361 C33.985,25.628 34.315,26.607 34.97,27.27 C35.516,27.825 36.293,28.131 37.155,28.132 L37.161,28.132 C37.962,28.132 39.837,27.864 40.235,25.422 L39.41,25.42 C39.035,27.194 37.821,27.389 37.309,27.389 L37.307,27.389 C36.45,27.387 35.809,27.087 35.401,26.498 C35.048,25.988 34.87,25.259 34.872,24.333 C34.873,23.426 35.118,22.674 35.579,22.16 C36.008,21.68 36.597,21.427 37.283,21.427 L37.288,21.427 C37.93,21.428 39.043,21.626 39.344,22.922 L40.172,22.923 C40.024,21.877 39.189,20.685 37.289,20.682 L37.282,20.682 Z M37.16,28.249 L37.155,28.249 C36.261,28.247 35.455,27.928 34.887,27.352 C34.21,26.666 33.868,25.66 33.871,24.361 C33.873,23.247 34.188,22.3 34.783,21.623 C35.39,20.931 36.254,20.566 37.282,20.566 L37.289,20.566 C39.304,20.569 40.168,21.866 40.295,22.975 L40.303,23.04 L39.25,23.038 L39.24,22.992 C38.972,21.734 37.902,21.545 37.288,21.543 L37.283,21.543 C36.632,21.543 36.072,21.783 35.665,22.237 C35.224,22.731 34.989,23.455 34.988,24.333 C34.986,25.235 35.158,25.941 35.496,26.432 C35.882,26.988 36.491,27.271 37.306,27.273 L37.309,27.273 C37.797,27.273 38.959,27.084 39.305,25.351 L39.315,25.304 L40.37,25.306 L40.361,25.373 C39.962,28.038 37.818,28.249 37.16,28.249 L37.16,28.249 Z" id="Fill-10" fill="#00A67D"></path>
            <polyline id="Fill-11" fill="#00A67D" points="47.566 28.021 42.26 28.01 42.273 20.823 47.508 20.833 47.507 21.694 43.242 21.686 43.238 23.888 47.173 23.896 47.171 24.756 43.237 24.749 43.232 27.151 47.567 27.16 47.566 28.021"></polyline>
            <path d="M42.318,27.952 L47.508,27.962 L47.509,27.218 L43.174,27.21 L43.179,24.691 L43.237,24.691 L47.113,24.698 L47.115,23.954 L43.18,23.946 L43.184,21.628 L43.242,21.628 L47.449,21.636 L47.45,20.891 L42.331,20.881 L42.318,27.952 Z M47.624,28.079 L47.566,28.079 L42.202,28.068 L42.202,28.01 L42.215,20.765 L42.273,20.765 L47.567,20.775 L47.565,21.752 L47.507,21.752 L43.3,21.744 L43.297,23.83 L47.231,23.837 L47.229,24.815 L47.171,24.815 L43.295,24.807 L43.29,27.093 L47.625,27.102 L47.624,28.079 L47.624,28.079 Z" id="Fill-12" fill="#00A67D"></path>
            <polyline id="Fill-13" fill="#00A67D" points="50.499 27.165 54.142 27.172 54.141 28.033 49.527 28.024 49.54 20.837 50.511 20.839 50.499 27.165"></polyline>
            <path d="M49.585,27.966 L54.083,27.975 L54.084,27.23 L50.441,27.223 L50.441,27.165 L50.452,20.897 L49.598,20.895 L49.585,27.966 Z M54.199,28.091 L54.141,28.091 L49.468,28.082 L49.468,28.024 L49.482,20.779 L50.569,20.781 L50.569,20.839 L50.557,27.107 L54.2,27.114 L54.199,28.091 L54.199,28.091 Z" id="Fill-14" fill="#00A67D"></path>
            <polyline id="Fill-15" fill="#00A67D" points="61.187 28.046 55.882 28.036 55.895 20.849 61.131 20.859 61.129 21.72 56.866 21.712 56.862 23.914 60.795 23.921 60.793 24.782 56.86 24.775 56.855 27.177 61.189 27.185 61.187 28.046"></polyline>
            <path d="M55.94,27.978 L61.13,27.988 L61.131,27.243 L56.797,27.235 L56.801,24.717 L56.86,24.717 L60.735,24.724 L60.736,23.98 L56.804,23.972 L56.807,21.654 L56.866,21.654 L61.071,21.662 L61.072,20.917 L55.953,20.907 L55.94,27.978 Z M61.245,28.104 L61.187,28.104 L55.824,28.094 L55.824,28.036 L55.837,20.791 L55.895,20.791 L61.189,20.801 L61.186,21.778 L61.129,21.778 L56.924,21.77 L56.92,23.856 L60.853,23.863 L60.85,24.84 L60.793,24.84 L56.918,24.833 L56.913,27.119 L61.248,27.127 L61.245,28.104 L61.245,28.104 Z" id="Fill-16" fill="#00A67D"></path>
            <path d="M64.247,24.138 L66.499,24.143 C67.21,24.144 67.961,23.965 67.963,22.904 C67.965,21.793 67.155,21.701 66.675,21.701 L64.252,21.696 L64.247,24.138 Z M64.239,28.052 L63.268,28.05 L63.282,20.863 L66.605,20.869 C67.786,20.872 68.967,21.284 68.964,22.805 C68.962,23.867 68.421,24.256 67.96,24.525 C68.37,24.696 68.78,24.878 68.818,25.879 L68.876,27.18 C68.884,27.58 68.935,27.73 69.235,27.901 L69.234,28.062 L68.043,28.059 C67.904,27.618 67.876,26.527 67.877,26.257 C67.878,25.667 67.758,24.976 66.597,24.973 L64.245,24.969 L64.239,28.052 L64.239,28.052 Z" id="Fill-17" fill="#00A67D"></path>
            <path d="M64.305,24.08 L66.499,24.085 L66.507,24.085 C66.929,24.085 67.243,24.015 67.466,23.873 C67.759,23.684 67.904,23.367 67.904,22.904 C67.905,22.441 67.758,22.114 67.468,21.936 C67.214,21.778 66.893,21.759 66.675,21.759 L64.309,21.754 L64.305,24.08 Z M66.508,24.201 L66.499,24.201 L64.188,24.196 L64.194,21.638 L66.675,21.643 C66.907,21.643 67.25,21.663 67.53,21.837 C67.856,22.038 68.021,22.398 68.021,22.904 C68.02,23.403 67.854,23.762 67.528,23.971 C67.283,24.128 66.959,24.201 66.508,24.201 Z M68.087,28.001 L69.176,28.004 L69.176,27.935 C68.881,27.757 68.827,27.585 68.817,27.181 L68.759,25.881 C68.723,24.906 68.324,24.74 67.937,24.579 L67.83,24.534 L67.93,24.475 C68.401,24.2 68.904,23.821 68.905,22.805 C68.909,21.257 67.656,20.93 66.605,20.927 L63.34,20.921 L63.327,27.992 L64.181,27.994 L64.187,24.911 L66.597,24.915 C67.785,24.918 67.936,25.633 67.935,26.257 C67.934,26.498 67.959,27.539 68.087,28.001 Z M69.292,28.12 L68,28.117 L67.987,28.077 C67.844,27.624 67.818,26.508 67.818,26.257 C67.82,25.622 67.673,25.034 66.597,25.031 L64.302,25.027 L64.297,28.11 L63.21,28.108 L63.21,28.05 L63.224,20.805 L66.605,20.811 C68.166,20.815 69.024,21.523 69.022,22.805 C69.02,23.873 68.46,24.292 68.089,24.517 C68.459,24.678 68.84,24.92 68.877,25.876 L68.934,27.177 C68.942,27.564 68.984,27.691 69.264,27.851 L69.294,27.868 L69.292,28.12 L69.292,28.12 Z" id="Fill-18" fill="#00A67D"></path>
            <path d="M74.735,25.119 L73.679,21.954 L73.659,21.954 L72.503,25.115 L74.735,25.119 Z M72.2,25.975 L71.446,28.066 L70.444,28.064 L73.161,20.882 L74.262,20.884 L76.85,28.076 L75.79,28.074 L75.083,25.98 L72.2,25.975 L72.2,25.975 Z" id="Fill-19" fill="#00A67D"></path>
            <path d="M72.586,25.057 L74.654,25.061 L73.667,22.101 L72.586,25.057 Z M74.816,25.177 L72.42,25.173 L72.448,25.095 L73.618,21.896 L73.721,21.896 L73.734,21.936 L74.816,25.177 Z M75.832,28.016 L76.767,28.018 L74.221,20.942 L73.201,20.94 L70.528,28.005 L71.405,28.007 L72.159,25.917 L75.125,25.922 L75.138,25.962 L75.832,28.016 Z M76.933,28.134 L75.748,28.132 L75.735,28.092 L75.041,26.038 L72.241,26.033 L71.487,28.124 L70.36,28.122 L70.389,28.043 L73.121,20.824 L74.303,20.826 L74.317,20.864 L76.933,28.134 L76.933,28.134 Z" id="Fill-20" fill="#00A67D"></path>
            <polyline id="Fill-21" fill="#00A67D" points="76.622 20.888 82.458 20.9 82.457 21.76 80.025 21.755 80.012 28.082 79.041 28.08 79.053 21.754 76.621 21.749 76.622 20.888"></polyline>
            <path d="M79.099,28.022 L79.955,28.024 L79.967,21.697 L82.399,21.702 L82.399,20.958 L76.679,20.946 L76.679,21.691 L79.112,21.696 L79.112,21.754 L79.099,28.022 Z M80.07,28.14 L78.982,28.138 L78.982,28.08 L78.995,21.812 L76.562,21.807 L76.564,20.83 L76.622,20.83 L82.516,20.841 L82.514,21.818 L80.083,21.814 L80.07,28.14 L80.07,28.14 Z" id="Fill-22" fill="#00A67D"></path>
            <polyline id="Fill-23" fill="#00A67D" points="85.157 28.091 84.186 28.089 84.2 20.902 85.171 20.904 85.157 28.091"></polyline>
            <path d="M84.245,28.031 L85.099,28.033 L85.112,20.962 L84.258,20.961 L84.245,28.031 Z M85.215,28.15 L84.128,28.148 L84.128,28.089 L84.142,20.844 L85.229,20.846 L85.229,20.904 L85.215,28.15 L85.215,28.15 Z" id="Fill-24" fill="#00A67D"></path>
            <path d="M90.654,21.586 C89.092,21.583 88.15,22.812 88.146,24.504 C88.143,26.195 89.082,27.428 90.643,27.431 C92.205,27.434 93.148,26.205 93.151,24.513 C93.155,22.821 92.216,21.588 90.654,21.586 Z M90.641,28.292 C87.959,28.287 87.142,26.053 87.145,24.502 C87.148,22.95 87.973,20.719 90.656,20.724 C93.339,20.73 94.155,22.963 94.152,24.515 C94.149,26.066 93.324,28.297 90.641,28.292 L90.641,28.292 Z" id="Fill-25" fill="#00A67D"></path>
            <path d="M90.649,21.644 C89.19,21.644 88.209,22.793 88.205,24.504 C88.202,26.217 89.181,27.37 90.643,27.373 L90.649,27.373 C91.382,27.373 92,27.096 92.437,26.57 C92.865,26.056 93.092,25.345 93.092,24.513 C93.094,23.681 92.871,22.969 92.445,22.453 C92.008,21.925 91.389,21.645 90.654,21.644 L90.649,21.644 Z M90.649,27.489 L90.643,27.489 C89.112,27.486 88.085,26.287 88.088,24.504 C88.092,22.723 89.121,21.527 90.648,21.527 L90.654,21.527 C91.425,21.529 92.076,21.823 92.535,22.379 C92.978,22.916 93.212,23.654 93.21,24.513 C93.208,25.373 92.971,26.11 92.526,26.645 C92.066,27.197 91.418,27.489 90.649,27.489 Z M90.65,20.782 C89.37,20.782 87.209,21.565 87.204,24.502 C87.202,25.403 87.467,26.293 87.933,26.943 C88.545,27.797 89.456,28.231 90.641,28.233 L90.651,28.233 C91.832,28.233 92.741,27.803 93.354,26.953 C93.823,26.304 94.092,25.416 94.093,24.515 C94.099,21.574 91.935,20.785 90.656,20.782 L90.65,20.782 Z M90.651,28.35 L90.641,28.35 C89.433,28.348 88.465,27.884 87.839,27.01 C87.359,26.341 87.086,25.426 87.087,24.502 C87.09,23.076 87.843,20.666 90.647,20.666 L90.656,20.666 C91.864,20.669 92.833,21.132 93.459,22.006 C93.938,22.676 94.212,23.59 94.211,24.515 C94.209,25.44 93.931,26.353 93.449,27.021 C92.821,27.891 91.854,28.35 90.651,28.35 L90.651,28.35 Z" id="Fill-26" fill="#00A67D"></path>
            <polyline id="Fill-27" fill="#00A67D" points="100.764 20.934 101.706 20.936 101.692 28.123 100.6 28.121 96.959 22.308 96.938 22.308 96.926 28.114 95.986 28.112 96 20.925 97.151 20.927 100.734 26.739 100.754 26.74 100.764 20.934"></polyline>
            <path d="M100.633,28.063 L101.635,28.065 L101.647,20.994 L100.822,20.992 L100.811,26.799 L100.701,26.796 L100.684,26.77 L97.119,20.985 L96.057,20.983 L96.045,28.054 L96.869,28.056 L96.881,22.25 L96.991,22.25 L97.008,22.277 L100.633,28.063 Z M101.75,28.181 L100.568,28.179 L100.552,28.151 L96.996,22.477 L96.984,28.172 L95.928,28.17 L95.928,28.112 L95.942,20.867 L97.183,20.869 L97.201,20.897 L100.696,26.566 L100.707,20.876 L101.764,20.878 L101.764,20.936 L101.75,28.181 L101.75,28.181 Z" id="Fill-28" fill="#00A67D"></path>
            <path d="M95.36,65.972 C94.755,66.577 93.914,66.896 92.928,66.896 C91.47,66.896 89.879,66.176 88.672,64.969 L84.001,60.298 L89.631,54.558 L94.357,59.284 C95.401,60.328 96.071,61.619 96.242,62.918 C96.406,64.155 96.092,65.239 95.36,65.972 Z M94.807,58.834 L89.645,53.671 L89.648,53.668 L84.531,48.551 C83.145,47.165 81.397,46.437 79.824,46.437 C78.714,46.437 77.691,46.799 76.942,47.548 C75.131,49.359 75.582,52.774 77.945,55.137 L83.108,60.299 L83.104,60.302 L88.222,65.42 C89.607,66.805 91.355,67.533 92.928,67.533 C94.038,67.533 95.061,67.171 95.81,66.422 C97.621,64.611 97.17,61.196 94.807,58.834 L94.807,58.834 Z" id="Fill-32" fill="#00A8CF"></path>
            <path d="M42.36,77.635 L49.636,73.762 C50.644,74.244 51.581,74.871 52.463,75.671 L42.273,81.128 C42.156,79.956 42.18,78.793 42.36,77.635 Z M35.305,69.482 L46.196,63.604 C46.339,64.637 46.235,65.754 45.928,66.928 L38.353,71.025 C37.175,70.67 36.139,70.164 35.305,69.482 Z M33.321,66.241 L44.474,60.221 C45.214,60.935 45.705,61.746 45.983,62.633 L34.585,68.785 C33.973,68.089 33.539,67.246 33.321,66.241 Z M39.587,57.792 L33.874,60.829 C34.329,59.552 34.947,58.371 35.568,57.188 C36.917,57.322 38.266,57.468 39.587,57.792 Z M30.342,54.989 L36.556,51.606 C36.112,53.077 35.471,54.515 34.818,55.971 C33.279,55.714 31.767,55.438 30.342,54.989 Z M24.508,50.924 L36.523,44.439 C36.782,45.167 36.956,45.876 37.05,46.567 L25.926,52.547 C25.42,52.081 24.947,51.543 24.508,50.924 Z M36.88,50.342 L29.142,54.554 C28.29,54.203 27.48,53.764 26.724,53.202 L37.136,47.606 C37.166,48.542 37.069,49.451 36.88,50.342 Z M43.682,59.563 L33.18,65.231 C33.118,64.311 33.204,63.282 33.488,62.117 L40.891,58.181 C42.004,58.566 42.937,59.026 43.682,59.563 Z M43.804,71.733 C42.38,71.728 41.007,71.609 39.738,71.362 L45.518,68.236 C45.097,69.368 44.518,70.54 43.804,71.733 Z M48.5,73.284 L42.609,76.42 C42.93,75.15 43.441,73.884 44.177,72.617 C44.19,72.596 44.203,72.574 44.216,72.553 C45.808,72.604 47.222,72.839 48.5,73.284 Z M55.673,78.138 C52.772,74.096 49.464,72.021 44.677,71.78 C45.824,69.893 47.027,68.051 47.377,65.806 C47.888,62.527 46.35,59.974 43.514,58.4 C41.197,57.113 38.63,56.611 36.088,56.183 C36.437,55.497 36.771,54.801 37.056,54.075 C38.684,49.925 38.197,44.874 35.743,41.122 C35.463,40.695 34.774,41.094 35.055,41.524 C35.509,42.218 35.869,42.89 36.164,43.547 L23.986,50.12 C23.703,49.641 23.438,49.121 23.194,48.552 C22.993,48.083 22.306,48.488 22.507,48.954 C23.897,52.195 26.881,54.865 30.128,56.133 C31.489,56.664 32.905,56.892 34.335,57.055 C33.216,59.593 32.205,62.223 32.271,65.21 C32.335,68.08 33.781,70.309 36.404,71.498 C38.591,72.488 41.007,72.501 43.358,72.524 C41.725,75.542 41.173,78.482 41.53,81.526 L41.528,81.527 L41.531,81.533 C41.751,83.404 42.31,85.313 43.178,87.306 C43.382,87.774 44.068,87.369 43.865,86.904 C43.163,85.29 42.667,83.706 42.406,82.14 L53.174,76.374 C53.792,77.015 54.395,77.717 54.985,78.539 C55.281,78.952 55.972,78.555 55.673,78.138 L55.673,78.138 Z" id="Fill-33" fill="#00A8CF"></path>
            <path d="M64.5,94.695 C64.476,94.686 64.462,94.665 64.432,94.665 C63.572,94.666 62.712,94.666 61.852,94.667 C61.545,94.667 61.544,95.145 61.852,95.145 C62.712,95.144 63.572,95.144 64.432,95.143 C64.462,95.143 64.476,95.122 64.5,95.113 L64.502,96.767 C64.477,96.758 64.464,96.737 64.433,96.737 C63.573,96.738 62.713,96.738 61.854,96.739 C61.546,96.739 61.546,97.217 61.854,97.217 C62.713,97.216 63.573,97.215 64.433,97.215 C64.464,97.215 64.478,97.194 64.502,97.185 L64.503,98.687 C64.479,98.679 64.465,98.658 64.435,98.658 C63.575,98.658 62.715,98.659 61.855,98.659 C61.547,98.66 61.547,99.137 61.855,99.137 C62.715,99.137 63.575,99.136 64.435,99.135 C64.465,99.135 64.479,99.114 64.503,99.106 L64.504,100.708 C64.48,100.7 64.466,100.679 64.436,100.679 C63.576,100.68 62.716,100.68 61.856,100.681 C61.549,100.681 61.548,101.159 61.856,101.158 C62.716,101.158 63.576,101.157 64.436,101.157 C64.466,101.157 64.48,101.136 64.505,101.127 L64.505,102.237 L57.329,102.218 L57.32,88.599 C59.712,88.598 62.104,88.596 64.496,88.595 L64.5,94.695 Z M66.531,87.797 C65.366,87.798 64.2,87.799 63.034,87.799 L63.031,83.035 C63.475,83.035 63.919,83.035 64.364,83.034 C64.876,83.034 64.877,82.238 64.364,82.238 C62.147,82.24 59.931,82.241 57.715,82.243 C57.202,82.243 57.202,83.039 57.715,83.039 C57.992,83.039 58.27,83.038 58.548,83.038 L58.551,87.802 C57.532,87.803 56.513,87.804 55.494,87.804 C54.982,87.805 54.981,88.601 55.494,88.601 C55.891,88.6 56.287,88.6 56.683,88.6 L56.698,110.613 L58.753,110.612 L58.754,112.197 L63.118,112.194 L63.117,110.609 L65.147,110.608 L65.133,88.594 C65.599,88.594 66.065,88.594 66.531,88.593 C67.043,88.593 67.044,87.797 66.531,87.797 L66.531,87.797 Z" id="Fill-34" fill="#00A8CF"></path>
            <polyline id="Fill-35" fill="#00A8CF" points="62.281 112.461 61.963 112.461 61.963 112.466 59.546 112.533 59.382 112.533 59.383 113.39 60.549 113.389 60.554 121.705 61.191 121.705 61.186 113.389 62.282 113.388 62.281 112.461"></polyline>
            <path d="M68.187,57.204 C68.792,56.599 69.633,56.28 70.618,56.28 C72.077,56.28 73.668,57 74.875,58.207 L79.546,62.878 L73.916,68.618 L69.19,63.892 C67.07,61.771 66.62,58.771 68.187,57.204 Z M85.602,68.039 L80.439,62.876 L80.442,62.873 L75.325,57.756 C73.94,56.371 72.192,55.643 70.618,55.643 C69.509,55.643 68.486,56.005 67.737,56.754 C65.926,58.565 66.377,61.979 68.739,64.342 L73.902,69.505 L73.899,69.508 L79.016,74.625 C80.402,76.01 82.149,76.739 83.723,76.739 C84.832,76.739 85.856,76.377 86.605,75.628 C88.416,73.816 87.965,70.402 85.602,68.039 L85.602,68.039 Z" id="Fill-36" fill="#00A8CF"></path>
            <path d="M102.267,74.129 L82.129,85.756 L62.048,74.163 L62.048,50.84 L82.129,39.246 L102.267,50.874 L102.267,74.129 Z M61.089,122.613 L40.95,110.985 L40.95,87.349 L61.118,75.704 L81.228,87.315 L81.228,110.985 L61.089,122.613 Z M19.969,50.874 L40.109,39.246 L60.248,50.874 L60.248,74.129 L40.109,85.756 L19.969,74.129 L19.969,50.874 Z M104.068,49.835 L82.129,37.168 L61.118,49.298 L40.109,37.168 L18.169,49.835 L18.169,75.168 L39.15,87.281 L39.15,112.024 L61.089,124.691 L83.029,112.024 L83.029,87.315 L104.068,75.168 L104.068,49.835 L104.068,49.835 Z" id="Fill-37" fill="#00A67D"></path>
            <path d="M44.842,38.207 C44.842,40.955 42.614,43.183 39.866,43.183 C37.118,43.183 34.89,40.955 34.89,38.207 C34.89,35.459 37.118,33.231 39.866,33.231 C42.614,33.231 44.842,35.459 44.842,38.207" id="Fill-38" fill="#8FC33F"></path>
            <path d="M45.084,86.993 C45.084,89.741 42.857,91.969 40.109,91.969 C37.361,91.969 35.133,89.741 35.133,86.993 C35.133,84.245 37.361,82.017 40.109,82.017 C42.857,82.017 45.084,84.245 45.084,86.993" id="Fill-39" fill="#8FC33F"></path>
            <path d="M87.66,38.207 C87.66,40.955 85.432,43.183 82.684,43.183 C79.936,43.183 77.708,40.955 77.708,38.207 C77.708,35.459 79.936,33.231 82.684,33.231 C85.432,33.231 87.66,35.459 87.66,38.207" id="Fill-40" fill="#8FC33F"></path>
            <path d="M87.902,86.993 C87.902,89.741 85.675,91.969 82.927,91.969 C80.178,91.969 77.951,89.741 77.951,86.993 C77.951,84.245 80.178,82.017 82.927,82.017 C85.675,82.017 87.902,84.245 87.902,86.993" id="Fill-41" fill="#8FC33F"></path>
            <path d="M45.084,110.766 C45.084,113.514 42.857,115.741 40.109,115.741 C37.361,115.741 35.133,113.514 35.133,110.766 C35.133,108.018 37.361,105.79 40.109,105.79 C42.857,105.79 45.084,108.018 45.084,110.766" id="Fill-42" fill="#8FC33F"></path>
            <path d="M87.902,110.766 C87.902,113.514 85.675,115.741 82.927,115.741 C80.178,115.741 77.951,113.514 77.951,110.766 C77.951,108.018 80.178,105.79 82.927,105.79 C85.675,105.79 87.902,108.018 87.902,110.766" id="Fill-43" fill="#8FC33F"></path>
            <path d="M24.045,74.96 C24.045,77.708 21.817,79.936 19.069,79.936 C16.321,79.936 14.093,77.708 14.093,74.96 C14.093,72.212 16.321,69.984 19.069,69.984 C21.817,69.984 24.045,72.212 24.045,74.96" id="Fill-44" fill="#8FC33F"></path>
            <path d="M24.045,50.264 C24.045,53.012 21.817,55.24 19.069,55.24 C16.321,55.24 14.093,53.012 14.093,50.264 C14.093,47.516 16.321,45.288 19.069,45.288 C21.817,45.288 24.045,47.516 24.045,50.264" id="Fill-45" fill="#8FC33F"></path>
            <path d="M66.124,74.96 C66.124,77.708 63.896,79.936 61.148,79.936 C58.4,79.936 56.172,77.708 56.172,74.96 C56.172,72.212 58.4,69.984 61.148,69.984 C63.896,69.984 66.124,72.212 66.124,74.96" id="Fill-46" fill="#8FC33F"></path>
            <path d="M66.124,123.118 C66.124,125.866 63.896,128.094 61.148,128.094 C58.4,128.094 56.172,125.866 56.172,123.118 C56.172,120.37 58.4,118.142 61.148,118.142 C63.896,118.142 66.124,120.37 66.124,123.118" id="Fill-47" fill="#8FC33F"></path>
            <path d="M66.124,50.264 C66.124,53.012 63.896,55.24 61.148,55.24 C58.4,55.24 56.172,53.012 56.172,50.264 C56.172,47.516 58.4,45.288 61.148,45.288 C63.896,45.288 66.124,47.516 66.124,50.264" id="Fill-48" fill="#8FC33F"></path>
            <path d="M106.226,74.96 C106.226,77.708 103.998,79.936 101.25,79.936 C98.502,79.936 96.274,77.708 96.274,74.96 C96.274,72.212 98.502,69.984 101.25,69.984 C103.998,69.984 106.226,72.212 106.226,74.96" id="Fill-49" fill="#8FC33F"></path>
            <path d="M106.226,50.264 C106.226,53.012 103.998,55.24 101.25,55.24 C98.502,55.24 96.274,53.012 96.274,50.264 C96.274,47.516 98.502,45.288 101.25,45.288 C103.998,45.288 106.226,47.516 106.226,50.264" id="Fill-50" fill="#8FC33F"></path>
        </g>
    </g>
</svg>