<?xml version="1.0" encoding="UTF-8"?>
<svg width="140px" height="140px" viewBox="0 0 140 140" version="1.1" xmlns="http://www.w3.org/2000/svg" xmlns:xlink="http://www.w3.org/1999/xlink">
    <!-- Generator: Sketch 42 (36781) - http://www.bohemiancoding.com/sketch -->
    <title>global_village-4c</title>
    <desc>Created with Sketch.</desc>
    <defs>
        <path d="M0,47.5 C0,21.298 21.298,0 47.5,0 C73.702,0 95,21.298 95,47.5 C95,56.006 92.756,63.995 88.827,70.907 C87.951,70.556 87.022,70.076 86.069,69.539 C89.576,63.48 91.669,56.479 92.001,49 L72.199,49 C72.103,54.13 71.649,59.022 70.837,63.565 C69.736,63.253 68.684,62.925 67.688,62.591 C68.439,58.321 68.909,53.769 69,49 L26,49 C26,51.752 26.144,54.432 26.413,57.026 C25.889,57.34 25.417,57.666 25,58 C24.566,58.347 24.058,58.716 23.486,59.102 C23.094,55.867 22.866,52.488 22.801,49 L3.001,49 C3.29,55.483 4.927,61.659 7.68,67.176 C6.698,67.58 5.738,67.954 4.821,68.292 C1.751,62.034 0,54.971 0,47.5 Z M30.001,21.308 C35.312,22.384 41.08,23 47.001,23 C52.92,23 58.688,22.384 64,21.308 C60.053,10.231 53.831,3 47.001,3 C40.17,3 33.946,10.231 30.001,21.308 Z M58,4 C61.9,7.471 65.35,13.057 67.75,19.999 C71.95,18.943 75.7,17.585 79,15.924 C73.45,10.188 66.1,5.962 58,4 Z M16,15.924 C19.3,17.585 23.2,18.943 27.25,19.999 C29.65,13.057 32.95,7.471 37,4 C29.05,5.962 21.7,10.188 16,15.924 Z M69,23.577 C70.98,30.135 72.046,37.763 72.199,45.999 L92.001,45.999 C91.543,35.78 87.736,26.322 81.49,18.999 C77.835,20.83 73.57,22.509 69,23.577 Z M13.51,18.999 C7.265,26.281 3.457,35.686 3.001,45.999 L22.801,45.999 C22.954,37.809 24.02,30.225 26,23.703 C21.431,22.489 17.166,20.972 13.51,18.999 Z M65.764,24 C60.061,25.239 53.896,25.859 47.577,25.859 C41.258,25.859 35.093,25.239 29.236,24 C27.387,30.507 26.154,37.944 26,45.999 L69,45.999 C69,37.944 67.767,30.507 65.764,24 Z" id="path-1"></path>
        <path d="M24.46,2.204 L26.098,2.914 L26.098,3.829 C28.223,3.284 30.199,3 32,3 C37.411,3 42.375,5.583 49.781,11.315 C50.514,11.882 53.048,13.875 53.54,14.256 C54.974,15.372 56.075,16.19 57.115,16.903 C57.417,17.11 57.712,17.307 58,17.494 L58,15.084 C57.068,14.435 56.059,13.68 54.766,12.677 C54.282,12.3 51.745,10.306 51.005,9.734 C43.267,3.744 37.995,0.999 32,0.999 C29.691,0.999 27.169,1.417 24.46,2.204 Z M3.445,12.991 C2.609,13.572 1.859,14.111 1.204,14.595 C0.974,14.765 0.773,14.916 0.601,15.047 C0.496,15.126 0.424,15.181 0.386,15.21 C-0.05,15.55 -0.128,16.178 0.211,16.614 C0.549,17.05 1.178,17.128 1.614,16.789 C1.748,16.685 2.012,16.485 2.393,16.202 C3.032,15.73 3.768,15.202 4.586,14.634 C5.683,13.872 6.824,13.111 8,12.361 L8,9.998 C6.42,10.979 4.895,11.985 3.445,12.991 Z M86.292,10.293 C83.159,13.428 79.751,15.601 76.099,16.874 L76.099,18.982 C80.279,17.649 84.168,15.245 87.707,11.708 C88.098,11.317 88.098,10.683 87.707,10.293 C87.512,10.098 87.255,10 87,10 C86.743,10 86.488,10.098 86.292,10.293 Z M66.453,20.213 C67.361,20.253 68.259,20.253 69.147,20.213 L66.453,20.213 Z" id="path-3"></path>
        <path d="M0,3.914 L9.049,0 L18.099,3.914 L18.099,17.213 L0,17.213 L0,3.914 Z M9.941,10.124 L13.618,10.124 L13.618,4.867 L9.941,4.867 L9.941,10.124 Z M4.229,10.124 L7.907,10.124 L7.907,4.867 L4.229,4.867 L4.229,10.124 Z M9.941,16.148 L13.618,16.148 L13.618,10.891 L9.941,10.891 L9.941,16.148 Z M4.229,16.148 L7.907,16.148 L7.907,10.891 L4.229,10.891 L4.229,16.148 Z" id="path-5"></path>
        <path d="M0,3.914 L9.049,0 L18.099,3.914 L18.099,17.213 L0,17.213 L0,3.914 Z M9.941,10.124 L13.618,10.124 L13.618,4.867 L9.941,4.867 L9.941,10.124 Z M4.229,10.124 L7.907,10.124 L7.907,4.867 L4.229,4.867 L4.229,10.124 Z M9.941,16.148 L13.618,16.148 L13.618,10.891 L9.941,10.891 L9.941,16.148 Z M4.229,16.148 L7.907,16.148 L7.907,10.891 L4.229,10.891 L4.229,16.148 Z" id="path-7"></path>
        <path d="M0,3.914 L9.049,0 L18.098,3.914 L18.098,17.212 L0,17.212 L0,3.914 Z M9.941,10.124 L13.619,10.124 L13.619,4.867 L9.941,4.867 L9.941,10.124 Z M4.23,10.124 L7.907,10.124 L7.907,4.867 L4.23,4.867 L4.23,10.124 Z M9.941,16.148 L13.619,16.148 L13.619,10.891 L9.941,10.891 L9.941,16.148 Z M4.23,16.148 L7.907,16.148 L7.907,10.891 L4.23,10.891 L4.23,16.148 Z" id="path-9"></path>
        <path d="M0.06,67.097 C1.588,29.841 32.375,0 70.001,0 C108.598,0 140,31.402 140,69.999 C140,108.598 108.598,140 70.001,140 C32.375,140 1.588,110.158 0.06,72.902 L0.06,67.097 Z M3.239,69.999 C3.239,106.812 33.188,136.761 70.001,136.761 C106.812,136.761 136.762,106.812 136.762,69.999 C136.762,33.187 106.812,3.238 70.001,3.238 C33.188,3.238 3.239,33.187 3.239,69.999 Z" id="path-11"></path>
    </defs>
    <g id="LLP" stroke="none" stroke-width="1" fill="none" fill-rule="evenodd">
        <g id="global_village-4c">
            <g id="Group-27" transform="translate(47.000000, 9.000000)" fill="#356D94">
                <path d="M4.4475,7.6951 L4.0735,6.5491 L7.0345,5.5821 L7.9195,8.2931 C7.7225,8.6651 7.3855,9.0471 6.9085,9.4371 C6.4315,9.8271 5.9135,10.1141 5.3535,10.2971 C4.6415,10.5291 3.9725,10.5821 3.3455,10.4561 C2.7185,10.3301 2.1815,10.0331 1.7345,9.5651 C1.2865,9.0961 0.9565,8.5351 0.7435,7.8821 C0.5125,7.1741 0.4555,6.4951 0.5725,5.8471 C0.6905,5.2001 0.9875,4.6351 1.4635,4.1541 C1.8255,3.7861 2.3325,3.4961 2.9825,3.2841 C3.8265,3.0081 4.5445,2.9701 5.1355,3.1691 C5.7255,3.3681 6.1915,3.7581 6.5315,4.3391 L5.2505,5.0401 C5.0455,4.7371 4.7795,4.5321 4.4505,4.4251 C4.1235,4.3181 3.7615,4.3291 3.3655,4.4581 C2.7645,4.6541 2.3495,5.0001 2.1195,5.4971 C1.8895,5.9931 1.8965,6.6151 2.1415,7.3641 C2.4055,8.1721 2.7815,8.7191 3.2725,9.0061 C3.7635,9.2931 4.3005,9.3411 4.8815,9.1511 C5.1695,9.0571 5.4395,8.9061 5.6925,8.6991 C5.9445,8.4911 6.1485,8.2741 6.3025,8.0451 L6.0215,7.1821 L4.4475,7.6951 Z" id="Fill-1"></path>
                <polygon id="Fill-3" points="10.3166 8.7654 9.0186 1.7854 10.4396 1.5214 11.5166 7.3154 15.0496 6.6584 15.2706 7.8444"></polygon>
                <path d="M18.0798,3.9617 C18.1228,4.7707 18.3428,5.3747 18.7388,5.7727 C19.1348,6.1697 19.6208,6.3537 20.1958,6.3237 C20.7708,6.2927 21.2318,6.0607 21.5788,5.6267 C21.9258,5.1927 22.0778,4.5607 22.0338,3.7327 C21.9898,2.9127 21.7778,2.3117 21.3968,1.9277 C21.0168,1.5437 20.5288,1.3667 19.9338,1.3987 C19.3388,1.4307 18.8708,1.6597 18.5278,2.0867 C18.1858,2.5147 18.0368,3.1387 18.0798,3.9617 M16.5958,4.0887 C16.5568,3.3607 16.6328,2.7437 16.8248,2.2387 C16.9678,1.8657 17.1728,1.5267 17.4378,1.2227 C17.7048,0.9187 18.0008,0.6877 18.3288,0.5307 C18.7638,0.3177 19.2718,0.1967 19.8538,0.1657 C20.9078,0.1097 21.7678,0.3917 22.4338,1.0117 C23.1008,1.6317 23.4658,2.5237 23.5268,3.6867 C23.5888,4.8407 23.3228,5.7607 22.7298,6.4457 C22.1368,7.1307 21.3158,7.5007 20.2658,7.5567 C19.2028,7.6127 18.3408,7.3337 17.6788,6.7187 C17.0168,6.1037 16.6558,5.2267 16.5958,4.0887" id="Fill-5"></path>
                <path d="M27.532,1.4993 L27.392,3.1483 L28.336,3.2283 C28.897,3.2763 29.246,3.2973 29.384,3.2923 C29.633,3.2853 29.834,3.2163 29.987,3.0863 C30.14,2.9573 30.226,2.7783 30.246,2.5473 C30.265,2.3273 30.219,2.1433 30.109,1.9943 C29.999,1.8463 29.825,1.7483 29.588,1.6983 C29.447,1.6693 29.037,1.6263 28.359,1.5693 L27.532,1.4993 Z M27.291,4.3353 L27.13,6.2433 L28.463,6.3553 C28.982,6.4003 29.312,6.4133 29.454,6.3953 C29.672,6.3753 29.854,6.2953 30.001,6.1553 C30.149,6.0163 30.233,5.8203 30.255,5.5673 C30.273,5.3533 30.236,5.1663 30.145,5.0093 C30.054,4.8513 29.913,4.7293 29.722,4.6453 C29.532,4.5603 29.109,4.4903 28.454,4.4343 L27.291,4.3353 Z M26.193,0.1893 L29.044,0.4323 C29.608,0.4793 30.027,0.5393 30.3,0.6093 C30.574,0.6803 30.813,0.7993 31.02,0.9673 C31.226,1.1343 31.391,1.3493 31.516,1.6093 C31.641,1.8703 31.691,2.1543 31.665,2.4623 C31.636,2.7963 31.52,3.0953 31.317,3.3593 C31.113,3.6233 30.851,3.8113 30.531,3.9243 C30.955,4.0873 31.271,4.3323 31.478,4.6563 C31.686,4.9813 31.772,5.3493 31.738,5.7613 C31.71,6.0853 31.608,6.3953 31.431,6.6883 C31.254,6.9823 31.028,7.2093 30.751,7.3713 C30.474,7.5323 30.143,7.6173 29.756,7.6273 C29.514,7.6323 28.934,7.6003 28.015,7.5283 L25.588,7.3223 L26.193,0.1893 Z" id="Fill-7"></path>
                <path d="M37.8459,6.2112 L37.4639,3.4032 L35.9399,5.7842 L37.8459,6.2112 Z M39.8249,9.5562 L38.2899,9.2122 L38.0349,7.4892 L35.2429,6.8642 L34.3109,8.3222 L32.8149,7.9872 L37.0999,1.6102 L38.5909,1.9442 L39.8249,9.5562 Z" id="Fill-9"></path>
                <polygon id="Fill-11" points="41.3103 10.0735 43.7263 3.3975 45.0843 3.8885 43.0803 9.4305 46.4593 10.6535 46.0493 11.7875"></polygon>
                <polygon id="Fill-13" points="2.6877 119.9861 2.7057 112.3841 4.1797 112.9151 4.0897 118.5131 7.5337 114.1231 8.9767 114.6421 4.1397 120.5081"></polygon>
                <polygon id="Fill-15" points="8.6887 121.8753 10.3857 114.9213 11.7897 115.2643 10.0927 122.2183"></polygon>
                <polygon id="Fill-17" points="12.8928 122.8328 13.8768 115.8018 15.3078 116.0018 14.4918 121.8388 18.0508 122.3368 17.8828 123.5308"></polygon>
                <polygon id="Fill-19" points="20.5012 123.6819 20.6162 116.5829 22.0612 116.6069 21.9652 122.4999 25.5592 122.5579 25.5392 123.7639"></polygon>
                <path d="M31.6423,120.2982 L30.3213,117.7922 L29.7053,120.5502 L31.6423,120.2982 Z M34.6473,122.7622 L33.0883,122.9652 L32.2583,121.4342 L29.4203,121.8042 L29.0453,123.4922 L27.5243,123.6912 L29.3643,116.2322 L30.8803,116.0352 L34.6473,122.7622 Z" id="Fill-21"></path>
                <path d="M39.5412,118.7479 L39.2002,117.5909 L42.1872,116.7099 L42.9942,119.4449 C42.7872,119.8109 42.4392,120.1839 41.9512,120.5599 C41.4632,120.9359 40.9372,121.2069 40.3722,121.3739 C39.6532,121.5859 38.9832,121.6199 38.3602,121.4769 C37.7372,121.3319 37.2092,121.0199 36.7752,120.5389 C36.3412,120.0579 36.0272,119.4869 35.8332,118.8289 C35.6222,118.1139 35.5842,117.4339 35.7202,116.7899 C35.8562,116.1459 36.1692,115.5899 36.6592,115.1229 C37.0322,114.7659 37.5472,114.4899 38.2022,114.2959 C39.0552,114.0449 39.7732,114.0269 40.3582,114.2439 C40.9432,114.4599 41.3962,114.8629 41.7202,115.4529 L40.4192,116.1169 C40.2232,115.8079 39.9622,115.5959 39.6382,115.4789 C39.3132,115.3629 38.9522,115.3639 38.5522,115.4809 C37.9462,115.6599 37.5212,115.9939 37.2772,116.4829 C37.0332,116.9729 37.0222,117.5959 37.2452,118.3509 C37.4852,119.1659 37.8472,119.7239 38.3292,120.0239 C38.8122,120.3249 39.3462,120.3889 39.9332,120.2159 C40.2232,120.1299 40.4982,119.9869 40.7562,119.7869 C41.0142,119.5869 41.2242,119.3749 41.3852,119.1509 L41.1282,118.2799 L39.5412,118.7479 Z" id="Fill-23"></path>
                <polygon id="Fill-25" points="46.0964 119.263 43.0534 112.784 47.8574 110.527 48.3714 111.623 44.8764 113.265 45.5504 114.701 48.8034 113.174 49.3164 114.265 46.0634 115.793 46.8914 117.556 50.5114 115.857 51.0244 116.948"></polygon>
            </g>
            <g id="Group-38" transform="translate(11.000000, 17.000000)" fill="#39B54A">
                <path d="M35.0359,106.1131 C15.3199,96.9021 1.6189,76.8931 1.6189,53.7341 C1.6189,31.1991 14.5929,11.6501 33.4539,2.1261 L32.9549,1.0121 C13.6639,10.7111 0.4199,30.6701 0.4199,53.7341 C0.4199,77.3931 14.3549,97.7881 34.4589,107.1881 L35.0359,106.1131 Z" id="Fill-34"></path>
                <path d="M85.6613,0.9109 L85.2383,2.0629 C104.1663,11.5649 117.1953,31.1509 117.1953,53.7339 C117.1953,75.2439 105.3733,94.0339 87.8933,103.9819 L88.4163,105.0889 C106.3103,94.9589 118.3953,75.7639 118.3953,53.7339 C118.3953,30.5899 105.0603,10.5719 85.6613,0.9109" id="Fill-36"></path>
            </g>
            <g id="Group-41" transform="translate(23.000000, 23.000000)">
                <mask id="mask-2" fill="white">
                    <use xlink:href="#path-1"></use>
                </mask>
                <g id="Clip-40"></g>
                <polygon id="Fill-39" fill="#2C618B" mask="url(#mask-2)" points="-5 100 100 100 100 -5 -5 -5"></polygon>
            </g>
            <g id="Group-44" transform="translate(28.000000, 87.000000)">
                <mask id="mask-4" fill="white">
                    <use xlink:href="#path-3"></use>
                </mask>
                <g id="Clip-43"></g>
                <polygon id="Fill-42" fill="#2CAE3B" mask="url(#mask-4)" points="-5 25.242 93 25.242 93 -4.001 -5 -4.001"></polygon>
            </g>
            <g id="Group-47" transform="translate(86.000000, 90.000000)">
                <mask id="mask-6" fill="white">
                    <use xlink:href="#path-5"></use>
                </mask>
                <g id="Clip-46"></g>
                <polygon id="Fill-45" fill="#2CAE3B" mask="url(#mask-6)" points="-5 22.212 23.099 22.212 23.099 -5 -5 -5"></polygon>
            </g>
            <g id="Group-50" transform="translate(60.000000, 99.000000)">
                <mask id="mask-8" fill="white">
                    <use xlink:href="#path-7"></use>
                </mask>
                <g id="Clip-49"></g>
                <polygon id="Fill-48" fill="#2CAE3B" mask="url(#mask-8)" points="-5 22.212 23.099 22.212 23.099 -5 -5 -5"></polygon>
            </g>
            <g id="Group-53" transform="translate(36.000000, 86.000000)">
                <mask id="mask-10" fill="white">
                    <use xlink:href="#path-9"></use>
                </mask>
                <g id="Clip-52"></g>
                <polygon id="Fill-51" fill="#2CAE3B" mask="url(#mask-10)" points="-5 22.212 23.099 22.212 23.099 -5 -5 -5"></polygon>
            </g>
            <g id="Group-56">
                <mask id="mask-12" fill="white">
                    <use xlink:href="#path-11"></use>
                </mask>
                <g id="Clip-55"></g>
                <polygon id="Fill-54" fill="#356D94" mask="url(#mask-12)" points="-5 145 145 145 145 -5 -5 -5"></polygon>
            </g>
        </g>
    </g>
</svg>