<?xml version="1.0" encoding="UTF-8"?>
<svg width="166px" height="131px" viewBox="0 0 166 131" version="1.1" xmlns="http://www.w3.org/2000/svg" xmlns:xlink="http://www.w3.org/1999/xlink">
    <!-- Generator: Sketch 42 (36781) - http://www.bohemiancoding.com/sketch -->
    <title>lavender-4c</title>
    <desc>Created with Sketch.</desc>
    <defs>
        <polygon id="path-1" points="165.39825 62.9896019 165.39825 125.926602 0.0732352941 125.926602 0.0732352941 0.0526019417 165.39825 0.0526019417 165.39825 62.9896019"></polygon>
    </defs>
    <g id="LLP" stroke="none" stroke-width="1" fill="none" fill-rule="evenodd">
        <g id="lavender-4c">
            <polyline id="Fill-1" fill="#65C0BD" points="31.1732807 0 30 0 30 8 35 8 35 6.90158425 31.1732807 6.90158425 31.1732807 0"></polyline>
            <path d="M39.8875488,4.61897904 L38.0517914,4.61897904 L39.0074495,1.45943351 L39.8875488,4.61897904 Z M39.5916992,0 L38.4998226,0 L36,8 L37.0493083,8 L37.7314651,5.71739478 L40.2504434,5.71739478 L40.8804541,7.9462314 L40.895353,8 L42,8 L39.6076623,0.0524883981 L39.5916992,0 L39.5916992,0 Z" id="Fill-2" fill="#65C0BD"></path>
            <polyline id="Fill-3" fill="#65C0BD" points="47.0048851 6.5418467 45.1615705 0.053768603 45.1463724 0 44 0 46.459924 7.9475116 46.4762077 8 47.5248779 8 49.966347 0.107537206 50 0 48.844943 0 47.0048851 6.5418467"></polyline>
            <polyline id="Fill-4" fill="#65C0BD" points="53.0245372 4.43975036 56.6319415 4.43975036 56.6319415 3.34133461 53.0245372 3.34133461 53.0245372 1.09841575 56.9354283 1.09841575 56.9354283 0 52 0 52 8 57 8 57 6.90158425 53.0245372 6.90158425 53.0245372 4.43975036"></polyline>
            <polyline id="Fill-5" fill="#65C0BD" points="64.8847002 6.16674668 61.3198316 0.0371259402 61.2969721 0 60 0 60 8 61.1152998 8 61.1152998 1.82941271 64.7427311 7.96287406 64.7643874 8 66 8 66 0 64.8847002 0 64.8847002 6.16674668"></polyline>
            <path d="M71.1020644,1.06641063 L72.8176732,1.06641063 C74.1396874,1.06641063 74.8678372,2.0918547 74.8678372,3.95583293 C74.8678372,5.81981117 74.1269535,6.93358937 72.887131,6.93358937 L71.1020644,6.93358937 L71.1020644,1.06641063 Z M72.9450125,0 L70,0 L70,8 L72.9056531,8 C74.401312,8 76,6.92078733 76,3.89054249 C76,1.52600416 74.8018522,0 72.9450125,0 L72.9450125,0 Z" id="Fill-6" fill="#65C0BD"></path>
            <polyline id="Fill-7" fill="#65C0BD" points="79.0245372 4.43975036 82.6319415 4.43975036 82.6319415 3.34133461 79.0245372 3.34133461 79.0245372 1.09841575 82.9354283 1.09841575 82.9354283 0 78 0 78 8 83 8 83 6.90158425 79.0245372 6.90158425 79.0245372 4.43975036"></polyline>
            <path d="M90.5979263,2.29668747 C90.5979263,3.17746839 90.1785714,3.57049128 89.235023,3.57049128 L87.0967742,3.57049128 L87.0967742,1.06641063 L89.4032258,1.06641063 C89.9158986,1.06641063 90.5979263,1.1931509 90.5979263,2.29668747 Z M91.6463134,6.95535286 L91.5864055,5.5368859 C91.5506912,4.50888142 91.1889401,4.23107697 90.828341,4.05440871 C91.1958525,3.80092815 91.7258065,3.33493359 91.7258065,2.18787006 C91.7258065,0.775804129 90.875576,0 89.3329493,0 L86,0 L86,8 L87.0967742,8 L87.0967742,4.6369019 L89.3329493,4.6369019 C90.375576,4.6369019 90.5195853,5.2706033 90.5195853,5.95423268 C90.5195853,6.24867979 90.5483871,7.44695151 90.6900922,7.94495119 L90.7062212,8 L92,8 L92,7.69915186 L91.9642857,7.67610818 C91.6970046,7.50840134 91.656682,7.37141943 91.6463134,6.95535286 L91.6463134,6.95535286 Z" id="Fill-8" fill="#65C0BD"></path>
            <polyline id="Fill-9" fill="#65C0BD" points="103.852321 3.24275884 100.147679 3.24275884 100.147679 0 99 0 99 8 100.147679 8 100.147679 4.34245479 103.852321 4.34245479 103.852321 8 105 8 105 0 103.852321 0 103.852321 3.24275884"></polyline>
            <path d="M109.5,6.95572798 C108.055446,6.95572798 107.123031,5.79583143 107.123031,4.00060855 C107.123031,2.20416857 108.055446,1.04427202 109.5,1.04427202 C110.92044,1.04427202 111.87582,2.23216187 111.87582,4.00060855 C111.87582,5.76783813 110.92044,6.95572798 109.5,6.95572798 Z M109.5,0 C108.313812,0 107.360728,0.480754602 106.744094,1.3899285 C106.270997,2.08610984 106,3.03788225 106,4.00060855 C106,4.96211775 106.270997,5.91267306 106.744094,6.6100715 C107.360728,7.5192454 108.313812,8 109.5,8 C110.686188,8 111.639272,7.5192454 112.255906,6.6100715 C112.727854,5.91267306 113,4.96211775 113,4.00060855 C113,3.03788225 112.727854,2.08610984 112.255906,1.3899285 C111.639272,0.480754602 110.686188,0 109.5,0 L109.5,0 Z" id="Fill-10" fill="#65C0BD"></path>
            <path d="M120.84368,4.9103104 C120.84368,6.66604274 119.666734,6.9293402 118.964206,6.9293402 C118.288372,6.9293402 117.155106,6.66354703 117.155106,4.88909686 L117.155106,0 L116,0 L116,5.17610357 C116,7.26002184 117.579778,8 118.932659,8 C121.194338,8 122,6.47012946 122,5.03759164 L122,0 L120.84368,0 L120.84368,4.9103104" id="Fill-11" fill="#65C0BD"></path>
            <path d="M128.272673,3.60383387 L126.172973,3.11577666 C125.770571,3.01840864 125.35976,2.8394949 125.35976,2.24554998 C125.35976,1.17328465 126.365165,1.01262742 126.964565,1.01262742 C127.35976,1.01262742 128.653453,1.11729804 128.713514,2.45610832 L128.717117,2.52913434 L129.799399,2.52913434 L129.795796,2.45002282 C129.715315,0.823976875 128.724324,0 126.851652,0 C124.92973,0 124.246246,1.28282367 124.246246,2.38064811 C124.246246,3.03909935 124.528529,3.89106953 125.872673,4.20873269 L127.377778,4.56169177 C128.58979,4.85379583 128.887688,5.09721588 128.887688,5.80556823 C128.887688,6.87053096 127.591592,6.98615548 127.035435,6.98615548 C126.448048,6.98615548 125.083483,6.82306405 125.083483,5.31872813 L125.083483,5.24205081 L124,5.24205081 L124,5.31872813 C124,5.96257417 124.093694,6.64415031 124.773574,7.26487144 C125.033033,7.50342309 125.574775,8 127.046246,8 C128.474474,8 130,7.38779857 130,5.67168721 C130,4.58968508 129.403003,3.87524722 128.272673,3.60383387" id="Fill-12" fill="#65C0BD"></path>
            <polyline id="Fill-13" fill="#65C0BD" points="134.024758 6.90158425 134.024758 4.43975036 137.632939 4.43975036 137.632939 3.34133461 134.024758 3.34133461 134.024758 1.09841575 137.936491 1.09841575 137.936491 0 133 0 133 8 138 8 138 6.90158425 134.024758 6.90158425"></polyline>
            <polygon id="Fill-14" fill="#65C0BD" points="80 110 89 110 89 108 80 108"></polygon>
            <polygon id="Fill-15" fill="#65C0BD" points="85 115 87 115 87 105 85 105"></polygon>
            <path d="M103.5,52 C105.432729,52 107,50.2098956 107,48.0006848 C107,45.7914741 105.432729,44 103.5,44 C101.567271,44 100,45.7914741 100,48.0006848 C100,50.2098956 101.567271,52 103.5,52" id="Fill-16" fill="#65C0BD"></path>
            <g id="Group-22" transform="translate(0.000000, 5.000000)">
                <mask id="mask-2" fill="white">
                    <use xlink:href="#path-1"></use>
                </mask>
                <g id="Clip-18"></g>
                <path d="M85.2763971,114.803126 L75.8388088,99.6549903 L94.2281912,99.6549903 L94.3233971,99.8653981 L85.2763971,114.803126 Z M43.8056912,48.2384272 L54.1575,48.2384272 C54.0134706,49.1962718 53.9146029,50.1687961 53.9146029,51.1645631 C53.9146029,62.5632816 62.9005735,71.1630874 73.9700882,71.1630874 C77.1448382,71.1630874 80.6637941,70.2394951 83.5968676,68.5635728 L72.4699853,94.248 L43.8056912,48.2384272 Z M73.9700882,35.6433204 C78.6205294,35.6433204 82.5398382,37.548 85.2495441,40.5463107 C82.9548382,45.1826214 77.6806765,48.4989903 72.6884706,48.4989903 C68.0355882,48.4989903 63.8746029,46.2897087 60.9158971,42.9549903 C63.5059853,38.5975922 68.1710735,35.6433204 73.9700882,35.6433204 Z M84.9834559,78.7120777 L92.1446471,95.0480388 L77.8210441,95.0480388 L84.9834559,78.7120777 Z M81.5865588,64.4973204 C79.2503529,65.9726214 76.3050735,66.6845825 73.9700882,66.6845825 C65.6932794,66.6845825 58.6871029,59.9172816 58.6871029,51.1645631 C58.6871029,50.1749126 58.7810882,49.2072816 58.9483088,48.2641165 C62.5978676,51.3810874 67.2592941,53.2955534 72.3540294,53.2955534 C79.1710147,53.2955534 84.7527647,50.2947961 88.24975,45.5300388 C88.7538529,46.9013592 89.0773088,48.3619806 89.1932647,49.8813204 L89.1932647,52.3426019 C88.9088676,55.740932 87.4209706,59.533165 84.7845,61.9014757 L78.7425882,55.8975146 L72.8019853,55.8975146 L81.5865588,64.4973204 Z M100.007676,52.5860388 L100.022324,52.5860388 L100.022324,90.4569903 L97.5909118,94.4706408 L87.4551471,71.0701165 L87.5271618,71.1630874 L93.9755294,71.1630874 L88.0349265,65.3108155 C91.4623382,62.0617282 93.6008088,57.4951456 93.9535588,52.5860388 L100.007676,52.5860388 Z M94.9690882,31.3421942 L98.5332059,31.3421942 C103.693853,31.3421942 110.330191,32.6963883 110.330191,39.2239223 C110.330191,45.8126214 104.738676,47.4139223 99.3925,47.4139223 L94.9690882,47.4139223 L94.9690882,31.3421942 Z M94.9690882,11.3289903 L96.5668382,11.3289903 C101.974044,11.3289903 106.397456,12.437301 106.397456,18.9636117 C106.397456,25.614699 101.911794,26.7230097 96.4435588,26.7230097 L94.9690882,26.7230097 L94.9690882,11.3289903 Z M106.827103,27.7089903 C109.961574,26.2300194 111.804662,22.289767 111.804662,18.9024466 C111.804662,18.6308738 111.776588,18.3886602 111.764382,18.1280971 L118.217632,18.1280971 L118.217632,55.0473204 L121.468059,55.0473204 L105.796926,80.9213592 L105.796926,51.9022136 C111.555662,50.4599417 116.106015,46.6359029 116.106015,39.5933592 C116.106015,34.1741359 112.296559,28.817301 106.827103,27.8313204 L106.827103,27.7089903 Z M123.993456,50.8783107 L123.993456,18.1280971 L143.829235,18.1280971 L123.993456,50.8783107 Z M157.487618,0.0526019417 L141.455191,0.0526019417 L141.446647,2.37687379 L153.368132,2.37687379 L147.334765,12.3382136 L110.282588,12.3382136 C107.511853,7.41809709 101.318588,6.15565049 94.8458088,6.15565049 L89.1932647,6.15565049 L89.1932647,31.2100777 L75.5824853,31.2100777 L75.6032353,31.2492233 C75.0625147,31.2051845 74.5205735,31.1660388 73.9700882,31.1660388 C67.6059412,31.1660388 61.8887059,34.210835 58.1976471,38.9058641 C57.0441912,36.5583495 56.3838529,33.9625049 56.3838529,31.3226214 C56.3838529,21.8970874 63.7293529,14.2551262 73.1339853,14.2551262 C77.3267059,14.2551262 81.4828088,16.0888544 84.5001029,19.0198835 L87.7895882,15.2325437 C83.7567647,11.5247184 78.3532206,9.45978641 72.9106176,9.45978641 C60.8353382,9.45978641 51.1524118,19.3868738 51.1524118,31.4889903 C51.1524118,35.7925631 52.4486765,39.8857282 54.6664853,43.344 L46.8913382,43.344 L46.8913382,7.33368932 L41.1167353,7.33368932 L41.1167353,43.9213981 L15.2329412,2.37687379 L27.5157206,2.37687379 L27.5230441,0.0526019417 L11.0536471,0.0526019417 L71.3494853,96.8352816 L71.3360588,96.8658641 L74.5877059,102.186 L74.6279853,102.096699 L85.3056912,119.235146 L95.4866176,102.425767 L95.5415441,102.548097 L98.7614559,97.170466 L98.7223971,97.081165 L157.487618,0.0526019417 L157.487618,0.0526019417 Z" id="Fill-17" fill="#A79ABE" mask="url(#mask-2)"></path>
                <path d="M42.1481324,61.2164272 L42.1481324,66.5072039 L37.5770294,63.8624272 L42.1481324,61.2164272 Z M81.2765294,121.297631 L80.8993676,120.513495 L78.5302059,121.658505 L43.0171912,66.930466 L43.0171912,59.7068738 L39.6105294,61.678835 L4.57476471,7.6884466 L7.57008824,7.75205825 L7.58839706,6.88106796 L4.57110294,6.81745631 L5.99797059,4.54578641 L5.26195588,4.08093204 L3.77283824,6.45168932 L2.26297059,4.12619417 L1.5355,4.60205825 L2.95016176,6.78320388 L0.0183088235,6.72081553 L0,7.59180583 L3.01729412,7.65541748 L1.59042647,9.92708738 L2.32522059,10.3919417 L3.78504412,8.0688932 L38.8562059,62.1155534 L35.8376912,63.8624272 L42.4862353,67.7097087 L77.7417059,122.040175 L77.688,122.065864 L78.0651618,122.848777 L78.2189559,122.775379 L79.6714559,125.014019 L80.4001471,124.538155 L79.0074559,122.393709 L81.2765294,121.297631 L81.2765294,121.297631 Z" id="Fill-19" fill="#65C0BD" mask="url(#mask-2)"></path>
                <polyline id="Fill-20" fill="#65C0BD" mask="url(#mask-2)" points="164.928324 7.33735922 165.39825 6.60337864 163.291515 5.25285437 164.587779 3.11330097 163.843221 2.66067961 162.557941 4.7831068 160.602559 3.5292233 160.132632 4.26198058 162.106324 5.52809709 126.936294 63.5712816 121.874515 64.8104854 122.082015 65.6557864 126.297926 64.6245437 90.9972941 122.881806 90.8068824 118.813107 89.9402647 118.853476 90.2515147 125.551049 95.9431176 121.936194 95.4780735 121.20099 91.5038382 123.72466 126.030618 66.7445243 129.255412 68.706699 129.707029 67.9604854 126.482235 65.999534 162.839897 5.99784466 164.928324 7.33735922"></polyline>
                <polyline id="Fill-21" fill="#65C0BD" mask="url(#mask-2)" points="78.1042206 126 73.43425 125.464194 73.5331176 124.59932 77.2754412 125.028699 40.6944118 69.7721942 41.4194412 69.2889903 78.5155588 125.325961 78.1042206 126"></polyline>
            </g>
        </g>
    </g>
</svg>