<?xml version="1.0" encoding="UTF-8"?>
<svg width="140px" height="140px" viewBox="0 0 140 140" version="1.1" xmlns="http://www.w3.org/2000/svg" xmlns:xlink="http://www.w3.org/1999/xlink">
    <!-- Generator: Sketch 42 (36781) - http://www.bohemiancoding.com/sketch -->
    <title>outdoor-4c</title>
    <desc>Created with Sketch.</desc>
    <defs>
        <polygon id="path-1" points="0.06 140 140 140 140 0 0.06 0"></polygon>
    </defs>
    <g id="LLP" stroke="none" stroke-width="1" fill="none" fill-rule="evenodd">
        <g id="outdoor-4c">
            <g id="Group-3">
                <mask id="mask-2" fill="white">
                    <use xlink:href="#path-1"></use>
                </mask>
                <g id="Clip-2"></g>
                <path d="M70,136.761 C33.188,136.761 3.239,106.812 3.239,70 C3.239,33.187 33.188,3.238 70,3.238 C106.812,3.238 136.762,33.187 136.762,70 C136.762,106.812 106.812,136.761 70,136.761 Z M70,0 C31.402,0 0,31.402 0,70 C0,108.598 31.402,140 70,140 C108.598,140 140,108.598 140,70 C140,31.402 108.598,0 70,0 L70,0 Z" id="Fill-1" fill="#262E64" mask="url(#mask-2)"></path>
            </g>
            <path d="M49.201,17.73 C49.044,18.292 48.659,18.724 48.086,18.981 C46.93,19.499 45.785,18.953 45.174,17.59 C44.564,16.225 44.917,15.008 46.074,14.489 C46.648,14.233 47.228,14.234 47.75,14.491 C48.265,14.744 48.692,15.225 48.986,15.882 C49.28,16.538 49.354,17.177 49.201,17.73 Z M48.479,13.624 C47.633,13.133 46.658,13.111 45.656,13.557 C43.328,14.601 43.601,16.877 44.129,18.057 C44.544,18.981 45.563,20.235 47.105,20.235 C47.532,20.235 47.999,20.139 48.504,19.913 C50.833,18.87 50.56,16.594 50.031,15.413 C49.69,14.651 49.124,13.999 48.479,13.624 L48.479,13.624 Z" id="Fill-4" fill="#262E64"></path>
            <path d="M56.23,10.118 L55.154,10.422 L56.281,14.414 C56.661,15.766 55.787,16.231 55.233,16.388 C54.7,16.54 53.748,16.587 53.361,15.218 L52.242,11.243 L51.167,11.545 L52.352,15.751 C52.53,16.384 52.902,16.897 53.399,17.197 C53.743,17.404 54.143,17.508 54.582,17.508 C54.868,17.508 55.169,17.464 55.482,17.376 C57.053,16.933 57.8,15.692 57.384,14.214 L56.23,10.118" id="Fill-5" fill="#262E64"></path>
            <polyline id="Fill-6" fill="#262E64" points="63.884 8.852 58.518 9.621 58.662 10.631 60.793 10.326 61.587 15.868 62.693 15.71 61.899 10.167 64.03 9.862 63.884 8.852"></polyline>
            <path d="M67.434,14.291 L67.387,9.661 L68.861,9.646 L68.884,9.646 C70.014,9.646 70.644,10.448 70.658,11.907 C70.666,12.653 70.508,13.264 70.201,13.674 C69.91,14.062 69.485,14.27 68.969,14.275 L67.434,14.291 Z M69,8.652 L68.965,8.652 L66.26,8.68 L66.327,15.295 L68.998,15.268 C71.089,15.247 71.817,13.484 71.801,11.842 C71.792,10.902 71.526,10.104 71.031,9.534 C70.53,8.956 69.828,8.652 69,8.652 L69,8.652 Z" id="Fill-7" fill="#262E64"></path>
            <path d="M78.939,12.757 C78.841,13.468 78.567,14.049 78.144,14.436 C77.717,14.829 77.162,14.992 76.538,14.906 C75.285,14.734 74.605,13.667 74.808,12.189 C74.996,10.838 75.798,10.017 76.891,10.017 C76.995,10.017 77.1,10.024 77.209,10.039 C78.462,10.212 79.143,11.279 78.939,12.757 Z M77.348,9.028 C74.839,8.687 73.852,10.754 73.675,12.033 C73.5,13.313 73.877,15.571 76.402,15.917 C76.584,15.942 76.762,15.954 76.936,15.954 C77.791,15.954 78.527,15.651 79.086,15.062 C79.599,14.522 79.958,13.739 80.072,12.913 C80.186,12.088 80.052,11.236 79.703,10.577 C79.246,9.714 78.432,9.178 77.348,9.028 L77.348,9.028 Z" id="Fill-8" fill="#262E64"></path>
            <path d="M86.929,14.77 C86.727,15.459 86.369,15.992 85.895,16.313 C85.411,16.639 84.841,16.717 84.239,16.543 C83.636,16.367 83.196,15.991 82.965,15.457 C82.738,14.931 82.724,14.288 82.926,13.599 C83.273,12.415 84.054,11.734 85.001,11.734 C85.2,11.734 85.406,11.764 85.617,11.826 C86.218,12.002 86.659,12.377 86.89,12.911 C87.117,13.438 87.13,14.081 86.929,14.77 Z M85.903,10.846 C83.46,10.137 82.191,12.039 81.828,13.278 C81.595,14.078 81.602,14.94 81.85,15.643 C82.174,16.565 82.901,17.215 83.952,17.522 C84.308,17.626 84.65,17.678 84.978,17.678 C85.466,17.678 85.921,17.563 86.339,17.333 C87.11,16.91 87.741,16.072 88.026,15.091 C88.315,14.109 88.235,13.063 87.813,12.291 C87.43,11.591 86.788,11.105 85.903,10.846 L85.903,10.846 Z" id="Fill-9" fill="#262E64"></path>
            <path d="M94.445,16.389 C94.161,17.006 93.724,17.126 92.981,16.784 L91.285,16.004 L92.082,14.275 L93.913,15.117 C94.341,15.314 94.79,15.637 94.445,16.389 Z M94.272,14.188 L91.482,12.906 L88.77,18.803 L88.716,18.92 L89.73,19.388 L90.871,16.907 L92.646,17.723 C93.49,18.112 93.342,18.615 93.14,19.057 C93.135,19.068 92.659,20.119 92.599,20.607 L92.587,20.7 L93.749,21.234 L93.894,20.92 L93.849,20.859 C93.707,20.663 93.706,20.581 93.841,20.27 L94.274,19.202 C94.57,18.479 94.421,18.109 94.215,17.843 C94.704,17.756 95.182,17.525 95.52,16.786 C96.016,15.71 95.573,14.787 94.272,14.188 L94.272,14.188 Z" id="Fill-10" fill="#262E64"></path>
            <path d="M127.722,70 C127.722,85.546 121.534,99.666 111.504,110.055 L112.602,110.736 C122.74,100.138 128.988,85.789 128.988,70 C128.988,48.513 117.436,29.679 100.221,19.365 L99.43,20.37 C116.354,30.444 127.722,48.915 127.722,70" id="Fill-11" fill="#E26230"></path>
            <path d="M30.784,114.015 L31.559,113.014 C19.736,102.436 12.277,87.075 12.277,70 C12.277,49.087 23.457,30.738 40.152,20.611 L39.352,19.617 C22.371,29.985 11.012,48.69 11.012,70 C11.012,87.482 18.663,103.204 30.784,114.015" id="Fill-12" fill="#E26230"></path>
            <path d="M38.07,118.107 L40.207,116.506 L39.537,119.066 L38.07,118.107 Z M34.457,119.398 L35.482,120.069 L37.166,118.798 L39.3,120.196 L38.777,122.226 L39.851,122.927 L41.58,115.603 L40.556,114.933 L34.457,119.398 L34.457,119.398 Z" id="Fill-13" fill="#262E64"></path>
            <path d="M47.107,119.846 C48.221,120.375 48.461,121.454 47.782,122.883 C47.439,123.607 46.997,124.123 46.506,124.375 C46.042,124.615 45.531,124.615 45.03,124.375 L43.534,123.665 L45.672,119.165 L47.107,119.846 Z M47.668,118.954 L45.056,117.714 L42.02,124.104 L44.598,125.33 C45.041,125.539 45.48,125.644 45.908,125.644 C46.392,125.644 46.86,125.51 47.298,125.242 C48.158,124.715 48.669,123.83 48.897,123.35 C49.794,121.461 49.312,119.735 47.668,118.954 L47.668,118.954 Z" id="Fill-14" fill="#262E64"></path>
            <polyline id="Fill-15" fill="#262E64" points="52.118 126.718 52.113 120.858 50.877 120.446 51.086 127.97 52.183 128.336 56.868 122.447 55.625 122.03 52.118 126.718"></polyline>
            <polyline id="Fill-16" fill="#262E64" points="57.092 129.752 62.283 130.762 62.489 129.707 58.454 128.923 58.839 126.939 62.501 127.651 62.708 126.597 59.044 125.885 59.394 124.087 63.364 124.859 63.569 123.806 58.443 122.808 57.092 129.752"></polyline>
            <polyline id="Fill-17" fill="#262E64" points="69.714 129.49 66.772 124.113 65.482 124.044 65.111 130.978 65.104 131.107 66.252 131.169 66.531 125.959 69.53 131.344 70.763 131.412 71.143 124.348 69.993 124.285 69.714 129.49"></polyline>
            <polyline id="Fill-18" fill="#262E64" points="78.443 123.884 72.669 124.338 72.754 125.409 75.053 125.23 75.523 131.212 76.699 131.119 76.229 125.137 78.53 124.957 78.443 123.884"></polyline>
            <path d="M85.486,122.619 L85.46,122.493 L84.307,122.738 L85.228,127.083 C85.359,127.701 85.281,128.197 84.995,128.555 C84.711,128.912 84.275,129.066 83.959,129.134 C83.657,129.197 83.213,129.23 82.819,129.01 C82.427,128.791 82.16,128.365 82.028,127.742 L81.137,123.542 L81.111,123.416 L79.956,123.661 L80.928,128.238 C81.074,128.926 81.434,129.5 81.943,129.854 C82.346,130.134 82.836,130.276 83.387,130.276 C83.632,130.276 83.888,130.248 84.155,130.191 C85.862,129.829 86.745,128.556 86.406,126.949 L85.486,122.619" id="Fill-19" fill="#262E64"></path>
            <path d="M92.421,123.231 C92.277,123.421 92.029,123.577 91.663,123.71 L89.779,124.395 L89.075,122.462 L91.111,121.721 C91.589,121.546 92.179,121.454 92.487,122.296 C92.627,122.683 92.606,122.989 92.421,123.231 Z M95.388,126.159 C95.133,126.116 95.065,126.049 94.932,125.711 L94.456,124.573 C94.137,123.791 93.741,123.627 93.383,123.584 C93.693,123.151 93.887,122.617 93.587,121.793 C93.154,120.606 92.126,120.238 90.692,120.761 L87.61,121.882 L89.982,128.406 L90.026,128.527 L91.134,128.125 L90.135,125.378 L92.11,124.659 C93.054,124.318 93.322,124.817 93.502,125.309 C93.506,125.321 93.937,126.48 94.257,126.894 L94.314,126.968 L95.587,126.506 L95.462,126.171 L95.388,126.159 L95.388,126.159 Z" id="Fill-20" fill="#262E64"></path>
            <polyline id="Fill-21" fill="#262E64" points="98.666 123.834 97.726 122.046 101.028 120.31 100.528 119.358 97.226 121.094 96.373 119.473 99.954 117.593 99.454 116.64 94.83 119.071 98.062 125.22 98.121 125.334 102.805 122.874 102.304 121.921 98.666 123.834"></polyline>
            <path d="M108.433,116.652 C107.844,115.82 106.991,115.597 105.963,116.01 L104.115,116.765 C103.642,116.956 103.342,116.896 103.111,116.569 C102.942,116.329 102.877,116.086 102.918,115.847 C102.996,115.403 103.418,115.048 103.664,114.876 C103.952,114.672 104.95,114.084 105.667,115.007 L105.742,115.104 L106.661,114.457 L106.578,114.351 C105.634,113.15 104.423,113.06 102.975,114.08 C102.325,114.538 101.931,115.111 101.834,115.734 C101.751,116.275 101.896,116.843 102.241,117.334 C102.601,117.843 103.285,118.348 104.508,117.854 L105.835,117.314 C106.886,116.892 107.209,116.914 107.561,117.417 C108.092,118.168 107.204,118.917 106.796,119.204 C106.367,119.507 105.282,120.095 104.521,119.015 L104.446,118.91 L103.53,119.556 L103.604,119.662 C103.95,120.155 104.391,120.624 105.255,120.728 C105.357,120.741 105.465,120.749 105.582,120.749 C106.037,120.749 106.61,120.615 107.406,120.054 C107.742,119.817 108.351,119.317 108.654,118.633 C108.95,117.964 108.874,117.278 108.433,116.652" id="Fill-22" fill="#262E64"></path>
            <path d="M50.606,99.479 C50.606,100.436 48.643,101.212 46.222,101.212 C43.8,101.212 41.837,100.436 41.837,99.479 C41.837,98.521 43.8,97.745 46.222,97.745 C48.643,97.745 50.606,98.521 50.606,99.479" id="Fill-23" fill="#E26230"></path>
            <path d="M70.973,99.479 C70.973,100.587 69.464,101.486 67.603,101.486 C65.742,101.486 64.233,100.587 64.233,99.479 C64.233,98.37 65.742,97.471 67.603,97.471 C69.464,97.471 70.973,98.37 70.973,99.479" id="Fill-24" fill="#E26230"></path>
            <path d="M101.806,101.954 C101.806,103.057 100.514,103.952 98.919,103.952 C97.325,103.952 96.032,103.057 96.032,101.954 C96.032,100.85 97.325,99.955 98.919,99.955 C100.514,99.955 101.806,100.85 101.806,101.954" id="Fill-25" fill="#E26230"></path>
            <path d="M88.347,99.479 C88.347,100.209 87.162,100.802 85.7,100.802 C84.239,100.802 83.054,100.209 83.054,99.479 C83.054,98.748 84.239,98.156 85.7,98.156 C87.162,98.156 88.347,98.748 88.347,99.479" id="Fill-26" fill="#E26230"></path>
            <path d="M74.837,104.219 C74.837,104.871 74.012,105.4 72.995,105.4 C71.977,105.4 71.152,104.871 71.152,104.219 C71.152,103.566 71.977,103.037 72.995,103.037 C74.012,103.037 74.837,103.566 74.837,104.219" id="Fill-27" fill="#E26230"></path>
            <path d="M81.49,105.4 C81.49,105.803 80.888,106.13 80.145,106.13 C79.402,106.13 78.799,105.803 78.799,105.4 C78.799,104.997 79.402,104.671 80.145,104.671 C80.888,104.671 81.49,104.997 81.49,105.4" id="Fill-28" fill="#E26230"></path>
            <path d="M105.973,80.947 L105.41,80.188 L106.259,80.188 L104.67,77.34 L105.889,77.34 L103.636,72.617 L101.207,77.34 L102.259,77.34 L101.049,80.261 L101.858,80.249 L101.364,80.947 L100.485,80.947 L100.163,80.513 L100.787,80.513 L99.619,78.421 L100.515,78.421 L98.86,74.952 L97.075,78.421 L97.848,78.421 L97.192,80.005 L96.136,78.045 L97.067,78.045 L95.348,74.315 L93.494,78.045 L94.296,78.045 L93.373,80.353 L93.99,80.343 L93.578,80.947 L92.53,80.947 L91.998,80.11 L92.645,80.11 L91.432,77.578 L92.363,77.578 L90.644,73.38 L88.79,77.578 L89.592,77.578 L88.669,80.175 L89.286,80.164 L88.811,80.947 L87.88,80.947 L87.245,80.003 L88.02,80.003 L86.57,77.135 L87.682,77.135 L85.627,72.38 L83.41,77.135 L84.37,77.135 L83.266,80.076 L84.004,80.064 L83.438,80.947 L81.347,80.947 L81.099,80.578 L81.681,80.578 L80.59,78.421 L81.427,78.421 L79.881,74.844 L78.214,78.421 L78.936,78.421 L78.106,80.633 L78.661,80.624 L78.453,80.947 L73.152,80.947 L56.402,81.441 L55.799,80.627 L56.422,80.627 L55.459,78.686 L56.082,78.425 L54.496,75.066 L52.711,78.535 L53.363,78.755 L52.541,80.792 L53.023,80.792 L52.537,81.554 L52.427,81.558 L51.302,80.068 L52.149,80.068 L50.84,77.48 L51.687,77.131 L49.532,72.654 L47.107,77.278 L47.992,77.572 L47.046,79.875 L45.891,77.48 L46.698,77.131 L44.643,72.654 L42.331,77.278 L43.175,77.572 L42.11,80.288 L42.734,80.288 L41.755,81.872 L40.197,81.918 L41.486,81.828 L40.557,80.452 L41.125,80.452 L40.247,78.51 L40.815,78.249 L39.369,74.891 L37.742,78.359 L38.336,78.58 L37.595,80.597 L36.73,78.686 L37.298,78.425 L35.852,75.066 L34.226,78.535 L34.819,78.755 L34.071,80.792 L34.51,80.792 L33.796,82.023 L32.624,80.396 L33.431,80.396 L32.183,77.808 L32.991,77.46 L30.935,72.982 L28.623,77.606 L29.467,77.9 L28.403,80.616 L29.027,80.616 L28,82.277 L16.168,82.626 L31.237,69.442 L38.496,70.605 L58.907,59.875 L69.591,62.978 L82.193,53.928 L107.672,73.191 L119.901,80.947 L105.973,80.947 Z M97.278,80.947 L97.168,80.947 L96.702,80.295 L97.072,80.295 L96.96,80.567 L97.554,80.558 L97.278,80.947 Z M47.037,81.048 L46.331,80.068 L46.966,80.068 L46.876,80.288 L47.53,80.288 L47.037,81.048 Z M37.567,81.408 L37.04,80.627 L37.608,80.627 L37.603,80.617 L38.026,80.617 L37.567,81.408 Z M122.913,81.313 C122.913,81.313 122.855,81.305 122.765,81.293 L113.979,72.911 L101.834,58.174 L95.208,60.046 L77.787,40.28 L67.604,45.894 L56.93,28.468 L33.988,64.607 L27.118,60.981 L15.629,81.501 L15.497,81.799 L15.282,82.286 C15.248,82.332 15.226,82.378 15.22,82.426 L15.216,82.435 L15.222,82.444 C15.219,82.511 15.337,82.694 15.422,82.763 L15.423,82.764 L15.424,82.764 C15.75,83.029 16.891,83.694 20.366,84.034 C20.366,84.034 41.602,85.498 43.657,85.482 C43.657,85.482 32.215,86.792 35.248,89.825 C35.248,89.825 45.173,94.374 62.13,94.374 C62.13,94.374 93.492,95.201 96.8,93.96 C96.8,93.96 114.308,92.375 116.031,89.273 C116.031,89.273 118.03,87.412 107.139,85.138 C107.129,85.135 107.12,85.134 107.109,85.131 C109.318,85.082 123.021,84.699 125.628,82.725 C125.628,82.725 126.435,82.341 122.913,81.313 L122.913,81.313 Z" id="Fill-29" fill="#E26230"></path>
            <path d="M122.913,81.313 C122.913,81.313 122.855,81.305 122.765,81.293 L122.505,81.045 L111.5,80.971 L109.113,80.947 L105.973,80.947 L105.949,80.915 L101.419,80.869 L101.364,80.947 L100.485,80.947 L100.42,80.859 L97.362,80.828 L97.278,80.947 L97.168,80.947 L97.081,80.826 L93.685,80.791 L93.578,80.947 L92.53,80.947 L92.423,80.778 L88.935,80.743 L88.811,80.947 L87.88,80.947 L87.734,80.731 L83.604,80.689 L83.438,80.947 L81.347,80.947 L81.157,80.664 L78.651,80.639 L78.453,80.947 L73.152,80.947 L56.402,81.441 L56.24,81.223 L52.667,81.351 L52.537,81.554 L52.427,81.558 L52.282,81.365 L41.836,81.74 L41.755,81.872 L40.197,81.918 L41.486,81.828 L41.436,81.754 L28.025,82.236 L28,82.277 L21.73,82.462 L15.362,82.691 C15.383,82.715 15.403,82.747 15.422,82.763 L15.423,82.764 L15.424,82.764 C15.75,83.029 16.891,83.694 20.366,84.034 C20.366,84.034 41.602,85.498 43.657,85.482 C43.657,85.482 32.215,86.792 35.248,89.825 C35.248,89.825 45.173,94.374 62.13,94.374 C62.13,94.374 93.492,95.201 96.8,93.96 C96.8,93.96 114.308,92.375 116.031,89.273 C116.031,89.273 118.03,87.412 107.139,85.138 C107.129,85.135 107.12,85.134 107.109,85.131 C109.318,85.082 123.021,84.699 125.628,82.725 C125.628,82.725 126.435,82.341 122.913,81.313" id="Fill-30" fill="#262E64"></path>
            <path d="M46.966,80.068 L46.876,80.288 L47.53,80.288 L47.037,81.048 L46.331,80.068 L46.966,80.068 Z M52.314,81.407 L51.302,80.068 L52.149,80.068 L50.84,77.48 L51.687,77.131 L49.532,72.654 L47.107,77.278 L47.992,77.572 L47.046,79.875 L45.891,77.48 L46.698,77.131 L44.643,72.654 L42.331,77.278 L43.175,77.572 L42.11,80.288 L42.734,80.288 L41.821,81.765 L52.314,81.407 L52.314,81.407 Z" id="Fill-31" fill="#E26230"></path>
            <polyline id="Fill-32" fill="#E26230" points="56.277 81.272 55.799 80.627 56.422 80.627 55.459 78.686 56.082 78.425 54.496 75.066 52.711 78.535 53.362 78.755 52.541 80.792 53.023 80.792 52.638 81.396 56.277 81.272"></polyline>
            <path d="M37.608,80.627 L37.603,80.617 L38.026,80.617 L37.567,81.408 L37.04,80.627 L37.608,80.627 Z M41.452,81.777 L40.557,80.452 L41.125,80.452 L40.247,78.51 L40.815,78.249 L39.369,74.891 L37.742,78.359 L38.336,78.58 L37.595,80.597 L36.73,78.686 L37.298,78.425 L35.852,75.066 L34.226,78.535 L34.819,78.755 L34.071,80.792 L34.51,80.792 L33.796,82.023 L32.624,80.396 L33.431,80.396 L32.183,77.808 L32.991,77.46 L30.935,72.982 L28.623,77.606 L29.467,77.9 L28.403,80.616 L29.027,80.616 L28.026,82.234 L41.452,81.777 L41.452,81.777 Z" id="Fill-33" fill="#E26230"></path>
            <polyline id="Fill-34" fill="#E26230" points="92.517 80.926 91.998 80.11 92.645 80.11 91.432 77.578 92.363 77.578 90.644 73.38 88.79 77.578 89.592 77.578 88.669 80.175 89.286 80.164 88.82 80.931 92.517 80.926"></polyline>
            <polyline id="Fill-35" fill="#E26230" points="81.344 80.943 81.099 80.578 81.681 80.578 80.59 78.421 81.427 78.421 79.881 74.844 78.214 78.421 78.936 78.421 78.106 80.633 78.661 80.624 78.453 80.947 81.344 80.943"></polyline>
            <path d="M15.342,82.666 L18.87,82.546 L16.168,82.626 L31.237,69.441 L38.496,70.605 L58.907,59.875 L69.591,62.978 L82.193,53.928 L107.672,73.191 L119.801,80.884 L122.332,80.88 L113.979,72.911 L101.833,58.174 L95.208,60.046 L77.787,40.28 L67.604,45.894 L56.93,28.468 L33.988,64.607 L27.118,60.981 L15.63,81.501 L15.629,81.501 L15.282,82.286 C15.248,82.332 15.226,82.378 15.22,82.426 L15.216,82.435 L15.222,82.444 C15.22,82.491 15.278,82.585 15.342,82.666" id="Fill-36" fill="#E26230"></path>
            <polyline id="Fill-37" fill="#E26230" points="105.942 80.905 105.41 80.188 106.259 80.188 104.67 77.34 105.889 77.34 103.636 72.617 101.207 77.34 102.259 77.34 101.049 80.261 101.858 80.249 101.389 80.912 105.942 80.905"></polyline>
            <polyline id="Fill-38" fill="#E26230" points="87.87 80.933 87.245 80.003 88.02 80.003 86.57 77.135 87.682 77.135 85.627 72.38 83.41 77.135 84.37 77.135 83.266 80.076 84.004 80.064 83.443 80.94 87.87 80.933"></polyline>
            <polyline id="Fill-39" fill="#E26230" points="97.148 80.919 96.702 80.295 97.072 80.295 96.96 80.567 97.554 80.558 97.299 80.918 100.46 80.914 100.163 80.513 100.787 80.513 99.619 78.421 100.515 78.421 98.86 74.952 97.075 78.421 97.848 78.421 97.192 80.005 96.136 78.045 97.067 78.045 95.348 74.315 93.493 78.045 94.296 78.045 93.373 80.353 93.99 80.343 93.594 80.924 97.148 80.919"></polyline>
        </g>
    </g>
</svg>