<?xml version="1.0" encoding="UTF-8"?>
<svg width="140px" height="140px" viewBox="0 0 140 140" version="1.1" xmlns="http://www.w3.org/2000/svg" xmlns:xlink="http://www.w3.org/1999/xlink">
    <!-- Generator: Sketch 42 (36781) - http://www.bohemiancoding.com/sketch -->
    <title>vc-you_4c</title>
    <desc>Created with Sketch.</desc>
    <defs>
        <polygon id="path-1" points="0.06 140 139.529 140 139.529 0.471 0.06 0.471"></polygon>
    </defs>
    <g id="LLP" stroke="none" stroke-width="1" fill="none" fill-rule="evenodd">
        <g id="vc-you_4c">
            <path d="M69.196,127.543 C54.612,127.543 40.027,121.992 28.924,110.889 C6.718,88.682 6.718,52.549 28.924,30.343 C32.441,26.826 36.387,23.789 40.65,21.316 C40.956,21.139 41.347,21.242 41.524,21.548 C41.701,21.854 41.597,22.245 41.292,22.422 C37.124,24.839 33.267,27.809 29.828,31.247 C8.121,52.955 8.121,88.276 29.828,109.985 C40.681,120.837 54.941,126.264 69.196,126.265 C83.456,126.267 97.71,120.84 108.564,109.984 C130.272,88.276 130.272,52.955 108.564,31.247 C105.411,28.093 101.899,25.329 98.125,23.031 C97.824,22.847 97.728,22.453 97.912,22.152 C98.097,21.851 98.488,21.754 98.791,21.938 C102.651,24.29 106.243,27.117 109.47,30.343 C131.675,52.549 131.675,88.682 109.47,110.889 C98.366,121.992 83.781,127.543 69.196,127.543" id="Fill-1" fill="#1A1918"></path>
            <polyline id="Fill-2" fill="#1A1918" points="50.663 19.299 45.989 13.258 44.499 13.777 50.51 21.132 50.564 21.198 51.91 20.729 52.05 11.146 50.548 11.669 50.663 19.299"></polyline>
            <path d="M61.078,14.961 L61.077,15.06 C61.061,17.183 59.736,17.662 59.166,17.77 C58.208,17.953 57.427,17.758 56.852,17.192 C56.34,16.691 55.978,15.894 55.776,14.823 C55.578,13.784 55.69,12.874 56.099,12.194 C56.475,11.568 57.08,11.159 57.848,11.014 C58.568,10.877 59.867,10.858 60.463,12.271 L60.5,12.361 L61.857,12.104 L61.816,11.974 C61.403,10.656 60.052,9.285 57.607,9.745 C55.096,10.222 53.816,12.336 54.346,15.131 C54.911,18.111 56.688,19.152 58.402,19.152 C58.68,19.152 58.957,19.124 59.227,19.073 C60.016,18.923 62.583,18.176 62.447,14.843 L62.441,14.703 L61.078,14.961" id="Fill-3" fill="#1A1918"></path>
            <polyline id="Fill-4" fill="#1A1918" points="63.299 14.012 63.401 15.348 66.624 15.104 66.522 13.767 63.299 14.012"></polyline>
            <polyline id="Fill-5" fill="#1A1918" points="73.638 8.945 71.136 13.003 68.749 8.876 67.084 8.853 70.412 14.288 70.361 17.899 71.787 17.92 71.836 14.309 75.315 8.968 73.638 8.945"></polyline>
            <path d="M82.149,14.637 C81.988,15.627 81.584,16.429 80.979,16.957 C80.362,17.496 79.575,17.706 78.706,17.565 C77.838,17.424 77.159,16.977 76.744,16.27 C76.337,15.578 76.207,14.689 76.367,13.7 C76.527,12.711 76.932,11.909 77.537,11.381 C78.029,10.951 78.629,10.73 79.293,10.73 C79.462,10.73 79.634,10.744 79.81,10.773 L79.809,10.773 C81.564,11.057 82.482,12.574 82.149,14.637 Z M80.015,9.498 C78.549,9.261 77.274,9.631 76.337,10.57 C75.621,11.288 75.106,12.343 74.925,13.466 C74.742,14.588 74.897,15.753 75.349,16.66 C75.941,17.848 77.031,18.601 78.501,18.84 C78.801,18.888 79.086,18.911 79.357,18.911 C82.156,18.911 83.334,16.453 83.591,14.872 C83.872,13.137 83.436,10.054 80.015,9.498 L80.015,9.498 Z" id="Fill-6" fill="#1A1918"></path>
            <path d="M91.942,12.836 L90.159,18.21 C89.532,20.094 88.139,19.946 87.363,19.689 C86.62,19.442 85.465,18.743 86.097,16.838 L87.835,11.601 L87.873,11.486 L86.52,11.037 L84.641,16.701 C84.359,17.548 84.387,18.406 84.716,19.118 C85.093,19.932 85.856,20.55 86.923,20.904 C87.419,21.069 87.897,21.149 88.347,21.149 C89.805,21.149 90.964,20.309 91.465,18.799 L93.257,13.4 L93.296,13.286 L91.942,12.836" id="Fill-7" fill="#1A1918"></path>
            <path d="M85.468,39.759 C84.218,38.511 82.194,38.511 80.945,39.759 L72.993,47.712 L72.993,25.673 C72.993,23.907 71.562,22.476 69.796,22.476 C68.03,22.476 66.599,23.907 66.599,25.673 L66.599,47.545 L58.813,39.759 C57.564,38.511 55.539,38.511 54.291,39.759 C53.042,41.008 53.042,43.032 54.291,44.281 L67.618,57.608 C68.243,58.232 69.061,58.545 69.879,58.545 C70.698,58.545 71.515,58.232 72.14,57.608 L85.468,44.281 C86.716,43.032 86.716,41.008 85.468,39.759" id="Fill-8" fill="#F5B827"></path>
            <path d="M78.331,63.924 C78.168,63.924 78.004,63.862 77.879,63.737 C77.629,63.487 77.629,63.082 77.879,62.832 L109.129,31.582 C109.381,31.332 109.783,31.332 110.035,31.582 C110.284,31.832 110.284,32.236 110.035,32.486 L78.784,63.737 C78.658,63.862 78.495,63.924 78.331,63.924" id="Fill-9" fill="#1A1918"></path>
            <path d="M118.451,68.299 L94.182,68.299 L101.531,60.949 C102.779,59.7 102.779,57.676 101.53,56.428 C100.283,55.179 98.258,55.179 97.008,56.428 L83.682,69.755 C82.433,71.004 82.433,73.028 83.682,74.277 L97.008,87.604 C97.633,88.227 98.451,88.54 99.27,88.54 C100.088,88.54 100.906,88.227 101.531,87.604 C102.779,86.354 102.779,84.33 101.531,83.081 L93.143,74.694 L118.451,74.694 C120.217,74.694 121.649,73.262 121.649,71.496 C121.649,69.73 120.217,68.299 118.451,68.299" id="Fill-10" fill="#F5B827"></path>
            <path d="M108.064,111.166 C107.901,111.166 107.737,111.104 107.612,110.979 L77.049,80.416 C76.799,80.166 76.799,79.761 77.049,79.511 C77.3,79.262 77.703,79.262 77.954,79.511 L108.517,110.074 C108.767,110.324 108.767,110.729 108.517,110.979 C108.391,111.104 108.228,111.166 108.064,111.166" id="Fill-11" fill="#1A1918"></path>
            <path d="M84.863,99.144 L71.536,85.818 C70.287,84.57 68.262,84.57 67.014,85.818 L53.687,99.144 C52.438,100.394 52.438,102.418 53.687,103.666 C54.311,104.291 55.129,104.603 55.948,104.603 C56.766,104.603 57.584,104.291 58.208,103.667 L66.597,95.278 L66.597,117.73 C66.597,119.496 68.029,120.928 69.795,120.928 C71.561,120.928 72.992,119.496 72.992,117.73 L72.992,96.318 L80.34,103.667 C81.59,104.914 83.614,104.914 84.863,103.667 C86.111,102.418 86.111,100.394 84.863,99.144" id="Fill-12" fill="#F5B827"></path>
            <path d="M30.342,111.262 C30.179,111.262 30.015,111.199 29.89,111.074 C29.64,110.824 29.64,110.42 29.89,110.169 L61.584,78.475 C61.833,78.226 62.239,78.226 62.488,78.475 C62.738,78.726 62.738,79.13 62.488,79.381 L30.794,111.074 C30.67,111.199 30.506,111.262 30.342,111.262" id="Fill-13" fill="#1A1918"></path>
            <path d="M55.472,69.15 L42.145,55.823 C40.897,54.575 38.872,54.575 37.624,55.823 C36.375,57.072 36.375,59.096 37.624,60.345 L46.012,68.733 L20.252,68.733 C18.486,68.733 17.055,70.165 17.055,71.931 C17.055,73.697 18.486,75.128 20.252,75.128 L44.973,75.128 L37.624,82.478 C36.375,83.726 36.375,85.751 37.624,87 C38.248,87.623 39.066,87.936 39.884,87.936 C40.703,87.936 41.521,87.623 42.145,86.999 L55.472,73.671 C56.072,73.072 56.409,72.258 56.409,71.411 C56.409,70.563 56.072,69.75 55.472,69.15" id="Fill-14" fill="#F5B827"></path>
            <path d="M61.666,64.116 C61.503,64.116 61.339,64.053 61.214,63.929 L29.258,31.973 C29.008,31.723 29.008,31.319 29.258,31.069 C29.508,30.819 29.913,30.819 30.163,31.069 L62.118,63.024 C62.368,63.274 62.368,63.679 62.118,63.929 C61.994,64.053 61.829,64.116 61.666,64.116" id="Fill-15" fill="#1A1918"></path>
            <g id="Group-19">
                <mask id="mask-2" fill="white">
                    <use xlink:href="#path-1"></use>
                </mask>
                <g id="Clip-17"></g>
                <path d="M70.321,67.424 C68.178,67.424 66.434,69.168 66.434,71.312 C66.434,73.455 68.178,75.197 70.321,75.197 C72.464,75.197 74.207,73.455 74.207,71.312 C74.207,69.168 72.464,67.424 70.321,67.424 Z M70.321,78.076 C66.591,78.076 63.556,75.041 63.556,71.312 C63.556,67.581 66.591,64.547 70.321,64.547 C74.051,64.547 77.086,67.581 77.086,71.312 C77.086,75.041 74.051,78.076 70.321,78.076 L70.321,78.076 Z" id="Fill-16" fill="#1A1918" mask="url(#mask-2)"></path>
                <path d="M69.764,4.308 C33.412,4.308 3.837,33.883 3.837,70.235 C3.837,106.588 33.412,136.163 69.764,136.163 C106.117,136.163 135.692,106.588 135.692,70.235 C135.692,33.883 106.117,4.308 69.764,4.308 Z M69.764,140 C31.296,140 0,108.704 0,70.235 C0,31.767 31.296,0.471 69.764,0.471 C108.233,0.471 139.529,31.767 139.529,70.235 C139.529,108.704 108.233,140 69.764,140 L69.764,140 Z" id="Fill-18" fill="#1A1918" mask="url(#mask-2)"></path>
            </g>
        </g>
    </g>
</svg>