<?xml version="1.0" encoding="UTF-8"?>
<svg width="100px" height="100px" viewBox="0 0 100 100" version="1.1" xmlns="http://www.w3.org/2000/svg" xmlns:xlink="http://www.w3.org/1999/xlink">
    <!-- Generator: Sketch 42 (36781) - http://www.bohemiancoding.com/sketch -->
    <title>fire_safety</title>
    <desc>Created with Sketch.</desc>
    <defs></defs>
    <g id="help_center_icons" stroke="none" stroke-width="1" fill="none" fill-rule="evenodd">
        <g id="fire_safety">
            <rect id="Rectangle" x="0" y="0" width="100" height="100"></rect>
            <g id="emergency" transform="translate(16.000000, 13.000000)" fill-rule="nonzero" fill="#FFFFFF">
                <g id="Group">
                    <path d="M33.9175238,14.5411609 C45.1370747,14.5411609 54.2364728,23.5778851 54.2364728,34.7243918 L54.2364728,58.0722964 C54.2364728,58.819067 53.6266272,59.419325 52.8746034,59.419325 L14.9541849,59.419325 C14.2030553,59.419325 13.5967865,58.819067 13.5967865,58.0722964 L13.5967865,34.7243918 C13.5967865,23.5778851 22.6970788,14.5411609 33.9175238,14.5411609 Z M34.8546474,19.259757 C34.8161967,18.3833448 34.068644,17.700507 33.1860667,17.739577 C24.026757,18.1285016 16.7962407,25.6184071 16.7962407,34.7252797 L16.7962407,51.3851027 C16.7962407,52.2615149 17.515179,52.9709915 18.3977563,52.9709915 C19.2856987,52.9709915 19.9992718,52.2615149 19.9992718,51.3851027 L19.9992718,34.7243918 C19.9992718,27.3161782 25.8732839,21.2345703 33.3219854,20.9149063 C34.2054569,20.8776121 34.8913097,20.1423849 34.8546474,19.259757 Z" id="Shape"></path>
                    <path d="M31.5908106,2.96221989 C31.5908106,1.69066747 32.6316616,0.65619919 33.9175238,0.65619919 C35.1980209,0.65619919 36.2388719,1.69066747 36.2388719,2.96221989 L36.2388719,7.80956952 C36.2388719,9.08644968 35.1980209,10.1147023 33.9175238,10.1147023 C32.6316616,10.1147023 31.5908106,9.08644968 31.5908106,7.80956952 L31.5908106,2.96221989 L31.5908106,2.96221989 Z" id="Shape"></path>
                    <path d="M11.5758902,11.8737423 C10.7532245,10.899655 10.879307,9.44429579 11.8647174,8.62737663 C12.8465511,7.80512974 14.3112538,7.93477126 15.1339195,8.9079706 L18.2779332,12.6267287 C19.1005989,13.600816 18.9709397,15.0561752 17.9900002,15.8730943 C17.0090608,16.6953412 15.5434639,16.5648118 14.7207982,15.5907245 L11.5758902,11.8737423 Z" id="Shape"></path>
                    <path d="M2.01776651,31.4780261 C0.754259273,31.2560372 -0.0898672875,30.059961 0.132788977,28.8052797 C0.350974232,27.5550382 1.56172356,26.7168082 2.82523079,26.9334693 L7.63067162,27.7779151 C8.89596726,27.999904 9.73562281,29.1950922 9.51117814,30.4506615 C9.29299288,31.7062307 8.08939717,32.539133 6.82499574,32.3180321 L2.01776651,31.4780261 Z" id="Shape"></path>
                    <path d="M56.252898,11.8737423 C57.0755638,10.899655 56.9494813,9.44429579 55.9631766,8.62737663 C54.9831314,7.80512974 53.5228997,7.93477126 52.6939746,8.9079706 L49.5553261,12.6267287 C48.7326604,13.600816 48.864108,15.0561752 49.8450475,15.8730943 C50.8250927,16.6953412 52.2915838,16.5648118 53.1142495,15.5907245 L56.252898,11.8737423 Z" id="Shape"></path>
                    <path d="M65.8145986,31.4780261 C67.079,31.2560372 67.9240208,30.059961 67.7004703,28.8052797 C67.4769199,27.5550382 66.2733241,26.7168082 65.0071343,26.9334693 L60.1972225,27.7779151 C58.9381862,27.999904 58.0994249,29.1950922 58.3158217,30.4506615 C58.5393722,31.7062307 59.7447563,32.539133 61.0020041,32.3180321 L65.8145986,31.4780261 Z" id="Shape"></path>
                    <path d="M60.8794985,73.6230628 L6.9492898,73.6230628 C6.79191027,73.6230628 6.63900175,73.5964242 6.48609323,73.5422589 C5.78414477,73.2883036 5.4184162,72.5140063 5.68041735,71.8107455 L8.89060205,63.0563912 C9.08106704,62.5253937 9.59255051,62.1693235 10.1648397,62.1693235 L57.6693138,62.1693235 C58.2424972,62.1693235 58.7414618,62.5253937 58.9390804,63.0563912 L62.1546304,71.8107455 C62.2091767,71.9625859 62.2368969,72.1144263 62.2368969,72.2707065 C62.2360027,73.0174771 61.6306281,73.6230628 60.8794985,73.6230628 Z" id="Shape"></path>
                </g>
            </g>
        </g>
    </g>
</svg>