<?xml version="1.0" encoding="UTF-8"?>
<svg width="100px" height="100px" viewBox="0 0 100 100" version="1.1" xmlns="http://www.w3.org/2000/svg" xmlns:xlink="http://www.w3.org/1999/xlink">
    <!-- Generator: Sketch 42 (36781) - http://www.bohemiancoding.com/sketch -->
    <title>keys</title>
    <desc>Created with Sketch.</desc>
    <defs></defs>
    <g id="help_center_icons" stroke="none" stroke-width="1" fill="none" fill-rule="evenodd">
        <g id="keys">
            <rect id="Rectangle" x="0" y="0" width="100" height="100"></rect>
            <g transform="translate(9.000000, 8.000000)" id="Group" fill-rule="nonzero" fill="#FFFFFF">
                <g>
                    <g id="Shape">
                        <path d="M36.8215417,51.5441502 L36.6757386,51.5441502 C28.2941409,51.4459122 21.1156274,45.3892893 19.6067732,37.1439569 C19.0177285,33.9270784 19.3768208,30.7343432 20.4690946,27.8463123 C20.077509,27.9878417 19.6842572,28.1277059 19.3093348,28.3066989 C19.2218529,28.3483252 19.1385368,28.3974442 19.0527213,28.4407355 C18.6011481,28.6688475 18.1645718,28.9244328 17.7421593,29.2033289 C17.6496785,29.2649357 17.5530318,29.320715 17.4613841,29.3848194 C16.999813,29.7070068 16.5582378,30.0624952 16.1391579,30.4454569 C16.0500097,30.529542 15.9650273,30.6161246 15.8775454,30.7002097 C15.5026231,31.0640233 15.1468634,31.4486501 14.8152654,31.8582526 C14.7661089,31.9181945 14.7127866,31.9731411 14.6652965,32.0339155 C14.3095368,32.490972 13.9896031,32.9829946 13.693831,33.4933327 C13.6246786,33.6123838 13.5605252,33.7331 13.4963719,33.8529837 C13.2097645,34.387465 12.9456526,34.9369319 12.7315302,35.5196997 C10.2737059,42.2273575 13.7204921,49.6559824 20.4332687,52.1160952 C21.4305622,52.4807413 22.4436857,52.7005281 23.4551429,52.8120865 L27.2351935,60.9550182 L32.1141832,62.7424504 L30.3262201,67.6160546 L30.3603797,67.6901494 L35.2385362,69.4759165 L33.4514063,74.3511858 L33.4855659,74.4236155 L38.3645555,76.2102152 L36.7448909,80.6325905 L45.190642,83.7262552 L48.4516334,74.8273903 L44.0050542,65.2292041 L37.636373,51.5183419 C37.3639294,51.5308298 37.092319,51.5441502 36.8215417,51.5441502 Z"></path>
                        <path d="M80.0834165,54.5462371 L70.1862993,47.7103703 L51.5651553,34.8586745 C51.6351408,33.7064592 51.5826517,32.5317657 51.366863,31.3445844 C51.2802143,30.8708774 51.1685708,30.4071607 51.0385977,29.9542668 C50.9961065,29.8060773 50.9444505,29.6628829 50.895294,29.5180235 C50.8011469,29.2149842 50.7020007,28.9161076 50.5886908,28.6247237 C50.5228711,28.4565535 50.4470535,28.2967086 50.3779012,28.1343661 C50.262925,27.8729531 50.1487819,27.6123727 50.0188089,27.36095 C49.9338265,27.1944449 49.8455114,27.0329349 49.7563632,26.871425 C49.6247238,26.6324902 49.4872523,26.3960529 49.3414491,26.1654434 C49.2406367,26.0072635 49.1406574,25.8532463 49.0331796,25.6983966 C48.8815444,25.4744472 48.7224106,25.2563256 48.5574448,25.043199 C48.4458013,24.8975071 48.3333246,24.7518151 48.2200147,24.6119508 C48.0408851,24.3996568 47.8550902,24.194023 47.6651296,23.9908868 C47.5476539,23.8643429 47.434344,23.736134 47.3118694,23.6145853 C47.0969139,23.3989612 46.8736268,23.195825 46.6436744,22.9951863 C46.5361967,22.9002784 46.4362174,22.7987103 46.3237407,22.7079651 C45.9821448,22.4207438 45.6288846,22.1493405 45.2622938,21.8962527 C45.2431311,21.8837648 45.2231353,21.872942 45.2039726,21.8604541 C44.854045,21.6215193 44.4941196,21.399235 44.1258625,21.1902711 C43.9975557,21.1178414 43.8634168,21.0529044 43.7309443,20.9838048 C43.4659991,20.844773 43.2018872,20.7082388 42.9269441,20.5850251 C42.7703099,20.5150929 42.6070103,20.4526535 42.4462103,20.386884 C42.1912631,20.2828183 41.9363159,20.1820827 41.6747034,20.0913375 C41.501406,20.0313956 41.3264422,19.978114 41.1498121,19.9248324 C40.8906991,19.8457424 40.6307529,19.7749778 40.3683073,19.7108733 C40.3508109,19.7067107 40.3324814,19.7042131 40.314985,19.6983854 C40.1158595,24.9990752 37.9904663,30.0100461 34.1679246,33.8305055 C33.3555928,34.6438829 32.2749832,35.0901165 31.1268876,35.0901165 C29.9779589,35.0901165 28.8981825,34.6438829 28.0850175,33.8305055 C26.408698,32.1554642 26.408698,29.4281107 28.0850175,27.7522369 C30.1395921,25.7000616 31.3660048,23.0751088 31.6751074,20.2661678 C25.1664552,22.7312758 21.1322906,29.5413342 22.429522,36.6261261 C23.7159223,43.6576363 29.8163257,48.5961774 36.7115645,48.6777649 C37.0289988,48.6819276 37.3497657,48.6661096 37.6713657,48.6511241 C37.8221678,48.6419663 37.9713036,48.6419663 38.1221057,48.631976 C38.5945079,48.5911823 39.0685764,48.5312405 39.5443112,48.4438253 C40.7315654,48.2265361 41.8521667,47.8602249 42.9069482,47.3856854 L51.3052091,53.1842254 L57.1156726,52.1235879 L58.1779526,57.9279556 L58.2504376,57.9804047 L64.060901,56.9189347 L65.1190153,62.7233024 L65.1948329,62.7749189 L71.00363,61.7142815 L71.9692634,66.9775076 L82.0271806,65.1384588 L80.0834165,54.5462371 Z"></path>
                        <path d="M30.1104314,29.778604 C29.5505474,30.3380611 29.5505474,31.2446813 30.1104314,31.8041385 C30.3903735,32.0846996 30.7569642,32.2237313 31.1243881,32.2237313 C31.4909789,32.2237313 31.8575697,32.0846996 32.1383448,31.8041385 C36.3624701,27.5824017 38.0746156,21.8055074 37.3172724,16.304179 C36.7898816,12.4745618 35.0777362,8.77981373 32.139178,5.84349636 C28.5574197,2.26363679 23.8525607,0.474539525 19.1485348,0.474539525 C18.0854216,0.474539525 17.025641,0.57860521 15.9758584,0.761760816 C15.8642149,0.780908902 15.7492387,0.788401632 15.6375951,0.809214769 C15.37265,0.860831349 15.1118707,0.939088744 14.849425,1.00236068 C14.5369897,1.07645545 14.2228881,1.13889486 13.9146186,1.22964014 C13.8671284,1.24379307 13.8196383,1.26460621 13.7738144,1.27875914 C11.7625642,1.89066537 9.8437949,2.86721776 8.1008225,4.1817755 C7.42596224,4.68961604 6.77026469,5.2307576 6.15705834,5.84432888 C-1.00645825,13.0015505 -1.00645825,24.6477494 6.15705834,31.8058035 C7.30765341,32.9555212 8.59738633,33.9287435 9.98209959,34.7246379 C10.0037618,34.663031 10.0170923,34.6005916 10.0395877,34.5381522 C10.2787048,33.8854522 10.5753101,33.2369148 10.9918905,32.4618336 C11.0560439,32.3411174 11.1210304,32.2228988 11.186017,32.1088428 C10.1020747,31.462803 9.09145069,30.6877218 8.18330541,29.7794365 C2.13955694,23.7402966 2.13955694,13.9098358 8.18330541,7.86986338 C9.09728282,6.95658293 10.1062406,6.19898474 11.1668543,5.5604377 C11.7117414,5.23408771 12.2757913,4.9560242 12.8490059,4.70210392 C12.9889769,4.63966451 13.1272816,4.57972268 13.2672526,4.52311094 C13.838801,4.28833876 14.4178477,4.07937486 15.0077256,3.91619987 C15.0593815,3.90204693 15.1118707,3.89288915 15.1626935,3.8812338 C15.7159122,3.73387679 16.2757963,3.62481595 16.839013,3.53989835 C16.9848161,3.51825269 17.1297861,3.49660703 17.2755893,3.47829146 C17.8779645,3.40502922 18.4828393,3.35924032 19.0885472,3.35674274 C19.1102094,3.35674274 19.1310384,3.35258012 19.1527006,3.35258012 C19.4259773,3.35258012 19.6967546,3.37089568 19.9691981,3.38671366 C20.108336,3.39337387 20.2466407,3.39254134 20.3857785,3.40336417 C20.8240211,3.43833024 21.2630969,3.48994682 21.69884,3.56154401 C24.1125068,3.96115624 26.4436908,4.93271348 28.4824352,6.47371815 C29.0473183,6.90080372 29.5972044,7.35453011 30.1120978,7.86819833 C32.538262,10.2925125 33.9729649,13.3295655 34.4511992,16.4865021 C35.1643849,21.1911036 33.7288488,26.1612808 30.1104314,29.778604 Z"></path>
                    </g>
                </g>
            </g>
        </g>
    </g>
</svg>