<?xml version="1.0" encoding="UTF-8"?>
<svg width="100px" height="100px" viewBox="0 0 100 100" version="1.1" xmlns="http://www.w3.org/2000/svg" xmlns:xlink="http://www.w3.org/1999/xlink">
    <!-- Generator: Sketch 42 (36781) - http://www.bohemiancoding.com/sketch -->
    <title>roomate</title>
    <desc>Created with Sketch.</desc>
    <defs></defs>
    <g id="help_center_icons" stroke="none" stroke-width="1" fill="none" fill-rule="evenodd">
        <g id="roomate">
            <rect id="Rectangle" x="0" y="0" width="100" height="100"></rect>
            <g id="roommate" transform="translate(10.000000, 14.000000)" fill-rule="nonzero" fill="#FFFFFF">
                <g id="Group">
                    <path d="M22.1818182,30.4714835 C21.7102897,30.5918132 21.2315684,30.6969011 20.7336663,30.7699011 C14.7628372,31.6507143 9.39460539,28.745956 8.74245754,24.2825275 L30.3632368,21.097 C30.6381618,22.9717363 30.025974,24.82 28.7928072,26.4019341 C31.4277722,25.2916923 34.2865135,24.617044 37.2803197,24.4582088 C38.0283716,21.895989 38.2625375,19.1396374 37.8509491,16.3255275 C36.3252747,5.88973626 26.6589411,-1.32683516 16.2637363,0.20456044 C5.86773227,1.73756044 -1.32267732,11.4377363 0.204595405,21.8743297 C1.44735265,30.3752198 8.09430569,36.7382527 16.1350649,37.976044 C17.6655345,35.100967 19.7250749,32.558 22.1818182,30.4714835 Z M24.1262737,9.05681319 C25.8245754,8.80652747 27.402997,9.98575824 27.6531469,11.6896264 C27.9024975,13.3942967 26.7284715,14.9794396 25.0293706,15.2297253 C23.3310689,15.4808132 21.7518482,14.3023846 21.5024975,12.5969121 C21.2539461,10.8922418 22.427972,9.3070989 24.1262737,9.05681319 Z M11.2671329,10.9524066 C12.9654346,10.7021209 14.5438561,11.8821538 14.7932068,13.586022 C15.0433566,15.2906923 13.8685315,16.875033 12.1702298,17.1261209 C10.4711289,17.3764066 8.89270729,16.197978 8.64335664,14.4925055 C8.39320679,12.787033 9.56883117,11.2018901 11.2671329,10.9524066 Z" id="Shape"></path>
                    <path d="M62.8827173,0.106692308 C52.4323676,-0.99632967 43.0721279,6.61412088 41.9716284,17.1020549 C41.6935065,19.7581319 41.9804196,22.342011 42.7212787,24.7405824 C50.8251748,26.0417473 57.6391608,31.1597692 61.3002997,38.1854176 C70.7476523,37.9936923 78.801998,30.7763187 79.8137862,21.097 C80.9142857,10.6074615 73.3330669,1.20971429 62.8827173,0.106692308 Z M64.8991009,13.415956 C65.0789211,11.7016593 66.6061938,10.4590549 68.3140859,10.6395495 C70.0227772,10.820044 71.2599401,12.3546484 71.0825175,14.0689451 C70.9010989,15.7824396 69.3738262,17.025044 67.6659341,16.8445495 C65.9572428,16.6656593 64.7184815,15.1286484 64.8991009,13.415956 Z M51.9712288,12.0514176 C52.1526474,10.3371209 53.6815185,9.09371429 55.3878122,9.27501099 C57.0965035,9.4547033 58.3336663,10.9893077 58.1538462,12.7036044 C57.9748252,14.4170989 56.445954,15.6613077 54.7380619,15.4792088 C53.0301698,15.2995165 51.7946054,13.7649121 51.9712288,12.0514176 Z M59.6643357,30.8308681 C53.6615385,30.1971319 49.1788212,26.0473626 49.647952,21.5614725 L71.3798202,23.8557582 C70.9106893,28.340044 65.6631369,31.4638022 59.6643357,30.8308681 Z" id="Shape"></path>
                    <path d="M38.2513487,72.4825824 C50.5942058,72.6406154 60.7328671,62.7262527 60.8927073,50.3371099 C61.0517483,37.9463626 51.1736264,27.7704835 38.8291708,27.6092418 C26.4839161,27.448 16.3460539,37.363967 16.1862138,49.7547143 C16.0263736,62.1462637 25.9060939,72.3213407 38.2513487,72.4825824 Z M46.3144855,39.3453956 C48.3308691,39.3702637 49.9420579,41.0332198 49.9196803,43.057967 C49.8933067,45.0819121 48.2365634,46.7023516 46.2193806,46.6758791 C44.2021978,46.6494066 42.5878122,44.9880549 42.6141858,42.9633077 C42.642957,40.9377582 44.2981019,39.3189231 46.3144855,39.3453956 Z M51.3198801,54.4764505 C51.2519481,59.7733626 45.4497502,63.9945275 38.3616384,63.9022747 C31.2711289,63.8116264 25.5792208,59.4396484 25.647952,54.1419341 L51.3198801,54.4764505 Z M31.0441558,39.1456484 C33.0605395,39.1705165 34.6733267,40.8334725 34.6477522,42.8606264 C34.6213786,44.8845714 32.9662338,46.5034066 30.9498501,46.4769341 C28.9310689,46.4504615 27.3198801,44.7891099 27.3454545,42.7643626 C27.371029,40.7396154 29.0277722,39.1191758 31.0441558,39.1456484 Z" id="Shape"></path>
                </g>
            </g>
        </g>
    </g>
</svg>