<?xml version="1.0" encoding="UTF-8"?>
<svg width="100px" height="100px" viewBox="0 0 100 100" version="1.1" xmlns="http://www.w3.org/2000/svg" xmlns:xlink="http://www.w3.org/1999/xlink">
    <!-- Generator: Sketch 42 (36781) - http://www.bohemiancoding.com/sketch -->
    <title>hall_schedule</title>
    <desc>Created with Sketch.</desc>
    <defs></defs>
    <g id="help_center_icons" stroke="none" stroke-width="1" fill="none" fill-rule="evenodd">
        <g id="hall_schedule">
            <rect id="Rectangle" x="0" y="0" width="100" height="100"></rect>
            <g id="noun_831850_cc" transform="translate(17.000000, 15.000000)" fill-rule="nonzero" fill="#FFFFFF">
                <g id="Artboard-10">
                    <path d="M18.7177083,34.365625 C18.7177083,35.4690439 17.8232106,36.3635417 16.7197917,36.3635417 L13.803125,36.3635417 C12.6997061,36.3635417 11.8052083,35.4690439 11.8052083,34.365625 L11.8052083,31.4489583 C11.8052083,30.3455394 12.6997061,29.4510417 13.803125,29.4510417 L16.7197917,29.4510417 C17.8232106,29.4510417 18.7177083,30.3455394 18.7177083,31.4489583 L18.7177083,34.365625 Z M29.9322917,31.4489583 C29.9322917,30.3455394 29.0377939,29.4510417 27.934375,29.4510417 L25.0177083,29.4510417 C24.4878279,29.4510417 23.97965,29.6615359 23.6049679,30.0362179 C23.2302859,30.4109 23.0197917,30.9190779 23.0197917,31.4489583 L23.0197917,34.365625 C23.0197917,34.8955054 23.2302859,35.4036834 23.6049679,35.7783654 C23.97965,36.1530475 24.4878279,36.3635417 25.0177083,36.3635417 L27.934375,36.3635417 C29.0235301,36.3436633 29.8960147,35.4549614 29.8958333,34.365625 L29.9322917,31.4489583 Z M36.1958333,36.3927083 L39.1125,36.3927083 C40.2159189,36.3927083 41.1104167,35.4982106 41.1104167,34.3947917 L41.1104167,31.478125 C41.1104167,30.3747061 40.2159189,29.4802083 39.1125,29.4802083 L36.1958333,29.4802083 C35.0924144,29.4802083 34.1979167,30.3747061 34.1979167,31.478125 L34.1979167,34.3947917 C34.209905,35.4896584 35.100901,36.370899 36.1958333,36.3708333 L36.1958333,36.3927083 Z M16.7125,41.0229167 L13.7958333,41.0229167 C13.2609175,41.0151068 12.7452144,41.2221482 12.3642003,41.5976801 C11.9831862,41.973212 11.768693,42.4858605 11.76875,43.0208333 L11.76875,45.9375 C11.76875,47.0409189 12.6632478,47.9354167 13.7666667,47.9354167 L16.6833333,47.9354167 C17.2195022,47.9452024 17.7370968,47.7390362 18.1197015,47.3632883 C18.5023061,46.9875403 18.7177976,46.4737582 18.7177083,45.9375 L18.7177083,43.0208333 C18.7177119,42.4896871 18.506217,41.980401 18.1299565,41.6055087 C17.7536959,41.2306163 17.2436427,41.0209782 16.7125,41.0229167 L16.7125,41.0229167 Z M27.9270833,41.0229167 L25.0104167,41.0229167 C24.4755008,41.0151068 23.9597977,41.2221482 23.5787836,41.5976801 C23.1977695,41.973212 22.9832763,42.4858605 22.9833333,43.0208333 L22.9833333,45.9375 C22.9833333,46.4673804 23.1938275,46.9755584 23.5685096,47.3502404 C23.9431916,47.7249225 24.4513696,47.9354167 24.98125,47.9354167 L27.8979167,47.9354167 C29.0013356,47.9354167 29.8958333,47.0409189 29.8958333,45.9375 L29.8958333,43.0208333 C29.8959497,41.9287051 29.0190952,41.0388601 27.9270833,41.0229167 Z M6.3,60.1052083 L33.621875,60.1052083 C32.8447359,57.865795 32.4479337,55.5120922 32.4479167,53.1416667 L6.92708333,53.1416667 L6.92708333,24.1572917 L56.3791667,24.1572917 L56.3791667,31.9666667 C58.8046612,32.2615118 61.1607062,32.9744929 63.3427083,34.0739583 L63.3427083,14.175 C63.3386902,10.6972718 60.5204365,7.87901818 57.0427083,7.875 L50.35625,7.875 L50.35625,3.13541667 C50.35625,1.75815657 49.2397601,0.641666667 47.8625,0.641666667 L43.9541667,0.641666667 C42.5769066,0.641666667 41.4604167,1.75815657 41.4604167,3.13541667 L41.4604167,7.875 L21.875,7.875 L21.875,3.13541667 C21.8710212,1.76667667 20.7645557,0.656956912 19.3958333,0.648958333 L15.4802083,0.648958333 C14.1086375,0.652962945 12.9977546,1.76384584 12.99375,3.13541667 L12.99375,7.875 L6.3,7.875 C2.82227182,7.87901818 0.00401817639,10.6972718 0,14.175 L0,53.8052083 C0.00401817639,57.2829365 2.82227182,60.1011902 6.3,60.1052083 L6.3,60.1052083 Z M70,53.1416667 C70,62.0938573 62.7428156,69.3510417 53.790625,69.3510417 C44.8384344,69.3510417 37.58125,62.0938573 37.58125,53.1416667 C37.58125,44.189476 44.8384344,36.9322917 53.790625,36.9322917 C62.7428156,36.9322917 70,44.189476 70,53.1416667 Z M60.8708333,57.6041667 C60.8812474,56.9191734 60.6189312,56.2581366 60.1416667,55.7666667 L56.4229167,52.0479167 L56.4229167,46.2729167 C56.4229167,44.837264 55.2590902,43.6734375 53.8234375,43.6734375 C52.3877848,43.6734375 51.2239583,44.837264 51.2239583,46.2729167 L51.2239583,54.2208333 L56.4666667,59.4635417 C57.2145408,60.1897322 58.3242792,60.3981006 59.2846336,59.9926529 C60.244988,59.5872053 60.8696464,58.6465999 60.8708333,57.6041667 L60.8708333,57.6041667 Z" id="Shape"></path>
                </g>
            </g>
        </g>
    </g>
</svg>