<?xml version="1.0" encoding="UTF-8"?>
<svg width="100px" height="100px" viewBox="0 0 100 100" version="1.1" xmlns="http://www.w3.org/2000/svg" xmlns:xlink="http://www.w3.org/1999/xlink">
    <!-- Generator: Sketch 42 (36781) - http://www.bohemiancoding.com/sketch -->
    <title>graduating</title>
    <desc>Created with Sketch.</desc>
    <defs></defs>
    <g id="help_center_icons" stroke="none" stroke-width="1" fill="none" fill-rule="evenodd">
        <g id="graduating">
            <rect id="Rectangle" x="0" y="0" width="100" height="100"></rect>
            <g id="noun_831325_cc" transform="translate(9.000000, 17.000000)" fill-rule="nonzero" fill="#FFFFFF">
                <g id="Group">
                    <g id="Shape">
                        <path d="M82,14.348 L82,14.212 L82,14.212 L82,14.144 C82,14.076 82,14.076 81.9316667,14.008 C81.9316667,13.94 81.8633333,13.94 81.8633333,13.872 C81.8633333,13.872 81.795,13.804 81.795,13.736 C81.795,13.668 81.7266667,13.668 81.6583333,13.668 L81.59,13.6 C81.59,13.6 81.5216667,13.532 81.4533333,13.532 C81.4533333,13.532 81.385,13.464 81.3166667,13.464 C81.2483333,13.464 81.2483333,13.396 81.18,13.396 L81.1116667,13.396 L41.4783333,0.544 L41.4783333,0.544 L41.3416667,0.544 L41.205,0.544 L41.0683333,0.544 L40.9316667,0.544 L40.795,0.544 C40.7266667,0.544 40.6583333,0.544 40.6583333,0.612 L40.6583333,0.612 L1.025,13.464 C0.478333333,13.668 0.0683333333,14.144 0.0683333333,14.756 C0.0683333333,15.368 0.478333333,15.844 1.025,16.048 L13.6666667,20.196 L40.6583333,28.968 C40.795,29.036 40.9316667,29.036 41.0683333,29.036 C41.205,29.036 41.3416667,29.036 41.4783333,28.968 L68.4016667,20.196 L81.1116667,16.048 L81.1116667,16.048 C81.2483333,16.048 81.3166667,15.98 81.4533333,15.912 L81.5216667,15.844 C81.59,15.776 81.7266667,15.708 81.795,15.572 C81.795,15.572 81.795,15.572 81.795,15.504 C81.8633333,15.368 81.9316667,15.3 82,15.164 L82,15.164 L82,15.164 L82,15.028 L82,14.892 L82,14.756 L82,14.62 C82,14.416 82,14.416 82,14.348 Z"></path>
                        <path d="M68.4016667,22.78 L68.4016667,43.792 C68.4016667,44.54 67.7866667,45.152 67.035,45.152 C65.395,45.152 63.8233333,45.288 62.1833333,45.56 L62.1833333,53.924 C63.8233333,54.4 65.0533333,55.896 65.0533333,57.732 L65.0533333,63.716 C65.0533333,65.892 63.2766667,67.66 61.09,67.66 L60.5433333,67.66 C58.3566667,67.66 56.58,65.892 56.58,63.716 L56.58,57.732 C56.58,55.964 57.81,54.4 59.45,53.924 L59.45,46.104 C55.76,47.124 52.2066667,48.892 49.2,51.34 L41.8883333,57.324 L41.8883333,57.324 C41.8883333,57.324 41.82,57.324 41.82,57.392 C41.7516667,57.46 41.6833333,57.46 41.615,57.528 C41.615,57.528 41.5466667,57.528 41.5466667,57.596 C41.4783333,57.596 41.41,57.664 41.3416667,57.664 L41.2733333,57.664 L41,57.664 L40.7266667,57.664 L40.6583333,57.664 C40.59,57.664 40.5216667,57.596 40.4533333,57.596 C40.4533333,57.596 40.385,57.596 40.385,57.528 C40.3166667,57.528 40.2483333,57.46 40.18,57.392 C40.18,57.392 40.1116667,57.392 40.1116667,57.324 L40.1116667,57.324 L32.8,51.408 C27.7433333,47.328 21.4566667,45.084 14.965,45.084 C14.2133333,45.084 13.5983333,44.472 13.5983333,43.724 L13.5983333,22.712 L40.59,31.484 C40.7266667,31.552 40.8633333,31.552 41,31.552 C41.1366667,31.552 41.2733333,31.552 41.41,31.484 L68.4016667,22.78 Z"></path>
                    </g>
                </g>
            </g>
        </g>
    </g>
</svg>