<?xml version="1.0" encoding="UTF-8"?>
<svg width="100px" height="100px" viewBox="0 0 100 100" version="1.1" xmlns="http://www.w3.org/2000/svg" xmlns:xlink="http://www.w3.org/1999/xlink">
    <!-- Generator: Sketch 42 (36781) - http://www.bohemiancoding.com/sketch -->
    <title>internet</title>
    <desc>Created with Sketch.</desc>
    <defs></defs>
    <g id="help_center_icons" stroke="none" stroke-width="1" fill="none" fill-rule="evenodd">
        <g id="internet">
            <rect id="Rectangle" x="0" y="0" width="100" height="100"></rect>
            <g transform="translate(11.000000, 22.000000)" id="Group" fill-rule="nonzero" fill="#FFFFFF">
                <g>
                    <g transform="translate(0.036790, 0.000000)">
                        <ellipse id="Oval" cx="38.9773898" cy="51.5652193" rx="8.19320642" ry="8.17110397"></ellipse>
                        <path d="M38.9773898,0.555317746 C23.3864339,0.555317746 9.38639182,7.53645512 0,18.4841478 L6.20456409,24.3546497 C14.3182248,14.5969236 26.2500788,9.04374615 38.9773898,9.04374615 C51.7047007,9.04374615 63.6365547,14.5969236 71.7502154,24.3546497 L77.9547795,18.4841478 C68.5683877,7.45712402 54.5683457,0.555317746 38.9773898,0.555317746 Z" id="Shape"></path>
                        <path d="M38.9773898,14.8349169 C27.4432642,14.8349169 17.1818698,20.07077 10.4204858,28.4005361 L16.6250499,34.3503691 C21.9546114,27.527894 30.2273635,23.4026764 38.9773898,23.4026764 C47.727416,23.4026764 56.0001682,27.4485629 61.3297296,34.3503691 L67.5342937,28.4005361 C60.7729098,20.07077 50.5115153,14.8349169 38.9773898,14.8349169 Z" id="Shape"></path>
                        <path d="M38.9773898,29.1145161 C31.5000946,29.1145161 24.897802,32.6844159 20.8409717,38.3169245 L27.1250814,44.2667575 C29.6705436,40.220871 34.1251025,37.6822756 38.9773898,37.6822756 C43.9092228,37.6822756 48.3637816,40.220871 50.8296981,44.2667575 L57.1138079,38.3169245 C52.9774318,32.763747 46.3751393,29.1145161 38.9773898,29.1145161 Z" id="Shape"></path>
                    </g>
                </g>
            </g>
        </g>
    </g>
</svg>