<?xml version="1.0" encoding="UTF-8"?>
<svg width="100px" height="100px" viewBox="0 0 100 100" version="1.1" xmlns="http://www.w3.org/2000/svg" xmlns:xlink="http://www.w3.org/1999/xlink">
    <!-- Generator: Sketch 42 (36781) - http://www.bohemiancoding.com/sketch -->
    <title>mail</title>
    <desc>Created with Sketch.</desc>
    <defs></defs>
    <g id="help_center_icons" stroke="none" stroke-width="1" fill="none" fill-rule="evenodd">
        <g id="mail">
            <rect id="Rectangle" x="0" y="0" width="100" height="100"></rect>
            <g transform="translate(11.000000, 24.000000)" id="Group" fill-rule="nonzero" fill="#FFFFFF">
                <g>
                    <g transform="translate(0.474348, 0.919755)" id="Shape">
                        <path d="M5.18472358,0.97292409 C4.6461172,0.97292409 4.13317521,1.07622524 3.64555195,1.24582892 L35.5099995,34.7222129 C36.9876457,36.2751263 39.1113085,36.2751263 40.586708,34.7222129 L72.3970616,1.24582892 C71.9094383,1.07622524 71.3964963,0.97292409 70.85789,0.97292409 L5.18472358,0.97292409 Z M0.864120351,3.61100411 C0.32698298,4.52852713 0,5.61017147 0,6.79489379 L0,45.6080349 C0,46.7772804 0.312811402,47.8513368 0.837159788,48.7616018 L21.8460059,25.6860308 L0.864120351,3.61100411 Z M75.178493,3.61100411 L54.1966077,25.716305 L75.2054536,48.7616018 C75.729802,47.8513368 76.0426136,46.7772804 76.0426136,45.6080349 L76.0426136,6.79489379 C76.0426136,5.61017147 75.7156304,4.52852713 75.178493,3.61100411 Z M24.3844466,28.3544336 L3.59145799,51.126777 C4.09567237,51.3092957 4.62520548,51.4300046 5.18472358,51.4300046 L70.85789,51.4300046 C71.4174081,51.4300046 71.9469412,51.3092957 72.4511556,51.126777 L51.6852139,28.3544336 L42.9630397,37.542181 C40.2085689,40.4416189 35.8888299,40.4681089 33.1336678,37.5722612 L24.3844466,28.3541425 L24.3844466,28.3544336 Z"></path>
                    </g>
                </g>
            </g>
        </g>
    </g>
</svg>