<?xml version="1.0" encoding="UTF-8"?>
<svg width="100px" height="100px" viewBox="0 0 100 100" version="1.1" xmlns="http://www.w3.org/2000/svg" xmlns:xlink="http://www.w3.org/1999/xlink">
    <!-- Generator: Sketch 42 (36781) - http://www.bohemiancoding.com/sketch -->
    <title>maintenance</title>
    <desc>Created with Sketch.</desc>
    <defs></defs>
    <g id="help_center_icons" stroke="none" stroke-width="1" fill="none" fill-rule="evenodd">
        <g id="maintenance">
            <rect id="Rectangle" x="0" y="0" width="100" height="100"></rect>
            <g id="maintanence2" transform="translate(19.000000, 19.000000)">
                <g id="Group">
                    <g transform="translate(0.324817, 0.000000)" id="Shape">
                        <path d="M6.12049911,61.0268195 C5.9614181,61.0571327 5.79980194,61.0571327 5.63945336,61.0729208 C5.79916815,61.0571327 5.9614181,61.0571327 6.12049911,61.0268195 Z"></path>
                        <path d="M8.69685086,59.6620932 C8.02503466,60.3308785 7.20554565,60.7527375 6.34549416,60.9611408 C7.20617944,60.7521059 8.02503466,60.330247 8.69685086,59.6620932 Z"></path>
                        <path d="M57.7451377,57.4245989 C58.2654783,56.9086427 58.2635769,56.0699771 57.7451377,55.5540209 C57.2292335,55.0386962 56.3881957,55.0386962 55.867855,55.5540209 C55.3513171,56.0712401 55.3513171,56.9086427 55.867855,57.4245989 C56.3888295,57.9386606 57.2273321,57.9411867 57.7451377,57.4245989 Z"></path>
                        <path d="M5.16537928,61.1177591 L5.16537928,61.1177591 C5.01200238,61.1177591 4.85989305,61.0880774 4.70651614,61.0735523 C4.85989305,61.0880774 5.01200238,61.1177591 5.16537928,61.1177591 Z"></path>
                        <path d="M4.21279461,61.027451 C4.133571,61.0122944 4.05815013,60.9775605 3.9801941,60.9586147 C4.05815013,60.9775605 4.133571,61.0116628 4.21279461,61.027451 Z"></path>
                        <path d="M3.28809665,60.754632 C3.26464646,60.7438961 3.24436522,60.729371 3.22091503,60.7186351 C3.24436522,60.729371 3.26528025,60.7451592 3.28809665,60.754632 Z"></path>
                        <path d="M53.3206576,59.7549274 C55.1890671,61.6172956 58.215409,61.6172956 60.0863537,59.7549274 C61.9515944,57.8950853 61.9515944,54.8763942 60.0844524,53.015289 L37.3149535,30.3264782 L30.5511586,37.0661166 L53.3206576,59.7549274 Z M55.4001188,55.0873237 C56.1790454,54.3143366 57.4396514,54.3143366 58.2128738,55.0873237 C58.9905328,55.8622052 58.9924341,57.115783 58.2128738,57.8900331 C57.4352149,58.6630201 56.1790454,58.6617571 55.4001188,57.8900331 C54.6262626,57.1164146 54.6262626,55.8622052 55.4001188,55.0873237 Z" fill="#FFFFFF" fill-rule="nonzero"></path>
                        <path d="M24.5967122,17.6530278 C26.5018816,13.1009931 25.6012676,7.65724472 21.8834621,3.95398014 C18.1662904,0.249452508 12.7042979,-0.647313471 8.13531392,1.25105169 L12.5300059,5.63004838 L17.5660923,10.6487802 L10.8016637,17.3871556 L10.8016637,17.3884186 L1.3721529,7.99132162 C-0.53238265,12.5439878 0.367597544,17.9864731 4.08476926,21.6903692 C7.80130719,25.3942653 13.2639335,26.2916628 17.8329174,24.3926662 L24.3159438,30.8531704 L31.0797386,24.1129004 L24.5967122,17.6530278 Z" fill="#FFFFFF" fill-rule="nonzero"></path>
                        <path d="M61.3190731,4.0651286 L57.4358487,0.195772855 L47.8669043,5.86371276 L47.2026936,10.392381 L47.5519113,10.7409829 L17.011527,41.1710313 L15.0740345,39.2410899 L1.63771044,52.628164 C-0.310556546,54.5701044 -0.311824124,57.7182582 1.63771044,59.6633563 C2.10608041,60.129422 2.64670232,60.4767609 3.22154882,60.7186351 C3.24499901,60.729371 3.26528025,60.7438961 3.28873044,60.754632 C3.5130917,60.8449402 3.74695979,60.9011459 3.9801941,60.9579832 C4.05878392,60.976929 4.13420479,61.0116628 4.21279461,61.0268195 C4.37631214,61.0590272 4.54236482,61.0590272 4.70714993,61.0729208 C4.86052684,61.0874459 5.01263617,61.1171276 5.16664686,61.1171276 C5.32509408,61.1171276 5.48163993,61.0861828 5.64008715,61.0722893 C5.79980194,61.0565011 5.96205189,61.0565011 6.1211329,61.0261879 C6.19782135,61.0116628 6.27007328,60.9788235 6.34612795,60.9605093 C7.20617944,60.7521059 8.02566845,60.330247 8.69748465,59.6614617 L22.1344425,46.2750191 L20.1956823,44.3431831 L50.7373341,13.9125032 L51.0871856,14.2611052 L55.6320856,13.5998981 L61.3190731,4.0651286 Z" fill="#FFFFFF" fill-rule="nonzero"></path>
                    </g>
                </g>
            </g>
        </g>
    </g>
</svg>