<?xml version="1.0" encoding="UTF-8"?>
<svg width="261px" height="125px" viewBox="0 0 261 125" version="1.1" xmlns="http://www.w3.org/2000/svg" xmlns:xlink="http://www.w3.org/1999/xlink">
    <!-- Generator: Sketch 42 (36781) - http://www.bohemiancoding.com/sketch -->
    <title>Page 1</title>
    <desc>Created with Sketch.</desc>
    <defs></defs>
    <g id="Symbols" stroke="none" stroke-width="1" fill="none" fill-rule="evenodd">
        <g id="FOOTER-DESKTOP" transform="translate(-654.000000, -119.000000)">
            <g id="Page-1" transform="translate(654.000000, 119.000000)">
                <g id="Group-5" transform="translate(82.297297, 69.626579)" fill="#221F20">
                    <path d="M166.880108,13.0254953 C167.112108,10.4693832 168.620108,8.0875514 171.462108,8.0875514 C174.478108,8.0875514 175.986108,10.2079626 176.189108,13.0254953 L166.880108,13.0254953 Z M178.074108,14.6230654 C178.074108,10.062729 176.305108,6.48998131 171.433108,6.48998131 C167.112108,6.48998131 164.937108,10.2660561 164.937108,14.2164112 C164.937108,18.1958131 166.967108,21.9428411 171.317108,21.9428411 C174.826108,21.9428411 177.001108,20.345271 177.900108,16.8596636 L176.073108,16.8596636 C175.638108,18.8638879 173.927108,20.345271 171.868108,20.345271 C168.301108,20.345271 166.880108,17.7310654 166.822108,14.6230654 L178.074108,14.6230654 Z M160.816757,21.5071402 L160.816757,8.52325234 L164.122757,8.52325234 L164.122757,6.92568224 L160.816757,6.92568224 L160.816757,5.06669159 C160.729757,2.9753271 160.787757,1.78441121 163.165757,1.78441121 C163.513757,1.78441121 163.890757,1.84250467 164.238757,1.90059813 L164.238757,0.50635514 C163.716757,0.390168224 163.136757,0.186841121 162.585757,0.186841121 C160.091757,0.186841121 159.076757,1.31966355 159.076757,3.81768224 L159.076757,6.92568224 L156.147757,6.92568224 L156.147757,8.52325234 L159.076757,8.52325234 L159.076757,21.5071402 L160.816757,21.5071402 Z M152.363649,2.71390654 L154.393649,2.71390654 L154.393649,0.535401869 L152.363649,0.535401869 L152.363649,2.71390654 Z M152.508649,21.5071402 L154.248649,21.5071402 L154.248649,6.92568224 L152.508649,6.92568224 L152.508649,21.5071402 Z M150.174541,21.5071402 L150.174541,19.7643364 L139.647541,19.7643364 L139.647541,0.535401869 L137.762541,0.535401869 L137.762541,21.5071402 L150.174541,21.5071402 Z M123.871541,21.5071402 L125.611541,21.5071402 L125.611541,0.535401869 L123.871541,0.535401869 L123.871541,21.5071402 Z M118.744811,12.5607477 C116.627811,12.6769346 114.104811,12.3864673 112.161811,13.2288224 C110.421811,13.9549907 109.232811,15.4654206 109.232811,17.4405981 C109.232811,20.2871776 111.378811,21.9428411 114.075811,21.9428411 C116.047811,21.9428411 117.990811,20.780972 118.628811,19.5610093 L118.715811,19.3576822 L118.773811,19.3576822 L118.831811,21.5071402 L120.629811,21.5071402 C120.571811,20.5195514 120.455811,19.3576822 120.484811,18.2248598 L120.484811,11.3117383 C120.542811,7.97136449 118.541811,6.48998131 115.322811,6.48998131 C112.538811,6.48998131 110.305811,7.62280374 109.870811,10.6146168 L111.726811,10.6146168 C111.958811,8.63943925 113.466811,8.0875514 115.293811,8.0875514 C117.352811,8.0875514 118.570811,8.84276636 118.744811,11.2245981 L118.744811,12.5607477 Z M111.117811,17.4405981 C111.117811,13.7807103 116.279811,14.2454579 118.744811,14.1583178 C118.918811,17.2082243 118.193811,20.345271 114.394811,20.345271 C112.625811,20.345271 111.117811,19.4157757 111.117811,17.4405981 L111.117811,17.4405981 Z M104.978432,2.71390654 L107.008432,2.71390654 L107.008432,0.535401869 L104.978432,0.535401869 L104.978432,2.71390654 Z M105.123432,21.5071402 L106.863432,21.5071402 L106.863432,6.92568224 L105.123432,6.92568224 L105.123432,21.5071402 Z M97.8507027,17.6148785 C97.8507027,19.5900561 97.6477027,21.9428411 101.330703,21.9428411 C101.910703,21.9428411 102.548703,21.8266542 103.099703,21.6814206 L103.099703,20.1709907 C102.635703,20.3162243 102.113703,20.345271 101.591703,20.345271 C100.257703,20.345271 99.5617027,19.6191028 99.5907027,18.2829533 L99.5907027,8.52325234 L102.896703,8.52325234 L102.896703,6.92568224 L99.5907027,6.92568224 L99.5907027,3.06246729 L97.8507027,3.81768224 L97.8507027,6.92568224 L94.9507027,6.92568224 L94.9507027,8.52325234 L97.8507027,8.52325234 L97.8507027,17.6148785 Z M83.6728378,13.1126355 C83.6728378,10.4984299 84.9778378,8.0875514 87.8488378,8.0875514 C90.2268378,8.0875514 91.6768378,9.56893458 91.6768378,12.096 L91.6768378,21.5071402 L93.4168378,21.5071402 L93.4168378,12.3864673 C93.4168378,10.701757 93.0398378,6.48998131 88.2838378,6.48998131 C86.3988378,6.48998131 84.7458378,7.33233645 83.7308378,9.13323364 L83.6728378,9.07514019 L83.5858378,6.92568224 L81.7878378,6.92568224 C81.8458378,7.91327103 81.9328378,9.07514019 81.9328378,10.2079626 L81.9328378,21.5071402 L83.6728378,21.5071402 L83.6728378,13.1126355 Z M68.0065676,13.0254953 C68.2385676,10.4693832 69.7465676,8.0875514 72.5885676,8.0875514 C75.6045676,8.0875514 77.1125676,10.2079626 77.3155676,13.0254953 L68.0065676,13.0254953 Z M79.2005676,14.6230654 C79.2005676,10.062729 77.4315676,6.48998131 72.5595676,6.48998131 C68.2385676,6.48998131 66.0635676,10.2660561 66.0635676,14.2164112 C66.0635676,18.1958131 68.0935676,21.9428411 72.4435676,21.9428411 C75.9525676,21.9428411 78.1275676,20.345271 79.0265676,16.8596636 L77.1995676,16.8596636 C76.7645676,18.8638879 75.0535676,20.345271 72.9945676,20.345271 C69.4275676,20.345271 68.0065676,17.7310654 67.9485676,14.6230654 L79.2005676,14.6230654 Z M61.8585676,21.5071402 L63.6565676,21.5071402 C63.5985676,20.5195514 63.5115676,19.3576822 63.5115676,18.2248598 L63.5115676,0.535401869 L61.7715676,0.535401869 L61.7715676,9.07514019 L61.7135676,9.13323364 C60.6985676,7.41947664 58.6685676,6.48998131 56.7255676,6.48998131 C52.4045676,6.48998131 50.7515676,10.382243 50.7515676,14.1583178 C50.7515676,17.8182056 52.4045676,21.9428411 56.7255676,21.9428411 C58.7555676,21.9428411 60.5245676,20.9842991 61.7135676,19.2414953 L61.7715676,19.3576822 L61.8585676,21.5071402 Z M61.7135676,13.8678505 C61.7135676,17.1791776 60.5535676,20.345271 56.7545676,20.345271 C53.4195676,20.345271 52.6365676,16.6563364 52.6365676,13.9549907 C52.6365676,11.1665047 53.7095676,8.0875514 57.0155676,8.0875514 C60.4085676,8.0875514 61.7135676,10.9050841 61.7135676,13.8678505 L61.7135676,13.8678505 Z M46.2487297,2.71390654 L48.2787297,2.71390654 L48.2787297,0.535401869 L46.2487297,0.535401869 L46.2487297,2.71390654 Z M46.3937297,21.5071402 L48.1337297,21.5071402 L48.1337297,6.92568224 L46.3937297,6.92568224 L46.3937297,21.5071402 Z M32.5834595,10.5565234 C32.5834595,13.2578692 34.9034595,13.9259439 37.1944595,14.4778318 C39.5144595,15.0006729 41.8054595,15.3492336 41.8054595,17.4405981 C41.8054595,19.4738692 39.8624595,20.345271 38.0064595,20.345271 C36.0344595,20.345271 34.1204595,19.706243 33.9754595,17.5277383 L32.0904595,17.5277383 C32.1484595,20.7519252 35.0484595,21.9428411 37.5714595,21.9428411 C40.6454595,21.9428411 43.6904595,20.4614579 43.6904595,17.1791776 C43.6904595,15.6106542 42.7334595,14.3035514 41.2254595,13.7807103 C37.2814595,12.3864673 34.4684595,12.5897944 34.4684595,10.4403364 C34.4684595,8.72657944 36.1214595,8.0875514 37.7454595,8.0875514 C39.5434595,8.0875514 41.1674595,8.69753271 41.3414595,10.5274766 L43.2264595,10.5274766 C42.9944595,7.44852336 40.6744595,6.48998131 37.9194595,6.48998131 C35.3674595,6.48998131 32.5834595,7.53566355 32.5834595,10.5565234 L32.5834595,10.5565234 Z M19.1447027,13.0254953 C19.3767027,10.4693832 20.8847027,8.0875514 23.7267027,8.0875514 C26.7427027,8.0875514 28.2507027,10.2079626 28.4537027,13.0254953 L19.1447027,13.0254953 Z M30.3387027,14.6230654 C30.3387027,10.062729 28.5697027,6.48998131 23.6977027,6.48998131 C19.3767027,6.48998131 17.2017027,10.2660561 17.2017027,14.2164112 C17.2017027,18.1958131 19.2317027,21.9428411 23.5817027,21.9428411 C27.0907027,21.9428411 29.2657027,20.345271 30.1647027,16.8596636 L28.3377027,16.8596636 C27.9027027,18.8638879 26.1917027,20.345271 24.1327027,20.345271 C20.5657027,20.345271 19.1447027,17.7310654 19.0867027,14.6230654 L30.3387027,14.6230654 Z M2.43521622,11.5150654 L7.62621622,11.5150654 C11.4252162,11.5150654 11.7152162,12.3574206 12.1502162,17.1501308 C12.2662162,18.631514 12.3822162,20.1128972 12.8752162,21.5071402 L15.0502162,21.5071402 C14.2092162,20.2290841 14.3252162,18.6605607 13.9482162,15.2620935 C13.6872162,12.8221682 13.1072162,11.021271 10.4392162,10.5855701 L10.4392162,10.5274766 C12.8752162,9.91749533 14.4702162,8.2908785 14.4702162,6.02523364 C14.4702162,4.02100935 13.7742162,2.51057944 12.3242162,1.63917757 C10.7292162,0.651588785 9.22121622,0.535401869 7.39421622,0.535401869 L0.550216216,0.535401869 L0.550216216,21.5071402 L2.43521622,21.5071402 L2.43521622,11.5150654 Z M2.43521622,9.77226168 L2.43521622,2.27820561 L6.66921622,2.27820561 C8.67021622,2.27820561 12.4402162,1.98773832 12.4402162,6.02523364 C12.4402162,9.59798131 9.13421622,9.77226168 6.46621622,9.77226168 L2.43521622,9.77226168 Z" id="Fill-1"></path>
                    <path d="M146.71727,36.9442991 L146.65927,37.060486 C145.49927,35.3757757 143.99127,34.3591402 141.87427,34.3591402 C137.43727,34.3591402 135.66827,38.019028 135.66827,41.9693832 C135.66827,45.9778318 137.55327,49.3182056 141.93227,49.3182056 C143.81727,49.3182056 145.81827,48.3015701 146.65927,46.5878131 L146.71727,46.5878131 L146.71727,49.3182056 C146.65927,51.7581308 144.57127,53.3557009 142.30927,53.3557009 C140.45327,53.3557009 138.39427,52.7747664 138.19127,51.0319626 L136.30627,51.0319626 C136.30627,54.0528224 139.43827,54.953271 142.07727,54.953271 C143.44027,54.953271 144.22327,54.8370841 145.38327,54.2851963 C148.60227,52.7747664 148.45727,49.7248598 148.45727,46.8201869 L148.45727,38.0771215 C148.45727,36.9442991 148.54427,35.7824299 148.60227,34.7948411 L146.80427,34.7948411 L146.71727,36.9442991 Z M146.71727,41.7660561 C146.71727,44.6126355 145.44127,47.7206355 142.10627,47.7206355 C138.91627,47.7206355 137.55327,44.4964486 137.55327,41.8241495 C137.55327,39.1518505 138.88727,35.9567103 142.04827,35.9567103 C145.18027,35.9567103 146.71727,38.9775701 146.71727,41.7660561 L146.71727,41.7660561 Z M123.328378,40.9817944 C123.328378,38.3675888 124.633378,35.9567103 127.504378,35.9567103 C129.882378,35.9567103 131.332378,37.4380935 131.332378,39.9651589 L131.332378,49.3762991 L133.072378,49.3762991 L133.072378,40.2556262 C133.072378,38.5709159 132.695378,34.3591402 127.939378,34.3591402 C126.054378,34.3591402 124.401378,35.2014953 123.386378,37.0023925 L123.328378,36.9442991 L123.241378,34.7948411 L121.443378,34.7948411 C121.501378,35.7824299 121.588378,36.9442991 121.588378,38.0771215 L121.588378,49.3762991 L123.328378,49.3762991 L123.328378,40.9817944 Z M116.253162,30.5830654 L118.283162,30.5830654 L118.283162,28.4045607 L116.253162,28.4045607 L116.253162,30.5830654 Z M116.398162,49.3762991 L118.138162,49.3762991 L118.138162,34.7948411 L116.398162,34.7948411 L116.398162,49.3762991 Z M102.587892,38.4256822 C102.587892,41.127028 104.907892,41.7951028 107.198892,42.3469907 C109.518892,42.8698318 111.809892,43.2183925 111.809892,45.309757 C111.809892,47.343028 109.866892,48.2144299 108.010892,48.2144299 C106.038892,48.2144299 104.124892,47.5754019 103.979892,45.3968972 L102.094892,45.3968972 C102.152892,48.6210841 105.052892,49.812 107.575892,49.812 C110.649892,49.812 113.694892,48.3306168 113.694892,45.0483364 C113.694892,43.4798131 112.737892,42.1727103 111.229892,41.6498692 C107.285892,40.2556262 104.472892,40.4589533 104.472892,38.3094953 C104.472892,36.5957383 106.125892,35.9567103 107.749892,35.9567103 C109.547892,35.9567103 111.171892,36.5666916 111.345892,38.3966355 L113.230892,38.3966355 C112.998892,35.3176822 110.678892,34.3591402 107.923892,34.3591402 C105.371892,34.3591402 102.587892,35.4048224 102.587892,38.4256822 L102.587892,38.4256822 Z M97.8318919,43.1893458 C97.8318919,45.8035514 96.5268919,48.2144299 93.6558919,48.2144299 C91.2778919,48.2144299 89.8278919,46.7330467 89.8278919,44.2059813 L89.8278919,34.7948411 L88.0878919,34.7948411 L88.0878919,43.915514 C88.0878919,45.6002243 88.4648919,49.812 93.2208919,49.812 C95.1058919,49.812 96.7588919,48.9696449 97.7738919,47.1687477 L97.8318919,47.2268411 L97.9188919,49.3762991 L99.7168919,49.3762991 C99.6588919,48.3887103 99.5718919,47.2268411 99.5718919,46.0940187 L99.5718919,34.7948411 L97.8318919,34.7948411 L97.8318919,43.1893458 Z M78.7702703,34.3591402 C74.1302703,34.3591402 71.9842703,38.2514019 71.9842703,42.0855701 C71.9842703,45.9197383 74.1302703,49.812 78.7702703,49.812 C83.4102703,49.812 85.5562703,45.9197383 85.5562703,42.0855701 C85.5562703,38.2514019 83.4102703,34.3591402 78.7702703,34.3591402 L78.7702703,34.3591402 Z M83.6712703,42.0855701 C83.6712703,44.7869159 82.2792703,48.2144299 78.7702703,48.2144299 C75.2612703,48.2144299 73.8692703,44.7869159 73.8692703,42.0855701 C73.8692703,39.3842243 75.2612703,35.9567103 78.7702703,35.9567103 C82.2792703,35.9567103 83.6712703,39.3842243 83.6712703,42.0855701 L83.6712703,42.0855701 Z M55.4025405,49.3762991 L55.4025405,39.3551776 L66.8285405,39.3551776 L66.8285405,49.3762991 L68.7135405,49.3762991 L68.7135405,28.4045607 L66.8285405,28.4045607 L66.8285405,37.6123738 L55.4025405,37.6123738 L55.4025405,28.4045607 L53.5175405,28.4045607 L53.5175405,49.3762991 L55.4025405,49.3762991 Z M40.0615405,49.3762991 L41.8595405,49.3762991 C41.8015405,48.3887103 41.7145405,47.2268411 41.7145405,46.0940187 L41.7145405,28.4045607 L39.9745405,28.4045607 L39.9745405,36.9442991 L39.9165405,37.0023925 C38.9015405,35.2886355 36.8715405,34.3591402 34.9285405,34.3591402 C30.6075405,34.3591402 28.9545405,38.2514019 28.9545405,42.0274766 C28.9545405,45.6873645 30.6075405,49.812 34.9285405,49.812 C36.9585405,49.812 38.7275405,48.8534579 39.9165405,47.1106542 L39.9745405,47.2268411 L40.0615405,49.3762991 Z M39.9165405,41.7370093 C39.9165405,45.0483364 38.7565405,48.2144299 34.9575405,48.2144299 C31.6225405,48.2144299 30.8395405,44.5254953 30.8395405,41.8241495 C30.8395405,39.0356636 31.9125405,35.9567103 35.2185405,35.9567103 C38.6115405,35.9567103 39.9165405,38.774243 39.9165405,41.7370093 L39.9165405,41.7370093 Z M16.6036757,40.9817944 C16.6036757,38.3675888 17.9086757,35.9567103 20.7796757,35.9567103 C23.1576757,35.9567103 24.6076757,37.4380935 24.6076757,39.9651589 L24.6076757,49.3762991 L26.3476757,49.3762991 L26.3476757,40.2556262 C26.3476757,38.5709159 25.9706757,34.3591402 21.2146757,34.3591402 C19.3296757,34.3591402 17.6766757,35.2014953 16.6616757,37.0023925 L16.6036757,36.9442991 L16.5166757,34.7948411 L14.7186757,34.7948411 C14.7766757,35.7824299 14.8636757,36.9442991 14.8636757,38.0771215 L14.8636757,49.3762991 L16.6036757,49.3762991 L16.6036757,40.9817944 Z M9.74478378,40.4299065 C7.62778378,40.5460935 5.10478378,40.2556262 3.16178378,41.0979813 C1.42178378,41.8241495 0.232783784,43.3345794 0.232783784,45.309757 C0.232783784,48.1563364 2.37878378,49.812 5.07578378,49.812 C7.04778378,49.812 8.99078378,48.6501308 9.62878378,47.4301682 L9.71578378,47.2268411 L9.77378378,47.2268411 L9.83178378,49.3762991 L11.6297838,49.3762991 C11.5717838,48.3887103 11.4557838,47.2268411 11.4847838,46.0940187 L11.4847838,39.1808972 C11.5427838,35.8405234 9.54178378,34.3591402 6.32278378,34.3591402 C3.53878378,34.3591402 1.30578378,35.4919626 0.870783784,38.4837757 L2.72678378,38.4837757 C2.95878378,36.5085981 4.46678378,35.9567103 6.29378378,35.9567103 C8.35278378,35.9567103 9.57078378,36.7119252 9.74478378,39.093757 L9.74478378,40.4299065 Z M2.11778378,45.309757 C2.11778378,41.6498692 7.27978378,42.1146168 9.74478378,42.0274766 C9.91878378,45.0773832 9.19378378,48.2144299 5.39478378,48.2144299 C3.62578378,48.2144299 2.11778378,47.2849346 2.11778378,45.309757 L2.11778378,45.309757 Z" id="Fill-3"></path>
                </g>
                <polygon id="Fill-6" fill="#221F20" points="64.4764054 7.03951402 80.0102162 7.03951402 91.5365405 43.8582056 103.696162 7.03951402 117.682784 7.03951402 99.1988108 57.8665794 82.399973 57.8665794"></polygon>
                <g id="Group-89" transform="translate(0.000000, 0.542467)">
                    <path d="M148.751973,22.4766729 C148.118676,17.3385421 144.533649,15.4363738 140.52773,15.4363738 C132.023676,15.4363738 129.422297,23.251514 129.422297,32.5441121 C129.422297,35.6411215 129.49127,48.4546542 140.386649,48.4546542 C147.836514,48.4546542 148.610892,43.0339065 148.891486,41.0626542 L163.510622,41.0626542 C163.440865,56.9716262 147.275324,58.3109159 140.668811,58.3109159 C135.749,58.3109159 127.034108,57.4662056 121.410459,51.5516636 C115.858919,45.6386916 114.872919,37.5425047 114.872919,32.2622804 C114.872919,25.2926355 116.490649,18.3237757 121.269378,12.902243 C126.469784,6.98927103 133.147622,5.43958879 140.52773,5.43958879 C148.751973,5.43958879 155.007351,7.41084112 159.01327,11.6343925 C163.08973,16.0000374 163.161054,20.5760748 163.230027,22.4766729 L148.751973,22.4766729 Z" id="Fill-7" fill="#221F20"></path>
                    <path d="M181.364432,6.49704673 L181.364432,36.6977944 C181.364432,39.4431028 181.576054,42.2590654 182.982946,44.3716262 C184.879703,47.1868037 188.182568,48.5253084 191.628081,48.5253084 C200.553027,48.5253084 201.749081,41.2738318 201.749081,36.2055701 L201.749081,6.49704673 L215.455108,6.49704673 L215.455108,35.9237383 C215.455108,41.5556636 214.682297,47.6798131 211.518946,51.4119252 C206.597568,57.4662056 197.532324,58.6618318 191.136649,58.6618318 C167.167757,58.6618318 167.098784,43.7380935 167.098784,35.430729 L167.167757,6.49704673 L181.364432,6.49704673 Z" id="Fill-9" fill="#221F20"></path>
                    <path d="M63.3289459,31.9584673 C63.3289459,49.4736449 49.1518649,63.672785 31.6648649,63.672785 C14.1770811,63.672785 0,49.4736449 0,31.9584673 C0,14.4425047 14.1770811,0.242579439 31.6648649,0.242579439 C49.1518649,0.242579439 63.3289459,14.4425047 63.3289459,31.9584673" id="Fill-11" fill="#FEFEFE"></path>
                    <path d="M31.6643162,1.42328972 C14.827073,1.42328972 1.17982973,15.0940935 1.17982973,31.9576822 C1.17982973,48.821271 14.827073,62.4920748 31.6643162,62.4920748 C48.5023432,62.4920748 62.1495865,48.821271 62.1495865,31.9576822 C62.1495865,15.0940935 48.5023432,1.42328972 31.6643162,1.42328972 M31.6643162,54.9328598 C18.9960189,54.9328598 8.72453243,44.6479626 8.72453243,31.9576822 C8.72453243,19.268972 18.9960189,8.98093458 31.6643162,8.98093458 C44.3341811,8.98093458 54.6056676,19.268972 54.6056676,31.9576822 C54.6056676,44.6479626 44.3341811,54.9328598 31.6643162,54.9328598" id="Fill-13" fill="#221F20"></path>
                    <path d="M15.7229378,54.7766355 C15.5724514,54.8779065 15.4658568,54.9556262 15.4164784,55.0333458 C15.3545595,55.1322617 15.3396676,55.2021308 15.3584784,55.2735701 C15.3968838,55.3976075 15.5371811,55.5082991 15.6249649,55.6653084 C15.6766946,55.7548037 15.697073,55.8050467 15.6610189,55.8615701 C15.6092892,55.943215 15.5465865,55.9047477 15.494073,55.8694206 C15.3192892,55.7579439 15.1688027,55.6056449 14.9940189,55.4957383 C14.8176676,55.3850467 14.6162351,55.3136075 14.4422351,55.205271 C14.3952081,55.1746542 14.3223162,55.1306916 14.3740459,55.0451215 C14.4265595,54.9650467 14.5347216,55.0325607 14.7001,55.0003738 C14.8913432,54.9611215 15.0363432,54.8567103 15.3710189,54.6353271 L18.1236676,52.8289346 C18.4207216,52.6318879 18.4889108,52.6609346 18.546127,52.6986168 C18.6237216,52.7472897 18.6237216,52.8257944 18.5939378,53.0456075 L18.0813432,56.7353271 C18.0366676,57.0462056 18.1550189,57.1922243 18.2098838,57.3013458 C18.256127,57.3877009 18.3125595,57.4238131 18.2600459,57.507028 C18.2083162,57.5878879 18.1573703,57.5557009 18.0836946,57.5078131 C17.8509108,57.3610093 17.6455595,57.1725981 17.4119919,57.0250093 C17.1799919,56.8789907 16.9213432,56.7730093 16.6877757,56.6285607 C16.6525054,56.6050093 16.5592351,56.5461308 16.6109649,56.4637009 C16.6634784,56.3789159 16.7591,56.4126729 16.8547216,56.4448598 C17.0334243,56.5053084 17.1141541,56.4126729 17.1893973,56.2917757 C17.2473973,56.1975701 17.2591541,56.0539065 17.2771811,55.9345794 L17.5750189,53.8730467 C17.6087216,53.6438131 17.6173432,53.5865047 17.5922622,53.5708037 C17.560127,53.5496075 17.5083973,53.575514 17.4072892,53.6414579 L15.7229378,54.7766355 Z" id="Fill-15" fill="#FEFEFE"></path>
                    <path d="M14.9975459,51.0508037 C15.2413027,50.7587664 15.0594649,50.4533832 14.964627,50.3560374 C14.9081946,50.3018692 14.8987892,50.2359252 14.9614919,50.1629159 C15.0249784,50.0883364 15.160573,50.2021682 15.2953838,50.316 C15.4403838,50.4384673 15.595573,50.6339439 15.7821135,50.7893832 C15.9694378,50.9495327 16.1873297,51.0696449 16.3746541,51.2274393 C16.4640054,51.3043738 16.5329784,51.3608972 16.4694919,51.4370467 C16.407573,51.5116262 16.3088162,51.4676636 16.2500324,51.4433271 C16.0203838,51.3451963 15.8369784,51.4951402 15.7076541,51.6490093 L13.9347351,53.7545047 C13.6909784,54.044972 13.7787622,54.263215 13.9621676,54.4429907 C14.0193838,54.499514 14.029573,54.5631028 13.9668703,54.6384673 C13.9033838,54.7138318 13.768573,54.5984299 13.6321946,54.4853832 C13.4448703,54.3268037 13.2896811,54.1328972 13.1023568,53.9743178 C12.9166,53.8180935 12.6971405,53.6940561 12.5113838,53.5370467 C12.4463297,53.4828785 12.3757892,53.4216449 12.4384919,53.3478505 C12.5019784,53.273271 12.6469784,53.356486 12.7057622,53.3816075 C12.9354108,53.4789533 13.0945189,53.3085981 13.224627,53.155514 L14.9975459,51.0508037 Z" id="Fill-17" fill="#FEFEFE"></path>
                    <path d="M11.7553459,51.8295701 C11.4865081,52.0697944 11.5421568,52.2974579 11.6871568,52.5157009 C11.7302649,52.583215 11.7357514,52.6444486 11.6628595,52.7103925 C11.6181838,52.7504299 11.5742919,52.7567103 11.4755351,52.6468037 C11.3783459,52.5376822 11.3038865,52.3806729 11.0154541,52.0572336 C10.7952108,51.811514 10.4558324,51.5053458 10.2771297,51.3059439 C9.73083243,50.6920374 9.27780541,49.9564486 10.0302378,49.2828785 C10.3398324,49.0065421 10.6376703,49.0175327 10.9159135,49.106243 C11.0468054,49.1525607 11.1925892,49.2624673 11.2380486,49.2192897 C11.3062378,49.1588411 11.7616162,47.8313271 11.8125622,47.3814953 C11.8211838,47.292785 11.8156973,47.2323364 11.7788595,47.190729 C11.7341838,47.1389159 11.6754,47.1004486 11.6401297,47.0604112 C11.5907514,47.0046729 11.6056432,46.9583551 11.6565892,46.9128224 C11.8525351,46.7385421 12.360427,47.2527477 12.4944541,47.4034766 C12.6135892,47.5369346 12.6645351,47.7771589 12.5720486,48.0409346 L12.0735622,49.4477383 C12.0022378,49.6518505 11.9528595,49.8277009 12.1033459,49.9980561 C12.2107243,50.1165981 12.2616703,50.1275888 12.3204541,50.0749907 L13.0948324,49.3786542 C13.4679135,49.0457944 13.4114811,48.8165607 13.2555081,48.6124486 C13.2069135,48.5488598 13.2061297,48.484486 13.2782378,48.417757 C13.3378054,48.3651589 13.4005081,48.4083364 13.5886162,48.619514 C13.7516432,48.8008598 13.8778324,49.0159626 14.0392919,49.1980935 C14.2038865,49.3794393 14.4037514,49.5301682 14.5659946,49.7122991 C14.6239946,49.7766729 14.6851297,49.8473271 14.6122378,49.913271 C14.5393459,49.9776449 14.4468595,49.9219065 14.3919946,49.8873645 C14.1772378,49.7562617 13.9562108,49.8583178 13.8057243,49.9933458 L11.7553459,51.8295701 Z M11.8831027,50.4659439 C11.9371838,50.4180561 12.041427,50.3230654 11.7812108,50.031028 C11.4136162,49.6196636 11.0726703,49.6220187 10.6165081,50.031028 C10.2888865,50.3246355 10.1438865,50.8058692 10.4958054,51.2007477 C10.7105622,51.4425421 10.8202919,51.4182056 10.9848865,51.2714019 L11.8831027,50.4659439 Z" id="Fill-19" fill="#FEFEFE"></path>
                    <path d="M9.05231081,44.7076262 C8.72704054,44.906243 8.76387838,45.1645234 8.87674324,45.3968972 C8.90809459,45.4573458 8.89555405,45.5217196 8.81247297,45.5719626 C8.7387973,45.6159252 8.67844595,45.5397757 8.54441892,45.3191776 C8.41666216,45.1111402 8.32025676,44.8826916 8.19171622,44.6730841 C8.06395946,44.4626916 7.90485135,44.2727103 7.77787838,44.0646729 C7.70733784,43.9516262 7.71517568,43.8958879 7.76925676,43.864486 C7.85155405,43.8118879 7.93306757,43.8864673 7.97931081,43.9272897 C8.16663514,44.0929346 8.39393243,44.0183551 8.56636486,43.9139439 L9.3282027,43.445271 C9.41128378,43.3965981 10.3353649,44.0842991 10.7476351,44.7602243 C11.4020946,45.831028 11.1896892,47.0321495 10.1300135,47.6813832 C9.01390541,48.3651589 7.64228378,48.0574206 7.00585135,47.0180187 C6.62258108,46.3899813 6.62101351,45.7666542 6.57790541,45.6928598 C6.49639189,45.5625421 6.36471622,45.7069907 6.26752703,45.5515514 C6.24558108,45.5154393 6.26752703,45.4793271 6.29104054,45.4581308 L6.97606757,44.9250841 C7.05287838,44.8622804 7.15947297,44.7696449 7.2017973,44.7437383 C7.27939189,44.6958505 7.34209459,44.6927103 7.37344595,44.7460935 C7.41263514,44.8088972 7.32171622,44.9415701 7.29898649,44.9855327 C6.78247297,45.9354393 6.92433784,46.3562243 7.16731081,46.7526729 C7.69793243,47.6209346 8.54441892,47.4906168 9.37836486,46.9787664 C10.1339324,46.5163738 10.9992297,45.6975701 10.4521486,44.8065421 C10.1676351,44.3386542 9.86039189,44.2106916 9.36504054,44.5168598 L9.05231081,44.7076262 Z" id="Fill-21" fill="#FEFEFE"></path>
                    <path d="M8.21515135,41.5438879 C8.56315135,41.3939439 8.53728649,41.0383178 8.49574595,40.9095701 C8.46988108,40.8342056 8.49025946,40.772972 8.58039459,40.7337196 C8.66974595,40.6952523 8.73871892,40.8593271 8.80925946,41.0210467 C8.8845027,41.1961121 8.93701622,41.4402617 9.03342162,41.664 C9.12982703,41.8908785 9.27247568,42.0973458 9.36888108,42.3218692 C9.41512432,42.4294206 9.45117838,42.5118505 9.36182703,42.5518879 C9.27090811,42.5911402 9.20193514,42.5071402 9.16196216,42.4592523 C8.99893514,42.268486 8.7685027,42.3202991 8.58274595,42.3988037 L6.05347568,43.4900187 C5.70625946,43.6415327 5.68666486,43.8754766 5.7720973,44.1188411 C5.79717838,44.1942056 5.77758378,44.2570093 5.68744865,44.2954766 C5.59652973,44.3339439 5.52755676,44.1714393 5.45701622,44.0073645 C5.35982703,43.7836262 5.30888108,43.5386916 5.21247568,43.3141682 C5.1145027,43.0880748 4.97420541,42.8816075 4.87701622,42.6562991 C4.84252973,42.5785794 4.80647568,42.4953645 4.89582703,42.4553271 C4.98674595,42.4160748 5.08001622,42.5565981 5.12155676,42.605271 C5.28223243,42.7952523 5.50090811,42.7136075 5.68666486,42.6351028 L8.21515135,41.5438879 Z" id="Fill-23" fill="#FEFEFE"></path>
                    <path d="M5.22846486,39.8772336 C5.13754595,40.034243 5.05446486,40.185757 5.0623027,40.2163738 C5.07092432,40.2454206 5.09208649,40.2587664 5.23395135,40.2234393 L7.35016757,39.6896075 C7.64173514,39.6173832 7.83532973,39.4619439 7.85178919,39.1526355 C7.86197838,38.9917009 7.80162703,38.7993645 7.91370811,38.7711028 C8.03205946,38.741271 8.06811351,38.8841495 8.09476216,38.9893458 C8.14727568,39.1973832 8.15197838,39.4179813 8.20370811,39.6268037 C8.25700541,39.833271 8.35654595,40.0287477 8.40905946,40.2375701 C8.42316757,40.2964486 8.43962703,40.3623925 8.34478919,40.3843738 C8.24995135,40.4087103 8.20292432,40.3459065 8.13238378,40.268972 C7.88862703,40.0020561 7.69346486,39.950243 7.36741081,40.0334579 L5.13362703,40.5963364 C4.90632973,40.6536449 4.60378919,40.824785 4.55205946,41.0728598 C4.5066,41.2911028 4.50973514,41.379028 4.4148973,41.4033645 C4.31927568,41.4277009 4.31143784,41.3915888 4.30124865,41.3507664 C4.25500541,41.1702056 4.23462703,40.9872897 4.18916757,40.8090841 C4.14527568,40.6308785 4.0763027,40.4573832 4.03162703,40.2799626 C3.99870811,40.1496449 4.00654595,40.1041121 4.05200541,40.035028 L5.85157297,37.1382056 C5.91349189,37.0345794 5.96992432,36.9309533 5.96051892,36.8956262 C5.94876216,36.8485234 5.86411351,36.8626542 5.78181622,36.8838505 L4.43684324,37.2245607 C4.04495135,37.3219065 3.68911351,37.4365234 3.69851892,37.8266916 C3.70243784,37.9907664 3.70087027,38.1603364 3.60603243,38.1838879 C3.51041081,38.2074393 3.48141081,38.0959626 3.45554595,37.9876262 C3.40303243,37.7795888 3.39832973,37.5589907 3.34581622,37.3517383 C3.29408649,37.1429159 3.19454595,36.9474393 3.14203243,36.740972 C3.12714054,36.6836636 3.1098973,36.6169346 3.20551892,36.5933832 C3.30035676,36.5698318 3.34816757,36.6334206 3.41792432,36.7103551 C3.66168108,36.9780561 3.85605946,37.0228037 4.18132973,36.9411589 L7.03978919,36.2197009 C7.30000541,36.152972 7.37681622,36.1600374 7.39484324,36.2299065 C7.41208649,36.2958505 7.30157297,36.4881869 7.19105946,36.674243 L5.22846486,39.8772336 Z" id="Fill-25" fill="#FEFEFE"></path>
                    <path d="M6.42381351,33.9893832 C6.80081351,33.953271 6.88311081,33.6054953 6.88154324,33.4696822 C6.88154324,33.3903925 6.91838108,33.3385794 7.01713784,33.3283738 C7.11511081,33.3181682 7.13157027,33.4948037 7.14881351,33.6722243 C7.16762432,33.8606355 7.14175946,34.1094953 7.16605676,34.3544299 C7.19035405,34.5977944 7.26167838,34.8372336 7.28597568,35.0813832 C7.29694865,35.196 7.30713784,35.2878505 7.20916486,35.296486 C7.11197568,35.3074766 7.07121892,35.2062056 7.04770541,35.1465421 C6.9513,34.9149533 6.71538108,34.8953271 6.51473243,34.9149533 L3.77619189,35.1842243 C3.39840811,35.2211215 3.30905676,35.4385794 3.31611081,35.6984299 C3.31767838,35.7777196 3.28005676,35.8295327 3.18208378,35.8405234 C3.08489459,35.8491589 3.06765135,35.6733084 3.05119189,35.4958879 C3.02767838,35.2517383 3.05197568,35.0036636 3.02846216,34.758729 C3.00416486,34.5153645 2.93127297,34.2774953 2.90697568,34.0325607 C2.89913784,33.9477757 2.89051622,33.8559252 2.98848919,33.8465047 C3.08489459,33.8370841 3.13192162,33.9988037 3.15621892,34.0568972 C3.25262432,34.289271 3.48384054,34.2782804 3.68605676,34.2578692 L6.42381351,33.9893832 Z" id="Fill-27" fill="#FEFEFE"></path>
                    <path d="M3.0265027,30.8484112 C2.87131351,30.761271 2.81723243,30.7282991 2.81958378,30.6733458 C2.82115135,30.6482243 2.87758378,30.6144673 2.95204324,30.5814953 L6.34190811,29.1966729 C6.57861081,29.0961869 6.8740973,29.0239626 6.95247568,28.7931589 C7.00812432,28.6306542 7.03085405,28.5395888 7.12804324,28.543514 C7.2268,28.5482243 7.22366486,28.6086729 7.21896216,28.7099439 C7.20642162,29.0035514 7.1445027,29.2940187 7.13274595,29.5625047 C7.12098919,29.8317757 7.15782703,30.1285234 7.1445027,30.4205607 C7.14058378,30.5061308 7.09825946,30.5406729 7.05985405,30.5391028 C6.98774595,30.5359626 6.93523243,30.4660935 6.93288108,30.374243 C6.90858378,30.2133084 6.77298919,30.1096822 6.6130973,30.1034019 C6.46104324,30.0955514 5.92728649,30.257271 5.83323243,30.3451963 C5.74936757,30.4221308 5.72036757,30.5359626 5.70782703,30.8358505 L5.66628649,31.7716262 C5.65217838,32.0832897 6.26274595,32.2819065 6.52531351,32.2944673 C6.61623243,32.2983925 6.7385027,32.1484486 6.78239459,32.0220561 C6.83804324,31.8540561 6.89682703,31.6287477 6.99401622,31.634243 C7.09198919,31.6373832 7.08963784,31.7048972 7.08571892,31.803028 C7.07552973,32.0110654 7.01831351,32.2175327 7.00890811,32.4255701 C7.00028649,32.6328224 7.04025946,32.843215 7.03085405,33.0504673 C7.02693514,33.1368224 7.02458378,33.2106168 6.92582703,33.2051215 C6.82785405,33.2019813 6.79807027,33.0465421 6.74007027,32.9586168 C6.67188108,32.8502804 6.60761081,32.7992523 6.51198919,32.7458692 L3.0265027,30.8484112 Z M5.09098919,31.6420935 C5.17485405,31.6899813 5.24069189,31.7166729 5.2595027,31.7174579 C5.31436757,31.7198131 5.33552973,31.6154019 5.34336757,31.4638879 L5.37158378,30.8036636 C5.38020541,30.6074019 5.3708,30.5336075 5.3465027,30.5312523 C5.30966486,30.5304673 5.19915135,30.5689346 5.09961081,30.6136822 L4.24371892,30.9928598 C4.16220541,31.0321121 4.11831351,31.0540935 4.11674595,31.097271 C4.11517838,31.1341682 4.24136757,31.1883364 4.27115135,31.2024673 L5.09098919,31.6420935 Z" id="Fill-29" fill="#FEFEFE"></path>
                    <path d="M5.67851351,21.7410841 C5.79372973,21.7630654 5.92383784,21.772486 5.99516216,21.7952523 C6.05864865,21.8148785 6.12527027,21.8674766 6.10724324,21.9263551 C6.0852973,21.9970093 5.92383784,22.0158505 5.87759459,22.0276262 C5.11418919,22.1917009 4.61962162,22.5826542 4.4612973,23.0913645 C4.22772973,23.8324486 4.47775676,24.5091589 5.75062162,24.9079626 C6.64962162,25.1905794 7.67559459,24.8836262 7.92091892,24.0946542 C8.07454054,23.603215 7.96794595,23.0693832 7.75475676,22.662729 C7.70694595,22.5693084 7.61837838,22.4460561 7.64659459,22.3518505 C7.66227027,22.3047477 7.69597297,22.2968972 7.74848649,22.3141682 C7.92405405,22.3683364 8.68275676,23.3001869 8.2987027,24.527215 C7.99145946,25.5085234 6.96,26.3281121 5.71613514,25.9371589 C4.08821622,25.4253084 3.84132432,24.1472523 4.15562162,23.1423925 C4.35783784,22.5002243 4.82027027,22.1061308 4.86964865,21.9491215 C4.91510811,21.8023178 4.71837838,21.7983925 4.76932432,21.6343178 C4.785,21.5817196 4.82654054,21.5738692 4.85710811,21.5770093 L5.67851351,21.7410841 Z" id="Fill-31" fill="#FEFEFE"></path>
                    <path d="M6.33987027,18.0568598 C6.93868108,16.9562243 8.12297838,16.4789159 9.26103243,17.0998879 C10.4688432,17.7585421 10.6506811,19.2666168 10.0448162,20.3829533 C9.44443784,21.4859439 8.2718973,21.9051589 7.18165405,21.3108785 C6.02635676,20.6820561 5.73165405,19.1763364 6.33987027,18.0568598 M9.93978919,19.9998505 C10.2854378,19.3639626 9.85043784,18.5490841 9.0838973,18.1314393 C8.35262703,17.7326355 6.9378973,17.5332336 6.47076216,18.3936449 C6.12432973,19.0279626 6.55932973,19.8436262 7.32743784,20.261271 C8.05714054,20.6600748 9.47187027,20.8602617 9.93978919,19.9998505" id="Fill-33" fill="#FEFEFE"></path>
                    <path d="M9.13476486,15.4418692 C8.9591973,15.2903551 8.65665676,15.1262804 8.42544054,15.2244112 C8.21930541,15.3139065 8.14876486,15.3657196 8.07508919,15.3029159 C8.01473784,15.2503178 8.01708919,15.2197009 8.05392703,15.1780935 C8.17306216,15.0383551 8.31257568,14.9143178 8.43171081,14.7761495 C8.55241351,14.6395514 8.65352162,14.4825421 8.77344054,14.3435888 C8.85338649,14.2509533 8.89492703,14.2305421 8.9881973,14.2548785 L11.6444405,14.9779065 C11.9132784,15.0485607 12.019873,15.0846729 12.0324135,15.0713271 C12.055927,15.0422804 11.9994946,14.9308037 11.9509,14.7997009 L10.8912243,12.1077757 C10.8371432,11.9727477 10.8434135,11.9460561 10.8755486,11.910729 C10.9970351,11.7709907 11.1341973,11.6493084 11.2541162,11.5095701 C11.3748189,11.3714019 11.4751432,11.2167477 11.5958459,11.0762243 C11.6201432,11.0479626 11.6554135,11.054243 11.7024405,11.1021308 C11.7769,11.1672897 11.7306568,11.2662056 11.6577649,11.4530467 C11.5691973,11.6665794 11.5519541,11.7811963 11.8247108,12.0182804 L13.4651703,13.44 C13.8484405,13.7705047 14.1188459,13.9651963 14.5687378,13.7234019 C14.6894405,13.659028 14.7482243,13.6370467 14.8226838,13.7006355 C14.8971432,13.7650093 14.8164135,13.859215 14.7356838,13.9526355 C14.5585486,14.1214206 14.3986568,14.3066916 14.2207378,14.4754766 C14.0780892,14.6772336 13.9197649,14.8617196 13.7779,15.0611215 C13.6971703,15.153757 13.6180081,15.2479626 13.5435486,15.1828037 C13.4690892,15.119215 13.4824135,15.0571963 13.5208189,14.9362991 C13.5701973,14.7769346 13.4949541,14.6960748 13.2417919,14.4754766 L11.7627919,13.1942804 C11.7165486,13.155028 11.6295486,13.086729 11.6130892,13.1055701 C11.584873,13.137757 11.6264135,13.221757 11.6938189,13.3858318 L12.7879811,15.9458692 C12.8248189,16.0337944 12.8491162,16.1358505 12.8020892,16.1915888 C12.7542784,16.2465421 12.6829541,16.2261308 12.6163324,16.2088598 L9.87779189,15.4143925 C9.79000811,15.3853458 9.69595405,15.3625794 9.66930541,15.3939813 C9.64422432,15.422243 9.65598108,15.4473645 9.74298108,15.523514 L10.9625486,16.580972 C11.2533324,16.833757 11.5543054,16.9711402 11.9501162,16.7576075 C12.0410351,16.7065794 12.1186297,16.6838131 12.1915216,16.7481869 C12.2667649,16.8125607 12.1985757,16.8902804 12.1586027,16.9373832 C12.0190892,17.0998879 11.8411703,17.2286355 11.7024405,17.3911402 C11.5621432,17.5520748 11.4579,17.7459813 11.3176027,17.908486 C11.2784135,17.9548037 11.2353054,18.0058318 11.1608459,17.942243 C11.0863865,17.8778692 11.1114676,17.8017196 11.1349811,17.7004486 C11.2133595,17.3471776 11.1318459,17.1713271 10.8755486,16.9522991 L9.13476486,15.4418692 Z" id="Fill-35" fill="#FEFEFE"></path>
                    <path d="M13.6663676,10.5800748 C13.530773,10.3893084 13.2760432,10.1592897 13.0283676,10.2016822 C12.8073405,10.2393645 12.7266108,10.2739065 12.6701784,10.1938318 C12.6239351,10.1286729 12.6333405,10.1011963 12.6780162,10.0705794 C12.8269351,9.96381308 12.9915297,9.8766729 13.1396649,9.77069159 C13.2893676,9.66314019 13.4233946,9.53596262 13.5746649,9.42762617 C13.6726378,9.35618692 13.7180973,9.34676636 13.8035297,9.39151402 L16.2152324,10.7198131 C16.4613405,10.853271 16.5553946,10.9129346 16.5702865,10.902729 C16.6008541,10.8799626 16.5734216,10.7567103 16.5553946,10.6201121 L16.1564486,7.75233645 C16.1368541,7.6086729 16.1501784,7.58433645 16.1893676,7.55842991 C16.3390703,7.45166355 16.5020973,7.36530841 16.6518,7.25775701 C16.8007189,7.15099065 16.9355297,7.02459813 17.0844486,6.91547664 C17.1142324,6.89349533 17.1479351,6.90841121 17.1824216,6.96571963 C17.2380703,7.04657944 17.1722324,7.13214953 17.0570162,7.2962243 C16.9206378,7.48385047 16.8775297,7.59140187 17.0860162,7.88579439 L18.3479081,9.65450467 C18.641827,10.0674393 18.8589351,10.3178692 19.3535027,10.1906916 C19.4867459,10.1561495 19.5494486,10.1482991 19.6050973,10.2283738 C19.6630973,10.3084486 19.562773,10.3791028 19.4632324,10.449757 C19.2492595,10.5730093 19.0509622,10.7151028 18.837773,10.8375701 C18.6528,10.9992897 18.4537189,11.1421682 18.2703135,11.3046729 C18.170773,11.3753271 18.0704486,11.4467664 18.0132324,11.3659065 C17.9568,11.2874019 17.9834486,11.2308785 18.0492865,11.121757 C18.1347189,10.9788785 18.0814216,10.8823178 17.8854757,10.6091215 L16.7482054,9.01390654 C16.7137189,8.96366355 16.6439622,8.8788785 16.6251514,8.8922243 C16.5898811,8.91656075 16.6086919,9.00762617 16.6376919,9.18426168 L17.1001243,11.9303551 C17.1150162,12.0245607 17.1150162,12.1305421 17.0562324,12.1729346 C16.9966649,12.2145421 16.9331784,12.1784299 16.8720432,12.146243 L14.3968541,10.7284486 C14.3161243,10.6797757 14.2322595,10.6358131 14.197773,10.6601495 C14.1656378,10.6813458 14.1711243,10.7072523 14.2393135,10.803028 L15.1759351,12.1171963 C15.4000973,12.4304299 15.6595297,12.6376822 16.0953135,12.5207103 C16.1964216,12.4948037 16.2755838,12.4900935 16.3328,12.5693832 C16.3892324,12.6494579 16.3053676,12.7099065 16.2559892,12.7452336 C16.0812054,12.8700561 15.8789892,12.9548411 15.7049892,13.0780935 C15.5302054,13.2037009 15.3852054,13.3677757 15.2104216,13.4925981 C15.1610432,13.5279252 15.1061784,13.5671776 15.0489622,13.4878879 C14.9925297,13.4078131 15.0348541,13.3402991 15.0810973,13.2476636 C15.2394216,12.9226542 15.2010162,12.7326729 15.0066378,12.4571215 L13.6663676,10.5800748 Z" id="Fill-37" fill="#FEFEFE"></path>
                    <path d="M20.5231432,5.2684486 C21.6784405,4.77779439 22.9027108,5.14362617 23.4066838,6.34003738 C23.9435757,7.61102804 23.1480351,8.90557009 21.9770622,9.40250467 C20.8217649,9.89315888 19.6406027,9.48728972 19.1570081,8.34033645 C18.6451973,7.12665421 19.3498189,5.76381308 20.5231432,5.2684486 M22.1346027,9.03588785 C22.8000351,8.75562617 22.9669811,7.84497196 22.6260351,7.03715888 C22.3023324,6.27016822 21.3171162,5.23076636 20.4173324,5.61229907 C19.7511162,5.89334579 19.5841703,6.80321495 19.9243324,7.61024299 C20.2488189,8.37801869 21.2324676,9.41820561 22.1346027,9.03588785" id="Fill-39" fill="#FEFEFE"></path>
                    <path d="M24.9587324,5.1491215 C24.8066784,5.04942056 24.6577595,4.95992523 24.6279757,4.96699065 C24.5989757,4.97405607 24.5833,4.99446729 24.6123,5.13813084 L25.0480838,7.28209346 C25.1084351,7.57491589 25.2542189,7.7766729 25.5614622,7.80885981 C25.7205703,7.82613084 25.9165162,7.77353271 25.9384622,7.88736449 C25.9635432,8.00826168 25.8201108,8.03809346 25.7119486,8.06085981 C25.5026784,8.10168224 25.2832189,8.09618692 25.0731649,8.14014953 C24.8638946,8.18254206 24.6640297,8.27203738 24.4531919,8.31678505 C24.3936243,8.32856075 24.3285703,8.3411215 24.3089757,8.24534579 C24.2885973,8.14957009 24.3544351,8.10482243 24.4351649,8.03809346 C24.7126243,7.80728972 24.7721919,7.61338318 24.7055703,7.2828785 L24.2454892,5.01958879 C24.1992459,4.79271028 24.0417054,4.48026168 23.7979486,4.41745794 C23.5816243,4.36171963 23.4938405,4.36093458 23.4750297,4.26437383 C23.4546514,4.16859813 23.4914892,4.16153271 23.5330297,4.15525234 C23.7125162,4.11835514 23.8967054,4.10579439 24.0769757,4.0688972 C24.2564622,4.03278505 24.4312459,3.9715514 24.6107324,3.93229907 C24.7431919,3.90639252 24.7894351,3.91659813 24.855273,3.96448598 L27.6635703,5.89884112 C27.7646784,5.96557009 27.8650027,6.02601869 27.8994892,6.01973832 C27.9473,6.01031776 27.9355432,5.92474766 27.9198676,5.83917757 L27.6424081,4.4771215 C27.5624622,4.08145794 27.4644892,3.7195514 27.0757324,3.71248598 C26.9127054,3.70699065 26.7418405,3.69835514 26.7214622,3.60257944 C26.7026514,3.50601869 26.8170838,3.48325234 26.9244622,3.46205607 C27.1337324,3.4204486 27.3531919,3.42594393 27.5640297,3.3835514 C27.7733,3.34037383 27.9731649,3.24930841 28.1832189,3.20534579 C28.2427865,3.192 28.3086243,3.17943925 28.3282189,3.276 C28.3485973,3.37099065 28.2827595,3.41573832 28.2020297,3.48246729 C27.9237865,3.71405607 27.8697054,3.90639252 27.936327,4.23611215 L28.5249486,7.12900935 C28.5782459,7.39357009 28.5688405,7.47128972 28.4967324,7.48463551 C28.4316784,7.49876636 28.2459216,7.38100935 28.0640838,7.26011215 L24.9587324,5.1491215 Z" id="Fill-41" fill="#FEFEFE"></path>
                    <path d="M29.334127,3.61278505 C29.2651541,3.40474766 29.1562081,3.34743925 29.0707757,3.29013084 C29.0041541,3.24773832 28.9312622,3.23988785 28.9328297,3.14175701 C28.9343973,3.04362617 29.0143432,3.04362617 29.0935054,3.04362617 C29.3317757,3.0491215 29.5700459,3.10171963 29.8075324,3.10485981 C30.0465865,3.11035514 30.2864243,3.06403738 30.5246946,3.07031776 C30.6273703,3.07188785 30.6838027,3.0726729 30.6822351,3.16923364 C30.6798838,3.26893458 30.5819108,3.28463551 30.4894243,3.31525234 C30.3185595,3.36706542 30.2919108,3.47618692 30.2903432,3.59315888 C30.2903432,3.64811215 30.3475595,3.76429907 30.4181,3.98018692 L31.0819649,5.99461682 C31.0992081,6.05114019 31.1172351,6.10609346 31.1344784,6.10609346 C31.1470189,6.10609346 31.1846405,6.04014953 31.2105054,5.97970093 L31.8438027,4.63570093 L31.5240189,3.64968224 C31.4597486,3.44085981 31.3453162,3.3835514 31.2598838,3.32702804 C31.1932622,3.28306542 31.1203703,3.27678505 31.1211541,3.17708411 C31.1235054,3.07973832 31.2034514,3.08052336 31.2826135,3.08052336 C31.5216676,3.08523364 31.7591541,3.13783178 31.9966405,3.14254206 C32.2356946,3.14646729 32.4747486,3.10093458 32.7138027,3.10485981 C32.8180459,3.108 32.872127,3.10878505 32.8705595,3.20613084 C32.8689919,3.30426168 32.7718027,3.32074766 32.6793162,3.35057944 C32.5076676,3.40317757 32.4865054,3.51936449 32.4849378,3.59865421 C32.4833703,3.69678505 32.5719378,3.90717757 32.6126946,4.01708411 L33.2436405,5.87136449 C33.2718568,5.9522243 33.2843973,5.98833645 33.3079108,5.9891215 C33.3518027,5.9891215 33.3902081,5.88706542 33.4348838,5.77009346 L34.0227216,4.1882243 C34.0869919,4.01629907 34.1206946,3.85771963 34.1230459,3.72269159 C34.1269649,3.45342056 33.7899378,3.47854206 33.6566946,3.39140187 C33.5477486,3.32153271 33.4881811,3.27364486 33.4889649,3.21633645 C33.4905324,3.11820561 33.5634243,3.1197757 33.6245595,3.11899065 C33.8330459,3.12291589 34.0407486,3.17551402 34.2476676,3.17865421 C34.4545865,3.18179439 34.6646405,3.13704673 34.8723432,3.14175701 C34.9272081,3.14254206 35.0134243,3.1433271 35.011073,3.24224299 C35.0095054,3.33958879 34.8817486,3.33801869 34.757127,3.45185047 C34.583127,3.60728972 34.5580459,3.70620561 34.3903162,4.11914019 L33.1926946,7.07091589 C33.0594514,7.39278505 33.0092892,7.43046729 32.9489378,7.42811215 C32.8752622,7.4273271 32.8203973,7.39671028 32.7451541,7.16826168 L32.0805054,5.21585047 C32.0452351,5.10986916 32.0154514,5.04942056 31.9966405,5.04863551 C31.9715595,5.04863551 31.9456946,5.10829907 31.8829919,5.23704673 L31.0028027,7.06542056 C30.8648568,7.35824299 30.8193973,7.39278505 30.7472892,7.392 C30.6673432,7.392 30.6367757,7.35431776 30.5497757,7.10074766 L29.334127,3.61278505 Z" id="Fill-43" fill="#FEFEFE"></path>
                    <path d="M36.1405838,4.49125234 C36.2017189,4.19685981 36.2644216,3.74074766 36.0190973,3.6591028 C35.838827,3.59708411 35.7236108,3.51700935 35.7439892,3.42201869 C35.7635838,3.32388785 35.8646919,3.34508411 35.9853946,3.3717757 C36.4337189,3.52721495 36.8985027,3.60414953 37.3585838,3.70699065 C37.8178811,3.80198131 38.2905027,3.84986916 38.7513676,3.94564486 C38.8885297,3.97469159 39.0076649,3.99902804 38.9833676,4.11992523 C38.9559351,4.25024299 38.905773,4.37742056 38.8775568,4.50930841 C38.8501243,4.64198131 38.8469892,4.77936449 38.8203405,4.90968224 C38.8054486,4.97641121 38.7780162,5.01958879 38.6878811,5.00153271 C38.5922595,4.9811215 38.5969622,4.87042991 38.6016649,4.81547664 C38.6385027,4.42766355 38.4966378,4.23611215 37.7959351,4.09166355 L37.4079622,4.00923364 C37.2402324,3.97704673 37.1869351,4.02100935 37.1375568,4.25495327 L36.9220162,5.3037757 C36.9016378,5.3995514 36.9956919,5.45057944 37.2355297,5.50160748 C37.5835297,5.57226168 37.8664757,5.52515888 38.0169622,5.28728972 C38.1172865,5.13263551 38.1447189,5.12085981 38.2058541,5.13185047 C38.2952054,5.15147664 38.2779622,5.23704673 38.2599351,5.32026168 C38.2230973,5.50003738 38.1619622,5.67431776 38.1251243,5.85409346 C38.0882865,6.03386916 38.0749622,6.21914019 38.0373405,6.39891589 C38.0193135,6.48134579 38.0020703,6.56613084 37.8876378,6.54336449 C37.7975027,6.52452336 37.8351243,6.34474766 37.7880973,6.20971963 C37.6893405,5.93259813 37.5231784,5.85958879 37.1759622,5.78893458 C36.8890973,5.72848598 36.8185568,5.79442991 36.7879892,5.94515888 L36.5748,6.97042991 C36.4846649,7.41476636 36.5473676,7.49641121 36.8648,7.56235514 C37.4941784,7.6926729 37.8805838,7.57256075 38.1259081,7.4171215 C38.3696649,7.26168224 38.470773,7.07091589 38.5679622,7.09054206 C38.6392865,7.1046729 38.6526108,7.1635514 38.6400703,7.22478505 C38.6149892,7.3433271 38.5193676,7.56863551 38.4511784,7.68011215 C38.3234216,7.90306542 37.9942324,8.14014953 37.7128541,8.08284112 C37.3115568,7.99962617 36.9220162,7.86852336 36.5199351,7.78452336 C36.1186378,7.69973832 35.7079351,7.66598131 35.3066378,7.58119626 C35.1208811,7.54272897 35.0307459,7.52545794 35.0511243,7.42968224 C35.0722865,7.33390654 35.1992595,7.31585047 35.3191784,7.28523364 C35.5355027,7.22949533 35.6005568,7.09368224 35.6710973,6.75140187 L36.1405838,4.49125234 Z" id="Fill-45" fill="#FEFEFE"></path>
                    <path d="M42.1409189,5.2331215 C42.2733784,5.11457944 42.321973,5.07454206 42.3729189,5.09416822 C42.3956486,5.10437383 42.4097568,5.16796262 42.4168108,5.25117757 L42.6025676,8.91106542 C42.619027,9.1677757 42.5892432,9.47472897 42.7789189,9.62153271 C42.9137297,9.72908411 42.9928919,9.7808972 42.9560541,9.87117757 C42.92,9.96224299 42.8635676,9.93947664 42.7726486,9.90336449 C42.4998919,9.79424299 42.2459459,9.64037383 41.9974865,9.53988785 C41.7458919,9.44018692 41.4566757,9.37659813 41.1831351,9.26669159 C41.103973,9.23528972 41.0851622,9.18269159 41.0992703,9.14814953 C41.1259189,9.07906542 41.209,9.05315888 41.2967838,9.08220561 C41.4566757,9.11125234 41.5977568,9.01704673 41.6573243,8.87024299 C41.7145405,8.72814953 41.7388378,8.17076636 41.6878919,8.05143925 C41.6432162,7.94859813 41.5452432,7.88265421 41.267,7.77039252 L40.3977838,7.42261682 C40.1093514,7.308 39.7213784,7.81671028 39.6226216,8.06242991 C39.5889189,8.148 39.6868919,8.31285981 39.7942703,8.39371963 C39.9353514,8.50362617 40.1258108,8.63315888 40.0897568,8.7242243 C40.0537027,8.81528972 39.9917838,8.79095327 39.9008649,8.75405607 C39.7080541,8.67633645 39.5324865,8.55386916 39.3404595,8.47536449 C39.1460811,8.39842991 38.9352432,8.36781308 38.7424324,8.29009346 C38.6624865,8.25869159 38.5950811,8.232 38.6319189,8.14014953 C38.667973,8.04986916 38.8239459,8.07185047 38.9250541,8.04672897 C39.0488919,8.01768224 39.1186486,7.97293458 39.2009459,7.89992523 L42.1409189,5.2331215 Z M40.7105135,6.92175701 C40.6391892,6.98456075 40.5913784,7.03872897 40.5843243,7.05521495 C40.5639459,7.10702804 40.6525135,7.16198131 40.7959459,7.22007477 L41.4088649,7.46500935 C41.5899189,7.53723364 41.662027,7.55371963 41.6714324,7.53016822 C41.6855405,7.49719626 41.6863243,7.37865421 41.6769189,7.26953271 L41.6024595,6.3353271 C41.5907027,6.24583178 41.5852162,6.19715888 41.546027,6.1806729 C41.5107568,6.16811215 41.4190541,6.26859813 41.3963243,6.29293458 L40.7105135,6.92175701 Z" id="Fill-47" fill="#FEFEFE"></path>
                    <path d="M45.3519243,7.37629907 C45.5510054,7.05285981 45.4412757,6.83304673 45.2233838,6.69801869 C45.1559784,6.65798131 45.1395189,6.58968224 45.1841946,6.51745794 C45.2171135,6.46485981 45.2790324,6.44523364 45.3362486,6.48134579 C45.5862757,6.636 45.8143568,6.83540187 46.0651676,6.99005607 C46.3198973,7.14785047 46.5950054,7.2608972 46.7940865,7.38257944 C46.8654108,7.42811215 46.944573,7.47678505 46.893627,7.55921495 C46.8418973,7.64321495 46.7368703,7.61416822 46.6749514,7.5968972 C46.4327622,7.53409346 46.2493568,7.69345794 46.1419784,7.86538318 L44.7507622,10.1223925 C44.5054378,10.5180561 44.5391405,10.6036262 44.8048432,10.768486 C45.3519243,11.1060561 45.755573,11.1256822 46.0385189,11.0636636 C46.3230324,11.0016449 46.4860595,10.8650467 46.6153838,10.9451215 C46.6890595,10.9898692 46.6773027,11.1131215 46.6059784,11.2277383 C46.342627,11.6548037 45.7273568,11.7340935 45.320573,11.4836636 C44.9717892,11.2677757 44.2844108,10.7841869 43.9364108,10.5682991 C43.7436,10.4481869 43.5257081,10.3720374 43.3321135,10.2534953 C43.2137622,10.1789159 43.1134378,10.1184673 43.1651676,10.0344673 C43.2161135,9.95046729 43.3078162,9.99207477 43.4661405,9.99050467 C43.7138162,9.98500935 43.8533297,9.80366355 43.9591405,9.63330841 L45.3519243,7.37629907 Z" id="Fill-49" fill="#FEFEFE"></path>
                    <path d="M49.2417649,9.84213084 C49.3797108,9.6717757 49.2974135,9.5406729 49.0701162,9.35383178 C48.6170892,8.97779439 48.3835216,8.84904673 47.8803324,9.22037383 C47.8521162,9.24471028 47.8113595,9.23528972 47.7604135,9.1928972 C47.6945757,9.13794393 47.6984946,9.09319626 47.7212243,9.06493458 C47.7564946,9.0233271 47.8199811,8.9644486 47.8693595,8.9157757 L48.3121973,8.4722243 C48.3913595,8.39528972 48.4344676,8.39136449 48.5449811,8.47850467 C49.0254405,8.87652336 49.4706297,9.30751402 49.9534405,9.70474766 C50.4339,10.1027664 50.9511973,10.466243 51.4238189,10.8564112 C51.5413865,10.9553271 51.5453054,10.9804486 51.4261703,11.1531589 L51.0766027,11.6744299 C51.053873,11.7121121 51.0272243,11.7537196 51.0005757,11.7866916 C50.9770622,11.8149533 50.9151432,11.7945421 50.8775216,11.7639252 C50.8195216,11.7168224 50.8077649,11.6830654 50.8265757,11.6508785 C51.0930622,11.0848598 50.9221973,10.8799626 50.4668189,10.5070654 C50.2089541,10.2919626 50.0866838,10.2778318 49.9573595,10.433271 L48.1530892,12.6282617 C47.8466297,13.002729 48.1703324,13.2617944 48.2683054,13.4619813 C48.3004405,13.5287103 48.3921432,13.5797383 48.305927,13.6833645 C48.2440081,13.759514 48.1875757,13.7139813 48.1311432,13.6668785 C47.8521162,13.4368598 47.5966027,13.1620935 47.3073865,12.9234393 C47.0189541,12.6863551 46.6999541,12.4869533 46.4217108,12.2561495 C46.3652784,12.2090467 46.3072784,12.162729 46.3699811,12.0865794 C46.4554135,11.9829533 46.5251703,12.0638131 46.5957108,12.0818692 C46.8096838,12.1407477 47.1271162,12.4100187 47.4343595,12.0363364 L49.2417649,9.84213084 Z" id="Fill-51" fill="#FEFEFE"></path>
                    <path d="M52.8544595,15.1309907 C52.9916216,15.2950654 53.0801892,15.3241121 53.1883514,15.2346168 L53.8373243,14.6945047 C54.1281081,14.4511402 54.0795135,14.2195514 53.9305946,14.0122991 C53.8835676,13.9455701 53.8859189,13.8804112 53.9603784,13.8183925 C54.0364054,13.7548037 54.1484865,13.8921869 54.2621351,14.0311402 C54.4188919,14.2179813 54.538027,14.4377944 54.6947838,14.6269907 C54.849973,14.8154019 55.0451351,14.9724112 55.2018919,15.1592523 C55.2567568,15.2236262 55.3155405,15.2950654 55.2387297,15.3578692 C55.1634865,15.4206729 55.0741351,15.3602243 55.0200541,15.3241121 C54.857027,15.2134206 54.6140541,15.2573832 54.4314324,15.4096822 L52.3152162,17.1721121 C52.0244324,17.4154766 52.0722432,17.6454953 52.2227297,17.8558879 C52.2674054,17.9202617 52.2658378,17.9869907 52.1913784,18.0490093 C52.1177027,18.1118131 52.0040541,17.9744299 51.8904054,17.840972 C51.7328649,17.6517757 51.6152973,17.4319626 51.4585405,17.2435514 C51.3017838,17.0535701 51.1074054,16.8981308 50.9506486,16.7081495 C50.8965676,16.6422056 50.8377838,16.5723364 50.9122432,16.5087477 C50.9882703,16.4459439 51.0791892,16.5071776 51.1317027,16.5425047 C51.3401892,16.6791028 51.5659189,16.5864673 51.7211081,16.4569346 L52.624027,15.7040748 C52.7737297,15.5792523 52.7564865,15.5384299 52.6436216,15.4018318 L51.6842703,14.2485981 C51.6176486,14.1685234 51.522027,14.2234766 51.4554054,14.28 L50.5438649,15.0399252 C50.2522973,15.2832897 50.3001081,15.5133084 50.4513784,15.7221308 C50.4976216,15.7888598 50.4968378,15.8524486 50.420027,15.9160374 C50.3455676,15.9788411 50.2319189,15.8414579 50.1182703,15.7056449 C49.9615135,15.5172336 49.8431622,15.2989907 49.6864054,15.1090093 C49.5304324,14.9213832 49.3360541,14.7635888 49.1808649,14.5751776 C49.1236486,14.5092336 49.0656486,14.4377944 49.1393243,14.3749907 C49.2169189,14.3121869 49.3070541,14.3734206 49.3595676,14.4079626 C49.5680541,14.5461308 49.7937838,14.4527103 49.9497568,14.3239626 L52.0636216,12.5607477 C52.355973,12.3181682 52.3081622,12.0873645 52.1576757,11.877757 C52.1114324,11.8125981 52.1122162,11.7474393 52.1882432,11.6846355 C52.2627027,11.6226168 52.3763514,11.7576449 52.4907838,11.8965981 C52.6467568,12.0834393 52.7658919,12.3040374 52.9226486,12.4924486 C53.0794054,12.6808598 53.273,12.8378692 53.428973,13.0254953 C53.4830541,13.0898692 53.5418378,13.1628785 53.4681622,13.2256822 C53.3921351,13.2869159 53.302,13.2280374 53.2494865,13.1911402 C53.0394324,13.0553271 52.8152703,13.1471776 52.6585135,13.2774953 L52.0103243,13.8176075 C51.9170541,13.8953271 51.9084324,13.9903178 52.0095405,14.1135701 L52.8544595,15.1309907 Z" id="Fill-53" fill="#FEFEFE"></path>
                    <path d="M56.5985946,18.8952897 C56.9458108,18.7429907 56.9795135,18.4988411 56.8768378,18.2641121 C56.8439189,18.1911028 56.8697838,18.126729 56.9418919,18.0945421 C57.0202703,18.06 57.0696486,18.0992523 57.1911351,18.3724486 C57.2906757,18.596972 57.343973,18.8411215 57.4411622,19.0656449 C57.5399189,19.2901682 57.6833514,19.4942804 57.7828919,19.7180187 C57.8416757,19.8530467 57.8197297,19.8977944 57.7648649,19.9221308 C57.6966757,19.9511776 57.6402432,19.8813084 57.5548108,19.8122243 C57.3847297,19.6654206 57.1738919,19.6591402 56.974027,19.7478505 L55.2324595,20.5148411 C54.5772162,20.8021682 54.298973,21.4466916 54.6015135,22.1367477 C55.042,23.1408224 55.951973,23.0348411 56.5735135,22.7608598 L58.0007838,22.1320374 C58.2852973,22.0064299 58.4012973,21.7811215 58.2821622,21.4655327 C58.2461081,21.368972 58.2484595,21.2669159 58.337027,21.2292336 C58.4052162,21.1970467 58.4577297,21.2559252 58.5188649,21.3940935 C58.5925405,21.5620935 58.6434865,21.7410841 58.7171622,21.9090841 C58.7908378,22.0778692 58.888027,22.2356636 58.9617027,22.4044486 C59.0102973,22.5174953 58.9954054,22.5434019 58.9287838,22.5732336 C58.8394324,22.612486 58.7892703,22.5143551 58.706973,22.4366355 C58.5698108,22.3023925 58.4491081,22.3016075 57.9631622,22.5174953 L56.7694595,23.0419065 C55.5263784,23.5890841 54.6117027,23.2240374 54.0552162,21.956972 C53.6037568,20.9301308 53.7722703,20.1395888 54.8358649,19.6717009 L56.5985946,18.8952897 Z" id="Fill-55" fill="#FEFEFE"></path>
                    <path d="M58.3315405,24.864 C58.4295135,24.7109159 58.5141622,24.560972 58.5078919,24.5303551 C58.5031892,24.5013084 58.4804595,24.4856075 58.3354595,24.5185794 L56.2051351,24.9848972 C55.912,25.0500561 55.7137027,25.200785 55.6862703,25.5061682 C55.6713784,25.6647477 55.7262432,25.8610093 55.6125946,25.8869159 C55.4942432,25.9120374 55.4613243,25.7683738 55.4401622,25.6600374 C55.3931351,25.4504299 55.3954865,25.2314019 55.3492432,25.0210093 C55.3045676,24.812972 55.2112973,24.6135701 55.1642703,24.4047477 C55.1517297,24.343514 55.1376216,24.2783551 55.2324595,24.2571589 C55.3280811,24.2367477 55.3743243,24.3019065 55.4425135,24.3819813 C55.6760811,24.6559626 55.8712432,24.713271 56.1996486,24.6410467 L58.4498919,24.1488224 C58.6771892,24.0985794 58.986,23.9368598 59.0447838,23.6919252 C59.0980811,23.4728972 59.0980811,23.3873271 59.1937027,23.3653458 C59.2893243,23.3449346 59.2963784,23.3802617 59.305,23.4210841 C59.3441892,23.6024299 59.3590811,23.7861308 59.3990541,23.9651215 C59.4382432,24.1441121 59.5001622,24.3183925 59.5401351,24.4997383 C59.5683514,24.6308411 59.5605135,24.6755888 59.5119189,24.7415327 L57.623,27.5826168 C57.5579459,27.6846729 57.4983784,27.7843738 57.507,27.820486 C57.5171892,27.8683738 57.6010541,27.8565981 57.6849189,27.8385421 L59.0408649,27.5402243 C59.4351081,27.4538692 59.7948649,27.3518131 59.7972162,26.9608598 C59.7987838,26.7983551 59.8050541,26.628 59.9006757,26.6068037 C59.9955135,26.5856075 60.0205946,26.7002243 60.0441081,26.8062056 C60.0903514,27.0158131 60.0887838,27.2356262 60.1334595,27.4436636 C60.1797027,27.653271 60.272973,27.8534579 60.3184324,28.0638505 C60.3317568,28.123514 60.3450811,28.1886729 60.2502432,28.2106542 C60.1546216,28.2310654 60.1099459,28.1651215 60.0417568,28.0866168 C59.8081892,27.8110654 59.6138108,27.7592523 59.2854054,27.8322617 L56.4081351,28.4634393 C56.144,28.5191776 56.067973,28.5113271 56.0522973,28.4398879 C56.0381892,28.374729 56.1534054,28.1863178 56.2701892,28.0041869 L58.3315405,24.864 Z" id="Fill-57" fill="#FEFEFE"></path>
                    <path d="M56.9552162,30.710243 C56.5774324,30.7361495 56.4833784,31.079215 56.4802432,31.214243 C56.4786757,31.2943178 56.4394865,31.3461308 56.3415135,31.3531963 C56.2443243,31.3586916 56.2325676,31.1820561 56.2208108,31.0054206 C56.2082703,30.8146542 56.2396216,30.5681495 56.2231622,30.3255701 C56.2082703,30.0782804 56.1432162,29.837271 56.125973,29.5939065 C56.1173514,29.4777196 56.1118649,29.3850841 56.2098378,29.3795888 C56.3078108,29.3725234 56.3454324,29.4737944 56.3665946,29.534243 C56.4575135,29.7681869 56.6918649,29.7948785 56.8932973,29.7823178 L59.6381081,29.5962617 C60.0158919,29.5711402 60.1115135,29.3568224 60.1122973,29.0993271 C60.1138649,29.0192523 60.1546216,28.9666542 60.2502432,28.9603738 C60.349,28.9525234 60.3607568,29.130729 60.3732973,29.3081495 C60.388973,29.5530841 60.3552703,29.8003738 60.3732973,30.0460935 C60.388973,30.2886729 60.4532432,30.5296822 60.4712703,30.7738318 C60.4767568,30.8601869 60.4822432,30.9520374 60.3850541,30.9575327 C60.2878649,30.9645981 60.2455405,30.8013084 60.2228108,30.7424299 C60.1334595,30.508486 59.9014595,30.5116262 59.700027,30.525757 L56.9552162,30.710243 Z" id="Fill-59" fill="#FEFEFE"></path>
                    <path d="M59.2791351,35.2226916 C59.4382432,35.3082617 59.5573784,35.3655701 59.6482973,35.3718505 C59.7642973,35.3797009 59.8332703,35.3600748 59.8857838,35.3090467 C59.9774865,35.2171963 60.0088378,35.0413458 60.1052432,34.8882617 C60.1601081,34.7995514 60.193027,34.758729 60.2596486,34.7642243 C60.3584054,34.7705047 60.3521351,34.843514 60.3482162,34.9039626 C60.3348919,35.1135701 60.2714054,35.3168972 60.2565135,35.5249346 C60.2424054,35.733757 60.2761081,35.9449346 60.2627838,36.1514019 C60.2588649,36.2063551 60.2518108,36.2927103 60.1554054,36.2848598 C60.0574324,36.2793645 60.0668378,36.1490467 59.9594595,36.019514 C59.8340541,35.8695701 59.6741622,35.7910654 59.3198919,35.6002991 L56.4245946,34.0309907 C56.1110811,33.8614206 56.1048108,33.7868411 56.1095135,33.7208972 C56.1157838,33.6290467 56.1855405,33.5882243 56.3932432,33.5136449 L59.8795135,32.2128224 C60.1742162,32.1060561 60.2478919,31.9325607 60.3168649,31.8328598 C60.3717297,31.751215 60.3764324,31.6837009 60.4744054,31.6899813 C60.5715946,31.6978318 60.5668919,31.7574953 60.5606216,31.8438505 C60.5441622,32.1194019 60.4751892,32.391028 60.4555946,32.6657944 C60.436,32.9397757 60.4657838,33.2176822 60.4477568,33.4932336 C60.4446216,33.5356262 60.436,33.6471028 60.3388108,33.6400374 C60.2408378,33.632972 60.2243784,33.532486 60.2055676,33.432785 C60.175,33.2482991 60.0542973,33.2216075 59.9147838,33.2114019 C59.8050541,33.2035514 59.6718108,33.2624299 59.5589459,33.3032523 L57.6026216,34.020785 C57.3894324,34.0985047 57.3322162,34.1173458 57.3298649,34.1495327 C57.3290811,34.1840748 57.3737568,34.2186168 57.4819189,34.2767103 L59.2791351,35.2226916 Z" id="Fill-61" fill="#FEFEFE"></path>
                    <path d="M58.9232973,37.3556636 C59.2156486,37.4263178 59.6678919,37.5048224 59.7588108,37.263028 C59.827,37.0840374 59.9116486,36.9733458 60.0049189,36.9953271 C60.1013243,37.0188785 60.0754595,37.1201495 60.0464595,37.2379065 C59.8763784,37.6814579 59.7838919,38.1446355 59.6647568,38.6015327 C59.555027,39.0584299 59.4923243,39.5294579 59.3802432,39.9887103 C59.3465405,40.1260935 59.3191081,40.2446355 59.2007568,40.2148037 C59.0690811,40.1818318 58.9428919,40.1276636 58.8135676,40.0946916 C58.6826757,40.0632897 58.5462973,40.0554393 58.4161892,40.0256075 C58.3487838,40.0091215 58.3064595,39.9792897 58.3284054,39.8905794 C58.3519189,39.7948037 58.4624324,39.8026542 58.5180811,39.8097196 C58.9013514,39.8599626 59.0988649,39.7257196 59.2673784,39.0278131 L59.3614324,38.6415701 C59.4021892,38.4743551 59.3582973,38.4194019 59.1270811,38.3644486 L58.0862162,38.1108785 C57.9913784,38.0873271 57.9372973,38.1815327 57.8785135,38.4194019 C57.7962162,38.7640374 57.8338378,39.0505794 58.0658378,39.2068037 C58.2163243,39.3143551 58.2280811,39.3434019 58.213973,39.4038505 C58.1912432,39.4925607 58.1089459,39.4721495 58.0258649,39.4509533 C57.8471622,39.4085607 57.6739459,39.3410467 57.496027,39.2986542 C57.3181081,39.2539065 57.1339189,39.2334953 56.956,39.1895327 C56.8721351,39.1699065 56.7898378,39.1502804 56.8164865,39.0364486 C56.8376486,38.9469533 57.0163514,38.9909159 57.1527297,38.9477383 C57.4325405,38.8598131 57.5093514,38.6957383 57.594,38.3503178 C57.662973,38.0645607 57.5994865,37.9923364 57.4505676,37.9562243 L56.434,37.7081495 C55.9942973,37.6029533 55.9104324,37.664972 55.8344054,37.9797757 C55.6823514,38.6038879 55.7889459,38.9956262 55.9362973,39.245271 C56.0828649,39.4957009 56.270973,39.6048224 56.2466757,39.699028 C56.2294324,39.7696822 56.1706486,39.782243 56.1118649,39.765757 C55.9919459,39.7390654 55.7724865,39.6346542 55.6627568,39.563215 C55.4448649,39.428972 55.2183514,39.0898318 55.2857568,38.808 C55.3829459,38.4099813 55.5279459,38.0229533 55.6235676,37.6249346 C55.7207568,37.2269159 55.7701351,36.8155514 55.8657568,36.4175327 C55.9104324,36.2322617 55.9331622,36.1427664 56.028,36.1663178 C56.1212703,36.1882991 56.1369459,36.3194019 56.1628108,36.438729 C56.2098378,36.6585421 56.3438649,36.7291963 56.6832432,36.8108411 L58.9232973,37.3556636 Z" id="Fill-63" fill="#FEFEFE"></path>
                    <path d="M58.0101892,41.7872523 C58.3401622,41.9340561 58.5251351,41.7848972 58.6599459,41.563514 C58.7038378,41.496 58.7571351,41.4661682 58.8457027,41.5046355 C58.9013514,41.529757 58.9248649,41.5658692 58.8668649,41.7016822 C58.8088649,41.8359252 58.6983514,41.9701682 58.5259189,42.3674019 C58.3934595,42.6696449 58.2562973,43.1045607 58.1497027,43.3534206 C57.8228649,44.1039252 57.343973,44.8245981 56.4191081,44.4210841 C56.0374054,44.2546542 55.9237568,43.9783178 55.8916216,43.6894206 C55.8782973,43.5504673 55.9135676,43.3746168 55.8579189,43.3487103 C55.7740541,43.3118131 54.3789189,43.4499813 53.9517568,43.5912897 C53.8663243,43.6226916 53.8122432,43.6533084 53.7910811,43.7019813 C53.7628649,43.764785 53.7534595,43.831514 53.7307297,43.8848972 C53.7025135,43.9516262 53.6531351,43.9563364 53.592,43.9296449 C53.3513784,43.8252336 53.6045405,43.1461682 53.6852703,42.9608972 C53.7565946,42.7991776 53.9541081,42.6508037 54.2307838,42.6264673 L55.7160541,42.4930093 C55.9323784,42.4718131 56.1110811,42.4435514 56.2012162,42.2378692 C56.2654865,42.0887103 56.2537297,42.0384673 56.1808378,42.0078505 L55.2277568,41.5909907 C54.7684595,41.3908037 54.5842703,41.5368224 54.4659189,41.764486 C54.4267297,41.8359252 54.3687297,41.8634019 54.2793784,41.8241495 C54.2080541,41.7927477 54.2182432,41.7181682 54.3311081,41.4591028 C54.4282973,41.2353645 54.5717297,41.0320374 54.6697027,40.806729 C54.7676757,40.5829907 54.8194054,40.337271 54.9181622,40.1119626 C54.9510811,40.034243 54.9879189,39.950243 55.0772703,39.9894953 C55.1674054,40.0279626 55.1540811,40.135514 55.147027,40.1991028 C55.1188108,40.4463925 55.303,40.6081121 55.4864054,40.6905421 L58.0101892,41.7872523 Z M56.7200811,42.2425794 C56.6526757,42.2127477 56.5249189,42.1554393 56.3665946,42.5149907 C56.1471351,43.0205607 56.2921351,43.3314393 56.8541081,43.5755888 C57.2561892,43.7522243 57.7538919,43.68 57.9631622,43.1995514 C58.0940541,42.8988785 58.0250811,42.8109533 57.8236486,42.7214579 L56.7200811,42.2425794 Z" id="Fill-65" fill="#FEFEFE"></path>
                    <path d="M54.0418919,44.6361869 C54.0951892,44.6558131 54.182973,44.6762243 54.2292162,44.7060561 C54.2652703,44.7280374 54.2934865,44.7774953 54.2370541,44.8630654 C54.1712162,44.9666916 54.0152432,44.9038879 53.9149189,44.889757 C53.3874324,44.8191028 52.7878378,44.956486 52.4774595,45.4424299 C52.2446757,45.8019813 52.2775946,46.2384673 52.6545946,46.4802617 C53.4932432,47.0203738 54.3138649,44.8465794 55.7184054,45.7501682 C56.249027,46.0932336 56.4496757,46.8327477 56.0585676,47.442729 C55.7787568,47.880785 55.408027,48.0126729 55.2990811,48.1845981 C55.263027,48.2395514 55.2614595,48.400486 55.2308919,48.4468037 C55.1893514,48.5158879 55.1485946,48.5111776 55.0804054,48.4664299 C54.7943243,48.2654579 54.2738919,48.047215 54.2158919,48.0095327 C54.1500541,47.9679252 54.1234054,47.9074766 54.1688649,47.8352523 C54.2292162,47.7426168 54.3240541,47.7755888 54.480027,47.8171963 C54.9314865,47.9404486 55.5522432,47.7206355 55.8038378,47.3312523 C56.0068378,47.0156636 56.0021351,46.6247103 55.7074324,46.4370841 C54.8335135,45.8742056 54.0693243,48.0841121 52.6483243,47.1695327 C52.1490541,46.8468785 51.7610811,46.0461308 52.2540811,45.2775701 C52.4672703,44.9470654 52.7604054,44.7280374 53.022973,44.452486 C53.0668649,44.4085234 53.1256486,44.3284486 53.2102973,44.3551402 L54.0418919,44.6361869 Z" id="Fill-67" fill="#FEFEFE"></path>
                    <path d="M50.9545676,48.3855701 C50.6622162,48.1437757 50.3588919,48.3306168 50.2640541,48.4279626 C50.2091892,48.4868411 50.1449189,48.4986168 50.0696757,48.434243 C49.9936486,48.3722243 50.1065135,48.2340561 50.2185946,48.099028 C50.3385135,47.9514393 50.5328919,47.7936449 50.6865135,47.6036636 C50.8401351,47.4152523 50.9592703,47.1938692 51.1128919,47.0031028 C51.1889189,46.9128224 51.2461351,46.8421682 51.3205946,46.9034019 C51.3974054,46.9662056 51.3558649,47.0659065 51.33,47.124 C51.2351622,47.3579439 51.3887838,47.5377196 51.5447568,47.6672523 L53.6719459,49.4131963 C53.9658649,49.6526355 54.1821892,49.5615701 54.3593243,49.374729 C54.414973,49.3166355 54.480027,49.3064299 54.5552703,49.3700187 C54.6312973,49.4296822 54.5192162,49.5686355 54.4055676,49.7036636 C54.2511622,49.896785 54.0575676,50.0537944 53.9023784,50.2437757 C53.747973,50.4345421 53.6311892,50.6535701 53.4744324,50.8419813 C53.4211351,50.9079252 53.3639189,50.9793645 53.2878919,50.9173458 C53.2126486,50.8553271 53.2925946,50.7077383 53.3176757,50.6488598 C53.4109459,50.4196262 53.2408649,50.2610467 53.0833243,50.1322991 L50.9545676,48.3855701 Z" id="Fill-69" fill="#FEFEFE"></path>
                    <path d="M51.2108649,52.3429907 C51.3597838,52.5047103 51.5000811,52.4411215 51.7140541,52.2393645 C52.1443514,51.8397757 52.3042432,51.6254579 52.0040541,51.0751402 C51.9844595,51.0460935 51.9977838,51.0060561 52.0479459,50.9620935 C52.1106486,50.9016449 52.1521892,50.9118505 52.1780541,50.9401121 C52.2148919,50.9785794 52.2634865,51.0523738 52.3058108,51.1034019 L52.6859459,51.6026916 C52.751,51.6945421 52.7502162,51.7353645 52.6475405,51.8342804 C52.1905946,52.2558505 51.7046486,52.6444486 51.2484865,53.0683738 C50.7915405,53.4938692 50.3628108,53.9601869 49.9152703,54.3762617 C49.803973,54.4798879 49.7781081,54.4791028 49.6213514,54.3401495 L49.1534324,53.9232897 C49.1205135,53.8965981 49.0821081,53.8651963 49.0523243,53.8337944 C49.028027,53.8063178 49.0554595,53.7450841 49.0907297,53.7128972 C49.144027,53.6610841 49.1808649,53.6540187 49.2106486,53.6775701 C49.7326486,54.0190654 49.9599459,53.8761869 50.3894595,53.474243 C50.6355676,53.2457944 50.6661351,53.1241121 50.5297568,52.9780935 L48.5977297,50.8945794 C48.2685405,50.5420935 47.9691351,50.8278505 47.7582973,50.8985047 C47.6877568,50.9228411 47.6234865,51.0060561 47.5317838,50.9071402 C47.4667297,50.8349159 47.520027,50.787028 47.5725405,50.7375701 C47.839027,50.4910654 48.1439189,50.2712523 48.4166757,50.0192523 C48.691,49.7625421 48.9308378,49.4736449 49.194973,49.2263551 C49.2498378,49.1768972 49.3023514,49.1274393 49.368973,49.1988785 C49.4598919,49.2977944 49.3728919,49.3551028 49.3431081,49.4226168 C49.2568919,49.627514 48.9488649,49.9077757 49.2780541,50.2626168 L51.2108649,52.3429907 Z" id="Fill-71" fill="#FEFEFE"></path>
                    <path d="M45.9336486,56.0664673 C45.9399189,56.2109159 45.9775405,56.3019813 46.0206486,56.3679252 C46.1131351,56.5139439 46.3302432,56.4668411 46.5935946,56.3765607 C46.6657027,56.3522243 46.7213514,56.3514393 46.7754324,56.4346542 C46.8287297,56.5162991 46.7722973,56.5539813 46.7103784,56.5924486 C46.5316757,56.7086355 46.3247568,56.784785 46.1452703,56.8994019 C45.965,57.0179439 45.8113784,57.1741682 45.6326757,57.2919252 C45.577027,57.3272523 45.5151081,57.3680748 45.4618108,57.2864299 C45.4092973,57.204 45.4508378,57.1686729 45.5158919,57.0752523 C45.6311081,56.9072523 45.6436486,56.767514 45.6287568,56.3161121 L45.5840811,54.7915514 C45.5809459,54.6408224 45.5864324,54.5277757 45.5268649,54.4351402 L45.0056486,53.6273271 C44.8394865,53.3706168 44.641973,53.2363738 44.351973,53.3721869 C44.2234324,53.4334206 44.1129189,53.4993645 44.0470811,53.3957383 C43.9773243,53.288972 44.1207568,53.1955514 44.264973,53.1021308 C44.4946216,52.952972 44.7532703,52.8430654 44.9993784,52.684486 C45.1725946,52.5714393 45.3779459,52.3791028 45.6083784,52.2291589 C45.7525946,52.1357383 45.8968108,52.0423178 45.9665676,52.1506542 C46.0324054,52.2527103 45.9289459,52.3296449 45.82,52.4214953 C45.577027,52.6318879 45.6185676,52.8666168 45.7847297,53.120972 L46.1993514,53.7647103 C46.2346216,53.8173084 46.2761622,53.8487103 46.3278919,53.8730467 L48.0451622,54.8135327 C48.4245135,55.020785 48.6126216,55.0380561 48.7646757,54.968972 C48.8947838,54.9124486 49.0052973,54.869271 49.0593784,54.953271 C49.1126757,55.0349159 49.0248919,55.0930093 48.9331892,55.1511028 C48.701973,55.3018318 48.4441081,55.4101682 48.2136757,55.5585421 C47.9824595,55.708486 47.7786757,55.9008224 47.5466757,56.0491963 C47.4541892,56.1104299 47.3671892,56.1653832 47.3146757,56.0845234 C47.2621622,56.0020935 47.404027,55.9086729 47.454973,55.8176075 C47.4980811,55.7383178 47.5215946,55.6731589 47.4949459,55.6315514 C47.4385135,55.5444112 47.3381892,55.4792523 47.2151351,55.4133084 L46.186027,54.8465047 C46.0159459,54.7530841 45.9454054,54.7326729 45.9148378,54.7530841 C45.8944595,54.7656449 45.8850541,54.9100935 45.8913243,55.0309907 L45.9336486,56.0664673 Z" id="Fill-73" fill="#FEFEFE"></path>
                    <path d="M22.8531757,57.3861308 C22.7019054,57.389271 22.5804189,57.3986916 22.4879324,57.4128224 C22.3946622,57.4245981 22.3194189,57.4442243 22.2598514,57.4717009 C22.2018514,57.4976075 22.1360135,57.54 22.0639054,57.5996636 C21.9917973,57.6608972 21.9024459,57.7472523 21.7974189,57.858729 L21.7519595,57.8438131 C21.7480405,57.6868037 21.7386351,57.5635514 21.724527,57.4709159 C21.7112027,57.3767103 21.6916081,57.3013458 21.6673108,57.2448224 C21.6398784,57.1859439 21.5967703,57.12 21.5356351,57.0469907 C21.4760676,56.9763364 21.3906351,56.8860561 21.2809054,56.783215 L21.2965811,56.7392523 C21.4486351,56.7368972 21.5709054,56.7282617 21.6641757,56.7141308 C21.7582297,56.7015701 21.833473,56.6811589 21.891473,56.6552523 C21.949473,56.6285607 22.014527,56.5845981 22.0866351,56.5257196 C22.1587432,56.464486 22.2488784,56.3773458 22.355473,56.2642991 L22.3993649,56.2831402 C22.4032838,56.4385794 22.4119054,56.5626168 22.4252297,56.6552523 C22.4393378,56.7478879 22.4581486,56.8224673 22.4855811,56.8821308 C22.5098784,56.9402243 22.5529865,57.0053832 22.6141216,57.0783925 C22.674473,57.1490467 22.7599054,57.237757 22.8696351,57.3405981 L22.8531757,57.3861308 Z" id="Fill-75" fill="#FEFEFE"></path>
                    <path d="M26.474727,56.7392523 C26.496673,56.6262056 26.4292676,56.5500561 26.3101324,56.5280748 C26.1361324,56.4935327 26.0797,56.5272897 26.0138622,56.5139439 C25.9409703,56.5005981 25.8774838,56.4754766 25.8962946,56.3718505 C25.9174568,56.263514 26.0734297,56.2690093 26.1478892,56.2642991 C26.4896189,56.2431028 26.8556459,56.2446729 27.1628892,56.0727477 C27.2052135,56.0507664 27.2702676,56.0005234 27.3180784,56.0099439 C27.3972405,56.0248598 27.4160514,56.0539065 27.3980243,56.1504673 L26.7545378,59.4971215 C26.6981054,59.790729 26.8070514,59.9045607 26.996727,60.0168224 C27.0931324,60.0717757 27.2514568,60.1165234 27.2342135,60.210729 C27.2201054,60.2837383 27.1558351,60.294729 27.0053486,60.2680374 C26.7474838,60.2177944 26.4982405,60.1212336 26.2411595,60.0694206 C25.9809432,60.0207477 25.713673,60.0199626 25.4550243,59.9673645 C25.2872946,59.9351776 25.2504568,59.8990654 25.2629973,59.8323364 C25.2818081,59.7373458 25.4072135,59.7357757 25.5624027,59.741271 C25.7348351,59.7506916 25.9221595,59.6164486 25.9574297,59.4303925 L26.474727,56.7392523 Z" id="Fill-77" fill="#FEFEFE"></path>
                    <path d="M31.1159027,57.3421682 C31.0853351,57.7841495 30.8517676,57.9521495 30.4873081,58.0659813 C30.4308757,58.0879626 30.3446595,58.1005234 30.3423081,58.1311402 C30.3407405,58.1484112 30.4112811,58.1837383 30.4543892,58.2049346 C30.9066324,58.4702804 31.2185784,58.9036262 31.1793892,59.4484486 C31.1112,60.4093458 30.3078216,60.664486 29.4911189,60.6048224 C28.7841459,60.5545794 28.1367405,60.1628411 28.1947405,59.3518879 C28.2253081,58.9279626 28.4604432,58.6390654 28.8249027,58.5118879 C28.8758486,58.4906916 28.9432541,58.4844112 28.9440378,58.4718505 C28.9456054,58.4530093 28.8930919,58.4184673 28.8468486,58.379215 C28.5693892,58.1327103 28.4337946,57.8163364 28.4627946,57.4104673 C28.5168757,56.6481869 29.2167946,56.2854953 29.9065243,56.3357383 C30.4442,56.3726355 31.1629297,56.6842991 31.1159027,57.3421682 L31.1159027,57.3421682 Z M29.2606865,58.665757 C29.2136595,58.6445607 29.1611459,58.6170841 29.1180378,58.6131589 C29.034173,58.6068785 28.8076595,58.8549533 28.7778757,59.252972 C28.7347676,59.8676636 29.0443622,60.3269159 29.679227,60.3740187 C29.9896054,60.396 30.5084703,60.2491963 30.5437405,59.7765981 C30.5680378,59.4358879 30.4637946,59.2576822 30.1918216,59.1210841 L29.2606865,58.665757 Z M29.0357405,57.1074393 C28.9926324,57.7189907 29.8877135,57.9741308 30.0405514,57.9859065 C30.3697405,58.0094579 30.5374703,57.7134953 30.5586324,57.4214579 C30.5946865,56.919028 30.2372811,56.6042243 29.7544703,56.5720374 C29.4448757,56.548486 29.0655243,56.6874393 29.0357405,57.1074393 L29.0357405,57.1074393 Z" id="Fill-79" fill="#FEFEFE"></path>
                    <path d="M32.8478297,56.8036262 C32.4449649,56.8295327 32.3618838,57.1600374 32.2215865,57.1686729 C32.1792622,57.1718131 32.1165595,57.1514019 32.1142081,57.1019439 C32.1001,56.8954766 32.6550189,56.3851963 33.2475595,56.347514 C33.6856946,56.3184673 34.1606676,56.5531963 34.1920189,57.0281495 C34.2163162,57.4136075 33.9114243,57.7237009 33.6253432,57.9372336 C33.6081,57.9505794 33.5924243,57.9827664 33.5932081,58.0008224 C33.5939919,58.0196636 33.6065324,58.0306542 33.6488568,58.0353645 C34.2202351,58.0400748 34.5353162,58.3760748 34.5729378,58.9609346 C34.6317216,59.8653084 33.9749108,60.5961869 33.0774784,60.6550654 C32.5719378,60.6880374 31.9715595,60.412486 31.9590189,60.2209346 C31.9558838,60.161271 31.9888027,60.1047477 32.0554243,60.1000374 C32.2215865,60.0890467 32.3446405,60.4014953 32.894073,60.3669533 C33.4803432,60.3261308 33.771127,59.8237009 33.7358568,59.2733832 C33.7107757,58.8879252 33.510127,58.5330841 33.0837486,58.5605607 C33.0045865,58.5668411 32.9026946,58.6037383 32.8235324,58.6084486 C32.7498568,58.6131589 32.7177216,58.5731215 32.7122351,58.4930467 C32.7051811,58.3894206 32.8548838,58.329757 32.9254243,58.2834393 C33.2295324,58.0856075 33.4419378,57.7472523 33.4176405,57.3672897 C33.3956946,57.0312897 33.2013162,56.7816449 32.8478297,56.8036262" id="Fill-81" fill="#FEFEFE"></path>
                    <path d="M37.8440595,56.5885234 C37.9310595,57.0210841 37.7492216,57.2448224 37.4294378,57.4505047 C37.3792757,57.4866168 37.2993297,57.5203738 37.3048162,57.5494206 C37.3087351,57.5674766 37.3863297,57.5847477 37.4310054,57.5949533 C37.9388973,57.7315514 38.3543027,58.0683364 38.4601135,58.6013832 C38.6466541,59.5457944 37.9388973,60.0034766 37.1339514,60.1620561 C36.4379514,60.3002243 35.7113838,60.0945421 35.5538432,59.2961495 C35.4723297,58.8800748 35.6220324,58.5385794 35.9418162,58.3203364 C35.9841405,58.2857944 36.0484108,58.2614579 36.0460595,58.2488972 C36.0429243,58.2316262 35.9817892,58.211215 35.9269243,58.1845234 C35.5953838,58.0204486 35.3814108,57.7503925 35.3022486,57.3523738 C35.1541135,56.6018692 35.7341135,56.0680374 36.4128703,55.9345794 C36.9411405,55.8309533 37.7163027,55.9385047 37.8440595,56.5885234 L37.8440595,56.5885234 Z M35.7764378,56.9103925 C35.8947892,57.5109533 36.8243568,57.5203738 36.9748432,57.4905421 C37.2993297,57.4253832 37.3839784,57.0980187 37.3275459,56.8091215 C37.2303568,56.3161121 36.8031946,56.1072897 36.3282216,56.2007103 C36.0225459,56.2603738 35.6941405,56.4951028 35.7764378,56.9103925 L35.7764378,56.9103925 Z M36.4026811,58.3540935 C36.3509514,58.3454579 36.2929514,58.3313271 36.250627,58.3391776 C36.1675459,58.3572336 36.0139243,58.6539813 36.0915189,59.0441495 C36.2106541,59.6517757 36.6299784,60.0128972 37.2530865,59.8904299 C37.5611135,59.8291963 38.0235459,59.5505047 37.932627,59.0873271 C37.8652216,58.7505421 37.7178703,58.6053084 37.4192486,58.5448598 L36.4026811,58.3540935 Z" id="Fill-83" fill="#FEFEFE"></path>
                    <path d="M42.558127,56.5626168 C42.4515324,56.6685981 42.3676676,56.7573084 42.3096676,56.8311028 C42.2508838,56.9048972 42.2085595,56.9708411 42.1834784,57.0297196 C42.1576135,57.0878131 42.1403703,57.1647477 42.1286135,57.2581682 C42.1168568,57.3508037 42.1105865,57.4764112 42.1098027,57.6287103 L42.0659108,57.6467664 C41.9577486,57.5376449 41.8652622,57.4536449 41.7915865,57.3947664 C41.7186946,57.3366729 41.6536405,57.2950654 41.5956405,57.2699439 C41.5345054,57.2448224 41.4592622,57.2267664 41.3659919,57.2142056 C41.2711541,57.204785 41.1488838,57.1985047 40.9983973,57.1977196 L40.9811541,57.1521869 C41.0893162,57.0469907 41.1731811,56.9582804 41.2319649,56.884486 C41.2915324,56.8099065 41.3322892,56.7439626 41.3573703,56.6842991 C41.3816676,56.6269907 41.3996946,56.5516262 41.4106676,56.4566355 C41.4224243,56.364 41.4302622,56.2383925 41.4318297,56.0853084 L41.4757216,56.0656822 C41.5831,56.1755888 41.6740189,56.2611589 41.7476946,56.3184673 C41.8205865,56.3773458 41.8872081,56.4220935 41.9459919,56.4456449 C42.0039919,56.4715514 42.0800189,56.4888224 42.174073,56.5021682 C42.2665595,56.5123738 42.3896135,56.5178692 42.5408838,56.5178692 L42.558127,56.5626168 Z" id="Fill-85" fill="#FEFEFE"></path>
                    <path d="M54.6046486,31.9584673 C54.6046486,44.6479626 44.3339459,54.9328598 31.6640811,54.9328598 C18.9957838,54.9328598 8.7242973,44.6479626 8.7242973,31.9584673 C8.7242973,19.268972 18.9957838,8.98093458 31.6640811,8.98093458 C44.3339459,8.98093458 54.6046486,19.268972 54.6046486,31.9584673" id="Fill-87" fill="#FDB813"></path>
                </g>
                <g id="Group-104" transform="translate(10.972973, 17.813495)" fill="#221F20">
                    <path d="M15.8949784,12.9642617 L15.7421405,27.2254206 C15.7421405,27.2254206 15.7280324,27.3353271 15.8103297,27.3910654 C15.8934108,27.4452336 16.2202486,27.5708411 17.313627,27.5708411 C18.4054378,27.5708411 18.734627,27.434243 18.8184919,27.384785 C18.8929514,27.3392523 18.8929514,27.2254206 18.8929514,27.2254206 L18.7714649,12.9517009 C18.6123568,12.835514 18.2275189,12.666729 17.3410595,12.666729 C16.4240324,12.666729 16.0446811,12.8472897 15.8949784,12.9642617" id="Fill-90"></path>
                    <path d="M17.3278135,8.45024299 C15.575273,8.45024299 15.1630027,9.02882243 15.1630027,9.02882243 L15.1481108,9.16699065 C15.1481108,9.16699065 15.4921919,9.20859813 15.6434622,9.55480374 C15.8511649,10.0242617 15.9068135,11.8204486 15.9068135,11.8204486 L15.9052459,11.9460561 C16.133327,11.8196636 16.5565703,11.6893458 17.3411378,11.6893458 C18.1100297,11.6893458 18.5309216,11.8133832 18.7621378,11.9382056 L18.7613541,11.7788411 C18.7613541,11.7788411 18.7205973,10.230729 19.0364622,9.55480374 C19.2104622,9.18583178 19.4934081,9.12616822 19.4934081,9.12616822 L19.5067324,8.94717757 C19.5067324,8.94717757 19.0795703,8.45024299 17.3278135,8.45024299" id="Fill-92"></path>
                    <path d="M22.5321378,12.9517009 L22.4098676,27.2246355 C22.4098676,27.2246355 22.4098676,27.3384673 22.4835432,27.384785 C22.5681919,27.434243 22.8965973,27.5708411 23.9899757,27.5708411 C25.0841378,27.5708411 25.4101919,27.4452336 25.493273,27.3910654 C25.5755703,27.3345421 25.5614622,27.2246355 25.5614622,27.2246355 L25.4094081,12.9642617 C25.2597054,12.8480748 24.8811378,12.6659439 23.9625432,12.6659439 C23.0753,12.6659439 22.6912459,12.835514 22.5321378,12.9517009" id="Fill-94"></path>
                    <path d="M26.1405216,9.02960748 C26.1405216,9.02960748 25.7274676,8.45024299 23.9764946,8.45024299 C22.2239541,8.45024299 21.7967919,8.94639252 21.7967919,8.94639252 L21.8109,9.12616822 C21.8109,9.12616822 22.0914946,9.18583178 22.2654946,9.55480374 C22.582927,10.230729 22.5413865,11.7796262 22.5413865,11.7796262 L22.5406027,11.9382056 C22.7710351,11.8133832 23.1927108,11.6885607 23.9623865,11.6885607 C24.7461703,11.6885607 25.1694135,11.8196636 25.3982784,11.9468411 L25.3967108,11.8204486 C25.3967108,11.8204486 25.4515757,10.0234766 25.6592784,9.55480374 C25.8105486,9.20938318 26.1546297,9.1677757 26.1546297,9.1677757 L26.1405216,9.02960748 Z" id="Fill-96"></path>
                    <path d="M34.973373,9.78796262 C34.973373,9.78796262 34.9671027,9.69297196 34.8754,9.69297196 L31.6368054,9.69297196 C31.5529405,9.69297196 31.5411838,9.78796262 31.5411838,9.78796262 L32.0169405,27.6493458 C32.0169405,27.6493458 32.0004811,27.7843738 32.1298054,27.7843738 L36.6929946,27.7843738 C36.8325081,27.7843738 36.8285892,27.6493458 36.8285892,27.6493458 L34.973373,9.78796262 Z M35.9452649,27.0589907 L32.6039946,27.0589907 C32.4958324,27.0589907 32.5036703,26.9365234 32.5036703,26.9365234 L32.0067514,10.3838131 C32.0067514,10.3838131 32.0302649,10.2958879 32.1015892,10.2958879 L34.3573189,10.2958879 C34.4200216,10.2958879 34.4427514,10.3720374 34.4427514,10.3720374 L36.0644,26.9153271 C36.0644,26.9153271 36.0832108,27.0589907 35.9452649,27.0589907 L35.9452649,27.0589907 Z" id="Fill-98"></path>
                    <path d="M9.36433514,27.6501308 L9.84165946,9.78796262 C9.84165946,9.78796262 9.83068649,9.69297196 9.74603784,9.69297196 L6.50901081,9.69297196 C6.41574054,9.69297196 6.41025405,9.78796262 6.41025405,9.78796262 L4.55503784,27.6501308 C4.55503784,27.6501308 4.55033514,27.7851589 4.68984865,27.7851589 L9.25225405,27.7851589 C9.38157838,27.7851589 9.36433514,27.6501308 9.36433514,27.6501308 L9.36433514,27.6501308 Z M8.87917297,26.9365234 C8.87917297,26.9365234 8.88701081,27.0582056 8.77884865,27.0582056 L5.43757838,27.0582056 C5.30041622,27.0582056 5.31922703,26.9161121 5.31922703,26.9161121 L6.93930811,10.3712523 C6.93930811,10.3712523 6.96360541,10.2951028 7.02552432,10.2951028 L9.28047027,10.2951028 C9.35336216,10.2951028 9.37609189,10.383028 9.37609189,10.383028 L8.87917297,26.9365234 Z" id="Fill-100"></path>
                    <path d="M37.8689838,5.14676636 L27.6844973,5.16246729 L27.7809027,4.44728972 L37.5515514,4.43472897 C37.5515514,4.43472897 37.5789838,3.98803738 37.5789838,3.87656075 C37.5789838,3.29484112 37.8956324,2.88190654 37.8956324,2.88190654 L39.1379297,1.29218692 L39.1379297,0.821943925 C39.1379297,0.770915888 39.1112811,0.740299065 39.0603351,0.740299065 L27.2769297,0.740299065 C27.2103081,0.740299065 27.1930649,0.775626168 27.1930649,0.809383178 L27.1930649,1.73652336 L14.1900919,1.73652336 L14.1900919,0.809383178 C14.1900919,0.775626168 14.1712811,0.740299065 14.1046595,0.740299065 L2.32047027,0.740299065 C2.27030811,0.740299065 2.24365946,0.770915888 2.24365946,0.821943925 L2.24365946,1.29218692 L3.48674054,2.88190654 C3.48674054,2.88190654 3.80260541,3.29484112 3.80260541,3.87656075 C3.80260541,3.98803738 3.83082162,4.43472897 3.83082162,4.43472897 L13.6030378,4.44728972 L13.7017946,5.16246729 L3.51338919,5.14676636 L0.237172973,29.4368972 L3.02352432,29.4368972 L5.32079459,8.81214953 L11.061227,8.81214953 L10.7916054,29.4368972 L13.0590919,29.4368972 L13.7010108,28.4540187 L13.7017946,7.54429907 L27.6844973,7.54429907 L27.6813622,28.4548037 L28.3240649,29.4368972 L30.5899838,29.4368972 L30.3211459,8.81214953 L36.0607946,8.81214953 L38.3588486,29.4368972 L41.1444162,29.4368972 L37.8689838,5.14676636 Z M11.7760378,7.09917757 C11.7760378,7.09917757 11.4241189,7.33783178 11.2791189,7.63693458 C11.1349027,7.93760748 11.1458757,8.26968224 11.1458757,8.26968224 L5.33176757,8.26968224 C5.33176757,8.26968224 5.32079459,7.90699065 5.14365946,7.62751402 C4.96809189,7.34882243 4.55503784,7.09917757 4.55503784,7.09917757 L4.55503784,6.9131215 C4.55503784,6.9131215 4.57933514,6.81970093 4.65065946,6.81970093 L5.93606486,6.81970093 C6.31306486,7.4037757 7.0412,7.79472897 8.13457838,7.79472897 C9.22795676,7.79472897 9.95530811,7.4037757 10.3323081,6.81970093 L11.6498486,6.81970093 C11.7533081,6.81970093 11.7760378,6.92254206 11.7760378,6.92254206 L11.7760378,7.09917757 Z M16.7859838,2.60164486 C16.8181189,2.57966355 17.5062811,2.85678505 18.2524432,2.83951402 C19.1475243,2.81831776 19.4140108,2.58751402 19.6507135,2.78534579 C19.8098216,2.91723364 19.6710919,3.16059813 19.6656054,3.37805607 C19.6609027,3.58452336 19.8294162,3.75801869 20.0598486,3.75252336 C20.2032811,3.74938318 20.2918486,3.66459813 20.3357405,3.60885981 C20.2205243,3.5162243 20.1492,3.37648598 20.1492,3.21790654 C20.1492,2.93842991 20.3749297,2.71233645 20.6523892,2.71233645 C20.9306324,2.71233645 21.1563622,2.93842991 21.1563622,3.21790654 C21.1563622,3.37648598 21.0826865,3.5162243 20.9690378,3.60885981 C21.0121459,3.66459813 21.1022811,3.74938318 21.2441459,3.75252336 C21.4753622,3.75801869 21.6430919,3.58452336 21.6383892,3.37805607 C21.6329027,3.16059813 21.4949568,2.91723364 21.6532811,2.78534579 C21.8907676,2.58751402 22.1556865,2.81831776 23.0539027,2.83951402 C23.7992811,2.85678505 24.4858757,2.57966355 24.5195784,2.60164486 C24.5517135,2.62441121 24.2773892,3.59943925 22.8124973,3.96605607 C21.6893351,4.24553271 20.6563081,4.24003738 20.6563081,4.24003738 L20.6492541,4.24003738 C20.6492541,4.24003738 19.6146595,4.24553271 18.4938486,3.96605607 C17.0273892,3.59943925 16.7538486,2.62441121 16.7859838,2.60164486 L16.7859838,2.60164486 Z M13.7025784,5.95457944 L27.6844973,5.95457944 L27.6844973,5.16874766 L13.7025784,5.16874766 L13.7025784,5.95457944 Z M36.8265514,7.09917757 C36.8265514,7.09917757 36.4142811,7.34882243 36.2379297,7.62751402 C36.0607946,7.90699065 36.0506054,8.26968224 36.0506054,8.26968224 L30.2357135,8.26968224 C30.2357135,8.26968224 30.2466865,7.93760748 30.1032541,7.63693458 C29.9582541,7.33783178 29.6047676,7.09917757 29.6047676,7.09917757 L29.6047676,6.92254206 C29.6047676,6.92254206 29.6290649,6.81970093 29.7325243,6.81970093 L31.0484973,6.81970093 C31.4254973,7.4037757 32.1552,7.79472897 33.2470108,7.79472897 C34.3403892,7.79472897 35.0685243,7.4037757 35.4463081,6.81970093 L36.7309297,6.81970093 C36.8030378,6.81970093 36.8265514,6.9131215 36.8265514,6.9131215 L36.8265514,7.09917757 Z" id="Fill-102"></path>
                </g>
                <g id="Group-125" transform="translate(18.027027, 12.318168)" fill="#221F20">
                    <path d="M7.98957838,3.80669159 C7.95587568,4.76601869 8.57192973,4.43943925 8.57192973,4.67024299 C8.57192973,4.69300935 8.59465946,4.76052336 8.43711892,4.76052336 C8.23568649,4.76052336 8.11811892,4.73775701 7.86182162,4.73775701 C7.58671351,4.73775701 7.39155135,4.76052336 7.3069027,4.76052336 C7.22225405,4.76052336 7.20109189,4.7157757 7.20109189,4.68123364 C7.20109189,4.47947664 7.65960541,4.61921495 7.68233514,4.03278505 L7.76071351,1.77813084 C7.7952,0.853345794 7.19560541,1.1171215 7.19560541,0.869831776 C7.19560541,0.836859813 7.22225405,0.79211215 7.26222703,0.79211215 C7.33511892,0.79211215 7.41976757,0.814878505 7.59847027,0.814878505 C7.72701081,0.814878505 7.93392973,0.79211215 8.11811892,0.79211215 C8.18082162,0.79211215 8.23568649,0.785831776 8.31563243,0.954616822 L9.54538919,3.64418692 C9.5689027,3.69521495 9.58457838,3.73446729 9.61828108,3.73446729 C9.6512,3.73446729 9.70136216,3.63398131 9.70841622,3.61592523 L11.0063622,0.903588785 C11.0228216,0.864336449 11.0384973,0.79211215 11.1458757,0.79211215 C11.2799027,0.79211215 11.3864973,0.814878505 11.4711459,0.814878505 C11.5722541,0.814878505 11.6772811,0.79211215 11.8340378,0.79211215 C11.9853081,0.79211215 11.9970649,0.814878505 11.9970649,0.858841121 C11.9970649,1.05981308 11.4484162,0.843140187 11.4711459,1.48609346 L11.5652,3.96998131 C11.5934162,4.704 12.1083622,4.45671028 12.1083622,4.66553271 C12.1083622,4.76052336 12.0362541,4.76052336 11.8395243,4.76052336 C11.6772811,4.76052336 11.5205243,4.73775701 11.3590649,4.73775701 C10.9946054,4.73775701 10.8613622,4.76052336 10.7328216,4.76052336 C10.6136865,4.76052336 10.474173,4.77700935 10.474173,4.67652336 C10.474173,4.48575701 10.9115243,4.67024299 10.8778216,4.04848598 L10.7939568,2.34964486 C10.7876865,2.18164486 10.7822,2.09842991 10.7492811,2.09842991 C10.7265514,2.09842991 10.6583622,2.20990654 10.5744973,2.39517757 L9.51795676,4.60900935 C9.48425405,4.68123364 9.46230811,4.76601869 9.37295676,4.76601869 C9.28830811,4.76601869 9.26009189,4.67024299 9.23187568,4.60900935 L8.14633514,2.19342056 C8.12987568,2.15809346 8.10714595,2.09842991 8.08598378,2.09842991 C8.04679459,2.09842991 8.04679459,2.19891589 8.04679459,2.23816822 L7.98957838,3.80669159 Z" id="Fill-105"></path>
                    <path d="M15.6783405,1.99558879 C15.683827,2.05368224 15.705773,2.18242991 15.6109351,2.18242991 C15.5215838,2.18242991 15.4831784,2.06388785 15.4432054,1.9908785 C15.1626108,1.45390654 14.6703946,0.965607477 14.0222054,0.965607477 C13.1992324,0.965607477 12.7454216,1.75065421 12.7454216,2.50115888 C12.7454216,3.29091589 13.1929622,4.40097196 14.2620432,4.40097196 C15.1296919,4.40097196 15.5113946,3.66773832 15.6556108,3.66773832 C15.683827,3.66773832 15.7332054,3.69521495 15.7332054,3.72897196 C15.7332054,3.95192523 15.1398811,4.7997757 13.9485297,4.7997757 C12.3096378,4.7997757 12.0580432,3.36549533 12.0580432,2.92115888 C12.0580432,1.97988785 12.6341243,0.741084112 14.0441514,0.741084112 C14.7213405,0.741084112 15.1524216,1.08336449 15.3209351,1.08336449 C15.4259622,1.08336449 15.4322324,0.898878505 15.5113946,0.898878505 C15.538827,0.898878505 15.5772324,0.904373832 15.5772324,0.931850467 L15.6783405,1.99558879 Z" id="Fill-107"></path>
                    <path d="M18.1963243,4.67102804 C18.1351892,4.81626168 18.106973,4.85001869 18.0458378,4.85001869 C17.9901892,4.85001869 17.932973,4.79349533 17.8310811,4.55798131 L16.4382973,1.2953271 C16.3442432,1.07943925 16.2642973,1.01663551 16.0377838,0.96011215 C16.0197568,0.955401869 15.9468649,0.920859813 15.9468649,0.881607477 C15.9468649,0.747364486 16.1208649,0.79211215 16.2039459,0.79211215 C16.3881351,0.79211215 16.5785946,0.815663551 16.7690541,0.815663551 C17.1264595,0.815663551 17.2910541,0.79211215 17.3796216,0.79211215 C17.5583243,0.79211215 17.5865405,0.785831776 17.5865405,0.881607477 C17.5865405,1.0331215 17.2502973,0.948336449 17.2502973,1.18385047 C17.2502973,1.35263551 17.323973,1.61641121 17.4634865,1.9571215 L18.1908378,3.76194393 C18.2080811,3.80119626 18.2355135,3.87891589 18.2684324,3.87891589 C18.3021351,3.87891589 18.3232973,3.80119626 18.3421081,3.76194393 L19.1078649,2.05760748 C19.2755946,1.68314019 19.2873514,1.4868785 19.2873514,1.39816822 C19.2873514,0.869831776 18.7222432,1.07943925 18.7222432,0.881607477 C18.7222432,0.775626168 18.8844865,0.79211215 18.9518919,0.79211215 C19.1141351,0.79211215 19.2716757,0.815663551 19.4331351,0.815663551 C19.5891081,0.815663551 19.7450811,0.79211215 19.9034054,0.79211215 C20.020973,0.79211215 20.0985676,0.775626168 20.0985676,0.869831776 C20.0985676,0.999364486 19.8689189,0.971102804 19.7184324,1.30160748 L18.1963243,4.67102804 Z" id="Fill-109"></path>
                    <path d="M9.60550541,36.7166355 C9.60550541,36.0666168 8.97455946,36.2801495 8.97455946,36.0721121 C8.97455946,36.0132336 9.03334324,35.9841869 9.10231622,35.9841869 C9.36958649,35.9841869 9.41504595,36.0093084 9.77950541,36.0093084 C10.1690459,36.0093084 10.5625054,35.9841869 10.9489108,35.9841869 C12.217073,35.9841869 12.333073,36.8037757 12.333073,37.0706916 C12.333073,37.4404486 12.1645595,37.6547664 11.9976135,37.7937196 C11.8291,37.9256075 11.6605865,37.9789907 11.6605865,38.0378692 C11.6605865,38.0724112 12.1528027,38.9139813 12.5697757,39.6440748 C12.6207216,39.7359252 12.7320189,39.7359252 12.7790459,39.7359252 C12.8370459,39.7359252 12.8942622,39.7013832 12.9522622,39.7013832 C13.0032081,39.7013832 13.0376946,39.7359252 13.0376946,39.7838131 C13.0376946,39.9628037 12.6575595,40.0899813 12.4255595,40.0899813 C11.9686135,40.0899813 11.782073,39.7249346 11.6025865,39.3889346 L11.1166405,38.472 C10.9841811,38.2184299 10.8799378,38.1666168 10.5907216,38.1666168 C10.2842622,38.1666168 10.3179649,38.2058692 10.3179649,38.4091963 L10.3179649,39.412486 C10.3179649,40.0326729 10.8916946,39.7955888 10.8916946,40.0028411 C10.8916946,40.0562243 10.8454514,40.0899813 10.7122081,40.0899813 C10.6126676,40.0899813 10.4574784,40.067215 10.2145054,40.067215 C9.90099189,40.067215 9.61177568,40.0899813 9.32255946,40.0899813 C9.25907297,40.0899813 9.1368027,40.1072523 9.1368027,39.9918505 C9.1368027,39.8081495 9.60550541,39.9973458 9.60550541,39.2680374 L9.60550541,36.7166355 Z M10.3179649,37.7536822 C10.3179649,37.8981308 10.5319378,37.8981308 10.7059378,37.8981308 C11.586127,37.8981308 11.6206135,37.5731215 11.6206135,37.2324112 C11.6206135,36.6624673 11.2953432,36.2330467 10.7122081,36.2330467 C10.4966676,36.2330467 10.3179649,36.2330467 10.3179649,36.5808224 L10.3179649,37.7536822 Z" id="Fill-111"></path>
                    <path d="M14.3589973,39.2962991 C14.3589973,40.0201121 14.9437,39.8018692 14.9437,40.0028411 C14.9437,40.1025421 14.8857,40.0899813 14.8049703,40.0899813 C14.3997541,40.0899813 14.1450243,40.067215 14.0180514,40.067215 C13.7860514,40.067215 13.3408622,40.0899813 13.3040243,40.0899813 C13.2875649,40.0899813 13.1825378,40.1025421 13.1825378,40.0028411 C13.1825378,39.8348411 13.6473216,39.9628037 13.6473216,39.2366355 L13.6473216,36.6868037 C13.6473216,36.0721121 13.0445919,36.3107664 13.0445919,36.0964486 C13.0445919,36.0611215 13.0681054,35.9841869 13.2068351,35.9841869 C13.2460243,35.9841869 13.5650243,36.0093084 14.004727,36.0093084 C14.0870243,36.0093084 14.497727,35.9896822 14.9084297,35.9841869 C15.6498892,35.9739813 16.3678351,36.2628785 16.3678351,37.110729 C16.3678351,37.8345421 15.8293757,38.2749533 15.1396459,38.2749533 C14.5714027,38.2749533 14.5447541,38.1305047 14.5447541,38.1077383 C14.5447541,38.0677009 14.555727,37.9970467 14.6262676,37.9970467 C14.671727,37.9970467 14.7712676,38.0315888 14.8982405,38.0315888 C15.5973757,38.0315888 15.6498892,37.3768598 15.6553757,37.2261308 C15.6608622,37.0754019 15.6091324,36.2283364 14.7117,36.2283364 C14.4507,36.2283364 14.3589973,36.3437383 14.3589973,36.6051589 L14.3589973,39.2962991 Z" id="Fill-113"></path>
                    <path d="M18.1391865,39.3716636 C18.1391865,40.084486 18.7873757,39.8175701 18.7873757,40.0028411 C18.7873757,40.067215 18.7356459,40.0891963 18.6031865,40.0891963 C18.3884297,40.0891963 18.1744568,40.067215 17.7214297,40.067215 C17.4729703,40.067215 17.2245108,40.0891963 17.0748081,40.0891963 C17.0222946,40.0891963 17.0105378,40.0491589 17.0105378,40.0201121 C17.0105378,39.8175701 17.4275108,39.9682991 17.4275108,39.4187664 L17.4275108,36.6342056 C17.4275108,36.1066542 16.7730514,36.2675888 16.7730514,36.0666168 C16.7730514,35.9669159 16.9188351,35.9841869 16.9705649,35.9841869 C17.1955108,35.9841869 17.4204568,36.0093084 17.6242405,36.0093084 C17.8319432,36.0093084 18.0419973,35.9841869 18.3711865,35.9841869 C18.5436189,35.9841869 18.5734027,35.9975327 18.5734027,36.0666168 C18.5734027,36.2628785 18.1391865,36.0548411 18.1391865,36.6051589 L18.1391865,39.3716636 Z" id="Fill-115"></path>
                    <path d="M20.9965486,2.50665421 L26.4179811,2.79476636 L20.9965486,3.0844486 C20.9965486,3.0844486 20.0850081,3.09308411 20.0850081,2.79476636 C20.0850081,2.49880374 20.9965486,2.50665421 20.9965486,2.50665421" id="Fill-117"></path>
                    <path d="M5.97211892,3.0844486 L0.55147027,2.7955514 L5.97211892,2.50665421 C5.97211892,2.50665421 6.88444324,2.49958879 6.88444324,2.7955514 C6.88444324,3.09308411 5.97211892,3.0844486 5.97211892,3.0844486" id="Fill-119"></path>
                    <path d="M19.9908757,37.7481869 L25.4123081,38.0378692 L19.9908757,38.3267664 C19.9908757,38.3267664 19.0785514,38.3354019 19.0785514,38.0378692 C19.0785514,37.7403364 19.9908757,37.7481869 19.9908757,37.7481869" id="Fill-121"></path>
                    <path d="M7.48207838,38.3267664 L2.05986216,38.0378692 L7.48207838,37.748972 C7.48207838,37.748972 8.39283514,37.7403364 8.39283514,38.0378692 C8.39283514,38.3354019 7.48207838,38.3267664 7.48207838,38.3267664" id="Fill-123"></path>
                </g>
            </g>
        </g>
    </g>
</svg>